<svg width="100" height="34" viewBox="0 0 100 34" fill="none" xmlns="http://www.w3.org/2000/svg">
<path fill-rule="evenodd" clip-rule="evenodd" d="M20.2746 7H6.19522C4.98401 7 4.00167 7.97394 4.00002 9.17642V23.1337C3.99768 23.7132 4.22791 24.2698 4.63984 24.6804C5.05178 25.091 5.61148 25.3218 6.19522 25.3218H20.2746C20.8578 25.3211 21.4167 25.0899 21.828 24.6794C22.2393 24.2688 22.4692 23.7127 22.4668 23.1337V9.17642C22.4652 7.97509 21.4846 7.00162 20.2746 7ZM11.9642 20.1965C11.9635 20.3902 11.885 20.5757 11.7462 20.7118C11.6074 20.8479 11.4197 20.9236 11.2246 20.922H8.14781C7.74539 20.9204 7.42003 20.5961 7.42003 20.1965V11.1061C7.42003 10.7066 7.74539 10.3823 8.14781 10.3806H11.2246C11.6275 10.3823 11.9537 10.7061 11.9554 11.1061L11.9642 20.1965ZM19.0646 16.0229C19.0646 16.2168 18.9864 16.4027 18.8474 16.539C18.7084 16.6753 18.5203 16.7507 18.3249 16.7484H15.2481C14.8452 16.7467 14.519 16.4229 14.5174 16.0229V11.1061C14.519 10.7061 14.8452 10.3823 15.2481 10.3806H18.3249C18.7274 10.3823 19.0527 10.7066 19.0527 11.1061L19.0646 16.0229Z" fill="url(#paint0_linear_220_3)"/>
<path d="M42.2649 8.34229V11.8845H38.0372V25.3219H33.9604V11.8845H29.7328V8.34229H42.2649Z" fill="#293856"/>
<path d="M47.454 25.3218H43.6849V12.1047H47.454V14.6365C48.17 12.8537 49.3149 11.7934 51.3533 11.9226V15.8378C48.6907 15.6322 47.454 16.2784 47.454 18.3961V25.3218Z" fill="#293856"/>
<path d="M71.9443 25.4246C69.4739 25.4246 67.9207 24.2498 67.9207 21.4713V7H71.7164V20.9543C71.7164 21.7562 72.249 22.0411 72.8998 22.0411C73.0876 22.0448 73.2754 22.036 73.4619 22.0146V25.2719C72.9655 25.392 72.4548 25.4434 71.9443 25.4246Z" fill="#293856"/>
<path d="M79.8611 25.4246C77.3908 25.4246 75.8346 24.2498 75.8346 21.4713V7H79.6303V20.9543C79.6303 21.7562 80.1658 22.0411 80.8285 22.0411C81.0153 22.0449 81.2021 22.0361 81.3877 22.0146V25.2719C80.8885 25.3931 80.3746 25.4445 79.8611 25.4246Z" fill="#293856"/>
<path d="M83.2071 18.7074C83.2071 14.6248 85.5739 11.8316 89.6507 11.8316C93.7275 11.8316 96.0439 14.616 96.0439 18.7074C96.0439 22.7989 93.7008 25.6332 89.6507 25.6332C85.6005 25.6332 83.2071 22.7636 83.2071 18.7074ZM86.9023 18.7074C86.9023 20.6959 87.7425 22.2731 89.6507 22.2731C91.5589 22.2731 92.3518 20.6959 92.3518 18.7074C92.3518 16.719 91.5382 15.1829 89.6507 15.1829C87.7632 15.1829 86.9023 16.7161 86.9023 18.7074Z" fill="#293856"/>
<path d="M56.4418 19.9028C57.4971 20.0179 58.5576 20.0797 59.6192 20.0878C62.5067 20.0878 64.9445 19.3183 64.9445 16.5427C64.9445 13.8494 62.4387 11.8257 59.424 11.8257C55.365 11.8257 52.7645 14.7481 52.7645 18.8307C52.7645 23.069 55.007 25.5862 60.0748 25.5862C61.5783 25.5983 63.071 25.3334 64.477 24.8049V21.6386C63.1753 22.0528 61.7109 22.464 60.208 22.464C58.1903 22.464 56.785 21.8061 56.4418 19.9028ZM59.3471 14.7099C60.4151 14.7099 61.273 15.4295 61.273 16.4135C61.273 17.6794 59.9269 18.0759 58.3767 18.0759C57.7169 18.0729 57.0583 18.0209 56.4063 17.9202C56.4556 17.3031 56.6339 16.7029 56.93 16.158C57.4136 15.2786 58.3379 14.7271 59.3471 14.7158V14.7099Z" fill="#293856"/>
<defs>
<linearGradient id="paint0_linear_220_3" x1="2887.6" y1="1179.6" x2="2887.6" y2="7" gradientUnits="userSpaceOnUse">
<stop stop-color="#0052CC"/>
<stop offset="1" stop-color="#2684FF"/>
</linearGradient>
</defs>
</svg>
