<svg width="100" height="34" viewBox="0 0 100 34" fill="none" xmlns="http://www.w3.org/2000/svg">
<mask id="mask0_220_3" style="mask-type:luminance" maskUnits="userSpaceOnUse" x="26" y="0" width="46" height="33">
<path d="M26 0.605164H71.9701V32.6659H26V0.605164Z" fill="white"/>
</mask>
<g mask="url(#mask0_220_3)">
<path fill-rule="evenodd" clip-rule="evenodd" d="M45.0877 4.11493C46.5716 2.57264 48.6369 1.61756 50.9185 1.61756C53.9606 1.61756 56.5972 3.30497 58.0168 5.81921C59.277 5.25676 60.642 4.96637 62.0223 4.96707C67.4982 4.96707 71.9431 9.43871 71.9431 14.9565C71.9431 20.4744 67.4982 24.946 62.0223 24.946C61.353 24.946 60.7007 24.8788 60.0618 24.7519C58.8196 26.9625 56.4451 28.4642 53.7409 28.4642C52.64 28.4664 51.5531 28.2171 50.5636 27.7353C49.3045 30.6883 46.3722 32.7638 42.9582 32.7638C39.3922 32.7638 36.3669 30.5195 35.2008 27.3641C34.6818 27.4734 34.1527 27.5284 33.6223 27.5281C29.3802 27.5281 25.9493 24.052 25.9493 19.7829C25.9493 16.9143 27.494 14.4169 29.7858 13.067C29.2996 11.9487 29.0493 10.7425 29.0506 9.52341C29.0506 4.59618 33.0561 0.613892 37.9911 0.613892C40.8811 0.613892 43.467 1.98913 45.0894 4.1237" fill="#00A1E0"/>
</g>
<path fill-rule="evenodd" clip-rule="evenodd" d="M32.6488 17.2768C32.6199 17.352 32.6591 17.3677 32.6684 17.3811C32.7548 17.4435 32.8425 17.4887 32.9304 17.5395C33.4002 17.7876 33.843 17.8601 34.3061 17.8601C35.2491 17.8601 35.8356 17.359 35.8356 16.5524V16.5365C35.8356 15.7907 35.1731 15.519 34.5545 15.325L34.4736 15.2988C34.0054 15.1473 33.6015 15.0153 33.6015 14.7082V14.6925C33.6015 14.4293 33.8381 14.2352 34.2032 14.2352C34.6088 14.2352 35.0921 14.37 35.4014 14.5406C35.4014 14.5406 35.493 14.5997 35.5263 14.5115C35.5444 14.4637 35.7021 14.0424 35.719 13.9951C35.7369 13.9457 35.7055 13.9084 35.6732 13.8891C35.3183 13.6731 34.8281 13.5263 34.3211 13.5263L34.227 13.5267C33.3634 13.5267 32.76 14.0481 32.76 14.7939V14.81C32.76 15.5963 33.4259 15.8528 34.0478 16.03L34.1479 16.061C34.6008 16.2 34.9929 16.3209 34.9929 16.6381V16.654C34.9929 16.9459 34.7377 17.1636 34.3287 17.1636C34.1697 17.1636 33.6628 17.1609 33.1136 16.8143C33.0471 16.7756 33.0093 16.7478 32.9581 16.7166C32.931 16.7002 32.8634 16.6707 32.834 16.7591L32.6481 17.2754M46.456 17.2754C46.4271 17.3507 46.4664 17.3664 46.476 17.3797C46.562 17.4421 46.6501 17.4874 46.7379 17.5382C47.2078 17.7862 47.6506 17.8588 48.1137 17.8588C49.0567 17.8588 49.6432 17.3576 49.6432 16.551V16.5352C49.6432 15.7893 48.9824 15.5177 48.3621 15.3236L48.2812 15.2974C47.813 15.1459 47.4091 15.014 47.4091 14.7069V14.6912C47.4091 14.4279 47.6457 14.2339 48.0107 14.2339C48.4164 14.2339 48.898 14.3687 49.209 14.5393C49.209 14.5393 49.3006 14.5984 49.3341 14.5101C49.352 14.4623 49.5098 14.041 49.5251 13.9938C49.5431 13.9443 49.5115 13.907 49.4794 13.8878C49.1245 13.6718 48.6344 13.525 48.1274 13.525L48.0331 13.5253C47.1694 13.5253 46.5661 14.0467 46.5661 14.7926V14.8086C46.5661 15.5949 47.232 15.8514 47.8539 16.0286L47.9538 16.0597C48.4084 16.1987 48.7988 16.3195 48.7988 16.6367V16.6526C48.7988 16.9445 48.5436 17.1622 48.1346 17.1622C47.9753 17.1622 47.467 17.1595 46.9195 16.8129C46.853 16.7743 46.8142 16.7476 46.7638 16.7152C46.7467 16.7044 46.6671 16.6734 46.6399 16.7577L46.454 17.2741M55.8846 15.6947C55.8846 16.1503 55.7995 16.5097 55.6328 16.7645C55.4665 17.0159 55.2154 17.1391 54.8655 17.1391C54.5157 17.1391 54.2655 17.0169 54.1016 16.7662C53.9365 16.5131 53.8532 16.152 53.8532 15.6964C53.8532 15.2408 53.937 14.883 54.1016 14.6316C54.2652 14.3819 54.514 14.2621 54.8655 14.2621C55.2171 14.2621 55.4672 14.383 55.6328 14.6316C55.8005 14.883 55.8846 15.2408 55.8846 15.6964M56.6722 14.851C56.5946 14.5894 56.4745 14.3599 56.3139 14.1676C56.1532 13.9752 55.9506 13.82 55.7089 13.7086C55.4689 13.5964 55.185 13.5398 54.8638 13.5398C54.5427 13.5398 54.2605 13.5967 54.0188 13.7086C53.7788 13.8206 53.5743 13.9752 53.4138 14.1676C53.2535 14.3599 53.1332 14.5894 53.0555 14.851C52.9786 15.1108 52.9395 15.3943 52.9395 15.6964C52.9395 15.9984 52.9786 16.2819 53.0555 16.5417C53.1327 16.8033 53.2532 17.0328 53.4138 17.2251C53.5745 17.4175 53.7788 17.5711 54.0188 17.6807C54.2605 17.7901 54.5444 17.8458 54.8638 17.8458C55.1833 17.8458 55.4672 17.7901 55.7072 17.6807C55.9472 17.5714 56.1517 17.4175 56.3122 17.2251C56.4726 17.0328 56.5928 16.8033 56.6705 16.5417C56.7473 16.2819 56.7863 15.9984 56.7863 15.6964C56.7863 15.396 56.7473 15.1108 56.6705 14.851M63.1435 17.0108C63.1177 16.9344 63.043 16.9633 63.043 16.9633C62.9285 17.007 62.8064 17.0475 62.6762 17.0677C62.5451 17.0883 62.399 17.0986 62.2452 17.0986C61.865 17.0986 61.5608 16.9854 61.3444 16.7611C61.1264 16.5367 61.0047 16.1756 61.0064 15.6862C61.0076 15.2408 61.1154 14.9066 61.3089 14.6502C61.4999 14.397 61.794 14.2654 62.1827 14.2654C62.5072 14.2654 62.7557 14.3031 63.0159 14.3844C63.0159 14.3844 63.0776 14.4112 63.1072 14.3301C63.1763 14.1394 63.2274 14.0027 63.3015 13.7935C63.3225 13.7336 63.2711 13.7082 63.2524 13.701C63.1503 13.6612 62.9093 13.5959 62.7268 13.5684C62.5561 13.5424 62.3583 13.5289 62.1352 13.5289C61.804 13.5289 61.5099 13.5854 61.2581 13.6974C61.0063 13.8093 60.7933 13.9641 60.6243 14.1564C60.4553 14.3488 60.3268 14.5783 60.2406 14.8398C60.1553 15.0997 60.1122 15.3849 60.1122 15.6869C60.1122 16.3382 60.288 16.8664 60.6361 17.2528C60.9843 17.6409 61.5082 17.8367 62.191 17.8367C62.5949 17.8367 63.009 17.7552 63.3064 17.6375C63.3064 17.6375 63.3632 17.6102 63.3386 17.5441L63.1442 17.0108M64.5216 15.2559C64.5593 15.0028 64.6288 14.7919 64.7379 14.6282C64.9014 14.3785 65.1503 14.2418 65.5002 14.2418C65.85 14.2418 66.0816 14.3792 66.2472 14.6282C66.357 14.7927 66.405 15.0113 66.423 15.2559L64.5132 15.2556L64.5216 15.2559ZM67.175 14.6991C67.1079 14.4477 66.9418 14.1929 66.8336 14.0764C66.6613 13.8925 66.4939 13.7626 66.3266 13.6917C66.0851 13.5892 65.8252 13.5365 65.5627 13.537C65.2298 13.537 64.9272 13.5932 64.6822 13.7074C64.4371 13.8225 64.2309 13.9791 64.0687 14.1748C63.9066 14.3706 63.7847 14.6017 63.707 14.8667C63.6293 15.1282 63.59 15.4151 63.59 15.7154C63.59 16.0225 63.6308 16.3077 63.7109 16.5659C63.7918 16.8257 63.9221 17.0535 64.0979 17.2425C64.2737 17.4332 64.4985 17.5817 64.7689 17.6863C65.0376 17.7901 65.3638 17.8439 65.7373 17.8427C66.508 17.8402 66.9136 17.6689 67.0792 17.5761C67.1088 17.5596 67.1367 17.5311 67.1019 17.4489L66.9278 16.9612C66.9011 16.8885 66.8274 16.9148 66.8274 16.9148C66.6364 16.986 66.366 17.1139 65.7322 17.1123C65.3181 17.1116 65.0122 16.9896 64.8196 16.7984C64.6235 16.6027 64.5255 16.3175 64.5103 15.9125L67.1806 15.9145C67.1806 15.9145 67.2509 15.9139 67.2582 15.8454C67.2611 15.817 67.3496 15.2986 67.1786 14.6996L67.175 14.6991ZM43.1759 15.2559C43.2136 15.0028 43.2833 14.7919 43.3923 14.6282C43.5559 14.3785 43.8046 14.2418 44.1545 14.2418C44.5043 14.2418 44.7359 14.3792 44.9015 14.6282C45.0112 14.7927 45.0592 15.0113 45.0773 15.2559L43.1675 15.2556L43.1759 15.2559ZM45.8294 14.6991C45.7624 14.4477 45.5961 14.1929 45.488 14.0764C45.3156 13.8925 45.1483 13.7626 44.9809 13.6917C44.7394 13.5892 44.4795 13.5365 44.217 13.537C43.8841 13.537 43.5816 13.5932 43.3365 13.7074C43.0914 13.8225 42.8852 13.9791 42.723 14.1748C42.5613 14.3706 42.4391 14.6017 42.3613 14.8667C42.2837 15.1282 42.2447 15.4151 42.2447 15.7154C42.2447 16.0225 42.2851 16.3077 42.3657 16.5659C42.4465 16.8257 42.577 17.0535 42.7511 17.2425C42.9268 17.4332 43.1516 17.5817 43.422 17.6863C43.6907 17.7901 44.0152 17.8439 44.3904 17.8427C45.1611 17.8402 45.5667 17.6689 45.7324 17.5761C45.7618 17.5596 45.7898 17.5311 45.7548 17.4489L45.5808 16.9612C45.5539 16.8885 45.4802 16.9148 45.4802 16.9148C45.2892 16.986 45.0188 17.1139 44.385 17.1123C43.9726 17.1116 43.665 16.9896 43.4724 16.7984C43.2763 16.6027 43.1783 16.3175 43.1631 15.9125L45.8334 15.9145C45.8334 15.9145 45.9037 15.9139 45.911 15.8454C45.9139 15.817 46.0024 15.2986 45.8312 14.6996L45.8294 14.6991ZM37.4128 16.994C37.3082 16.9106 37.2936 16.8902 37.259 16.836C37.2061 16.7545 37.179 16.6386 37.179 16.4901C37.179 16.2572 37.2568 16.0885 37.4173 15.9754C37.4157 15.9758 37.6472 15.7763 38.1914 15.7831C38.4336 15.7874 38.6753 15.808 38.9147 15.8447V17.0545H38.9151C38.9151 17.0545 38.5771 17.1273 38.1951 17.1502C37.6526 17.1828 37.4126 16.9943 37.4143 16.9948L37.4128 16.994ZM38.4741 15.1209C38.366 15.113 38.2257 15.1091 38.0584 15.1091C37.8302 15.1091 37.6088 15.1375 37.4026 15.1932C37.1948 15.2492 37.0072 15.3359 36.8466 15.4513C36.6856 15.566 36.5532 15.7161 36.4596 15.8901C36.3651 16.0656 36.3169 16.2714 36.3169 16.5043C36.3169 16.7405 36.358 16.9447 36.4391 17.1118C36.5186 17.2775 36.6383 17.4207 36.7873 17.5285C36.9355 17.6362 37.1185 17.7158 37.3298 17.7631C37.5394 17.8108 37.776 17.835 38.0362 17.835C38.31 17.835 38.5821 17.812 38.8458 17.7676C39.0703 17.729 39.2941 17.6855 39.5168 17.6374C39.6057 17.617 39.7044 17.5901 39.7044 17.5901C39.7703 17.5734 39.7652 17.5031 39.7652 17.5031L39.7637 15.0732C39.7637 14.54 39.621 14.1434 39.3395 13.8988C39.0589 13.6541 38.6482 13.5309 38.1159 13.5309C37.9164 13.5309 37.5936 13.5579 37.4009 13.5965C37.4009 13.5965 36.8196 13.7093 36.5796 13.8969C36.5796 13.8969 36.5268 13.9293 36.5556 14.0027L36.7449 14.5089C36.7684 14.5746 36.8324 14.5521 36.8324 14.5521C36.8324 14.5521 36.8525 14.5442 36.8762 14.5302C37.3883 14.2518 38.0373 14.2602 38.0373 14.2602C38.3246 14.2602 38.5477 14.3184 38.6964 14.4323C38.8419 14.5439 38.9161 14.7124 38.9161 15.0668V15.1793C38.6879 15.1463 38.4767 15.1272 38.4767 15.1272L38.4741 15.1209ZM59.9381 13.7491C59.942 13.7402 59.944 13.7306 59.944 13.7209C59.9441 13.7112 59.9422 13.7016 59.9385 13.6927C59.9347 13.6837 59.9292 13.6756 59.9223 13.6689C59.9153 13.6621 59.9071 13.6568 59.8981 13.6532C59.8526 13.636 59.626 13.5883 59.4519 13.5775C59.1173 13.5565 58.9313 13.6129 58.764 13.6878C58.5987 13.7622 58.4159 13.8819 58.3145 14.0202L58.3141 13.6963C58.3141 13.6517 58.2825 13.6158 58.2376 13.6158H57.5548C57.5105 13.6158 57.4784 13.6517 57.4784 13.6963V17.6617C57.4784 17.6831 57.487 17.7036 57.5021 17.7188C57.5173 17.7339 57.5379 17.7425 57.5593 17.7425H58.259C58.2805 17.7425 58.301 17.7339 58.3162 17.7188C58.3313 17.7036 58.3398 17.6831 58.3398 17.6617V15.6705C58.3398 15.4039 58.3692 15.139 58.4279 14.9719C58.4857 14.8067 58.5643 14.675 58.6611 14.5805C58.7535 14.4892 58.8665 14.4215 58.9907 14.383C59.1072 14.3497 59.2278 14.3327 59.349 14.3328C59.4884 14.3328 59.6413 14.3685 59.6413 14.3685C59.6927 14.3743 59.7213 14.3429 59.7387 14.2966C59.7845 14.175 59.9145 13.8107 59.9398 13.7381" fill="#FFFFFE"/>
<path fill-rule="evenodd" clip-rule="evenodd" d="M53.4031 11.9189C53.3166 11.8928 53.2286 11.872 53.1396 11.8565C53.0199 11.8365 52.8986 11.8271 52.7772 11.8285C52.2951 11.8285 51.915 11.9645 51.6481 12.2331C51.3831 12.4997 51.2028 12.9059 51.1123 13.4403L51.0797 13.6207H50.4745C50.4745 13.6207 50.4006 13.6176 50.3851 13.6981L50.2857 14.2516C50.2788 14.3046 50.3016 14.3376 50.3726 14.3373H50.9617L50.364 17.6688C50.3172 17.9371 50.2636 18.1578 50.2043 18.325C50.1458 18.49 50.0887 18.6137 50.0183 18.7035C49.9502 18.7904 49.8857 18.8543 49.7743 18.8916C49.6824 18.9225 49.5766 18.9367 49.4606 18.9367C49.3961 18.9367 49.3102 18.9259 49.2468 18.9132C49.1835 18.9007 49.1505 18.8866 49.103 18.8666C49.103 18.8666 49.0339 18.8403 49.0067 18.9095C48.9845 18.966 48.8275 19.3972 48.8089 19.4505C48.79 19.5031 48.8165 19.5446 48.85 19.5566C48.9284 19.5846 48.9867 19.6025 49.0935 19.6277C49.2419 19.6626 49.367 19.6648 49.4841 19.6648C49.7295 19.6648 49.9531 19.6304 50.1385 19.5635C50.3251 19.4962 50.4875 19.3789 50.6312 19.2202C50.7865 19.0489 50.8842 18.8695 50.9776 18.6248C51.0701 18.3824 51.1488 18.0813 51.2119 17.7305L51.8125 14.3373H52.6907C52.6907 14.3373 52.7647 14.34 52.7801 14.2598L52.8795 13.7064C52.8864 13.6534 52.8638 13.6203 52.7924 13.6207H51.9401C51.9444 13.6014 51.9831 13.3021 52.0809 13.0203C52.1227 12.9 52.2013 12.8029 52.2678 12.7363C52.33 12.6728 52.4066 12.6252 52.4911 12.5976C52.5837 12.569 52.6803 12.5551 52.7772 12.5564C52.8575 12.5564 52.9363 12.566 52.9963 12.5785C53.0789 12.5961 53.111 12.6053 53.1327 12.6118C53.2195 12.6382 53.2312 12.6126 53.2483 12.5706L53.4521 12.0117C53.473 11.9516 53.422 11.9263 53.4031 11.9189ZM41.4924 17.6758C41.4924 17.7204 41.4606 17.7567 41.416 17.7567H40.7091C40.6643 17.7567 40.6325 17.7204 40.6325 17.6758V11.9947C40.6325 11.9503 40.6643 11.9143 40.7091 11.9143H41.416C41.4606 11.9143 41.4924 11.9503 41.4924 11.9947V17.6758Z" fill="#FFFFFE"/>
</svg>
