<svg width="100" height="34" viewBox="0 0 100 34" fill="none" xmlns="http://www.w3.org/2000/svg">
<g clip-path="url(#clip0_220_3)">
<path d="M47.7077 25.8522C47.1502 25.8509 46.599 25.7353 46.0895 25.5128L34.8361 20.5857C33.8697 20.1604 33.1141 19.3758 32.7346 18.4038C32.3552 17.4318 32.3828 16.3516 32.8114 15.3996L37.822 4.33392C38.2546 3.38365 39.0525 2.64063 40.041 2.26751C41.0294 1.89438 42.128 1.92154 43.0961 2.34304L54.3495 7.27005C55.3159 7.69545 56.0715 8.48001 56.451 9.45199C56.8305 10.424 56.8028 11.5042 56.3742 12.4562L51.3636 23.5219C51.0478 24.2157 50.5346 24.8049 49.8859 25.2184C49.2372 25.6318 48.4808 25.852 47.7077 25.8522ZM47.0248 23.4379C47.4333 23.615 47.8964 23.6263 48.3134 23.4695C48.7304 23.3127 49.0676 23.0003 49.2517 22.6003L54.2623 11.5346C54.4424 11.1329 54.4539 10.6775 54.2944 10.2675C54.1349 9.85746 53.8173 9.52589 53.4105 9.34487L42.1515 4.41786C41.743 4.2408 41.2799 4.22946 40.8629 4.3863C40.4459 4.54314 40.1087 4.8555 39.9246 5.25546L34.914 16.3211C34.734 16.7229 34.7224 17.1783 34.8819 17.5883C35.0414 17.9983 35.3591 18.3299 35.7658 18.5109L47.0248 23.4379Z" fill="#089949"/>
<path d="M83.0064 25.8577H70.684C69.6248 25.8558 68.6096 25.4409 67.861 24.7041C67.1124 23.9672 66.6914 22.9686 66.6904 21.927V9.81024C66.6919 8.76869 67.1133 7.77022 67.8623 7.03374C68.6113 6.29725 69.6267 5.88286 70.6859 5.88141H83.0082C84.0675 5.88286 85.0829 6.29725 85.8318 7.03374C86.5808 7.77022 87.0022 8.76869 87.0037 9.81024V21.927C87.0027 22.9692 86.5813 23.9684 85.8318 24.7054C85.0824 25.4423 84.0662 25.8567 83.0064 25.8577ZM70.684 8.15696C70.2365 8.15792 69.8075 8.33318 69.491 8.64439C69.1745 8.9556 68.9963 9.37742 68.9953 9.81754V21.927C68.9963 22.3671 69.1745 22.789 69.491 23.1002C69.8075 23.4114 70.2365 23.5867 70.684 23.5876H83.0064C83.454 23.5867 83.8829 23.4114 84.1994 23.1002C84.5159 22.789 84.6942 22.3671 84.6951 21.927V9.81024C84.6942 9.37012 84.5159 8.94831 84.1994 8.6371C83.8829 8.32588 83.454 8.15062 83.0064 8.14966L70.684 8.15696Z" fill="#F9B21D"/>
<path d="M36.8626 12.0347L35.2035 15.6843C35.1831 15.7263 35.1609 15.761 35.1404 15.7956L35.7881 19.7245C35.8594 20.158 35.7529 20.6017 35.4919 20.9581C35.231 21.3146 34.837 21.5547 34.3963 21.6259L22.228 23.5693C21.7861 23.6387 21.3342 23.5345 20.9698 23.2792C20.7897 23.1529 20.6371 22.9924 20.5211 22.8071C20.4051 22.6219 20.328 22.4157 20.2943 22.2007L18.3234 10.2299C18.2529 9.79543 18.3589 9.35108 18.6185 8.9927C18.747 8.81561 18.9102 8.6656 19.0986 8.55152C19.2869 8.43744 19.4966 8.3616 19.7153 8.32847L31.8817 6.39234C31.9701 6.37905 32.0595 6.37235 32.1489 6.37227C32.5506 6.37311 32.9389 6.51405 33.2447 6.77002C33.5505 7.02598 33.7541 7.38037 33.8191 7.77008L34.4724 11.7263L36.189 7.94343L36.098 7.41059C35.9281 6.38319 35.3506 5.46403 34.4923 4.85475C33.6341 4.24547 32.5651 3.99583 31.5198 4.16059L19.3534 6.09672C18.8355 6.17386 18.3387 6.35252 17.8924 6.62211C17.4461 6.89169 17.0594 7.2467 16.7553 7.66606C16.4478 8.08296 16.2274 8.55561 16.1066 9.05674C15.9859 9.55786 15.9673 10.0775 16.052 10.5858L18.0209 22.5493C18.1031 23.0582 18.2871 23.5461 18.5623 23.9846C18.8376 24.4231 19.1985 24.8036 19.6243 25.104C20.2997 25.589 21.1152 25.8486 21.9515 25.8449C22.1684 25.8455 22.3849 25.829 22.5991 25.7956L34.7656 23.8595C35.8078 23.6927 36.7405 23.1271 37.3601 22.2864C37.9797 21.4457 38.2358 20.3981 38.0726 19.3723L36.8626 12.0347Z" fill="#E42527"/>
<path d="M51.4564 17.7463L53.2435 13.812L52.7369 10.1624C52.7077 9.94669 52.722 9.72744 52.7791 9.51719C52.8361 9.30694 52.9348 9.10982 53.0694 8.9371C53.204 8.76439 53.372 8.61947 53.5636 8.51065C53.7552 8.40183 53.9668 8.33123 54.1862 8.30291L66.3954 6.67152C66.4733 6.67152 66.5494 6.65692 66.6273 6.65692C66.996 6.6581 67.3543 6.77724 67.648 6.99634C67.7037 7.03831 67.7538 7.08575 67.802 7.12772C68.3528 6.55844 69.0634 6.16331 69.8434 5.99269C69.616 5.68525 69.3433 5.4128 69.0343 5.18429C68.6189 4.87042 68.1446 4.64033 67.6385 4.50724C67.1325 4.37415 66.6047 4.34068 66.0855 4.40875L53.8615 6.04013C53.3415 6.10701 52.8403 6.27545 52.3874 6.53556C51.9345 6.79566 51.5391 7.14218 51.2244 7.55473C50.9058 7.96439 50.6728 8.43197 50.5387 8.93055C50.4046 9.42913 50.3721 9.94887 50.4432 10.4598L51.4564 17.7463Z" fill="#226DB4"/>
<path d="M72.2317 19.7719L70.6284 8.15326C70.1926 8.16838 69.7799 8.34917 69.477 8.65755C69.1741 8.96592 69.0048 9.37783 69.0046 9.80654V13.2153L69.9547 20.0748C69.9839 20.2905 69.9696 20.5097 69.9125 20.72C69.8555 20.9302 69.7568 21.1274 69.6222 21.3001C69.4876 21.4728 69.3196 21.6177 69.128 21.7265C68.9364 21.8354 68.7248 21.906 68.5054 21.9343L56.2944 23.5693C56.075 23.598 55.852 23.584 55.6382 23.5278C55.4244 23.4717 55.2239 23.3747 55.0483 23.2423C54.8727 23.11 54.7253 22.9448 54.6146 22.7564C54.5039 22.5679 54.4322 22.3599 54.4033 22.1441L53.8466 18.0711L52.0576 22.0073L52.1207 22.4507C52.252 23.3905 52.7244 24.2519 53.4509 24.8761C54.1773 25.5002 55.1088 25.8449 56.0735 25.8467C56.2596 25.8458 56.4455 25.8342 56.6303 25.812L68.8246 24.1934C69.3446 24.1265 69.8458 23.9581 70.2986 23.698C70.7515 23.4379 71.1469 23.0914 71.4616 22.6788C71.7785 22.2681 72.0097 21.7998 72.1419 21.301C72.274 20.8021 72.3046 20.2824 72.2317 19.7719Z" fill="#226DB4"/>
<path d="M37.7849 31.5986L39.5293 29.0675H38.0948C38.0574 29.0675 38.0216 29.0529 37.9951 29.0269C37.9687 29.0009 37.9538 28.9656 37.9538 28.9288V28.5894C37.9538 28.5527 37.9687 28.5174 37.9951 28.4914C38.0216 28.4654 38.0574 28.4507 38.0948 28.4507H40.4517C40.4891 28.4507 40.5249 28.4654 40.5514 28.4914C40.5778 28.5174 40.5927 28.5527 40.5927 28.5894V28.7208C40.5936 28.7478 40.5865 28.7744 40.5723 28.7975L38.8631 31.3285H40.396C40.4334 31.3285 40.4693 31.3431 40.4957 31.3691C40.5222 31.3951 40.537 31.4304 40.537 31.4672V31.8066C40.537 31.8434 40.5222 31.8786 40.4957 31.9047C40.4693 31.9307 40.4334 31.9453 40.396 31.9453H37.9037C37.8663 31.9453 37.8304 31.9307 37.804 31.9047C37.7775 31.8786 37.7626 31.8434 37.7626 31.8066V31.6825C37.7602 31.6678 37.761 31.6527 37.7648 31.6382C37.7686 31.6238 37.7755 31.6103 37.7849 31.5986Z" fill="black"/>
<path d="M45.1264 30.1807C45.1191 29.9433 45.1615 29.7069 45.2509 29.4863C45.3404 29.2657 45.475 29.0655 45.6464 28.8982C45.8178 28.7308 46.0223 28.5999 46.2473 28.5135C46.4723 28.4271 46.7129 28.3871 46.9543 28.396C48.0436 28.396 48.7822 29.1259 48.7822 30.1879C48.7945 30.4291 48.7552 30.6701 48.6669 30.8954C48.5786 31.1207 48.4433 31.3253 48.2697 31.496C48.0961 31.6667 47.888 31.7998 47.6589 31.8866C47.4297 31.9734 47.1847 32.012 46.9394 32C45.8445 32 45.1264 31.2591 45.1264 30.1807ZM47.9471 30.1952C47.9471 29.5657 47.6372 29.0274 46.9413 29.0274C46.2454 29.0274 45.9707 29.5876 45.9707 30.2244C45.9707 30.8266 46.3011 31.3796 46.9766 31.3796C47.6521 31.3796 47.9471 30.7828 47.9471 30.1952Z" fill="black"/>
<path d="M53.7835 28.4526H54.3031C54.3405 28.4526 54.3764 28.4672 54.4029 28.4932C54.4293 28.5192 54.4442 28.5545 54.4442 28.5913V29.8686H55.9288V28.5913C55.9288 28.5545 55.9436 28.5192 55.9701 28.4932C55.9965 28.4672 56.0324 28.4526 56.0698 28.4526H56.5894C56.6268 28.4526 56.6627 28.4672 56.6892 28.4932C56.7156 28.5192 56.7305 28.5545 56.7305 28.5913V31.8066C56.7305 31.8434 56.7156 31.8786 56.6892 31.9047C56.6627 31.9307 56.6268 31.9453 56.5894 31.9453H56.0754C56.038 31.9453 56.0021 31.9307 55.9757 31.9047C55.9492 31.8786 55.9344 31.8434 55.9344 31.8066V30.5037H54.4497V31.8029C54.4497 31.8397 54.4349 31.875 54.4084 31.901C54.382 31.927 54.3461 31.9416 54.3087 31.9416H53.7891C53.7517 31.9416 53.7158 31.927 53.6893 31.901C53.6629 31.875 53.648 31.8397 53.648 31.8029V28.5894C53.647 28.5715 53.6498 28.5536 53.6562 28.5367C53.6625 28.5199 53.6724 28.5046 53.6852 28.4917C53.6979 28.4788 53.7132 28.4687 53.7302 28.462C53.7471 28.4552 53.7653 28.452 53.7835 28.4526Z" fill="black"/>
<path d="M61.5833 30.1807C61.5761 29.9433 61.6184 29.7069 61.7079 29.4863C61.7974 29.2657 61.932 29.0655 62.1034 28.8982C62.2748 28.7308 62.4793 28.5999 62.7043 28.5135C62.9293 28.4271 63.1699 28.3871 63.4113 28.396C64.5006 28.396 65.2392 29.1259 65.2392 30.1879C65.2514 30.4291 65.2122 30.6701 65.1239 30.8954C65.0356 31.1207 64.9003 31.3253 64.7267 31.496C64.553 31.6667 64.345 31.7998 64.1158 31.8866C63.8867 31.9734 63.6417 32.012 63.3964 32C62.3015 32 61.5833 31.2591 61.5833 30.1807ZM64.3967 30.1952C64.3967 29.5657 64.0868 29.0274 63.3909 29.0274C62.6949 29.0274 62.4203 29.5876 62.4203 30.2244C62.4203 30.8266 62.7506 31.3796 63.4261 31.3796C64.1016 31.3796 64.3967 30.7828 64.3967 30.1952Z" fill="black"/>
</g>
<defs>
<clipPath id="clip0_220_3">
<rect width="71" height="30" fill="white" transform="translate(16 2)"/>
</clipPath>
</defs>
</svg>
