<svg width="100" height="34" viewBox="0 0 100 34" fill="none" xmlns="http://www.w3.org/2000/svg">
<mask id="mask0_222_19" style="mask-type:luminance" maskUnits="userSpaceOnUse" x="-1" y="0" width="102" height="34">
<path d="M100.689 0.169556H-0.24234V34H100.689V0.169556Z" fill="white"/>
</mask>
<g mask="url(#mask0_222_19)">
<path d="M16.8912 11.9007C15.302 11.9007 14.3806 12.6222 13.9399 13.1032C13.8865 12.6756 13.606 12.1278 12.511 12.1278H10.1206V14.613H11.0954C11.2557 14.613 11.3091 14.6664 11.3091 14.8268V26.1971H14.1402V21.9483V21.6276C14.5809 22.0284 15.4222 22.5896 16.7443 22.5896C19.5086 22.5896 21.445 20.3984 21.445 17.2451C21.4584 14.0518 19.6155 11.9007 16.8912 11.9007ZM16.317 20.1178C14.7946 20.1178 14.1001 18.6614 14.1001 17.2986C14.1001 15.1608 15.262 14.3992 16.357 14.3992C17.6924 14.3992 18.6005 15.5483 18.6005 17.2718C18.5872 19.2493 17.4387 20.1178 16.317 20.1178Z" fill="#203232"/>
</g>
<mask id="mask1_222_19" style="mask-type:luminance" maskUnits="userSpaceOnUse" x="-1" y="0" width="102" height="34">
<path d="M100.689 0.169556H-0.24234V34H100.689V0.169556Z" fill="white"/>
</mask>
<g mask="url(#mask1_222_19)">
<path d="M25.2643 19.6768V13.651C25.2643 12.6355 24.7702 12.1411 23.7686 12.1411H21.2313V14.6263H22.2062C22.3664 14.6263 22.4199 14.6798 22.4199 14.8401V20.8393C22.4199 21.8681 22.9006 22.3491 23.9155 22.3491H26.4528V19.8773H25.478C25.3311 19.8906 25.2643 19.8238 25.2643 19.6768Z" fill="#203232"/>
</g>
<mask id="mask2_222_19" style="mask-type:luminance" maskUnits="userSpaceOnUse" x="-1" y="0" width="102" height="34">
<path d="M100.689 0.169556H-0.24234V34H100.689V0.169556Z" fill="white"/>
</mask>
<g mask="url(#mask2_222_19)">
<path d="M32.6626 11.9007C31.0734 11.9007 30.152 12.6222 29.6979 13.1032C29.6445 12.6756 29.3641 12.1278 28.269 12.1278H25.892V14.613H26.8668C27.0271 14.613 27.0805 14.6664 27.0805 14.8268V26.1971H29.9383V21.9483V21.6276C30.379 22.0284 31.2337 22.5896 32.5424 22.5896C35.3067 22.5896 37.2431 20.3984 37.2431 17.2451C37.2431 14.0518 35.4002 11.9007 32.6626 11.9007ZM32.0884 20.1178C30.566 20.1178 29.8715 18.6614 29.8715 17.2986C29.8715 15.1608 31.0334 14.3992 32.1284 14.3992C33.4638 14.3992 34.3719 15.5483 34.3719 17.2718C34.3719 19.2493 33.2235 20.1178 32.0884 20.1178Z" fill="#203232"/>
</g>
<mask id="mask3_222_19" style="mask-type:luminance" maskUnits="userSpaceOnUse" x="-1" y="0" width="102" height="34">
<path d="M100.689 0.169556H-0.24234V34H100.689V0.169556Z" fill="white"/>
</mask>
<g mask="url(#mask3_222_19)">
<path d="M42.5715 11.9007C39.5133 11.9007 37.39 14.1053 37.39 17.2451C37.39 20.3449 39.687 22.5896 42.8653 22.5896C45.3625 22.5896 46.8849 21.1065 46.9517 21.0531L47.0719 20.9462L45.8433 18.9019L45.6563 19.0756C45.643 19.089 44.5212 20.1178 43.0389 20.1178C41.6233 20.1178 40.5817 19.2493 40.328 17.8865H47.0452L47.0585 17.6994C47.0585 17.6727 47.1253 17.0714 47.1253 16.7775C47.1253 13.8648 45.2957 11.9007 42.5715 11.9007ZM40.4348 15.7754C40.7419 14.7733 41.5165 14.1988 42.5715 14.1988C43.4262 14.1988 44.0805 14.8535 44.2007 15.7754H40.4348Z" fill="#203232"/>
</g>
<mask id="mask4_222_19" style="mask-type:luminance" maskUnits="userSpaceOnUse" x="-1" y="0" width="102" height="34">
<path d="M100.689 0.169556H-0.24234V34H100.689V0.169556Z" fill="white"/>
</mask>
<g mask="url(#mask4_222_19)">
<path d="M57.4348 19.6769V9.80296C57.4348 8.78751 56.9407 8.29315 55.9257 8.29315H53.3884V10.7783H54.3633C54.5235 10.7783 54.577 10.8318 54.577 10.9921V12.7825C54.163 12.4084 53.3484 11.914 51.9328 11.914C49.1818 11.914 47.2588 14.1186 47.2588 17.2585C47.2588 20.4518 49.1017 22.6029 51.826 22.6029C53.3884 22.6029 54.2965 21.8814 54.7372 21.3737C54.7906 21.8146 55.0844 22.3758 56.1394 22.3758H58.5966V19.904H57.6484C57.4882 19.8906 57.4348 19.8238 57.4348 19.6769ZM52.3735 20.1178C51.0247 20.1178 50.1567 18.9954 50.1567 17.2451C50.1567 15.5483 51.0648 14.4126 52.4136 14.4126C53.9493 14.4126 54.6304 15.8288 54.6304 17.2318C54.6304 19.3695 53.4686 20.1178 52.3735 20.1178Z" fill="#203232"/>
</g>
<mask id="mask5_222_19" style="mask-type:luminance" maskUnits="userSpaceOnUse" x="-1" y="0" width="102" height="34">
<path d="M100.689 0.169556H-0.24234V34H100.689V0.169556Z" fill="white"/>
</mask>
<g mask="url(#mask5_222_19)">
<path d="M64.9132 11.9942C63.738 11.9942 62.643 12.6756 62.002 13.7578V13.5307C62.002 12.6088 61.4945 12.1278 60.4929 12.1278H58.0624V14.613H59.0373C59.1976 14.613 59.251 14.6664 59.251 14.8267V22.3491H62.0821V18.2606C62.0821 17.7261 62.1488 17.205 62.2824 16.724C62.7097 15.3077 63.8448 14.8134 64.7529 14.8134C65.0734 14.8134 65.3138 14.8535 65.3138 14.8535L65.5542 14.8935V12.0743L65.3806 12.0476C65.3806 12.0343 65.1402 11.9942 64.9132 11.9942Z" fill="#203232"/>
</g>
<mask id="mask6_222_19" style="mask-type:luminance" maskUnits="userSpaceOnUse" x="-1" y="0" width="102" height="34">
<path d="M100.689 0.169556H-0.24234V34H100.689V0.169556Z" fill="white"/>
</mask>
<g mask="url(#mask6_222_19)">
<path d="M69.5872 19.6768V13.651C69.5872 12.6355 69.0931 12.1411 68.0915 12.1411H65.7946V14.6263H66.529C66.6893 14.6263 66.7427 14.6798 66.7427 14.8401V20.8393C66.7427 21.8681 67.2235 22.3491 68.2384 22.3491H70.7757V19.8773H69.8008C69.6539 19.8906 69.5872 19.8238 69.5872 19.6768Z" fill="#203232"/>
</g>
<mask id="mask7_222_19" style="mask-type:luminance" maskUnits="userSpaceOnUse" x="-1" y="0" width="102" height="34">
<path d="M100.689 0.169556H-0.24234V34H100.689V0.169556Z" fill="white"/>
</mask>
<g mask="url(#mask7_222_19)">
<path d="M80.284 12.1411H78.7749C77.8935 12.1411 77.4128 12.4485 77.1324 13.1967L75.2895 18.3541C75.2227 18.5411 75.1693 18.7549 75.1159 18.9687C75.0624 18.7683 74.9957 18.5411 74.9289 18.3541L73.086 13.1967C72.8056 12.4351 72.3515 12.1411 71.4434 12.1411H69.8409V14.6263H70.2549C70.4819 14.6263 70.5487 14.7065 70.6021 14.8401L73.4599 22.3624H76.6516L79.5094 14.8401C79.5628 14.7065 79.6296 14.6263 79.8566 14.6263H80.2973V12.1411H80.284Z" fill="#203232"/>
</g>
<mask id="mask8_222_19" style="mask-type:luminance" maskUnits="userSpaceOnUse" x="-1" y="0" width="102" height="34">
<path d="M100.689 0.169556H-0.24234V34H100.689V0.169556Z" fill="white"/>
</mask>
<g mask="url(#mask8_222_19)">
<path d="M85.1716 11.9007C82.1135 11.9007 79.9902 14.1053 79.9902 17.2451C79.9902 20.3449 82.2871 22.5896 85.4654 22.5896C87.9627 22.5896 89.4851 21.1065 89.5518 21.0531L89.672 20.9462L88.4434 18.9019L88.2565 19.0756C88.2431 19.089 87.1213 20.1178 85.6524 20.1178C84.2368 20.1178 83.1952 19.2493 82.9415 17.8865H89.6587L89.672 17.6994C89.672 17.6727 89.7254 17.0714 89.7254 16.7775C89.7254 13.8648 87.8959 11.9007 85.1716 11.9007ZM83.0349 15.7754C83.3421 14.7733 84.1166 14.1988 85.1716 14.1988C86.0263 14.1988 86.6807 14.8535 86.8008 15.7754H83.0349Z" fill="#203232"/>
</g>
<mask id="mask9_222_19" style="mask-type:luminance" maskUnits="userSpaceOnUse" x="-1" y="0" width="102" height="34">
<path d="M100.689 0.169556H-0.24234V34H100.689V0.169556Z" fill="white"/>
</mask>
<g mask="url(#mask9_222_19)">
<path d="M25.064 8.27979H22.5401V10.9387H25.064V8.27979Z" fill="#203232"/>
</g>
<mask id="mask10_222_19" style="mask-type:luminance" maskUnits="userSpaceOnUse" x="-1" y="0" width="102" height="34">
<path d="M100.689 0.169556H-0.24234V34H100.689V0.169556Z" fill="white"/>
</mask>
<g mask="url(#mask10_222_19)">
<path d="M69.4002 8.27979H66.8763V10.9387H69.4002V8.27979Z" fill="#203232"/>
</g>
<mask id="mask11_222_19" style="mask-type:luminance" maskUnits="userSpaceOnUse" x="-1" y="0" width="102" height="34">
<path d="M100.689 0.169556H-0.24234V34H100.689V0.169556Z" fill="white"/>
</mask>
<g mask="url(#mask11_222_19)">
<path d="M89.672 12.1412H90.0459V13.1566H90.3264V12.1412H90.7003V11.9007H89.672V12.1412Z" fill="#203232"/>
</g>
<mask id="mask12_222_19" style="mask-type:luminance" maskUnits="userSpaceOnUse" x="-1" y="0" width="102" height="34">
<path d="M100.689 0.169556H-0.24234V34H100.689V0.169556Z" fill="white"/>
</mask>
<g mask="url(#mask12_222_19)">
<path d="M91.8087 11.9007L91.5283 12.7691L91.2345 11.9007H90.8472V13.1566H91.1009V12.2748H91.1143L91.4214 13.1566H91.6351L91.9422 12.2748V13.1566H92.196V11.9007H91.8087Z" fill="#203232"/>
</g>
</svg>
