<svg width="100" height="34" viewBox="0 0 100 34" fill="none" xmlns="http://www.w3.org/2000/svg">
<path d="M1.98661 20.8429C1.26448 20.8429 0.600912 20.4721 0.24961 19.8475C-0.101693 19.2425 -0.0821759 18.5009 0.30816 17.9154L3.89925 12.4311C4.27007 11.8261 4.95316 11.4748 5.67528 11.4943C6.3974 11.5139 7.06098 11.9042 7.39276 12.5287C7.72455 13.1533 7.68551 13.8949 7.29518 14.4609L3.68457 19.9451C3.31375 20.4916 2.66969 20.8429 1.98661 20.8429Z" fill="#FB275D"/>
<path d="M8.09534 20.8429C7.37322 20.8429 6.70965 20.4721 6.35834 19.8671C6.00704 19.2621 6.02656 18.5204 6.41689 17.9349L10.008 12.4507C10.3788 11.8457 11.0424 11.4749 11.784 11.4944C12.5257 11.5139 13.1697 11.9042 13.5015 12.5288C13.8333 13.1533 13.7942 13.895 13.3649 14.4805L9.77378 19.9452C9.42248 20.4916 8.77843 20.8429 8.09534 20.8429Z" fill="#FFCC00"/>
<path d="M14.0675 20.8429C15.1605 20.8429 16.0582 19.9451 16.0582 18.8522C16.0582 17.7592 15.1605 16.8615 14.0675 16.8615C12.9746 16.8615 12.0768 17.7592 12.0768 18.8522C12.0768 19.9646 12.9551 20.8429 14.0675 20.8429Z" fill="#00CA72"/>
<path d="M30.5006 11.9823C31.5936 11.9823 32.4523 12.3141 33.0964 12.9776C33.7404 13.6412 34.0722 14.5585 34.0722 15.7295V20.8429H31.3984V16.0808C31.3984 15.5148 31.2423 15.0854 30.9495 14.7732C30.6568 14.4609 30.2469 14.3048 29.72 14.3048C29.193 14.3048 28.7832 14.4609 28.4709 14.7732C28.1781 15.0854 28.0415 15.5148 28.0415 16.0808V20.8429H25.3677V16.0808C25.3677 15.5148 25.2116 15.0854 24.9188 14.7732C24.6261 14.4609 24.2162 14.3048 23.6893 14.3048C23.1623 14.3048 22.7525 14.4609 22.4402 14.7732C22.1474 15.0854 22.0108 15.5148 22.0108 16.0808V20.8429H19.3175V12.0799H22.0108V13.1728C22.2841 12.802 22.6354 12.5092 23.0842 12.3141C23.5136 12.0994 24.0211 11.9823 24.5675 11.9823C25.2311 11.9823 25.8166 12.1189 26.324 12.4116C26.851 12.6849 27.2608 13.0947 27.5536 13.6217C27.8659 13.1338 28.2757 12.7434 28.8027 12.4507C29.3101 12.1384 29.8761 11.9823 30.5006 11.9823Z" fill="#333333"/>
<path d="M39.4589 20.96C38.6001 20.96 37.8195 20.7843 37.1364 20.4135C36.4533 20.0427 35.9263 19.5158 35.5165 18.8522C35.1261 18.1691 34.931 17.3689 34.931 16.4711C34.931 15.5734 35.1261 14.7732 35.536 14.1096C35.9263 13.4265 36.4728 12.8996 37.1754 12.5287C37.8585 12.1579 38.6392 11.9823 39.4979 11.9823C40.3566 11.9823 41.1373 12.1579 41.8204 12.5287C42.5035 12.8996 43.05 13.4265 43.4598 14.1096C43.8501 14.7927 44.0648 15.5734 44.0648 16.4711C44.0648 17.3689 43.8501 18.1691 43.4598 18.8522C43.0695 19.5353 42.5035 20.0622 41.8204 20.4135C41.0983 20.7843 40.3176 20.96 39.4589 20.96ZM39.4589 18.6375C39.9663 18.6375 40.4152 18.4423 40.7665 18.0715C41.1373 17.7007 41.313 17.1542 41.313 16.4516C41.313 15.749 41.1373 15.2221 40.786 14.8317C40.4347 14.4609 40.0053 14.2657 39.4979 14.2657C38.9709 14.2657 38.5416 14.4609 38.1903 14.8317C37.839 15.2025 37.6828 15.7295 37.6828 16.4516C37.6828 17.1542 37.8585 17.6812 38.1903 18.0715C38.5221 18.4423 38.9514 18.6375 39.4589 18.6375Z" fill="#333333"/>
<path d="M50.3298 11.9823C51.3641 11.9823 52.1643 12.3141 52.7694 12.9776C53.3939 13.6412 53.7062 14.539 53.7062 15.71V20.8234H51.0324V16.0808C51.0324 15.4953 50.8762 15.0464 50.5835 14.7146C50.2712 14.3828 49.8809 14.2267 49.3539 14.2267C48.8465 14.2267 48.4366 14.3828 48.1244 14.7146C47.8121 15.0464 47.6755 15.4953 47.6755 16.0808V20.8429H44.9821V12.0799H47.6755V13.2313C47.9487 12.841 48.3195 12.5483 48.7684 12.3141C49.2368 12.0994 49.7638 11.9823 50.3298 11.9823Z" fill="#333333"/>
<path d="M54.5649 16.4321C54.5649 15.5343 54.7405 14.7341 55.0723 14.0706C55.4236 13.3875 55.892 12.8605 56.4775 12.5092C57.063 12.1384 57.7266 11.9628 58.4292 11.9628C59.0147 11.9628 59.5221 12.0799 59.9906 12.3336C60.4785 12.5678 60.8493 12.8996 61.1225 13.3094V9.23041H63.8158V20.8429H61.1225V19.5938C60.8688 20.0037 60.5175 20.355 60.0491 20.6087C59.5807 20.8624 59.0537 20.9795 58.4292 20.9795C57.7071 20.9795 57.063 20.8039 56.4775 20.4331C55.892 20.0622 55.4236 19.5353 55.0723 18.8522C54.7405 18.1301 54.5649 17.3299 54.5649 16.4321ZM61.1225 16.4516C61.1225 15.7881 60.9274 15.2611 60.5565 14.8708C60.1857 14.4804 59.7368 14.2853 59.2099 14.2853C58.6829 14.2853 58.2145 14.4804 57.8437 14.8708C57.4729 15.2416 57.2972 15.7685 57.2972 16.4321C57.2972 17.0957 57.4729 17.6422 57.8437 18.0325C58.2145 18.4228 58.6829 18.618 59.2099 18.618C59.7368 18.618 60.1857 18.4228 60.5565 18.0325C60.9469 17.6422 61.1225 17.1347 61.1225 16.4516Z" fill="#333333"/>
<path d="M64.7527 16.4321C64.7527 15.5343 64.9283 14.7342 65.2601 14.0706C65.6114 13.3875 66.0798 12.8605 66.6653 12.5092C67.2508 12.1384 67.9144 11.9628 68.617 11.9628C69.2415 11.9628 69.7685 12.0799 70.2369 12.3336C70.7053 12.5873 71.0761 12.9191 71.3103 13.3289V12.0799H74.0036V20.8429H71.3103V19.6134C71.0566 20.0232 70.6858 20.355 70.2174 20.6087C69.749 20.8624 69.222 20.9795 68.5975 20.9795C67.8949 20.9795 67.2313 20.8039 66.6458 20.4331C66.0603 20.0622 65.5919 19.5353 65.2406 18.8522C64.9088 18.1301 64.7527 17.3299 64.7527 16.4321ZM71.3103 16.4516C71.3103 15.7881 71.1151 15.2611 70.7443 14.8708C70.3735 14.4804 69.9246 14.2853 69.3977 14.2853C68.8707 14.2853 68.4023 14.4804 68.0315 14.8708C67.6607 15.2416 67.485 15.7685 67.485 16.4321C67.485 17.0957 67.6607 17.6422 68.0315 18.0325C68.4023 18.4228 68.8707 18.618 69.3977 18.618C69.9246 18.618 70.3735 18.4228 70.7443 18.0325C71.1151 17.6422 71.3103 17.1347 71.3103 16.4516Z" fill="#333333"/>
<path d="M84.4061 12.0798L78.9219 25H76.0334L78.0436 20.5501L74.472 12.0798H77.4776L79.5074 17.5446L81.5176 12.0603L84.4061 12.0798Z" fill="#333333"/>
<path d="M82.7862 20.9405C82.552 20.9405 82.3568 20.8624 82.1812 20.7258C82.025 20.5697 81.947 20.394 81.947 20.1598C81.947 19.9451 82.025 19.75 82.1812 19.6134C82.3373 19.4572 82.5325 19.3792 82.7862 19.3792C83.0204 19.3792 83.2156 19.4572 83.3717 19.6134C83.5278 19.75 83.6059 19.9451 83.6059 20.1598C83.6059 20.3745 83.5278 20.5697 83.3717 20.7258C83.2156 20.8624 83.0204 20.9405 82.7862 20.9405Z" fill="#333333"/>
<path d="M84.7184 18.9107C84.7184 18.5009 84.7964 18.1496 84.9721 17.8373C85.1477 17.525 85.3624 17.2908 85.6552 17.1347C85.9479 16.959 86.2797 16.881 86.67 16.881C87.158 16.881 87.5678 16.9981 87.8801 17.2518C88.1923 17.486 88.4265 17.8373 88.5241 18.2667H87.4507C87.3922 18.091 87.2946 17.9544 87.158 17.8763C87.0213 17.7788 86.8652 17.7202 86.67 17.7202C86.3773 17.7202 86.1626 17.8178 85.9869 18.0325C85.8113 18.2276 85.7332 18.5204 85.7332 18.9107C85.7332 19.2815 85.8113 19.5743 85.9869 19.789C86.1626 19.9842 86.3773 20.1013 86.67 20.1013C87.0799 20.1013 87.3336 19.9256 87.4507 19.5548H88.5241C88.407 19.9842 88.1923 20.3159 87.8801 20.5697C87.5678 20.8234 87.158 20.9405 86.67 20.9405C86.2992 20.9405 85.9479 20.8624 85.6552 20.6868C85.3624 20.5111 85.1282 20.2769 84.9721 19.9842C84.7964 19.6719 84.7184 19.3011 84.7184 18.9107Z" fill="#333333"/>
<path d="M90.8466 20.9405C90.4758 20.9405 90.1245 20.8624 89.8317 20.6867C89.539 20.5111 89.2853 20.2769 89.1096 19.9646C88.934 19.6524 88.8559 19.301 88.8559 18.8912C88.8559 18.4813 88.9535 18.13 89.1291 17.8178C89.3048 17.5055 89.5585 17.2713 89.8708 17.1152C90.183 16.9395 90.5148 16.8615 90.9052 16.8615C91.2955 16.8615 91.6273 16.9395 91.9396 17.1152C92.2518 17.2713 92.486 17.525 92.6617 17.8178C92.8373 18.13 92.9349 18.4813 92.9349 18.8912C92.9349 19.301 92.8373 19.6524 92.6617 19.9646C92.486 20.2769 92.2323 20.5111 91.92 20.6867C91.5883 20.8429 91.2369 20.9405 90.8466 20.9405ZM90.8466 20.0622C91.0223 20.0622 91.1979 20.0232 91.3541 19.9256C91.5102 19.828 91.6468 19.7109 91.7444 19.5353C91.842 19.3596 91.881 19.1449 91.881 18.8912C91.881 18.5204 91.7834 18.2276 91.5882 18.0325C91.3931 17.8373 91.1589 17.7202 90.8661 17.7202C90.5734 17.7202 90.3392 17.8178 90.144 18.0325C89.9488 18.2276 89.8513 18.5204 89.8513 18.8912C89.8513 19.262 89.9488 19.5548 90.1245 19.7499C90.3392 19.9646 90.5734 20.0622 90.8466 20.0622Z" fill="#333333"/>
<path d="M98.3801 16.881C98.868 16.881 99.2584 17.0371 99.5511 17.3299C99.8439 17.6226 100 18.0325 100 18.5594V20.8624H99.0046V18.696C99.0046 18.3838 98.9266 18.1496 98.7704 17.9934C98.6143 17.8373 98.3996 17.7397 98.1264 17.7397C97.8532 17.7397 97.6385 17.8178 97.4823 17.9934C97.3262 18.1496 97.2481 18.3838 97.2481 18.696V20.8624H96.2528V18.696C96.2528 18.3838 96.1747 18.1496 96.0186 17.9934C95.8624 17.8373 95.6477 17.7397 95.3745 17.7397C95.1013 17.7397 94.8866 17.8178 94.7109 17.9934C94.5548 18.1496 94.4767 18.3838 94.4767 18.696V20.8624H93.4814V16.9395H94.4767V17.4079C94.5938 17.2518 94.7695 17.1152 94.9647 17.0176C95.1598 16.92 95.394 16.881 95.6282 16.881C95.9405 16.881 96.2137 16.9395 96.4479 17.0761C96.6821 17.2128 96.8773 17.3884 97.0139 17.6226C97.1505 17.3884 97.3262 17.2128 97.5604 17.0761C97.8336 16.9395 98.1069 16.881 98.3801 16.881Z" fill="#333333"/>
</svg>
