<svg width="100" height="34" viewBox="0 0 100 34" fill="none" xmlns="http://www.w3.org/2000/svg">
<g clip-path="url(#clip0_220_3)">
<path d="M67.67 9.36143H62.9686C62.8617 9.36143 62.7549 9.46856 62.7549 9.57568V12.3072C62.7549 12.4143 62.8617 12.5215 62.9686 12.5215H67.67C67.7769 12.5215 67.8837 12.4143 67.8837 12.3072V9.57568C67.9372 9.46856 67.8303 9.36143 67.67 9.36143ZM67.6166 13.432H58.5342C58.4274 13.432 58.2671 13.5391 58.2137 13.6462L57.0383 18.0917L56.9849 18.306L55.5958 13.5391C55.5424 13.432 55.4355 13.3249 55.2752 13.3249H51.7491C51.6423 13.3249 51.482 13.432 51.4286 13.5391L50.0929 17.9846L50.0395 18.1988L49.9861 18.0917L49.4518 15.8958L48.8641 13.6998C48.8107 13.5927 48.7039 13.4856 48.5436 13.4856H41.438V9.62923C41.438 9.52211 41.2777 9.36143 41.1174 9.41499L36.6296 10.8076C36.4694 10.8611 36.4159 10.9147 36.4159 11.0218V13.432H35.2406C35.1337 13.432 35.0269 13.5391 35.0269 13.6462V17.0741C35.0269 17.1812 35.1337 17.2883 35.2406 17.2883H36.4159V21.466C36.4159 24.4118 38.0187 25.8044 40.9571 25.8044C42.1859 25.8044 43.3613 25.5366 44.1627 25.1081V21.5731C44.1627 21.4124 44.0024 21.3589 43.8956 21.3589C43.4147 21.5731 43.0407 21.6267 42.6133 21.6267C41.8119 21.6267 41.3845 21.3053 41.3845 20.3948V17.3419H43.949C44.0558 17.3419 44.1627 17.2348 44.1627 17.1276V14.2354L47.5285 25.4294C47.5819 25.5366 47.6888 25.6437 47.8491 25.6437H51.5889C51.6957 25.6437 51.856 25.5366 51.9094 25.4294L53.5122 20.4484L54.3136 23.0192L55.0615 25.3759C55.115 25.483 55.2218 25.5901 55.3821 25.5901H59.1219C59.2288 25.5901 59.389 25.483 59.4425 25.3759L62.8617 14.1283V25.3759C62.8617 25.483 62.9686 25.5901 63.0754 25.5901H67.6166C67.7235 25.5901 67.8303 25.483 67.8303 25.3759V13.6998C67.8303 13.5391 67.7235 13.432 67.6166 13.432ZM73.6003 9.36143H69.0591C68.9522 9.36143 68.8454 9.46856 68.8454 9.57568V25.3759C68.8454 25.483 68.9522 25.5901 69.0591 25.5901H73.6003C73.7071 25.5901 73.814 25.483 73.814 25.3759V9.57568C73.814 9.46856 73.7071 9.36143 73.6003 9.36143ZM79.6374 9.36143H74.9359C74.8291 9.36143 74.7222 9.46856 74.7222 9.57568V12.3072C74.7222 12.4143 74.8291 12.5215 74.9359 12.5215H79.6374C79.7443 12.5215 79.8511 12.4143 79.8511 12.3072V9.57568C79.9045 9.46856 79.7977 9.36143 79.6374 9.36143ZM79.584 13.432H75.0428C74.9359 13.432 74.8291 13.5391 74.8291 13.6462V25.3759C74.8291 25.483 74.9359 25.5901 75.0428 25.5901H79.584C79.6908 25.5901 79.7977 25.483 79.7977 25.3759V13.6998C79.7977 13.5391 79.6908 13.432 79.584 13.432ZM87.117 13.1642C83.1101 13.1642 80.2785 16.11 80.2785 19.5378V19.5914C80.2785 23.0192 83.1101 25.9115 87.0636 25.9115C91.0705 25.9115 93.9021 22.9657 93.9021 19.5378V19.4843C93.9021 16.0564 91.0705 13.1642 87.117 13.1642ZM89.0403 19.5378C89.0403 20.7162 88.239 21.6267 87.117 21.6267C85.9951 21.6267 85.1403 20.6626 85.1403 19.4843V19.4307C85.1403 18.2524 85.9416 17.3419 87.0636 17.3419C88.1855 17.3419 89.0403 18.306 89.0403 19.5378ZM18.4649 4.11255C11.0921 4.11255 5.10843 10.1113 5.10843 17.5026C5.10843 24.8938 11.0921 30.8926 18.4649 30.8926C25.8376 30.8926 31.8213 24.8938 31.8213 17.5026C31.8213 10.1113 25.8376 4.11255 18.4649 4.11255ZM18.4649 27.3576C13.0154 27.3576 8.63453 22.9657 8.63453 17.5026C8.63453 12.0394 13.0154 7.64751 18.4649 7.64751C23.9143 7.64751 28.2952 12.0394 28.2952 17.5026C28.2952 22.9657 23.9143 27.3576 18.4649 27.3576Z" fill="#F12E45"/>
<path d="M21.7773 16.9669C23.3116 16.9669 24.5554 15.72 24.5554 14.1818C24.5554 12.6436 23.3116 11.3967 21.7773 11.3967C20.243 11.3967 18.9991 12.6436 18.9991 14.1818C18.9991 15.72 20.243 16.9669 21.7773 16.9669Z" fill="#F12E45"/>
<path d="M21.7773 23.6084C23.3116 23.6084 24.5554 22.3615 24.5554 20.8233C24.5554 19.2851 23.3116 18.0381 21.7773 18.0381C20.243 18.0381 18.9991 19.2851 18.9991 20.8233C18.9991 22.3615 20.243 23.6084 21.7773 23.6084Z" fill="#F12E45"/>
<path d="M15.1525 23.6084C16.6868 23.6084 17.9306 22.3615 17.9306 20.8233C17.9306 19.2851 16.6868 18.0381 15.1525 18.0381C13.6182 18.0381 12.3744 19.2851 12.3744 20.8233C12.3744 22.3615 13.6182 23.6084 15.1525 23.6084Z" fill="#F12E45"/>
<path d="M15.1525 16.9669C16.6868 16.9669 17.9306 15.72 17.9306 14.1818C17.9306 12.6436 16.6868 11.3967 15.1525 11.3967C13.6182 11.3967 12.3744 12.6436 12.3744 14.1818C12.3744 15.72 13.6182 16.9669 15.1525 16.9669Z" fill="#F12E45"/>
</g>
<defs>
<clipPath id="clip0_220_3">
<rect width="89" height="27" fill="white" transform="translate(5 4)"/>
</clipPath>
</defs>
</svg>
