<svg width="100" height="34" viewBox="0 0 100 34" fill="none" xmlns="http://www.w3.org/2000/svg">
<g clip-path="url(#clip0_220_3)">
<path d="M8.00995 9.60297H10.9737V16.1875H17.2243V9.60297H20.1918V25.7659H17.2243V19.0431H10.9737V25.7659H8.00995V9.60297ZM29.5809 20.5014C29.5809 21.8544 28.4785 22.9554 27.1258 22.9554C25.7726 22.9554 24.6709 21.8544 24.6709 20.5014V13.5427H21.8603V20.5014C21.8603 23.4045 24.2225 25.7659 27.1258 25.7659C30.0284 25.7659 32.3905 23.4045 32.3905 20.5014V13.5427H29.5809V20.5014ZM40.2367 13.6242C38.8425 13.6242 37.8693 14.0288 36.9295 14.9513V9.60297H34.1098V19.5149C34.1098 23.225 36.7922 25.7659 39.8059 25.7659C43.1563 25.7659 46.0918 23.1797 46.0918 19.6952C46.0918 16.2549 43.3849 13.6242 40.2367 13.6242ZM40.3068 23.1573C38.3961 23.1573 36.935 21.5616 36.935 19.6952C36.935 17.8285 38.3961 16.2323 40.3068 16.2323C41.9258 16.2323 43.3877 17.8285 43.3877 19.6952C43.3877 21.5616 41.9258 23.1573 40.3068 23.1573ZM50.8277 14.3346C50.8277 12.9171 51.7722 12.4677 52.8061 12.4677C53.6385 12.4677 54.74 13.0973 55.4589 13.8619L57.3021 11.7036C56.3809 10.4671 54.5151 9.61243 52.9861 9.61243C49.9279 9.61243 47.7244 11.3888 47.7244 14.3346C47.7244 19.7982 54.4475 18.0663 54.4475 21.1249C54.4475 22.0682 53.5259 22.901 52.4698 22.901C50.8053 22.901 50.2654 22.0915 49.5012 21.2368L47.4548 23.3501C48.7596 24.9466 50.378 25.7565 52.3119 25.7565C55.2122 25.7565 57.5507 23.9577 57.5507 21.1467C57.5507 15.0762 50.8277 16.9651 50.8277 14.3346ZM64.9739 13.4658C61.9605 13.4658 59.2777 16.0052 59.2777 19.7161V29.6537H62.0973V24.2799C63.0373 25.2018 64.01 25.607 65.4047 25.607C68.5527 25.607 71.2599 22.9767 71.2599 19.5363C71.2599 16.0513 68.3236 13.4658 64.9739 13.4658ZM65.4749 22.9993C63.5644 22.9993 62.1031 21.4014 62.1031 19.5363C62.1031 17.6697 63.5644 16.0734 65.4749 16.0734C67.0936 16.0734 68.5557 17.6697 68.5557 19.5363C68.5557 21.4014 67.0936 22.9993 65.4749 22.9993ZM92.0153 23.1573C90.3522 23.1573 89.88 22.4381 89.88 21.336V16.4571H92.4652V13.9841H89.88V10.7236L87.0254 12.0049V21.9431C87.0254 24.4841 88.7785 25.7659 91.1833 25.7659C91.543 25.7659 92.0383 25.7427 92.3084 25.6761L93.0055 23.1132C92.6907 23.1349 92.3311 23.1573 92.0153 23.1573Z" fill="#45535E"/>
<path d="M84.5794 16.6009C84.0388 15.6709 83.2785 14.9253 82.3278 14.364C81.6175 13.9504 80.8809 13.688 80.0508 13.5752V10.6202C80.8809 10.2677 81.396 9.48761 81.396 8.57751C81.396 7.33705 80.4012 6.33182 79.1618 6.33182C77.9213 6.33182 76.9091 7.33705 76.9091 8.57751C76.9091 9.48761 77.3945 10.2677 78.2246 10.6202V13.5766C77.5605 13.6725 76.8719 13.8796 76.243 14.1976C74.9586 13.2221 70.7468 10.0219 68.2829 8.15268C68.3414 7.94201 68.3864 7.72486 68.3864 7.49576C68.3864 6.12181 67.2737 5.00818 65.8993 5.00818C64.5248 5.00818 63.4127 6.12181 63.4127 7.49576C63.4127 8.86954 64.526 9.9835 65.9004 9.9835C66.3693 9.9835 66.8029 9.84637 67.1771 9.62092L67.6971 10.0154L74.8417 15.1632C74.464 15.51 74.1122 15.9044 73.8308 16.347C73.2606 17.2493 72.9121 18.2421 72.9121 19.325V19.551C72.9121 20.3112 73.0565 21.0289 73.3026 21.703C73.5192 22.2917 73.836 22.827 74.2283 23.3109L71.8571 25.6879C71.5134 25.56 71.1402 25.5338 70.7821 25.6123C70.4239 25.6909 70.0959 25.8709 69.8373 26.1308C69.6583 26.309 69.5164 26.5209 69.4198 26.7543C69.3233 26.9877 69.274 27.2379 69.2749 27.4905C69.275 28.004 69.4751 28.4866 69.8383 28.8497C70.0164 29.0289 70.2282 29.1709 70.4615 29.2676C70.6949 29.3644 70.9451 29.4138 71.1977 29.4131C71.4503 29.4138 71.7006 29.3643 71.934 29.2676C72.1674 29.1709 72.3793 29.0288 72.5575 28.8497C72.7364 28.6715 72.8783 28.4597 72.9749 28.2264C73.0715 27.9931 73.1209 27.743 73.1203 27.4905C73.1203 27.2918 73.0896 27.0979 73.0318 26.9136L75.4827 24.4624C75.8187 24.6945 76.1816 24.8899 76.5718 25.0584C77.3412 25.3911 78.1906 25.5938 79.1201 25.5938H79.2904C80.3181 25.5938 81.2874 25.3524 82.1987 24.8587C83.1589 24.3369 83.9105 23.6233 84.4782 22.7124C85.049 21.799 85.3633 20.7898 85.3633 19.6795V19.624C85.3633 18.5318 85.1104 17.5241 84.5794 16.6009ZM81.5848 21.7429C80.9195 22.4822 80.1549 22.9375 79.2904 22.9375H79.148C78.6543 22.9375 78.1713 22.8011 77.6985 22.5529C77.1656 22.2796 76.7605 21.8898 76.429 21.3962C76.0863 20.9118 75.9004 20.3829 75.9004 19.8221V19.6518C75.9004 19.1004 76.0061 18.5776 76.2728 18.0839C76.5578 17.5442 76.9428 17.1245 77.4548 16.7908C77.9575 16.4594 78.4944 16.2969 79.0924 16.2969H79.148C79.6902 16.2969 80.2035 16.4038 80.6879 16.6517C81.1815 16.916 81.5848 17.2771 81.8974 17.752C82.201 18.2272 82.3816 18.7397 82.4397 19.298C82.4489 19.414 82.4535 19.5329 82.4535 19.6464C82.4535 20.4041 82.164 21.1059 81.5848 21.7429Z" fill="#F8761F"/>
</g>
<defs>
<clipPath id="clip0_220_3">
<rect width="85" height="24.752" fill="white" transform="translate(8 5)"/>
</clipPath>
</defs>
</svg>
