<svg width="237" height="45" viewBox="0 0 237 45" fill="none" xmlns="http://www.w3.org/2000/svg">
<g clip-path="url(#clip0_208_16)">
<path d="M61 44C59.6 44 58.3333 43.5333 57.2 42.6C56.0667 41.6 55.5 40.2333 55.5 38.5V9.2C55.5 7.66667 56 6.43333 57 5.5C58.0667 4.5 59.3 4 60.7 4H70.1C73.2333 4 76 4.86667 78.4 6.6C80.8 8.26667 82 10.6667 82 13.8C82 15.4667 81.6333 17.0333 80.9 18.5C80.2333 19.9 79.3333 20.9667 78.2 21.7C80.1333 22.3667 81.6667 23.6 82.8 25.4C83.9333 27.1333 84.5 29.2 84.5 31.6C84.5 35.6 83.3 38.6667 80.9 40.8C78.5 42.9333 75.5 44 71.9 44H61ZM64.9 37.9H71.9C74.0333 37.9 75.5667 37.2667 76.5 36C77.5 34.6667 78 33.2333 78 31.7C78 30.3 77.5333 28.9667 76.6 27.7C75.6667 26.4333 74.2333 25.8 72.3 25.8H64.5C63.0333 25.8 62.3 26.5667 62.3 28.1V35.3C62.3 37.0333 63.1667 37.9 64.9 37.9ZM64.5 20.2H70.3C71.9667 20.2 73.2333 19.6333 74.1 18.5C74.9667 17.3667 75.4 16.1667 75.4 14.9C75.4 13.7 74.9667 12.6 74.1 11.6C73.3 10.5333 72.0333 10 70.3 10H65C63.2 10 62.3 10.8667 62.3 12.6V17.9C62.3 19.4333 63.0333 20.2 64.5 20.2Z" fill="#151515"/>
<path d="M111.735 17.8C111.735 16.8667 112.035 16.1 112.635 15.5C113.302 14.8333 114.135 14.5 115.135 14.5C116.068 14.5 116.868 14.8333 117.535 15.5C118.202 16.1 118.535 16.8667 118.535 17.8V31.9C118.535 34.9 117.868 37.3667 116.535 39.3C115.202 41.2333 113.468 42.6667 111.335 43.6C109.202 44.5333 106.935 45 104.535 45C102.135 45 99.8685 44.5333 97.7352 43.6C95.6018 42.6667 93.8685 41.2333 92.5352 39.3C91.2018 37.3667 90.5352 34.9 90.5352 31.9V17.8C90.5352 16.8667 90.8352 16.1 91.4352 15.5C92.1018 14.8333 92.9352 14.5 93.9352 14.5C94.8685 14.5 95.6685 14.8333 96.3352 15.5C97.0018 16.1 97.3352 16.8667 97.3352 17.8V31.9C97.3352 34.3667 98.0685 36.1333 99.5352 37.2C101.002 38.2667 102.668 38.8 104.535 38.8C106.468 38.8 108.135 38.2667 109.535 37.2C111.002 36.1333 111.735 34.3667 111.735 31.9V17.8Z" fill="#151515"/>
<path d="M129.496 45C128.629 45 127.829 44.7333 127.096 44.2C126.429 43.6667 126.096 42.9 126.096 41.9V17.9C126.096 16.7667 126.429 15.9333 127.096 15.4C127.829 14.8 128.629 14.5 129.496 14.5C130.363 14.5 131.129 14.8 131.796 15.4C132.529 15.9333 132.896 16.7667 132.896 17.9V41.9C132.896 42.9 132.529 43.6667 131.796 44.2C131.129 44.7333 130.363 45 129.496 45ZM129.596 9C128.329 9 127.229 8.6 126.296 7.8C125.429 6.93333 124.996 5.9 124.996 4.7C124.996 3.56667 125.429 2.6 126.296 1.8C127.229 0.933334 128.329 0.5 129.596 0.5C130.796 0.5 131.829 0.933334 132.696 1.8C133.563 2.6 133.996 3.56667 133.996 4.7C133.996 5.9 133.563 6.93333 132.696 7.8C131.829 8.6 130.796 9 129.596 9Z" fill="#151515"/>
<path d="M144.435 45C143.568 45 142.768 44.7333 142.035 44.2C141.368 43.6667 141.035 42.9 141.035 41.9V3.9C141.035 2.76667 141.368 1.93333 142.035 1.4C142.768 0.8 143.568 0.5 144.435 0.5C145.302 0.5 146.068 0.8 146.735 1.4C147.468 1.93333 147.835 2.76667 147.835 3.9V41.9C147.835 42.9 147.468 43.6667 146.735 44.2C146.068 44.7333 145.302 45 144.435 45Z" fill="#151515"/>
<path d="M168.974 45C166.108 45 163.541 44.3333 161.274 43C159.008 41.6667 157.241 39.8333 155.974 37.5C154.708 35.1 154.074 32.4333 154.074 29.5C154.074 26.6333 154.708 24.0667 155.974 21.8C157.241 19.5333 159.008 17.7667 161.274 16.5C163.541 15.1667 166.108 14.5 168.974 14.5C170.841 14.5 172.508 14.8 173.974 15.4C175.441 16 176.708 16.8333 177.774 17.9V3.9C177.774 2.76667 178.108 1.93333 178.774 1.4C179.508 0.8 180.308 0.5 181.174 0.5C182.041 0.5 182.808 0.8 183.474 1.4C184.208 1.93333 184.574 2.76667 184.574 3.9V41.9C184.574 42.9 184.208 43.6667 183.474 44.2C182.808 44.7333 182.041 45 181.174 45C180.308 45 179.508 44.7333 178.774 44.2C178.108 43.6667 177.774 42.9 177.774 41.9V41.5C176.708 42.5667 175.441 43.4 173.974 44C172.508 44.6667 170.841 45 168.974 45ZM169.574 38.8C172.108 38.8 174.108 37.9667 175.574 36.3C177.041 34.5667 177.774 32.3 177.774 29.5C177.774 26.8333 177.041 24.7 175.574 23.1C174.108 21.5 172.108 20.7 169.574 20.7C166.974 20.7 164.874 21.5 163.274 23.1C161.674 24.7 160.874 26.8333 160.874 29.5C160.874 32.3 161.674 34.5667 163.274 36.3C164.874 37.9667 166.974 38.8 169.574 38.8Z" fill="#151515"/>
<path d="M195.609 45C194.743 45 193.943 44.7333 193.209 44.2C192.543 43.6667 192.209 42.9 192.209 41.9V17.9C192.209 16.7667 192.543 15.9333 193.209 15.4C193.943 14.8 194.743 14.5 195.609 14.5C196.476 14.5 197.243 14.8 197.909 15.4C198.643 15.9333 199.009 16.7667 199.009 17.9V41.9C199.009 42.9 198.643 43.6667 197.909 44.2C197.243 44.7333 196.476 45 195.609 45ZM195.709 9C194.443 9 193.343 8.6 192.409 7.8C191.543 6.93333 191.109 5.9 191.109 4.7C191.109 3.56667 191.543 2.6 192.409 1.8C193.343 0.933334 194.443 0.5 195.709 0.5C196.909 0.5 197.943 0.933334 198.809 1.8C199.676 2.6 200.109 3.56667 200.109 4.7C200.109 5.9 199.676 6.93333 198.809 7.8C197.943 8.6 196.909 9 195.709 9Z" fill="#151515"/>
<path d="M220.648 45C217.715 45 215.048 44.3333 212.648 43C210.315 41.6667 208.482 39.8333 207.148 37.5C205.815 35.1 205.148 32.4333 205.148 29.5C205.148 26.6333 205.815 24.0667 207.148 21.8C208.482 19.5333 210.315 17.7667 212.648 16.5C215.048 15.1667 217.715 14.5 220.648 14.5C223.582 14.5 226.215 15.1667 228.548 16.5C230.882 17.7667 232.715 19.5333 234.048 21.8C235.448 24.0667 236.148 26.6333 236.148 29.5C236.148 32.4333 235.448 35.1 234.048 37.5C232.715 39.8333 230.882 41.6667 228.548 43C226.215 44.3333 223.582 45 220.648 45ZM220.648 38.8C223.248 38.8 225.348 37.9667 226.948 36.3C228.548 34.5667 229.348 32.3 229.348 29.5C229.348 26.8333 228.548 24.7 226.948 23.1C225.348 21.5 223.248 20.7 220.648 20.7C217.982 20.7 215.848 21.5 214.248 23.1C212.715 24.7 211.948 26.8333 211.948 29.5C211.948 32.3 212.715 34.5667 214.248 36.3C215.848 37.9667 217.982 38.8 220.648 38.8Z" fill="#1B7DC5"/>
<path d="M34.7865 5.93928V15.3351L23.5573 21.7518V8.68928L31.5781 4.10595C32.9531 3.41845 34.7865 4.33512 34.7865 5.93928ZM1.78647 27.9393L9.8073 32.5227L21.0365 26.106L9.8073 19.6893L1.78647 24.2727C0.182302 25.1893 0.182302 27.2518 1.78647 27.9393ZM37.3073 42.1477V32.7518L26.0781 26.3352V39.3977L34.099 43.981C35.474 44.6685 37.3073 43.7518 37.3073 42.1477Z" fill="#1B7DC5"/>
<path opacity="0.3" d="M15.5364 4.10595L23.5573 8.68928V21.7518L12.3281 15.3351V5.93928C12.3281 4.33512 14.1614 3.41845 15.5364 4.10595ZM13.0156 43.981L21.0365 39.3977V26.3352L9.80728 32.7518V42.1477C9.80728 43.7518 11.6406 44.6685 13.0156 43.981ZM45.3281 24.2727L37.3073 19.6893L26.0781 26.106L37.3073 32.5227L45.3281 27.9393C46.9323 27.2518 46.9323 25.1893 45.3281 24.2727Z" fill="#1B7DC5"/>
</g>
<defs>
<clipPath id="clip0_208_16">
<rect width="237" height="45" fill="white"/>
</clipPath>
</defs>
</svg>
