<svg width="285" height="67" viewBox="0 0 285 67" fill="none" xmlns="http://www.w3.org/2000/svg">
<path d="M18.2294 58.2277C14.9715 58.2277 12.0477 57.4796 9.45809 55.9834C6.86845 54.4457 4.8218 52.3676 3.31814 49.7493C1.81448 47.131 1.04177 44.1802 1 40.8969V12.4694C1 11.5135 1.29238 10.7447 1.87714 10.1628C2.50366 9.58096 3.27637 9.29004 4.19528 9.29004C5.15595 9.29004 5.92866 9.58096 6.51342 10.1628C7.09818 10.7447 7.39056 11.5135 7.39056 12.4694V29.3015C8.85245 27.5559 10.6067 26.1844 12.6534 25.187C14.7418 24.148 17.0182 23.6285 19.4825 23.6285C22.5316 23.6285 25.2674 24.3973 27.69 25.9351C30.1125 27.4313 32.013 29.4885 33.3914 32.1068C34.8115 34.6836 35.5215 37.6136 35.5215 40.8969C35.5215 44.1802 34.7488 47.131 33.2034 49.7493C31.6997 52.3676 29.6531 54.4457 27.0634 55.9834C24.4738 57.4796 21.5291 58.2277 18.2294 58.2277ZM18.2294 52.617C20.3596 52.617 22.2601 52.1183 23.9308 51.1208C25.6016 50.0818 26.9173 48.6687 27.8779 46.8816C28.8804 45.0945 29.3816 43.0996 29.3816 40.8969C29.3816 38.6526 28.8804 36.6577 27.8779 34.9122C26.9173 33.1666 25.6016 31.7951 23.9308 30.7977C22.2601 29.7587 20.3596 29.2391 18.2294 29.2391C16.141 29.2391 14.2406 29.7587 12.5281 30.7977C10.8573 31.7951 9.54163 33.1666 8.58096 34.9122C7.62028 36.6577 7.13995 38.6526 7.13995 40.8969C7.13995 43.0996 7.62028 45.0945 8.58096 46.8816C9.54163 48.6687 10.8573 50.0818 12.5281 51.1208C14.2406 52.1183 16.141 52.617 18.2294 52.617Z" fill="#650EE2"/>
<path d="M57.5831 58.29C54.701 58.29 52.1114 57.6874 49.8141 56.4822C47.5586 55.2353 45.7626 53.4274 44.426 51.0585C43.1312 48.6895 42.4838 45.7803 42.4838 42.3307V26.9949C42.4838 26.0805 42.7762 25.3324 43.3609 24.7506C43.9875 24.1272 44.7602 23.8155 45.6791 23.8155C46.598 23.8155 47.3498 24.1272 47.9346 24.7506C48.5611 25.3324 48.8744 26.0805 48.8744 26.9949V42.3307C48.8744 44.6581 49.3129 46.5907 50.1901 48.1285C51.0672 49.6246 52.2576 50.7468 53.7612 51.4949C55.2649 52.2014 56.9565 52.5547 58.8361 52.5547C60.6321 52.5547 62.2193 52.2014 63.5977 51.4949C65.0178 50.7883 66.1456 49.8324 66.9809 48.6272C67.8163 47.4219 68.234 46.0712 68.234 44.575H72.1811C72.1811 47.1518 71.5337 49.4792 70.2389 51.5572C68.9858 53.6352 67.2524 55.2769 65.0387 56.4822C62.8668 57.6874 60.3815 58.29 57.5831 58.29ZM71.4293 57.9783C70.5104 57.9783 69.7376 57.6874 69.1111 57.1056C68.5264 56.4822 68.234 55.7133 68.234 54.7989V26.9949C68.234 26.039 68.5264 25.2701 69.1111 24.6883C69.7376 24.1064 70.5104 23.8155 71.4293 23.8155C72.3899 23.8155 73.1626 24.1064 73.7474 24.6883C74.3322 25.2701 74.6245 26.039 74.6245 26.9949V54.7989C74.6245 55.7133 74.3322 56.4822 73.7474 57.1056C73.1626 57.6874 72.3899 57.9783 71.4293 57.9783Z" fill="#650EE2"/>
<path d="M87.8217 57.9783C86.9028 57.9783 86.1301 57.6874 85.5036 57.1056C84.9188 56.4822 84.6264 55.7133 84.6264 54.7989V27.0572C84.6264 26.1013 84.9188 25.3324 85.5036 24.7506C86.1301 24.1687 86.9028 23.8778 87.8217 23.8778C88.7824 23.8778 89.5551 24.1687 90.1398 24.7506C90.7246 25.3324 91.017 26.1013 91.017 27.0572V54.7989C91.017 55.7133 90.7246 56.4822 90.1398 57.1056C89.5551 57.6874 88.7824 57.9783 87.8217 57.9783ZM87.8217 18.3295C86.694 18.3295 85.7124 17.9347 84.877 17.145C84.0834 16.3138 83.6866 15.3371 83.6866 14.215C83.6866 13.0928 84.0834 12.1369 84.877 11.3473C85.7124 10.5161 86.694 10.1005 87.8217 10.1005C88.9494 10.1005 89.9101 10.5161 90.7037 11.3473C91.5391 12.1369 91.9568 13.0928 91.9568 14.215C91.9568 15.3371 91.5391 16.3138 90.7037 17.145C89.9101 17.9347 88.9494 18.3295 87.8217 18.3295Z" fill="#650EE2"/>
<path d="M109.171 57.9783C107.333 57.9783 105.704 57.4796 104.284 56.4822C102.864 55.4847 101.757 54.134 100.964 52.43C100.17 50.6844 99.7732 48.6895 99.7732 46.4453V12.4071C99.7732 11.4928 100.066 10.7447 100.65 10.1628C101.235 9.58096 101.987 9.29004 102.906 9.29004C103.825 9.29004 104.577 9.58096 105.161 10.1628C105.746 10.7447 106.038 11.4928 106.038 12.4071V46.4453C106.038 47.983 106.331 49.2506 106.916 50.2481C107.5 51.2455 108.252 51.7442 109.171 51.7442H110.737C111.573 51.7442 112.241 52.0352 112.742 52.617C113.285 53.1989 113.557 53.947 113.557 54.8613C113.557 55.7756 113.16 56.5237 112.366 57.1056C111.573 57.6874 110.549 57.9783 109.296 57.9783H109.171Z" fill="#650EE2"/>
<path d="M131.571 58.2277C128.313 58.2277 125.369 57.4796 122.737 55.9834C120.148 54.4457 118.08 52.3676 116.535 49.7493C115.031 47.131 114.279 44.1802 114.279 40.8969C114.279 37.6136 114.968 34.6836 116.347 32.1068C117.767 29.4885 119.688 27.4313 122.111 25.9351C124.533 24.3973 127.269 23.6285 130.318 23.6285C132.783 23.6285 135.059 24.148 137.147 25.187C139.236 26.1844 140.99 27.5559 142.41 29.3015V12.4694C142.41 11.5135 142.703 10.7447 143.287 10.1628C143.914 9.58096 144.687 9.29004 145.605 9.29004C146.566 9.29004 147.339 9.58096 147.924 10.1628C148.508 10.7447 148.801 11.5135 148.801 12.4694V40.8969C148.801 44.1802 148.028 47.131 146.483 49.7493C144.979 52.3676 142.932 54.4457 140.343 55.9834C137.753 57.4796 134.829 58.2277 131.571 58.2277ZM131.571 52.617C133.701 52.617 135.602 52.1183 137.273 51.1208C138.943 50.0818 140.259 48.6687 141.22 46.8816C142.18 45.0945 142.661 43.0996 142.661 40.8969C142.661 38.6526 142.18 36.6577 141.22 34.9122C140.259 33.1666 138.943 31.7951 137.273 30.7977C135.602 29.7587 133.701 29.2391 131.571 29.2391C129.483 29.2391 127.582 29.7587 125.87 30.7977C124.199 31.7951 122.863 33.1666 121.86 34.9122C120.899 36.6577 120.419 38.6526 120.419 40.8969C120.419 43.0996 120.899 45.0945 121.86 46.8816C122.863 48.6687 124.199 50.0818 125.87 51.1208C127.582 52.1183 129.483 52.617 131.571 52.617Z" fill="#650EE2"/>
<path d="M162.028 57.9783C161.109 57.9783 160.337 57.6874 159.71 57.1056C159.125 56.4822 158.833 55.7133 158.833 54.7989V27.0572C158.833 26.1013 159.125 25.3324 159.71 24.7506C160.337 24.1687 161.109 23.8778 162.028 23.8778C162.989 23.8778 163.762 24.1687 164.346 24.7506C164.931 25.3324 165.224 26.1013 165.224 27.0572V54.7989C165.224 55.7133 164.931 56.4822 164.346 57.1056C163.762 57.6874 162.989 57.9783 162.028 57.9783ZM162.028 18.3295C160.9 18.3295 159.919 17.9347 159.084 17.145C158.29 16.3138 157.893 15.3371 157.893 14.215C157.893 13.0928 158.29 12.1369 159.084 11.3473C159.919 10.5161 160.9 10.1005 162.028 10.1005C163.156 10.1005 164.117 10.5161 164.91 11.3473C165.746 12.1369 166.163 13.0928 166.163 14.215C166.163 15.3371 165.746 16.3138 164.91 17.145C164.117 17.9347 163.156 18.3295 162.028 18.3295Z" fill="#650EE2"/>
<path d="M190.771 58.2277C187.387 58.2277 184.401 57.5004 181.811 56.0458C179.222 54.5496 177.175 52.5131 175.671 49.9364C174.209 47.318 173.478 44.3257 173.478 40.9593C173.478 37.5513 174.209 34.5589 175.671 31.9822C177.175 29.3638 179.222 27.3274 181.811 25.8727C184.401 24.3766 187.387 23.6285 190.771 23.6285C194.112 23.6285 197.078 24.3766 199.667 25.8727C202.257 27.3274 204.283 29.3638 205.745 31.9822C207.248 34.5589 208 37.5513 208 40.9593C208 44.3257 207.269 47.318 205.807 49.9364C204.345 52.5131 202.32 54.5496 199.73 56.0458C197.14 57.5004 194.154 58.2277 190.771 58.2277ZM190.771 52.617C192.943 52.617 194.864 52.1183 196.535 51.1208C198.205 50.1234 199.5 48.7519 200.419 47.0063C201.38 45.2608 201.86 43.2451 201.86 40.9593C201.86 38.6734 201.38 36.6577 200.419 34.9122C199.5 33.1251 198.205 31.7328 196.535 30.7353C194.864 29.7379 192.943 29.2391 190.771 29.2391C188.599 29.2391 186.677 29.7379 185.007 30.7353C183.336 31.7328 182.02 33.1251 181.059 34.9122C180.099 36.6577 179.618 38.6734 179.618 40.9593C179.618 43.2451 180.099 45.2608 181.059 47.0063C182.02 48.7519 183.336 50.1234 185.007 51.1208C186.677 52.1183 188.599 52.617 190.771 52.617Z" fill="#650EE2"/>
<path d="M35.5215 40.8969C35.5215 37.6136 34.8115 34.6836 33.3914 32.1068C32.0991 29.6522 30.3476 27.691 28.1377 26.2227L27.69 25.9351C25.4189 24.4935 22.8725 23.7278 20.0508 23.6377L19.4825 23.6285C17.0182 23.6285 14.7418 24.148 12.6534 25.187C10.6067 26.1844 8.85245 27.5559 7.39056 29.3015V12.4694C7.39056 11.5735 7.13382 10.8418 6.62012 10.2744L6.51342 10.1628C6.00179 9.65373 5.34628 9.36738 4.54688 9.30371L4.19528 9.29004C3.27637 9.29004 2.50366 9.58096 1.87714 10.1628L1.77051 10.2744C1.25679 10.8418 1 11.5735 1 12.4694V40.8969C1.04177 44.1802 1.81448 47.131 3.31814 49.7493C4.8218 52.3676 6.86845 54.4457 9.45809 55.9834L8.94727 56.8428C6.20939 55.2169 4.04027 53.0142 2.45117 50.2471C0.855354 47.4682 0.0437411 44.3475 0 40.9092V12.4697C0 11.2935 0.3684 10.2536 1.17188 9.4541L1.18359 9.44141L1.19629 9.42969C2.02236 8.66252 3.04459 8.29004 4.19531 8.29004C5.37336 8.29005 6.41576 8.6551 7.21875 9.4541C8.0222 10.2536 8.39062 11.2935 8.39062 12.4697V26.8408C9.42561 25.9226 10.5658 25.1384 11.8115 24.4912L12.2148 24.2881C14.4475 23.1787 16.8752 22.6289 19.4824 22.6289C22.7043 22.6289 25.6246 23.4427 28.2148 25.084C30.7903 26.6746 32.8101 28.862 34.2676 31.624L34.541 32.1426C35.8674 34.7542 36.5214 37.679 36.5215 40.8965C36.5215 44.3438 35.708 47.4733 34.0645 50.2578L34.0635 50.2568C32.4749 53.0191 30.3087 55.2189 27.5742 56.8428L27.5635 56.8496C24.8065 58.4424 21.6861 59.2275 18.2295 59.2275C14.8122 59.2275 11.7131 58.4413 8.95801 56.8496L8.94727 56.8428L9.45809 55.9834C11.8858 57.386 14.6071 58.131 17.6221 58.2188L18.2294 58.2277C21.3231 58.2277 24.1047 57.5701 26.5742 56.2549L27.0634 55.9834C29.6531 54.4457 31.6997 52.3676 33.2034 49.7493C34.7488 47.131 35.5215 44.1802 35.5215 40.8969ZM148.801 12.4694C148.801 11.5732 148.543 10.8418 148.029 10.2744L147.924 10.1628C147.412 9.65373 146.756 9.36738 145.957 9.30371L145.605 9.29004C144.687 9.29004 143.914 9.58096 143.287 10.1628L143.181 10.2744C142.667 10.8418 142.41 11.5735 142.41 12.4694V29.3015C141.079 27.665 139.454 26.3569 137.535 25.3779L137.147 25.187C135.19 24.213 133.066 23.6957 130.778 23.6348L130.318 23.6285C127.269 23.6285 124.533 24.3973 122.111 25.9351L121.662 26.2227C119.45 27.691 117.678 29.6524 116.347 32.1068C114.968 34.6836 114.279 37.6136 114.279 40.8969L114.288 41.5088C114.376 44.5478 115.125 47.2947 116.535 49.7493C118.08 52.3676 120.148 54.4457 122.737 55.9834C125.204 57.3861 127.946 58.1311 130.964 58.2188L131.571 58.2277C134.626 58.2277 137.386 57.57 139.854 56.2549L140.343 55.9834C142.932 54.4457 144.979 52.3676 146.483 49.7493C147.931 47.2947 148.701 44.5478 148.792 41.5088L148.801 40.8969V12.4694ZM208 40.9593C208 37.5513 207.248 34.5589 205.745 31.9822C204.374 29.5276 202.508 27.5842 200.146 26.1523L199.667 25.8727C197.239 24.4701 194.481 23.7254 191.393 23.6377L190.771 23.6285C187.387 23.6285 184.401 24.3766 181.811 25.8727L181.332 26.1523C178.968 27.5842 177.081 29.5275 175.671 31.9822L175.406 32.4697C174.121 34.9342 173.479 37.7642 173.478 40.9593L173.487 41.5859C173.573 44.6981 174.301 47.4817 175.671 49.9364C177.175 52.5131 179.222 54.5496 181.811 56.0458C184.401 57.5004 187.387 58.2277 190.771 58.2277C193.942 58.2277 196.765 57.588 199.239 56.3096L199.73 56.0458C202.158 54.6431 204.09 52.7655 205.526 50.4131L205.807 49.9364C207.269 47.318 208 44.3257 208 40.9593ZM91.017 27.0572C91.017 26.1612 90.7599 25.4297 90.2461 24.8623L90.1398 24.7506C89.6281 24.2414 88.9724 23.9552 88.1729 23.8916L87.8217 23.8778C86.9028 23.8778 86.1301 24.1687 85.5036 24.7506L85.3975 24.8623C84.8836 25.4297 84.6264 26.1612 84.6264 27.0572V54.7989C84.6264 55.7133 84.9188 56.4822 85.5036 57.1056C86.0518 57.6147 86.7122 57.9013 87.4844 57.9648L87.8217 57.9783C88.7824 57.9783 89.5551 57.6874 90.1398 57.1056C90.7246 56.4822 91.017 55.7133 91.017 54.7989V27.0572ZM165.224 27.0572C165.224 26.1611 164.966 25.4297 164.452 24.8623L164.346 24.7506C163.835 24.2415 163.179 23.9553 162.38 23.8916L162.028 23.8778C161.109 23.8778 160.337 24.1687 159.71 24.7506L159.604 24.8623C159.09 25.4296 158.833 26.1613 158.833 27.0572V54.7989L158.847 55.1348C158.911 55.903 159.198 56.56 159.71 57.1056C160.258 57.6147 160.918 57.9012 161.69 57.9648L162.028 57.9783C162.929 57.9783 163.664 57.7224 164.234 57.2109L164.346 57.1056C164.858 56.5601 165.146 55.903 165.21 55.1348L165.224 54.7989V27.0572ZM28.3818 40.8965C28.3818 38.8066 27.9164 36.9872 27.0107 35.4102L27.0059 35.4023L27.002 35.3945C26.1247 33.8006 24.9325 32.5604 23.418 31.6562L23.4023 31.6465C21.9033 30.7144 20.1888 30.2393 18.2295 30.2393C16.3159 30.2393 14.5961 30.7124 13.0469 31.6523L13.041 31.6562C11.5265 32.5604 10.3343 33.8006 9.45703 35.3945C8.5876 36.9744 8.13971 38.7994 8.13965 40.8965C8.13965 42.9485 8.58608 44.7789 9.46191 46.4082C10.3415 48.0443 11.5359 49.3242 13.0508 50.2676C14.5972 51.1638 16.316 51.6172 18.2295 51.6172L18.2294 52.617L17.8398 52.6113C16.0331 52.5568 14.3705 52.1199 12.8516 51.3018L12.5281 51.1208C10.9617 50.1467 9.70787 48.8436 8.76562 47.2119L8.58096 46.8816C7.62028 45.0945 7.13995 43.0996 7.13995 40.8969C7.14 38.793 7.56194 36.9078 8.40625 35.2422L8.58096 34.9122C9.48153 33.2759 10.6942 31.9682 12.2188 30.9893L12.5281 30.7977C14.2406 29.7587 16.141 29.2391 18.2294 29.2391L18.626 29.2451C20.5962 29.306 22.3645 29.8236 23.9308 30.7977C25.6016 31.7951 26.9173 33.1666 27.8779 34.9122C28.8804 36.6577 29.3816 38.6526 29.3816 40.8969L29.376 41.3076C29.3172 43.3483 28.8177 45.2063 27.8779 46.8816L27.6934 47.2119C26.7511 48.8436 25.4972 50.1467 23.9308 51.1208L23.6152 51.3018C22.0219 52.1786 20.2266 52.617 18.2294 52.617L18.2295 51.6172C20.1968 51.6172 21.9167 51.158 23.418 50.2617C24.9282 49.3189 26.1194 48.0409 26.9971 46.4082L27.001 46.4004L27.0059 46.3926C27.9182 44.766 28.3818 42.9411 28.3818 40.8965ZM141.661 40.8965C141.661 38.7994 141.213 36.9744 140.344 35.3945C139.467 33.8006 138.274 32.5604 136.76 31.6562L136.744 31.6465C135.245 30.7144 133.531 30.2393 131.571 30.2393C129.658 30.2393 127.938 30.7124 126.389 31.6523L126.383 31.6562C124.867 32.5612 123.651 33.8031 122.731 35.4014C121.865 36.9795 121.419 38.8026 121.419 40.8965C121.419 42.9453 121.864 44.773 122.737 46.4004C123.659 48.0408 124.876 49.3233 126.393 50.2676C127.939 51.1638 129.658 51.6172 131.571 51.6172L131.571 52.617L131.182 52.6113C129.375 52.5567 127.712 52.1199 126.193 51.3018L125.87 51.1208C124.199 50.0818 122.863 48.6687 121.86 46.8816C120.899 45.0945 120.419 43.0996 120.419 40.8969C120.419 38.6526 120.899 36.6577 121.86 34.9122C122.8 33.2758 124.033 31.9682 125.561 30.9893L125.87 30.7977C127.582 29.7587 129.483 29.2391 131.571 29.2391L131.968 29.2451C133.938 29.306 135.706 29.8236 137.273 30.7977C138.943 31.7951 140.259 33.1666 141.22 34.9122C142.18 36.6577 142.661 38.6526 142.661 40.8969L142.655 41.3076C142.599 43.3483 142.12 45.2063 141.22 46.8816L141.035 47.2119C140.093 48.8436 138.839 50.1467 137.273 51.1208L136.957 51.3018C135.364 52.1786 133.568 52.617 131.571 52.617L131.571 51.6172C133.539 51.6172 135.258 51.158 136.76 50.2617C138.27 49.3189 139.461 48.0409 140.339 46.4082C141.215 44.7789 141.661 42.9485 141.661 40.8965ZM200.86 40.959C200.86 38.8168 200.411 36.9718 199.543 35.3945L199.529 35.3691C198.693 33.743 197.527 32.492 196.022 31.5938C194.524 30.6993 192.783 30.2393 190.771 30.2393C188.758 30.2393 187.018 30.6994 185.52 31.5938C184.011 32.4944 182.819 33.7508 181.94 35.3857L181.936 35.3945C181.068 36.9718 180.618 38.8168 180.618 40.959C180.618 43.1013 181.067 44.9471 181.936 46.5244C182.813 48.1182 184.005 49.3576 185.52 50.2617C187.018 51.1562 188.758 51.6172 190.771 51.6172L190.771 52.617L190.366 52.6113C188.493 52.5568 186.812 52.1201 185.322 51.3018L185.007 51.1208C183.44 50.1857 182.186 48.9217 181.244 47.3291L181.059 47.0063C180.099 45.2608 179.618 43.2451 179.618 40.9593C179.618 38.8163 180.04 36.9103 180.885 35.2422L181.059 34.9122C181.96 33.2368 183.173 31.9081 184.697 30.9268L185.007 30.7353C186.677 29.7379 188.599 29.2391 190.771 29.2391L191.175 29.2451C193.182 29.3036 194.968 29.8003 196.535 30.7353C198.205 31.7328 199.5 33.1251 200.419 34.9122C201.38 36.6577 201.86 38.6734 201.86 40.9593L201.854 41.3848C201.798 43.4959 201.32 45.37 200.419 47.0063C199.5 48.7519 198.205 50.1234 196.535 51.1208L196.219 51.3018C194.623 52.1786 192.807 52.617 190.771 52.617L190.771 51.6172C192.783 51.6172 194.524 51.1562 196.022 50.2617C197.533 49.3599 198.7 48.1251 199.534 46.54L199.538 46.5322L199.543 46.5244C200.411 44.9471 200.86 43.1013 200.86 40.959ZM48.8744 42.3307V26.9949C48.8744 26.0805 48.5611 25.3324 47.9346 24.7506C47.3498 24.1272 46.598 23.8155 45.6791 23.8155C44.7602 23.8155 43.9875 24.1272 43.3609 24.7506L43.2549 24.8613C42.7408 25.4263 42.4838 26.1376 42.4838 26.9949V42.3307L42.4912 42.9717C42.5671 46.1421 43.2122 48.8377 44.426 51.0585C45.7626 53.4274 47.5586 55.2353 49.8141 56.4822C52.1114 57.6874 54.701 58.29 57.5831 58.29C60.3815 58.29 62.8668 57.6874 65.0387 56.4822C66.2475 55.824 67.312 55.0346 68.2344 54.1162L68.234 54.7989C68.234 55.7133 68.5264 56.4822 69.1111 57.1056C69.6594 57.6147 70.3196 57.9013 71.0918 57.9648L71.4293 57.9783C72.3899 57.9783 73.1626 57.6874 73.7474 57.1056C74.2591 56.56 74.5464 55.9031 74.6104 55.1348L74.6245 54.7989V26.9949C74.6245 26.0988 74.3674 25.3672 73.8535 24.7998L73.7474 24.6883C73.2357 24.1791 72.5799 23.8927 71.7803 23.8291L71.4293 23.8155C70.5104 23.8155 69.7376 24.1064 69.1111 24.6883C68.5264 25.2701 68.234 26.039 68.234 26.9949V44.575L68.2295 44.8535C68.1806 46.2393 67.7642 47.4972 66.9809 48.6272C66.1456 49.8324 65.0178 50.7883 63.5977 51.4949L63.3369 51.623C62.0202 52.2441 60.52 52.5547 58.8361 52.5547L58.8359 51.5547C60.4987 51.5547 61.9254 51.2279 63.1416 50.6045L63.1523 50.5996C64.4342 49.9619 65.4276 49.1131 66.1592 48.0576C66.8313 47.0879 67.1875 46.0154 67.2295 44.8164L67.2344 44.5752V26.9951C67.2344 25.8189 67.6028 24.779 68.4062 23.9795L68.418 23.9668L68.4307 23.9551C69.2567 23.1881 70.2791 22.8154 71.4297 22.8154C72.6076 22.8155 73.6502 23.1806 74.4531 23.9795C75.2565 24.779 75.625 25.819 75.625 26.9951V54.7988C75.625 55.9479 75.248 56.9676 74.4766 57.79L74.4648 57.8027L74.4531 57.8145C73.6502 58.6134 72.6076 58.9784 71.4297 58.9785C70.279 58.9785 69.2567 58.6051 68.4307 57.8379L68.4053 57.8145L68.3818 57.79C67.9249 57.3029 67.6074 56.7461 67.4238 56.1348C66.8287 56.5817 66.1938 56.9917 65.5166 57.3604L65.5156 57.3594C63.179 58.6542 60.5262 59.29 57.583 59.29C54.5575 59.29 51.8054 58.6566 49.3496 57.3682L49.3398 57.3623L49.3301 57.3574C46.9034 56.0159 44.977 54.0707 43.5547 51.5498L43.5488 51.5381C42.1544 48.9868 41.4834 45.9026 41.4834 42.3311V26.9951C41.4834 25.8465 41.8608 24.8327 42.6553 24.042C43.4772 23.2241 44.5073 22.8155 45.6787 22.8154C46.833 22.8154 47.8428 23.2137 48.627 24.0293C49.4644 24.8131 49.874 25.8299 49.874 26.9951V42.3311C49.8741 44.5365 50.2903 46.2846 51.0576 47.6309C51.8376 48.9581 52.8813 49.9375 54.1982 50.5947C55.5496 51.2274 57.089 51.5547 58.8359 51.5547L58.8361 52.5547L58.4863 52.5508C56.8619 52.5122 55.3814 52.2028 54.0449 51.623L53.7612 51.4949C52.2576 50.7468 51.0672 49.6246 50.1901 48.1285C49.3678 46.6869 48.9313 44.8983 48.8799 42.7627L48.8744 42.3307ZM110.737 50.7441L110.737 51.7442H109.171L109.171 50.7441H110.737ZM106.038 46.4453V12.4071C106.038 11.5498 105.782 10.8384 105.268 10.2734L105.161 10.1628C104.65 9.65362 104.01 9.36729 103.242 9.30371L102.906 9.29004C101.987 9.29004 101.235 9.58096 100.65 10.1628L100.544 10.2734C100.03 10.8384 99.7732 11.5498 99.7732 12.4071V46.4453L99.7773 46.8633C99.8239 48.938 100.22 50.7936 100.964 52.43C101.757 54.134 102.864 55.4847 104.284 56.4822C105.616 57.4172 107.131 57.9142 108.829 57.9727L109.171 57.9783H109.296L109.756 57.9648C110.802 57.9012 111.672 57.6146 112.366 57.1056C113.11 56.5602 113.505 55.8687 113.552 55.0312L113.557 54.8613C113.557 53.947 113.285 53.1989 112.742 52.617C112.241 52.0352 111.573 51.7442 110.737 51.7442L110.737 50.7441C111.821 50.7441 112.767 51.1316 113.474 51.9346L113.607 52.0859C114.256 52.8553 114.557 53.8045 114.557 54.8613C114.557 56.1214 113.986 57.1587 112.958 57.9121C111.951 58.6504 110.703 58.9785 109.296 58.9785H109.171C107.14 58.9785 105.308 58.4236 103.709 57.3008C102.134 56.1944 100.918 54.7016 100.057 52.8525L100.053 52.8438C99.1912 50.9482 98.7734 48.8078 98.7734 46.4453V12.4072C98.7734 11.2584 99.1506 10.2448 99.9453 9.4541C100.74 8.66384 101.756 8.29004 102.906 8.29004C104.056 8.29014 105.072 8.66397 105.866 9.4541C106.661 10.2448 107.038 11.2585 107.038 12.4072V46.4453C107.038 47.862 107.308 48.9407 107.778 49.7422C108.237 50.525 108.702 50.7441 109.171 50.7441L109.171 51.7442C108.31 51.7442 107.595 51.306 107.027 50.4297L106.916 50.2481C106.404 49.3752 106.116 48.2954 106.052 47.0088L106.038 46.4453ZM91.9568 14.215C91.9567 13.163 91.5897 12.2568 90.8555 11.4971L90.7037 11.3473C89.9597 10.568 89.0689 10.1542 88.0312 10.1055L87.8217 10.1005C86.694 10.1005 85.7124 10.5161 84.877 11.3473L84.7324 11.4971C84.035 12.2568 83.6867 13.1631 83.6866 14.215C83.6866 15.3371 84.0834 16.3138 84.877 17.145C85.7124 17.9347 86.694 18.3295 87.8217 18.3295C88.879 18.3295 89.7891 17.9821 90.5527 17.2881L90.7037 17.145C91.4866 16.3659 91.9032 15.4585 91.9521 14.4238L91.9568 14.215ZM166.163 14.215C166.163 13.1629 165.796 12.2569 165.062 11.4971L164.91 11.3473C164.166 10.5679 163.275 10.1541 162.237 10.1055L162.028 10.1005C160.9 10.1005 159.919 10.5161 159.084 11.3473L158.939 11.4971C158.242 12.2568 157.893 13.163 157.893 14.215L157.897 14.4238C157.944 15.4587 158.34 16.3658 159.084 17.145C159.867 17.8853 160.778 18.2789 161.818 18.3252L162.028 18.3295C163.156 18.3295 164.117 17.9347 164.91 17.145C165.746 16.3138 166.163 15.3371 166.163 14.215ZM209 40.959C209 44.4747 208.235 47.639 206.681 50.4238L206.677 50.4297C205.126 53.1628 202.973 55.3278 200.23 56.9121L200.22 56.918C197.461 58.4677 194.301 59.2275 190.771 59.2275C187.24 59.2275 184.08 58.4677 181.321 56.918L181.311 56.9121C178.571 55.3292 176.399 53.1677 174.808 50.4404L174.803 50.4326L174.798 50.4238C173.243 47.639 172.479 44.4747 172.479 40.959C172.479 37.4045 173.242 34.2368 174.802 31.4883L174.804 31.4844C176.394 28.7161 178.566 26.5509 181.311 25.0068C184.071 23.4117 187.235 22.6289 190.771 22.6289C194.262 22.6289 197.4 23.4112 200.156 25.001C202.903 26.5437 205.057 28.7089 206.607 31.4785C208.212 34.2288 209 37.3998 209 40.959ZM92.0166 54.7988C92.0166 55.9479 91.6406 56.9676 90.8691 57.79L90.8574 57.8027L90.8447 57.8145C90.0418 58.6133 88.9992 58.9785 87.8213 58.9785C86.6707 58.9784 85.6492 58.605 84.8232 57.8379L84.7979 57.8145L84.7744 57.79C84.0029 56.9676 83.626 55.9479 83.626 54.7988V27.0576C83.626 25.8815 83.9946 24.8415 84.7979 24.042L84.8105 24.0293L84.8232 24.0176C85.6492 23.2507 86.6708 22.878 87.8213 22.8779C88.9993 22.8779 90.0417 23.2431 90.8447 24.042C91.6482 24.8415 92.0166 25.8814 92.0166 27.0576V54.7988ZM166.224 54.7988C166.224 55.9479 165.848 56.9676 165.076 57.79L165.052 57.8145C164.249 58.6134 163.206 58.9785 162.028 58.9785C160.878 58.9785 159.855 58.6051 159.029 57.8379L159.004 57.8145L158.98 57.79C158.209 56.9676 157.833 55.9479 157.833 54.7988V27.0576C157.833 25.8814 158.201 24.8415 159.005 24.042L159.017 24.0293L159.029 24.0176C159.855 23.2504 160.878 22.8779 162.028 22.8779C163.206 22.8779 164.249 23.243 165.052 24.042C165.855 24.8415 166.224 25.8815 166.224 27.0576V54.7988ZM92.957 14.2148C92.957 15.6175 92.4225 16.8452 91.4092 17.8535C90.4266 18.8312 89.2112 19.3291 87.8213 19.3291C86.433 19.329 85.2073 18.8331 84.1904 17.8721L84.1719 17.8545L84.1533 17.8359C83.1869 16.8237 82.6865 15.601 82.6865 14.2148C82.6866 12.8274 83.1892 11.6165 84.1719 10.6387C85.1852 9.63043 86.4164 9.10069 87.8213 9.10059C89.211 9.10059 90.4185 9.61984 91.3906 10.6201C92.4203 11.5934 92.957 12.8103 92.957 14.2148ZM167.163 14.2148C167.163 15.6176 166.629 16.8451 165.615 17.8535C164.633 18.8311 163.418 19.3291 162.028 19.3291C160.64 19.3291 159.414 18.8334 158.396 17.8721L158.378 17.8545L158.36 17.8359C157.394 16.8237 156.894 15.601 156.894 14.2148C156.894 12.8275 157.395 11.6164 158.378 10.6387C159.391 9.63033 160.623 9.10059 162.028 9.10059C163.418 9.10061 164.625 9.6197 165.598 10.6201L165.784 10.8057C166.692 11.7465 167.163 12.8979 167.163 14.2148ZM149.801 40.8965C149.801 44.3438 148.987 47.4733 147.344 50.2578L147.343 50.2568C145.754 53.0191 143.588 55.2189 140.854 56.8428L140.843 56.8496C138.088 58.4413 134.989 59.2275 131.571 59.2275C128.154 59.2275 125.037 58.4409 122.243 56.8525L122.234 56.8477L122.227 56.8428C119.491 55.2184 117.304 53.0192 115.674 50.2578L115.667 50.2471C114.069 47.4644 113.279 44.3383 113.279 40.8965C113.279 37.4694 114 34.3737 115.465 31.6348L115.468 31.6299C116.967 28.8656 119.007 26.6761 121.585 25.084C124.175 23.4424 127.096 22.6289 130.318 22.6289C132.922 22.6289 135.347 23.1776 137.577 24.2842C138.997 24.9623 140.276 25.8065 141.41 26.8145V12.4697C141.41 11.2935 141.779 10.2536 142.582 9.4541L142.594 9.44141L142.606 9.42969C143.433 8.66252 144.455 8.29004 145.605 8.29004C146.784 8.29005 147.826 8.6551 148.629 9.4541C149.432 10.2536 149.801 11.2935 149.801 12.4697V40.8965Z" fill="#650EE2"/>
<path d="M242.285 6.6582C243.451 2.98098 247.376 0.944644 251.054 2.10992L277.493 10.4885C281.171 11.6537 283.207 15.5794 282.042 19.2566L273.663 45.6964C272.498 49.3736 268.572 51.41 264.895 50.2447L238.455 41.8661C234.778 40.7009 232.742 36.7752 233.907 33.098L242.285 6.6582Z" fill="#ACEBCF"/>
<path d="M214.023 32.5246C212.437 29.0083 214.02 24.864 217.558 23.2681L245.745 10.5549C249.283 8.95904 253.437 10.5159 255.023 14.0322L267.658 42.0444C269.244 45.5607 267.661 49.705 264.123 51.3008L235.936 64.0141C232.398 65.6099 228.244 64.0531 226.658 60.5368L214.023 32.5246Z" fill="#FFCCDE"/>
<path d="M221.881 17.505C221.946 11.9948 226.466 7.58077 231.976 7.64607L261.908 8.0008C267.418 8.0661 271.832 12.586 271.767 18.0962L271.412 48.0277C271.347 53.538 266.827 57.952 261.317 57.8867L231.385 57.532C225.875 57.4667 221.461 52.9468 221.526 47.4365L221.881 17.505Z" fill="#711FE6"/>
<ellipse cx="7" cy="7" rx="7" ry="7" transform="matrix(-1 0 0 1 254.152 36)" fill="white"/>
<ellipse cx="6" cy="6" rx="6" ry="6" transform="matrix(-1 0 0 1 253.152 24)" fill="white"/>
<ellipse cx="5" cy="5" rx="5" ry="5" transform="matrix(-1 0 0 1 252.152 14)" fill="white"/>
</svg>
