<svg width="898" height="169" viewBox="0 0 898 169" fill="none" xmlns="http://www.w3.org/2000/svg">
<path d="M230.364 165.202C225.032 165.202 220.208 163.43 215.891 159.885C211.575 156.088 209.417 150.897 209.417 144.315V33.0404C209.417 27.2172 211.321 22.5333 215.13 18.9888C219.192 15.191 223.889 13.2921 229.221 13.2921H265.021C276.954 13.2921 287.491 16.5835 296.631 23.1663C305.772 29.4959 310.342 38.6105 310.342 50.5101C310.342 56.8397 308.946 62.7895 306.153 68.3595C303.614 73.6764 300.186 77.7273 295.87 80.5124C303.233 83.0442 309.073 87.7281 313.389 94.564C317.705 101.147 319.863 108.996 319.863 118.11C319.863 133.301 315.293 144.948 306.153 153.049C297.012 161.151 285.587 165.202 271.876 165.202H230.364ZM245.217 142.036H271.876C280.001 142.036 285.841 139.631 289.395 134.82C293.204 129.757 295.108 124.313 295.108 118.49C295.108 113.173 293.331 108.109 289.776 103.299C286.222 98.4884 280.763 96.0831 273.4 96.0831H243.693C238.107 96.0831 235.315 98.9948 235.315 104.818V132.162C235.315 138.745 238.615 142.036 245.217 142.036ZM243.693 74.8157H265.783C272.13 74.8157 276.954 72.6637 280.255 68.3595C283.556 64.0554 285.206 59.4981 285.206 54.6876C285.206 50.1303 283.556 45.9528 280.255 42.1551C277.208 38.1041 272.384 36.0787 265.783 36.0787H245.598C238.742 36.0787 235.315 39.37 235.315 45.9528V66.0809C235.315 71.9041 238.107 74.8157 243.693 74.8157Z" fill="#151515"/>
<path d="M423.588 65.7011C423.588 62.1565 424.731 59.2449 427.016 56.9663C429.555 54.4345 432.729 53.1685 436.537 53.1685C440.092 53.1685 443.139 54.4345 445.678 56.9663C448.217 59.2449 449.486 62.1565 449.486 65.7011V119.249C449.486 130.643 446.947 140.01 441.869 147.353C436.791 154.695 430.19 160.139 422.065 163.683C413.94 167.228 405.308 169 396.167 169C387.027 169 378.394 167.228 370.269 163.683C362.145 160.139 355.543 154.695 350.465 147.353C345.387 140.01 342.848 130.643 342.848 119.249V65.7011C342.848 62.1565 343.991 59.2449 346.276 56.9663C348.815 54.4345 351.989 53.1685 355.797 53.1685C359.352 53.1685 362.399 54.4345 364.938 56.9663C367.477 59.2449 368.746 62.1565 368.746 65.7011V119.249C368.746 128.617 371.539 135.327 377.125 139.378C382.711 143.428 389.058 145.454 396.167 145.454C403.53 145.454 409.878 143.428 415.21 139.378C420.796 135.327 423.588 128.617 423.588 119.249V65.7011Z" fill="#151515"/>
<path d="M491.231 169C487.93 169 484.884 167.987 482.091 165.962C479.552 163.936 478.282 161.025 478.282 157.227V66.0809C478.282 61.7768 479.552 58.612 482.091 56.5865C484.884 54.3079 487.93 53.1685 491.231 53.1685C494.532 53.1685 497.452 54.3079 499.991 56.5865C502.784 58.612 504.18 61.7768 504.18 66.0809V157.227C504.18 161.025 502.784 163.936 499.991 165.962C497.452 167.987 494.532 169 491.231 169ZM491.612 32.2809C486.788 32.2809 482.598 30.7618 479.044 27.7236C475.743 24.4322 474.093 20.5079 474.093 15.9506C474.093 11.6464 475.743 7.97528 479.044 4.93708C482.598 1.64569 486.788 0 491.612 0C496.182 0 500.118 1.64569 503.418 4.93708C506.719 7.97528 508.369 11.6464 508.369 15.9506C508.369 20.5079 506.719 24.4322 503.418 27.7236C500.118 30.7618 496.182 32.2809 491.612 32.2809Z" fill="#151515"/>
<path d="M548.127 169C544.826 169 541.779 167.987 538.986 165.962C536.447 163.936 535.178 161.025 535.178 157.227V12.9124C535.178 8.60825 536.447 5.44345 538.986 3.41798C541.779 1.13933 544.826 0 548.127 0C551.427 0 554.347 1.13933 556.886 3.41798C559.679 5.44345 561.075 8.60825 561.075 12.9124V157.227C561.075 161.025 559.679 163.936 556.886 165.962C554.347 167.987 551.427 169 548.127 169Z" fill="#151515"/>
<path d="M641.584 169C630.666 169 620.891 166.468 612.258 161.404C603.626 156.341 596.897 149.378 592.073 140.517C587.249 131.402 584.837 121.275 584.837 110.135C584.837 99.2479 587.249 89.5004 592.073 80.8921C596.897 72.2839 603.626 65.5745 612.258 60.764C620.891 55.7004 630.666 53.1685 641.584 53.1685C648.693 53.1685 655.04 54.3079 660.626 56.5865C666.212 58.8652 671.036 62.03 675.098 66.0809V12.9124C675.098 8.60825 676.368 5.44345 678.907 3.41798C681.7 1.13933 684.747 0 688.047 0C691.348 0 694.268 1.13933 696.807 3.41798C699.6 5.44345 700.996 8.60825 700.996 12.9124V157.227C700.996 161.025 699.6 163.936 696.807 165.962C694.268 167.987 691.348 169 688.047 169C684.747 169 681.7 167.987 678.907 165.962C676.368 163.936 675.098 161.025 675.098 157.227V155.708C671.036 159.759 666.212 162.924 660.626 165.202C655.04 167.734 648.693 169 641.584 169ZM643.869 145.454C653.517 145.454 661.134 142.289 666.72 135.96C672.305 129.377 675.098 120.769 675.098 110.135C675.098 100.007 672.305 91.9056 666.72 85.8292C661.134 79.7528 653.517 76.7146 643.869 76.7146C633.967 76.7146 625.969 79.7528 619.875 85.8292C613.782 91.9056 610.735 100.007 610.735 110.135C610.735 120.769 613.782 129.377 619.875 135.96C625.969 142.289 633.967 145.454 643.869 145.454Z" fill="#151515"/>
<path d="M743.024 169C739.723 169 736.676 167.987 733.883 165.962C731.344 163.936 730.075 161.025 730.075 157.227V66.0809C730.075 61.7768 731.344 58.612 733.883 56.5865C736.676 54.3079 739.723 53.1685 743.024 53.1685C746.324 53.1685 749.244 54.3079 751.783 56.5865C754.576 58.612 755.973 61.7768 755.973 66.0809V157.227C755.973 161.025 754.576 163.936 751.783 165.962C749.244 167.987 746.324 169 743.024 169ZM743.405 32.2809C738.58 32.2809 734.391 30.7618 730.836 27.7236C727.536 24.4322 725.885 20.5079 725.885 15.9506C725.885 11.6464 727.536 7.97528 730.836 4.93708C734.391 1.64569 738.58 0 743.405 0C747.975 0 751.91 1.64569 755.211 4.93708C758.512 7.97528 760.162 11.6464 760.162 15.9506C760.162 20.5079 758.512 24.4322 755.211 27.7236C751.91 30.7618 747.975 32.2809 743.405 32.2809Z" fill="#151515"/>
<path d="M838.385 169C827.213 169 817.057 166.468 807.917 161.404C799.03 156.341 792.048 149.378 786.97 140.517C781.892 131.402 779.353 121.275 779.353 110.135C779.353 99.2479 781.892 89.5004 786.97 80.8921C792.048 72.2839 799.03 65.5745 807.917 60.764C817.057 55.7004 827.213 53.1685 838.385 53.1685C849.557 53.1685 859.586 55.7004 868.472 60.764C877.359 65.5745 884.341 72.2839 889.419 80.8921C894.751 89.5004 897.417 99.2479 897.417 110.135C897.417 121.275 894.751 131.402 889.419 140.517C884.341 149.378 877.359 156.341 868.472 161.404C859.586 166.468 849.557 169 838.385 169ZM838.385 145.454C848.287 145.454 856.285 142.289 862.379 135.96C868.472 129.377 871.519 120.769 871.519 110.135C871.519 100.007 868.472 91.9056 862.379 85.8292C856.285 79.7528 848.287 76.7146 838.385 76.7146C828.229 76.7146 820.104 79.7528 814.011 85.8292C808.171 91.9056 805.251 100.007 805.251 110.135C805.251 120.769 808.171 129.377 814.011 135.96C820.104 142.289 828.229 145.454 838.385 145.454Z" fill="#4A54F5"/>
<path d="M130.279 20.2182V56.0067L87.5075 80.448V30.6929L118.059 13.235C123.296 10.6163 130.279 14.1079 130.279 20.2182ZM4.58269 104.016L35.134 121.474L77.9057 97.033L35.134 72.5918L4.58269 90.0498C-1.52756 93.5414 -1.52756 101.397 4.58269 104.016ZM139.881 158.135V122.347L97.1094 97.9059V147.661L127.661 165.119C132.898 167.737 139.881 164.246 139.881 158.135Z" fill="#4A54F5"/>
<path opacity="0.3" d="M56.9559 13.235L87.5072 30.6929V80.448L44.7355 56.0067V20.2182C44.7355 14.1079 51.7185 10.6163 56.9559 13.235ZM47.3541 165.119L77.9054 147.661V97.9059L35.1335 122.347V158.135C35.1335 164.246 42.1167 167.737 47.3541 165.119ZM170.432 90.0498L139.881 72.5918L97.1091 97.033L139.881 121.474L170.432 104.016C176.542 101.397 176.542 93.5414 170.432 90.0498Z" fill="#4A54F5"/>
</svg>
