<svg width="454" height="109" viewBox="0 0 454 109" fill="none" xmlns="http://www.w3.org/2000/svg">
<path d="M28.8559 92.1698C23.6988 92.1698 19.0707 90.9856 14.9715 88.6173C10.8723 86.1831 7.63257 82.8938 5.25238 78.7491C2.8722 74.6045 1.64904 69.9336 1.58293 64.7364V19.7377C1.58293 18.2246 2.04574 17.0076 2.97137 16.0865C3.96311 15.1655 5.18626 14.705 6.64082 14.705C8.1615 14.705 9.38465 15.1655 10.3103 16.0865C11.2359 17.0076 11.6987 18.2246 11.6987 19.7377V46.3817C14.0128 43.6186 16.7897 41.4476 20.0294 39.8687C23.3352 38.224 26.9385 37.4017 30.8394 37.4017C35.6659 37.4017 39.9965 38.6188 43.8312 41.0529C47.666 43.4212 50.6743 46.6777 52.8561 50.8223C55.1041 54.9012 56.228 59.5392 56.228 64.7364C56.228 69.9336 55.0049 74.6045 52.5586 78.7491C50.1784 82.8938 46.9387 86.1831 42.8395 88.6173C38.7403 90.9856 34.0791 92.1698 28.8559 92.1698ZM28.8559 83.2885C32.2278 83.2885 35.2361 82.499 37.8808 80.9201C40.5254 79.2754 42.6081 77.0387 44.1288 74.2098C45.7155 71.3809 46.5089 68.2231 46.5089 64.7364C46.5089 61.1839 45.7155 58.0261 44.1288 55.263C42.6081 52.4999 40.5254 50.3289 37.8808 48.75C35.2361 47.1053 32.2278 46.283 28.8559 46.283C25.5501 46.283 22.5418 47.1053 19.831 48.75C17.1864 50.3289 15.1037 52.4999 13.583 55.263C12.0624 58.0261 11.302 61.1839 11.302 64.7364C11.302 68.2231 12.0624 71.3809 13.583 74.2098C15.1037 77.0387 17.1864 79.2754 19.831 80.9201C22.5418 82.499 25.5501 83.2885 28.8559 83.2885Z" fill="#650EE2"/>
<path d="M91.1498 92.2685C86.5878 92.2685 82.4886 91.3145 78.8522 89.4067C75.2819 87.4331 72.4389 84.5713 70.3232 80.8214C68.2736 77.0716 67.2488 72.4664 67.2488 67.0061V42.7305C67.2488 41.2831 67.7116 40.099 68.6372 39.1779C69.629 38.1911 70.8521 37.6977 72.3067 37.6977C73.7612 37.6977 74.9513 38.1911 75.877 39.1779C76.8687 40.099 77.3646 41.2831 77.3646 42.7305V67.0061C77.3646 70.6902 78.0588 73.7493 79.4472 76.1834C80.8357 78.5518 82.72 80.328 85.1002 81.5122C87.4804 82.6306 90.1581 83.1898 93.1333 83.1898C95.9763 83.1898 98.4887 82.6306 100.671 81.5122C102.919 80.3938 104.704 78.8807 106.026 76.9729C107.348 75.065 108.009 72.9269 108.009 70.5586H114.257C114.257 74.6374 113.233 78.3215 111.183 81.6109C109.2 84.9003 106.456 87.4989 102.952 89.4067C99.5135 91.3145 95.5796 92.2685 91.1498 92.2685ZM113.067 91.7751C111.613 91.7751 110.39 91.3145 109.398 90.3935C108.472 89.4067 108.009 88.1896 108.009 86.7423V42.7305C108.009 41.2174 108.472 40.0003 109.398 39.0793C110.39 38.1582 111.613 37.6977 113.067 37.6977C114.588 37.6977 115.811 38.1582 116.737 39.0793C117.662 40.0003 118.125 41.2174 118.125 42.7305V86.7423C118.125 88.1896 117.662 89.4067 116.737 90.3935C115.811 91.3145 114.588 91.7751 113.067 91.7751Z" fill="#650EE2"/>
<path d="M139.015 91.7751C137.561 91.7751 136.338 91.3145 135.346 90.3935C134.42 89.4067 133.958 88.1896 133.958 86.7423V42.8292C133.958 41.316 134.42 40.099 135.346 39.1779C136.338 38.2569 137.561 37.7964 139.015 37.7964C140.536 37.7964 141.759 38.2569 142.685 39.1779C143.61 40.099 144.073 41.316 144.073 42.8292V86.7423C144.073 88.1896 143.61 89.4067 142.685 90.3935C141.759 91.3145 140.536 91.7751 139.015 91.7751ZM139.015 29.0138C137.23 29.0138 135.677 28.3888 134.354 27.1388C133.098 25.8231 132.47 24.2771 132.47 22.5008C132.47 20.7246 133.098 19.2114 134.354 17.9615C135.677 16.6457 137.23 15.9879 139.015 15.9879C140.801 15.9879 142.321 16.6457 143.577 17.9615C144.9 19.2114 145.561 20.7246 145.561 22.5008C145.561 24.2771 144.9 25.8231 143.577 27.1388C142.321 28.3888 140.801 29.0138 139.015 29.0138Z" fill="#650EE2"/>
<path d="M172.81 91.7751C169.901 91.7751 167.322 90.9856 165.074 89.4067C162.826 87.8278 161.074 85.6897 159.818 82.9924C158.562 80.2294 157.934 77.0716 157.934 73.519V19.6391C157.934 18.1917 158.397 17.0076 159.322 16.0865C160.248 15.1655 161.438 14.705 162.892 14.705C164.347 14.705 165.537 15.1655 166.463 16.0865C167.388 17.0076 167.851 18.1917 167.851 19.6391V73.519C167.851 75.9532 168.314 77.9597 169.24 79.5386C170.165 81.1175 171.355 81.9069 172.81 81.9069H175.289C176.612 81.9069 177.669 82.3674 178.463 83.2885C179.322 84.2095 179.752 85.3937 179.752 86.841C179.752 88.2883 179.124 89.4725 177.868 90.3935C176.612 91.3145 174.992 91.7751 173.008 91.7751H172.81Z" fill="#650EE2"/>
<path d="M208.268 92.1698C203.111 92.1698 198.45 90.9856 194.284 88.6173C190.185 86.1831 186.912 82.8938 184.466 78.7491C182.086 74.6045 180.896 69.9336 180.896 64.7364C180.896 59.5392 181.987 54.9012 184.168 50.8223C186.416 46.6777 189.458 43.4212 193.293 41.0529C197.127 38.6188 201.458 37.4017 206.284 37.4017C210.185 37.4017 213.789 38.224 217.094 39.8687C220.4 41.4476 223.177 43.6186 225.425 46.3817V19.7377C225.425 18.2246 225.888 17.0076 226.813 16.0865C227.805 15.1655 229.028 14.705 230.483 14.705C232.004 14.705 233.227 15.1655 234.152 16.0865C235.078 17.0076 235.541 18.2246 235.541 19.7377V64.7364C235.541 69.9336 234.318 74.6045 231.871 78.7491C229.491 82.8938 226.251 86.1831 222.152 88.6173C218.053 90.9856 213.425 92.1698 208.268 92.1698ZM208.268 83.2885C211.64 83.2885 214.648 82.499 217.293 80.9201C219.937 79.2754 222.02 77.0387 223.541 74.2098C225.061 71.3809 225.822 68.2231 225.822 64.7364C225.822 61.1839 225.061 58.0261 223.541 55.263C222.02 52.4999 219.937 50.3289 217.293 48.75C214.648 47.1053 211.64 46.283 208.268 46.283C204.962 46.283 201.954 47.1053 199.243 48.75C196.598 50.3289 194.483 52.4999 192.896 55.263C191.375 58.0261 190.615 61.1839 190.615 64.7364C190.615 68.2231 191.375 71.3809 192.896 74.2098C194.483 77.0387 196.598 79.2754 199.243 80.9201C201.954 82.499 204.962 83.2885 208.268 83.2885Z" fill="#650EE2"/>
<path d="M256.479 91.7751C255.024 91.7751 253.801 91.3145 252.81 90.3935C251.884 89.4067 251.421 88.1896 251.421 86.7423V42.8292C251.421 41.316 251.884 40.099 252.81 39.1779C253.801 38.2569 255.024 37.7964 256.479 37.7964C258 37.7964 259.223 38.2569 260.148 39.1779C261.074 40.099 261.537 41.316 261.537 42.8292V86.7423C261.537 88.1896 261.074 89.4067 260.148 90.3935C259.223 91.3145 258 91.7751 256.479 91.7751ZM256.479 29.0138C254.694 29.0138 253.14 28.3888 251.818 27.1388C250.562 25.8231 249.934 24.2771 249.934 22.5008C249.934 20.7246 250.562 19.2114 251.818 17.9615C253.14 16.6457 254.694 15.9879 256.479 15.9879C258.264 15.9879 259.785 16.6457 261.041 17.9615C262.363 19.2114 263.025 20.7246 263.025 22.5008C263.025 24.2771 262.363 25.8231 261.041 27.1388C259.785 28.3888 258.264 29.0138 256.479 29.0138Z" fill="#650EE2"/>
<path d="M301.976 92.1698C296.621 92.1698 291.893 91.0185 287.794 88.7159C283.695 86.3476 280.455 83.124 278.075 79.0452C275.761 74.9006 274.604 70.1639 274.604 64.8351C274.604 59.4405 275.761 54.7038 278.075 50.625C280.455 46.4804 283.695 43.2568 287.794 40.9542C291.893 38.5859 296.621 37.4017 301.976 37.4017C307.265 37.4017 311.96 38.5859 316.059 40.9542C320.158 43.2568 323.365 46.4804 325.679 50.625C328.059 54.7038 329.249 59.4405 329.249 64.8351C329.249 70.1639 328.092 74.9006 325.778 79.0452C323.464 83.124 320.257 86.3476 316.158 88.7159C312.059 91.0185 307.331 92.1698 301.976 92.1698ZM301.976 83.2885C305.414 83.2885 308.455 82.499 311.1 80.9201C313.745 79.3412 315.794 77.1702 317.249 74.4072C318.77 71.6441 319.53 68.4534 319.53 64.8351C319.53 61.2168 318.77 58.0261 317.249 55.263C315.794 52.4341 313.745 50.2303 311.1 48.6514C308.455 47.0725 305.414 46.283 301.976 46.283C298.538 46.283 295.497 47.0725 292.852 48.6514C290.207 50.2303 288.125 52.4341 286.604 55.263C285.083 58.0261 284.323 61.2168 284.323 64.8351C284.323 68.4534 285.083 71.6441 286.604 74.4072C288.125 77.1702 290.207 79.3412 292.852 80.9201C295.497 82.499 298.538 83.2885 301.976 83.2885Z" fill="#650EE2"/>
<path d="M56.228 64.7364C56.228 59.5392 55.1041 54.9012 52.8561 50.8223C50.8106 46.9369 48.0381 43.8325 44.5399 41.5081L43.8312 41.0529C40.2363 38.771 36.2055 37.559 31.7389 37.4163L30.8394 37.4017C26.9385 37.4017 23.3352 38.224 20.0294 39.8687C16.7897 41.4476 14.0128 43.6186 11.6987 46.3817V19.7377C11.6987 18.3195 11.2923 17.1613 10.4792 16.2632L10.3103 16.0865C9.50041 15.2807 8.46277 14.8274 7.19738 14.7266L6.64082 14.705C5.18626 14.705 3.96311 15.1655 2.97137 16.0865L2.80259 16.2632C1.98941 17.1613 1.58293 18.3195 1.58293 19.7377V64.7364C1.64904 69.9336 2.8722 74.6045 5.25238 78.7491C7.63257 82.8938 10.8723 86.1831 14.9715 88.6173L14.1629 89.9776C9.82902 87.4039 6.39545 83.9171 3.88003 79.537C1.35396 75.1383 0.069239 70.1985 0 64.7558V19.7382C0 17.8764 0.583151 16.2302 1.85499 14.9647L1.87354 14.9446L1.89364 14.9261C3.20125 13.7117 4.81937 13.1221 6.64088 13.1221C8.50564 13.1221 10.1557 13.6999 11.4268 14.9647C12.6986 16.2302 13.2818 17.8764 13.2818 19.7382V42.4866C14.9201 41.0331 16.7249 39.7918 18.6968 38.7674L19.3352 38.4458C22.8694 36.6897 26.7123 35.8195 30.8393 35.8195C35.9393 35.8195 40.5619 37.1077 44.6621 39.7057C48.7389 42.2235 51.936 45.686 54.2431 50.0581L54.6759 50.8789C56.7756 55.0129 57.8108 59.6427 57.8109 64.7357C57.8109 70.1926 56.5232 75.1463 53.9216 79.554L53.92 79.5525C51.4054 83.925 47.9766 87.4071 43.648 89.9776L43.631 89.9884C39.2669 92.5096 34.3275 93.7525 28.856 93.7525C23.4466 93.7525 18.5409 92.5079 14.1799 89.9884L14.1629 89.9776L14.9715 88.6173C18.8143 90.8375 23.122 92.0168 27.8945 92.1556L28.8559 92.1698C33.7529 92.1698 38.156 91.1288 42.0651 89.047L42.8395 88.6173C46.9387 86.1831 50.1784 82.8938 52.5586 78.7491C55.0049 74.6045 56.228 69.9336 56.228 64.7364ZM235.541 19.7377C235.541 18.3191 235.133 17.1614 234.32 16.2632L234.152 16.0865C233.342 15.2807 232.305 14.8274 231.039 14.7266L230.483 14.705C229.028 14.705 227.805 15.1655 226.813 16.0865L226.645 16.2632C225.831 17.1613 225.425 18.3195 225.425 19.7377V46.3817C223.318 43.7913 220.746 41.7206 217.708 40.171L217.094 39.8687C213.995 38.3269 210.635 37.5081 207.013 37.4117L206.284 37.4017C201.458 37.4017 197.127 38.6188 193.293 41.0529L192.582 41.5081C189.081 43.8324 186.276 46.9372 184.168 50.8223C181.987 54.9012 180.896 59.5392 180.896 64.7364L180.91 65.705C181.049 70.5156 182.235 74.8636 184.466 78.7491C186.912 82.8938 190.185 86.1831 194.284 88.6173C198.189 90.8375 202.53 92.0168 207.306 92.1556L208.268 92.1698C213.103 92.1698 217.473 91.1287 221.378 89.047L222.152 88.6173C226.251 86.1831 229.491 82.8938 231.871 78.7491C234.165 74.8637 235.384 70.5155 235.527 65.705L235.541 64.7364V19.7377ZM329.249 64.8351C329.249 59.4405 328.059 54.7038 325.679 50.625C323.509 46.7395 320.556 43.6634 316.817 41.3968L316.059 40.9542C312.216 38.7339 307.85 37.5551 302.961 37.4163L301.976 37.4017C296.621 37.4017 291.893 38.5859 287.794 40.9542L287.036 41.3968C283.293 43.6634 280.306 46.7394 278.075 50.625L277.655 51.3968C275.621 55.2979 274.604 59.7775 274.604 64.8351L274.618 65.8271C274.753 70.7535 275.906 75.1596 278.075 79.0452C280.455 83.124 283.695 86.3476 287.794 88.7159C291.893 91.0185 296.621 92.1698 301.976 92.1698C306.997 92.1698 311.465 91.1572 315.381 89.1335L316.158 88.7159C320.001 86.4956 323.059 83.5235 325.333 79.7998L325.778 79.0452C328.092 74.9006 329.249 70.1639 329.249 64.8351ZM144.073 42.8292C144.073 41.4108 143.666 40.2529 142.853 39.3548L142.685 39.1779C141.875 38.372 140.837 37.9189 139.571 37.8182L139.015 37.7964C137.561 37.7964 136.338 38.2569 135.346 39.1779L135.178 39.3548C134.365 40.2529 133.958 41.4108 133.958 42.8292V86.7423C133.958 88.1896 134.42 89.4067 135.346 90.3935C136.214 91.1994 137.259 91.6531 138.481 91.7537L139.015 91.7751C140.536 91.7751 141.759 91.3145 142.685 90.3935C143.61 89.4067 144.073 88.1896 144.073 86.7423V42.8292ZM261.537 42.8292C261.537 41.4106 261.129 40.2529 260.316 39.3548L260.148 39.1779C259.339 38.3721 258.301 37.919 257.036 37.8182L256.479 37.7964C255.024 37.7964 253.801 38.2569 252.81 39.1779L252.641 39.3548C251.828 40.2528 251.421 41.411 251.421 42.8292V86.7423L251.443 87.2739C251.544 88.49 252 89.53 252.81 90.3935C253.677 91.1994 254.722 91.653 255.944 91.7537L256.479 91.7751C257.905 91.775 259.069 91.3699 259.971 90.5603L260.148 90.3935C260.958 89.53 261.414 88.49 261.515 87.2739L261.537 86.7423V42.8292ZM44.9264 64.7357C44.9263 61.4276 44.1897 58.5476 42.7561 56.0513L42.7483 56.0389L42.7421 56.0265C41.3536 53.5035 39.4663 51.5404 37.069 50.1091L37.0442 50.0936C34.6714 48.6182 31.9575 47.8661 28.856 47.8661C25.8269 47.8661 23.1046 48.6151 20.6523 50.1029L20.643 50.1091C18.2456 51.5404 16.3584 53.5035 14.9698 56.0265C13.5936 58.5273 12.8846 61.4162 12.8845 64.7357C12.8845 67.9838 13.5911 70.8813 14.9775 73.4604C16.3698 76.0503 18.2605 78.0761 20.6584 79.5695C23.1063 80.9881 25.827 81.7058 28.856 81.7058L28.8559 83.2885L28.2392 83.2795C25.3793 83.1931 22.7474 82.5016 20.3431 81.2065L19.831 80.9201C17.3516 79.3782 15.3669 77.3154 13.8754 74.7326L13.583 74.2098C12.0624 71.3809 11.302 68.2231 11.302 64.7364C11.3021 61.4061 11.97 58.4219 13.3065 55.7854L13.583 55.263C15.0086 52.6728 16.9281 50.6028 19.3414 49.0533L19.831 48.75C22.5418 47.1053 25.5501 46.283 28.8559 46.283L29.4836 46.2924C32.6022 46.3888 35.4013 47.2081 37.8808 48.75C40.5254 50.3289 42.6081 52.4999 44.1288 55.263C45.7155 58.0261 46.5089 61.1839 46.5089 64.7364L46.5001 65.3865C46.4071 68.6167 45.6163 71.5578 44.1288 74.2098L43.8366 74.7326C42.3451 77.3154 40.3602 79.3782 37.8808 80.9201L37.3812 81.2065C34.8591 82.5944 32.0173 83.2885 28.8559 83.2885L28.856 81.7058C31.9701 81.7058 34.6926 80.979 37.069 79.5602C39.4596 78.0678 41.3452 76.0447 42.7344 73.4604L42.7406 73.448L42.7483 73.4356C44.1925 70.861 44.9264 67.9722 44.9264 64.7357ZM224.239 64.7357C224.239 61.4162 223.53 58.5273 222.154 56.0265C220.765 53.5035 218.878 51.5404 216.481 50.1091L216.456 50.0936C214.083 48.6182 211.369 47.8661 208.268 47.8661C205.239 47.8661 202.516 48.6151 200.064 50.1029L200.055 50.1091C197.656 51.5415 195.731 53.5075 194.275 56.0373C192.903 58.5355 192.198 61.4213 192.197 64.7357C192.197 67.9788 192.902 70.872 194.284 73.448C195.743 76.0446 197.67 78.0747 200.07 79.5695C202.518 80.9881 205.239 81.7058 208.268 81.7058L208.268 83.2885L207.651 83.2795C204.791 83.1931 202.159 82.5016 199.755 81.2065L199.243 80.9201C196.598 79.2754 194.483 77.0387 192.896 74.2098C191.375 71.3809 190.615 68.2231 190.615 64.7364C190.615 61.1839 191.375 58.0261 192.896 55.263C194.383 52.6728 196.336 50.6028 198.753 49.0533L199.243 48.75C201.954 47.1053 204.962 46.283 208.268 46.283L208.895 46.2924C212.014 46.3888 214.813 47.2081 217.293 48.75C219.937 50.3289 222.02 52.4999 223.541 55.263C225.061 58.0261 225.822 61.1839 225.822 64.7364L225.813 65.3865C225.724 68.6167 224.966 71.5578 223.541 74.2098L223.248 74.7326C221.757 77.3154 219.772 79.3782 217.293 80.9201L216.793 81.2065C214.271 82.5944 211.429 83.2885 208.268 83.2885L208.268 81.7058C211.382 81.7058 214.104 80.979 216.481 79.5602C218.871 78.0678 220.757 76.0448 222.146 73.4604C223.533 70.8813 224.239 67.9838 224.239 64.7357ZM317.947 64.8347C317.947 61.4438 317.236 58.5232 315.862 56.0265L315.84 55.9863C314.517 53.4123 312.671 51.432 310.289 50.0102C307.918 48.5943 305.162 47.8661 301.976 47.8661C298.79 47.8661 296.036 48.5945 293.664 50.0102C291.276 51.4359 289.39 53.4247 287.999 56.0126L287.991 56.0265C286.617 58.5232 285.906 61.4438 285.906 64.8347C285.906 68.2258 286.617 71.1475 287.991 73.6443C289.379 76.1672 291.267 78.129 293.664 79.5602C296.036 80.9761 298.79 81.7058 301.976 81.7058L301.976 83.2885L301.336 83.2795C298.371 83.1931 295.709 82.502 293.352 81.2065L292.852 80.9201C290.373 79.4399 288.388 77.439 286.896 74.9181L286.604 74.4072C285.083 71.6441 284.323 68.4534 284.323 64.8351C284.323 61.4429 284.991 58.4259 286.328 55.7854L286.604 55.263C288.03 52.611 289.949 50.5078 292.362 48.9544L292.852 48.6514C295.497 47.0725 298.538 46.283 301.976 46.283L302.616 46.2924C305.792 46.3849 308.621 47.1713 311.1 48.6514C313.745 50.2303 315.794 52.4341 317.249 55.263C318.77 58.0261 319.53 61.2168 319.53 64.8351L319.521 65.5086C319.432 68.8504 318.674 71.8169 317.249 74.4072C315.794 77.1702 313.745 79.3412 311.1 80.9201L310.6 81.2065C308.074 82.5944 305.199 83.2885 301.976 83.2885L301.976 81.7058C305.162 81.7058 307.918 80.9761 310.289 79.5602C312.68 78.1327 314.527 76.1781 315.848 73.6691L315.854 73.6567L315.862 73.6443C317.236 71.1475 317.947 68.2258 317.947 64.8347ZM77.3646 67.0061V42.7305C77.3646 41.2831 76.8687 40.099 75.877 39.1779C74.9513 38.1911 73.7612 37.6977 72.3067 37.6977C70.8521 37.6977 69.629 38.1911 68.6372 39.1779L68.4694 39.3532C67.6556 40.2476 67.2488 41.3734 67.2488 42.7305V67.0061L67.2605 68.0206C67.3807 73.0391 68.4018 77.3061 70.3232 80.8214C72.4389 84.5713 75.2819 87.4331 78.8522 89.4067C82.4886 91.3145 86.5878 92.2685 91.1498 92.2685C95.5796 92.2685 99.5135 91.3145 102.952 89.4067C104.865 88.3649 106.55 87.1153 108.01 85.6616L108.009 86.7423C108.009 88.1896 108.472 89.4067 109.398 90.3935C110.266 91.1995 111.311 91.653 112.533 91.7537L113.067 91.7751C114.588 91.7751 115.811 91.3145 116.737 90.3935C117.547 89.53 118.002 88.4901 118.103 87.2739L118.125 86.7423V42.7305C118.125 41.312 117.718 40.154 116.905 39.2558L116.737 39.0793C115.927 38.2733 114.889 37.8199 113.623 37.7193L113.067 37.6977C111.613 37.6977 110.39 38.1582 109.398 39.0793C108.472 40.0003 108.009 41.2174 108.009 42.7305V70.5586L108.002 70.9994C107.925 73.193 107.266 75.1841 106.026 76.9729C104.704 78.8807 102.919 80.3938 100.671 81.5122L100.258 81.7151C98.1735 82.6981 95.7987 83.1898 93.1333 83.1898L93.133 81.6069C95.7651 81.6069 98.0234 81.0896 99.9486 80.1028L99.9656 80.0951C101.995 79.0856 103.567 77.7421 104.725 76.0713C105.789 74.5363 106.353 72.8386 106.419 70.9407L106.427 70.5589V42.7309C106.427 40.869 107.01 39.2229 108.282 37.9573L108.301 37.9372L108.321 37.9187C109.628 36.7046 111.247 36.1147 113.068 36.1147C114.933 36.1149 116.583 36.6927 117.854 37.9573C119.126 39.2228 119.709 40.8692 119.709 42.7309V86.7421C119.709 88.561 119.112 90.1751 117.891 91.477L117.872 91.4971L117.854 91.5156C116.583 92.7803 114.933 93.3581 113.068 93.3583C111.247 93.3583 109.628 92.7671 108.321 91.5527L108.281 91.5156L108.244 91.477C107.52 90.7059 107.018 89.8245 106.727 88.8568C105.785 89.5643 104.78 90.2133 103.708 90.7968L103.707 90.7953C100.008 92.8449 95.8087 93.8514 91.1498 93.8514C86.3606 93.8514 82.0043 92.8487 78.1169 90.8092L78.1014 90.7999L78.086 90.7922C74.2447 88.6687 71.1953 85.5895 68.9439 81.5992L68.9347 81.5806C66.7273 77.5421 65.6653 72.6601 65.6652 67.0065V42.7309C65.6652 40.9127 66.2626 39.3079 67.5202 38.0563C68.8213 36.7616 70.4518 36.1149 72.3061 36.1147C74.1332 36.1147 75.7318 36.7452 76.973 38.0362C78.2986 39.2768 78.947 40.8865 78.947 42.7309V67.0065C78.947 70.4976 79.6059 73.2648 80.8205 75.3958C82.0552 77.4967 83.7073 79.047 85.7919 80.0873C87.9309 81.0889 90.3678 81.6069 93.133 81.6069L93.1333 83.1898L92.5796 83.1836C90.0083 83.1225 87.6648 82.6328 85.5492 81.7151L85.1002 81.5122C82.72 80.328 80.8357 78.5518 79.4472 76.1834C78.1456 73.9015 77.4547 71.0703 77.3733 67.6898L77.3646 67.0061ZM175.289 80.3239L175.289 81.9069H172.81L172.81 80.3239H175.289ZM167.851 73.519V19.6391C167.851 18.282 167.445 17.156 166.631 16.2616L166.463 16.0865C165.653 15.2805 164.64 14.8273 163.425 14.7266L162.892 14.705C161.438 14.705 160.248 15.1655 159.322 16.0865L159.154 16.2616C158.34 17.156 157.934 18.2821 157.934 19.6391V73.519L157.94 74.1807C158.014 77.4648 158.64 80.4022 159.818 82.9924C161.074 85.6897 162.826 87.8278 165.074 89.4067C167.182 90.8869 169.58 91.6736 172.269 91.7661L172.81 91.7751H173.008L173.736 91.7537C175.391 91.6529 176.769 91.1993 177.868 90.3935C179.045 89.5302 179.67 88.4357 179.744 87.11L179.752 86.841C179.752 85.3937 179.322 84.2095 178.463 83.2885C177.669 82.3674 176.612 81.9069 175.289 81.9069L175.289 80.3239C177.005 80.3239 178.502 80.9371 179.621 82.2082L179.832 82.4478C180.859 83.6656 181.335 85.1682 181.335 86.8411C181.335 88.8357 180.431 90.4776 178.804 91.6702C177.21 92.8388 175.235 93.3583 173.008 93.3583H172.81C169.595 93.3582 166.694 92.4799 164.164 90.7025C161.67 88.9512 159.746 86.5883 158.382 83.6613L158.376 83.6474C157.012 80.6469 156.351 77.2587 156.351 73.5191V19.6393C156.351 17.8208 156.948 16.2164 158.206 14.9647C159.463 13.7138 161.072 13.1221 162.893 13.1221C164.714 13.1222 166.321 13.714 167.579 14.9647C168.837 16.2164 169.434 17.8209 169.434 19.6393V73.5191C169.434 75.7617 169.862 77.4691 170.605 78.7378C171.332 79.977 172.067 80.3238 172.81 80.3239L172.81 81.9069C171.447 81.9069 170.315 81.2133 169.417 79.8261L169.24 79.5386C168.43 78.1569 167.973 76.4477 167.872 74.4111L167.851 73.519ZM145.561 22.5008C145.561 20.8356 144.98 19.4012 143.818 18.1986L143.577 17.9615C142.4 16.728 140.99 16.0729 139.347 15.9958L139.015 15.9879C137.23 15.9879 135.677 16.6457 134.354 17.9615L134.125 18.1986C133.021 19.4012 132.47 20.8357 132.47 22.5008C132.47 24.2771 133.098 25.8231 134.354 27.1388C135.677 28.3888 137.23 29.0138 139.015 29.0138C140.689 29.0138 142.13 28.464 143.338 27.3653L143.577 27.1388C144.817 25.9055 145.476 24.4693 145.554 22.8314L145.561 22.5008ZM263.025 22.5008C263.024 20.8354 262.443 19.4013 261.28 18.1986L261.041 17.9615C259.863 16.7278 258.453 16.0727 256.81 15.9958L256.479 15.9879C254.694 15.9879 253.14 16.6457 251.818 17.9615L251.59 18.1986C250.486 19.4012 249.934 20.8356 249.934 22.5008L249.94 22.8314C250.014 24.4696 250.64 25.9054 251.818 27.1388C253.057 28.3106 254.5 28.9337 256.147 29.007L256.479 29.0138C258.264 29.0138 259.785 28.3888 261.041 27.1388C262.363 25.8231 263.025 24.2771 263.025 22.5008ZM330.832 64.8347C330.832 70.3998 329.622 75.4086 327.161 79.8168L327.154 79.8261C324.7 84.1524 321.291 87.5794 316.95 90.0873L316.933 90.0966C312.566 92.5497 307.565 93.7525 301.976 93.7525C296.387 93.7525 291.386 92.5497 287.019 90.0966L287.002 90.0873C282.665 87.5817 279.227 84.1601 276.708 79.8431L276.7 79.8307L276.692 79.8168C274.231 75.4086 273.021 70.3998 273.021 64.8347C273.021 59.2081 274.23 54.1939 276.699 49.8432L276.702 49.837C279.218 45.455 282.657 42.0277 287.002 39.5836C291.372 37.0586 296.38 35.8195 301.976 35.8195C307.503 35.8195 312.47 37.0578 316.833 39.5743C321.18 42.0164 324.591 45.4436 327.045 49.8278C329.585 54.1813 330.832 59.2007 330.832 64.8347ZM145.656 86.7421C145.656 88.561 145.06 90.1751 143.839 91.477L143.821 91.4971L143.801 91.5156C142.53 92.7802 140.879 93.3583 139.015 93.3583C137.194 93.3581 135.577 92.767 134.269 91.5527L134.229 91.5156L134.192 91.477C132.971 90.1751 132.374 88.561 132.374 86.7421V42.8298C132.374 40.9682 132.957 39.3218 134.229 38.0563L134.249 38.0362L134.269 38.0176C135.576 36.8036 137.194 36.2138 139.015 36.2137C140.879 36.2137 142.53 36.7916 143.801 38.0563C145.073 39.3218 145.656 40.9679 145.656 42.8298V86.7421ZM263.12 86.7421C263.12 88.561 262.525 90.1751 261.304 91.477L261.265 91.5156C259.994 92.7804 258.344 93.3582 256.479 93.3583C254.658 93.3583 253.04 92.7671 251.732 91.5527L251.692 91.5156L251.655 91.477C250.433 90.1751 249.838 88.561 249.838 86.7421V42.8298C249.838 40.968 250.421 39.3218 251.693 38.0563L251.712 38.0362L251.732 38.0176C253.04 36.8033 254.658 36.2137 256.479 36.2137C258.344 36.2137 259.994 36.7915 261.265 38.0563C262.537 39.3218 263.12 40.968 263.12 42.8298V86.7421ZM147.144 22.5006C147.144 24.7209 146.298 26.6642 144.694 28.2604C143.139 29.8079 141.215 30.5961 139.015 30.5961C136.817 30.596 134.877 29.811 133.267 28.2897L133.238 28.2619L133.209 28.2325C131.679 26.6302 130.887 24.6948 130.887 22.5006C130.887 20.3044 131.683 18.3876 133.238 16.8398C134.842 15.2438 136.791 14.4053 139.015 14.4051C141.215 14.4051 143.126 15.227 144.665 16.8104C146.295 18.3511 147.144 20.2773 147.144 22.5006ZM264.607 22.5006C264.607 24.721 263.761 26.6642 262.157 28.2604C260.602 29.8079 258.679 30.5961 256.479 30.5961C254.281 30.5961 252.34 29.8114 250.73 28.2897L250.701 28.2619L250.673 28.2325C249.143 26.6302 248.351 24.6948 248.351 22.5006C248.351 20.3046 249.146 18.3875 250.701 16.8398C252.305 15.2437 254.255 14.4051 256.479 14.4051C258.679 14.4051 260.59 15.2268 262.129 16.8104L262.424 17.1041C263.861 18.5933 264.607 20.4161 264.607 22.5006ZM237.124 64.7357C237.124 70.1926 235.836 75.1463 233.235 79.554L233.233 79.5525C230.718 83.925 227.289 87.4071 222.961 89.9776L222.944 89.9884C218.583 92.5079 213.677 93.7525 208.268 93.7525C202.858 93.7525 197.924 92.5072 193.502 89.993L193.488 89.9853L193.476 89.9776C189.146 87.4063 185.683 83.9252 183.103 79.554L183.093 79.537C180.563 75.1323 179.313 70.1839 179.313 64.7357C179.313 59.3109 180.453 54.4106 182.773 50.0751L182.777 50.0674C185.15 45.6918 188.38 42.2259 192.46 39.7057C196.561 37.1072 201.184 35.8195 206.285 35.8195C210.406 35.8195 214.244 36.688 217.775 38.4396C220.022 39.513 222.047 40.8493 223.842 42.4449V19.7382C223.842 17.8764 224.425 16.2303 225.697 14.9647L225.716 14.9446L225.736 14.9261C227.043 13.7117 228.661 13.1221 230.483 13.1221C232.348 13.1221 233.998 13.6999 235.269 14.9647C236.541 16.2302 237.124 17.8764 237.124 19.7382V64.7357Z" fill="#650EE2"/>
<path d="M384.954 10.8459C386.852 4.85588 393.246 1.53878 399.236 3.43697L442.306 17.0852C448.296 18.9834 451.613 25.3781 449.715 31.3681L436.066 74.4374C434.168 80.4274 427.774 83.7445 421.784 81.8463L378.714 68.1981C372.724 66.2999 369.407 59.9052 371.305 53.9152L384.954 10.8459Z" fill="#ACEBCF"/>
<path d="M338.916 52.9817C336.332 47.2537 338.91 40.503 344.674 37.9034L390.589 17.1941C396.352 14.5945 403.119 17.1305 405.702 22.8584L426.283 68.489C428.867 74.217 426.289 80.9678 420.525 83.5674L374.611 104.277C368.847 106.876 362.08 104.34 359.497 98.6123L338.916 52.9817Z" fill="#FFCCDE"/>
<path d="M351.715 28.5151C351.822 19.5391 359.184 12.3489 368.16 12.4553L416.917 13.0331C425.893 13.1395 433.084 20.5022 432.977 29.4781L432.399 78.2353C432.293 87.2112 424.93 94.4014 415.954 94.295L367.197 93.7172C358.221 93.6108 351.031 86.2482 351.138 77.2722L351.715 28.5151Z" fill="#711FE6"/>
<path d="M399.966 36.6365L389.241 72.554C388.823 73.9168 387.446 74.7051 386.083 74.2866C384.72 73.8682 383.932 72.4911 384.35 71.1283L395.075 35.2108C395.493 33.848 396.87 33.0598 398.233 33.4782C399.596 33.8966 400.384 35.2737 399.966 36.6365ZM408.255 43.2518L417.158 52.3684C418.192 53.3461 418.172 55.0355 417.115 55.9884L407.998 64.8916C407.02 65.9259 405.331 65.9059 404.378 64.8486C403.344 63.8709 403.364 62.1816 404.421 61.2286L411.667 54.0734L404.592 46.8289C403.557 45.8512 403.577 44.1618 404.635 43.2089C405.612 42.1745 407.302 42.1945 408.255 43.2518ZM379.895 46.5362L372.651 53.611L379.724 60.9359C380.759 61.9137 380.739 63.603 379.681 64.556C378.704 65.5903 377.014 65.5703 376.061 64.5131L367.158 55.3964C366.124 54.4187 366.144 52.7293 367.201 51.7764L376.318 42.8733C377.296 41.8389 378.985 41.8589 379.938 42.9162C380.972 43.8939 380.952 45.5833 379.895 46.5362Z" fill="white"/>
</svg>
