<svg width="237" height="145" viewBox="0 0 237 145" fill="none" xmlns="http://www.w3.org/2000/svg">
<g clip-path="url(#clip0_207_10)">
<path d="M59 85C57.6 85 56.3333 84.5333 55.2 83.6C54.0667 82.6 53.5 81.2333 53.5 79.5V50.2C53.5 48.6667 54 47.4333 55 46.5C56.0667 45.5 57.3 45 58.7 45H68.1C71.2333 45 74 45.8667 76.4 47.6C78.8 49.2667 80 51.6667 80 54.8C80 56.4667 79.6333 58.0333 78.9 59.5C78.2333 60.9 77.3333 61.9667 76.2 62.7C78.1333 63.3667 79.6667 64.6 80.8 66.4C81.9333 68.1333 82.5 70.2 82.5 72.6C82.5 76.6 81.3 79.6667 78.9 81.8C76.5 83.9333 73.5 85 69.9 85H59ZM62.9 78.9H69.9C72.0333 78.9 73.5667 78.2667 74.5 77C75.5 75.6667 76 74.2333 76 72.7C76 71.3 75.5333 69.9667 74.6 68.7C73.6667 67.4333 72.2333 66.8 70.3 66.8H62.5C61.0333 66.8 60.3 67.5667 60.3 69.1V76.3C60.3 78.0333 61.1667 78.9 62.9 78.9ZM62.5 61.2H68.3C69.9667 61.2 71.2333 60.6333 72.1 59.5C72.9667 58.3667 73.4 57.1667 73.4 55.9C73.4 54.7 72.9667 53.6 72.1 52.6C71.3 51.5333 70.0333 51 68.3 51H63C61.2 51 60.3 51.8667 60.3 53.6V58.9C60.3 60.4333 61.0333 61.2 62.5 61.2Z" fill="#151515"/>
<path d="M109.735 58.8C109.735 57.8667 110.035 57.1 110.635 56.5C111.302 55.8333 112.135 55.5 113.135 55.5C114.068 55.5 114.868 55.8333 115.535 56.5C116.202 57.1 116.535 57.8667 116.535 58.8V72.9C116.535 75.9 115.868 78.3667 114.535 80.3C113.202 82.2333 111.468 83.6667 109.335 84.6C107.202 85.5333 104.935 86 102.535 86C100.135 86 97.8685 85.5333 95.7352 84.6C93.6018 83.6667 91.8685 82.2333 90.5352 80.3C89.2018 78.3667 88.5352 75.9 88.5352 72.9V58.8C88.5352 57.8667 88.8352 57.1 89.4352 56.5C90.1018 55.8333 90.9352 55.5 91.9352 55.5C92.8685 55.5 93.6685 55.8333 94.3352 56.5C95.0018 57.1 95.3352 57.8667 95.3352 58.8V72.9C95.3352 75.3667 96.0685 77.1333 97.5352 78.2C99.0018 79.2667 100.668 79.8 102.535 79.8C104.468 79.8 106.135 79.2667 107.535 78.2C109.002 77.1333 109.735 75.3667 109.735 72.9V58.8Z" fill="#151515"/>
<path d="M127.496 86C126.629 86 125.829 85.7333 125.096 85.2C124.429 84.6667 124.096 83.9 124.096 82.9V58.9C124.096 57.7667 124.429 56.9333 125.096 56.4C125.829 55.8 126.629 55.5 127.496 55.5C128.363 55.5 129.129 55.8 129.796 56.4C130.529 56.9333 130.896 57.7667 130.896 58.9V82.9C130.896 83.9 130.529 84.6667 129.796 85.2C129.129 85.7333 128.363 86 127.496 86ZM127.596 50C126.329 50 125.229 49.6 124.296 48.8C123.429 47.9333 122.996 46.9 122.996 45.7C122.996 44.5667 123.429 43.6 124.296 42.8C125.229 41.9333 126.329 41.5 127.596 41.5C128.796 41.5 129.829 41.9333 130.696 42.8C131.563 43.6 131.996 44.5667 131.996 45.7C131.996 46.9 131.563 47.9333 130.696 48.8C129.829 49.6 128.796 50 127.596 50Z" fill="#151515"/>
<path d="M142.435 86C141.568 86 140.768 85.7333 140.035 85.2C139.368 84.6667 139.035 83.9 139.035 82.9V44.9C139.035 43.7667 139.368 42.9333 140.035 42.4C140.768 41.8 141.568 41.5 142.435 41.5C143.302 41.5 144.068 41.8 144.735 42.4C145.468 42.9333 145.835 43.7667 145.835 44.9V82.9C145.835 83.9 145.468 84.6667 144.735 85.2C144.068 85.7333 143.302 86 142.435 86Z" fill="#151515"/>
<path d="M166.974 86C164.108 86 161.541 85.3333 159.274 84C157.008 82.6667 155.241 80.8333 153.974 78.5C152.708 76.1 152.074 73.4333 152.074 70.5C152.074 67.6333 152.708 65.0667 153.974 62.8C155.241 60.5333 157.008 58.7667 159.274 57.5C161.541 56.1667 164.108 55.5 166.974 55.5C168.841 55.5 170.508 55.8 171.974 56.4C173.441 57 174.708 57.8333 175.774 58.9V44.9C175.774 43.7667 176.108 42.9333 176.774 42.4C177.508 41.8 178.308 41.5 179.174 41.5C180.041 41.5 180.808 41.8 181.474 42.4C182.208 42.9333 182.574 43.7667 182.574 44.9V82.9C182.574 83.9 182.208 84.6667 181.474 85.2C180.808 85.7333 180.041 86 179.174 86C178.308 86 177.508 85.7333 176.774 85.2C176.108 84.6667 175.774 83.9 175.774 82.9V82.5C174.708 83.5667 173.441 84.4 171.974 85C170.508 85.6667 168.841 86 166.974 86ZM167.574 79.8C170.108 79.8 172.108 78.9667 173.574 77.3C175.041 75.5667 175.774 73.3 175.774 70.5C175.774 67.8333 175.041 65.7 173.574 64.1C172.108 62.5 170.108 61.7 167.574 61.7C164.974 61.7 162.874 62.5 161.274 64.1C159.674 65.7 158.874 67.8333 158.874 70.5C158.874 73.3 159.674 75.5667 161.274 77.3C162.874 78.9667 164.974 79.8 167.574 79.8Z" fill="#151515"/>
<path d="M193.609 86C192.743 86 191.943 85.7333 191.209 85.2C190.543 84.6667 190.209 83.9 190.209 82.9V58.9C190.209 57.7667 190.543 56.9333 191.209 56.4C191.943 55.8 192.743 55.5 193.609 55.5C194.476 55.5 195.243 55.8 195.909 56.4C196.643 56.9333 197.009 57.7667 197.009 58.9V82.9C197.009 83.9 196.643 84.6667 195.909 85.2C195.243 85.7333 194.476 86 193.609 86ZM193.709 50C192.443 50 191.343 49.6 190.409 48.8C189.543 47.9333 189.109 46.9 189.109 45.7C189.109 44.5667 189.543 43.6 190.409 42.8C191.343 41.9333 192.443 41.5 193.709 41.5C194.909 41.5 195.943 41.9333 196.809 42.8C197.676 43.6 198.109 44.5667 198.109 45.7C198.109 46.9 197.676 47.9333 196.809 48.8C195.943 49.6 194.909 50 193.709 50Z" fill="#151515"/>
<path d="M218.648 86C215.715 86 213.048 85.3333 210.648 84C208.315 82.6667 206.482 80.8333 205.148 78.5C203.815 76.1 203.148 73.4333 203.148 70.5C203.148 67.6333 203.815 65.0667 205.148 62.8C206.482 60.5333 208.315 58.7667 210.648 57.5C213.048 56.1667 215.715 55.5 218.648 55.5C221.582 55.5 224.215 56.1667 226.548 57.5C228.882 58.7667 230.715 60.5333 232.048 62.8C233.448 65.0667 234.148 67.6333 234.148 70.5C234.148 73.4333 233.448 76.1 232.048 78.5C230.715 80.8333 228.882 82.6667 226.548 84C224.215 85.3333 221.582 86 218.648 86ZM218.648 79.8C221.248 79.8 223.348 78.9667 224.948 77.3C226.548 75.5667 227.348 73.3 227.348 70.5C227.348 67.8333 226.548 65.7 224.948 64.1C223.348 62.5 221.248 61.7 218.648 61.7C215.982 61.7 213.848 62.5 212.248 64.1C210.715 65.7 209.948 67.8333 209.948 70.5C209.948 73.3 210.715 75.5667 212.248 77.3C213.848 78.9667 215.982 79.8 218.648 79.8Z" fill="#338CDE"/>
<path d="M32.7865 46.9393V56.3351L21.5573 62.7518V49.6893L29.5781 45.1059C30.9531 44.4184 32.7865 45.3351 32.7865 46.9393ZM-0.213532 68.9393L7.8073 73.5227L19.0365 67.106L7.8073 60.6893L-0.213532 65.2727C-1.8177 66.1893 -1.8177 68.2518 -0.213532 68.9393ZM35.3073 83.1477V73.7518L24.0781 67.3352V80.3977L32.099 84.981C33.474 85.6685 35.3073 84.7518 35.3073 83.1477Z" fill="#338CDE"/>
<path opacity="0.3" d="M13.5364 45.1059L21.5573 49.6893V62.7518L10.3281 56.3351V46.9393C10.3281 45.3351 12.1614 44.4184 13.5364 45.1059ZM11.0156 84.981L19.0365 80.3977V67.3352L7.80728 73.7518V83.1477C7.80728 84.7518 9.64062 85.6685 11.0156 84.981ZM43.3281 65.2727L35.3073 60.6893L24.0781 67.106L35.3073 73.5227L43.3281 68.9393C44.9323 68.2518 44.9323 66.1893 43.3281 65.2727Z" fill="#338CDE"/>
</g>
<defs>
<clipPath id="clip0_207_10">
<rect width="237" height="145" fill="white"/>
</clipPath>
</defs>
</svg>
