<svg width="1734" height="1629" viewBox="0 0 1734 1629" fill="none" xmlns="http://www.w3.org/2000/svg">
<mask id="mask0_191_179" style="mask-type:alpha" maskUnits="userSpaceOnUse" x="117" y="117" width="1618" height="1507">
<rect width="1253.49" height="1449.05" rx="14" transform="matrix(0.996195 0.0871557 -0.258819 0.965926 489.026 116)" fill="white"/>
</mask>
<g mask="url(#mask0_191_179)">
<path opacity="0.6" d="M479.07 153.16C484.569 132.637 506.185 117.501 527.351 119.353L1699.42 221.896C1720.59 223.748 1733.29 241.886 1727.79 262.409L1372.66 1587.76C1367.16 1608.29 1345.55 1623.42 1324.38 1621.57L152.309 1519.03C131.143 1517.18 118.443 1499.04 123.942 1478.51L479.07 153.16Z" fill="white"/>
<path d="M1541.24 301.548C1382.91 892.428 778.49 1329.78 191.223 1278.4C-396.044 1227.02 -743.77 706.368 -585.444 115.487C-427.118 -475.393 177.305 -912.745 764.572 -861.366C1351.84 -809.986 1699.56 -289.332 1541.24 301.548Z" fill="url(#paint0_radial_191_179)" fill-opacity="0.8"/>
</g>
<path d="M580.973 250.344L578.536 259.442L563.091 258.09L550.471 305.19L538.846 304.173L551.466 257.073L536.021 255.722L538.459 246.624L580.973 250.344Z" fill="black"/>
<path d="M594.458 270.475C596.585 268.244 599.019 266.562 601.759 265.429C604.554 264.3 607.501 263.871 610.601 264.142L607.43 275.978L604.358 275.709C600.704 275.389 597.714 275.979 595.386 277.478C593.113 278.982 591.423 281.801 590.316 285.934L584.361 308.155L572.736 307.138L584.688 262.534L596.313 263.551L594.458 270.475Z" fill="black"/>
<path d="M607.676 287.205C608.884 282.697 610.869 278.778 613.631 275.449C616.448 272.125 619.686 269.661 623.344 268.059C627.058 266.461 630.881 265.834 634.811 266.178C638.243 266.478 641.053 267.411 643.239 268.975C645.482 270.545 647.104 272.417 648.108 274.592L649.812 268.232L661.52 269.256L649.569 313.86L637.861 312.836L639.608 306.314C637.553 308.277 635.009 309.84 631.978 311.003C629.017 312.117 625.82 312.524 622.388 312.224C618.513 311.885 615.229 310.608 612.536 308.395C609.899 306.187 608.106 303.256 607.159 299.602C606.281 295.9 606.454 291.768 607.676 287.205ZM643.836 290.534C644.57 287.796 644.642 285.413 644.053 283.384C643.478 281.301 642.386 279.667 640.777 278.483C639.182 277.245 637.306 276.531 635.147 276.342C632.988 276.154 630.858 276.489 628.758 277.349C626.658 278.209 624.761 279.581 623.066 281.465C621.441 283.301 620.269 285.561 619.55 288.244C618.831 290.928 618.752 293.338 619.313 295.475C619.943 297.562 621.028 299.223 622.567 300.456C624.161 301.694 626.01 302.405 628.114 302.589C630.273 302.778 632.43 302.445 634.585 301.59C636.755 300.681 638.652 299.309 640.277 297.474C641.917 295.584 643.103 293.271 643.836 290.534Z" fill="black"/>
<path d="M662.248 292.145C663.485 287.529 665.532 283.588 668.39 280.322C671.263 277.003 674.667 274.554 678.602 272.976C682.552 271.343 686.741 270.721 691.17 271.109C696.872 271.607 701.203 273.415 704.164 276.53C707.195 279.597 708.678 283.682 708.614 288.785L696.075 287.688C695.929 285.698 695.197 284.096 693.879 282.882C692.631 281.619 690.844 280.886 688.52 280.682C685.198 280.392 682.252 281.343 679.682 283.535C677.126 285.673 675.273 288.889 674.122 293.183C672.986 297.424 673.07 300.81 674.375 303.341C675.694 305.818 678.014 307.202 681.336 307.493C686.041 307.905 689.66 306.134 692.192 302.18L704.73 303.277C702.163 307.997 698.616 311.614 694.089 314.129C689.563 316.645 684.476 317.656 678.83 317.162C674.401 316.774 670.723 315.491 667.794 313.312C664.88 311.08 662.914 308.161 661.897 304.556C660.894 300.898 661.011 296.761 662.248 292.145Z" fill="black"/>
<path d="M734.787 321.316L724.268 300.949L719.177 319.95L707.552 318.933L723.516 259.354L735.141 260.371L726.059 294.267L746.573 276.697L761.685 278.02L735.427 298.629L749.9 322.638L734.787 321.316Z" fill="black"/>
<path d="M773.653 273.628C771.605 273.449 770.054 272.682 769.001 271.326C768.018 269.922 767.778 268.28 768.281 266.401C768.785 264.523 769.866 263.024 771.525 261.906C773.254 260.739 775.143 260.245 777.191 260.424C779.239 260.603 780.755 261.395 781.739 262.8C782.792 264.155 783.067 265.772 782.563 267.651C782.06 269.53 780.944 271.052 779.215 272.22C777.555 273.338 775.701 273.807 773.653 273.628ZM777.959 279.443L766.007 324.047L754.382 323.03L766.334 278.426L777.959 279.443Z" fill="black"/>
<path d="M813.448 281.889C818.928 282.368 822.904 284.447 825.375 288.124C827.86 291.747 828.297 296.564 826.686 302.576L819.675 328.742L808.05 327.725L814.651 303.089C815.6 299.546 815.413 296.756 814.09 294.717C812.781 292.625 810.549 291.441 807.393 291.165C804.183 290.884 801.377 291.627 798.977 293.395C796.647 295.114 795.008 297.744 794.058 301.287L787.457 325.924L775.832 324.907L787.784 280.303L799.409 281.32L797.92 286.875C799.988 285.079 802.356 283.748 805.024 282.882C807.761 281.968 810.569 281.637 813.448 281.889Z" fill="black"/>
<path d="M859.233 285.812C862.665 286.113 865.502 287.047 867.745 288.617C870.001 290.133 871.596 292.003 872.53 294.227L874.234 287.866L885.942 288.891L873.904 333.816C872.797 337.949 870.954 341.551 868.375 344.621C865.781 347.745 862.517 350.097 858.582 351.675C854.632 353.307 850.221 353.91 845.35 353.484C838.817 352.912 833.843 350.966 830.427 347.646C827.067 344.331 825.793 340.099 826.605 334.952L838.147 335.962C838.21 338.055 839.079 339.779 840.755 341.134C842.473 342.548 844.771 343.38 847.649 343.632C851.026 343.928 854.032 343.174 856.668 341.372C859.289 339.624 861.132 336.764 862.196 332.792L864.052 325.868C861.996 327.831 859.453 329.393 856.422 330.557C853.446 331.724 850.27 332.161 846.893 331.865C843.018 331.526 839.734 330.25 837.041 328.037C834.348 325.824 832.528 322.89 831.581 319.237C830.703 315.535 830.876 311.402 832.098 306.84C833.306 302.331 835.291 298.412 838.053 295.083C840.87 291.759 844.108 289.296 847.766 287.693C851.48 286.095 855.303 285.468 859.233 285.812ZM868.259 310.168C868.992 307.431 869.064 305.048 868.475 303.018C867.9 300.936 866.808 299.302 865.199 298.117C863.604 296.879 861.728 296.166 859.569 295.977C857.41 295.788 855.28 296.123 853.18 296.983C851.08 297.843 849.183 299.216 847.488 301.1C845.863 302.935 844.691 305.195 843.972 307.879C843.253 310.562 843.174 312.973 843.735 315.109C844.365 317.197 845.45 318.857 846.989 320.09C848.583 321.329 850.432 322.04 852.536 322.224C854.695 322.413 856.852 322.08 859.007 321.224C861.177 320.316 863.074 318.943 864.699 317.108C866.339 315.219 867.525 312.906 868.259 310.168Z" fill="black"/>
<path d="M950.807 316.401C950.375 318.012 949.876 319.451 949.31 320.72L915.68 317.778C915.094 321.023 915.581 323.647 917.14 325.651C918.699 327.655 920.973 328.788 923.963 329.05C928.28 329.427 931.834 327.898 934.625 324.462L947.163 325.559C944.684 329.736 941.188 333.056 936.676 335.518C932.179 337.926 927.19 338.89 921.709 338.411C917.281 338.023 913.547 336.735 910.507 334.547C907.537 332.309 905.524 329.359 904.466 325.696C903.463 322.037 903.573 317.927 904.795 313.365C906.032 308.749 908.087 304.781 910.959 301.462C913.831 298.142 917.263 295.696 921.254 294.122C925.245 292.549 929.51 291.961 934.049 292.358C938.422 292.74 942.08 293.994 945.024 296.12C948.022 298.25 950.009 301.088 950.985 304.634C952.031 308.131 951.972 312.054 950.807 316.401ZM939.629 312.128C940.351 309.224 939.89 306.822 938.246 304.92C936.617 302.965 934.281 301.854 931.236 301.588C928.357 301.336 925.692 301.982 923.239 303.525C920.855 305.019 919.039 307.25 917.791 310.217L939.629 312.128Z" fill="black"/>
<path d="M973.36 331.559L994.154 298.358L1006.53 299.44L977.553 342.555L963.437 341.32L958.449 295.234L970.904 296.324L973.36 331.559Z" fill="black"/>
<path d="M1048.44 324.943C1048.01 326.554 1047.51 327.993 1046.94 329.262L1013.31 326.32C1012.73 329.564 1013.22 332.189 1014.77 334.193C1016.33 336.197 1018.61 337.33 1021.6 337.592C1025.91 337.969 1029.47 336.44 1032.26 333.004L1044.8 334.101C1042.32 338.278 1038.82 341.598 1034.31 344.06C1029.81 346.468 1024.82 347.432 1019.34 346.953C1014.92 346.565 1011.18 345.277 1008.14 343.089C1005.17 340.851 1003.16 337.901 1002.1 334.238C1001.1 330.579 1001.21 326.469 1002.43 321.907C1003.67 317.291 1005.72 313.323 1008.59 310.004C1011.47 306.684 1014.9 304.238 1018.89 302.664C1022.88 301.091 1027.14 300.503 1031.68 300.9C1036.06 301.282 1039.71 302.536 1042.66 304.661C1045.66 306.792 1047.64 309.63 1048.62 313.176C1049.67 316.673 1049.61 320.596 1048.44 324.943ZM1037.26 320.669C1037.99 317.766 1037.52 315.364 1035.88 313.462C1034.25 311.507 1031.92 310.396 1028.87 310.13C1025.99 309.878 1023.33 310.523 1020.87 312.067C1018.49 313.561 1016.67 315.792 1015.43 318.759L1037.26 320.669Z" fill="black"/>
<path d="M1086.65 305.791C1092.13 306.27 1096.1 308.348 1098.57 312.025C1101.06 315.649 1101.5 320.466 1099.88 326.478L1092.87 352.644L1081.25 351.627L1087.85 326.99C1088.8 323.448 1088.61 320.657 1087.29 318.619C1085.98 316.527 1083.75 315.343 1080.59 315.067C1077.38 314.786 1074.58 315.529 1072.18 317.297C1069.85 319.016 1068.21 321.646 1067.26 325.189L1060.66 349.825L1049.03 348.808L1060.98 304.205L1072.61 305.222L1071.12 310.777C1073.19 308.98 1075.55 307.649 1078.22 306.784C1080.96 305.87 1083.77 305.539 1086.65 305.791Z" fill="black"/>
<path d="M1125.27 319.305L1119.49 340.883C1119.09 342.385 1119.15 343.517 1119.69 344.278C1120.29 344.99 1121.48 345.423 1123.25 345.578L1128.64 346.051L1126.1 355.551L1118.79 354.912C1108.99 354.054 1105.33 349.01 1107.8 339.778L1113.56 318.281L1108.08 317.802L1110.57 308.543L1116.05 309.022L1119 297.992L1130.71 299.016L1127.75 310.046L1138.05 310.947L1135.57 320.206L1125.27 319.305Z" fill="black"/>
<path d="M1150.21 358.402C1146.44 358.073 1143.24 357.133 1140.6 355.583C1137.97 353.98 1136.07 351.974 1134.9 349.564C1133.79 347.16 1133.52 344.582 1134.08 341.83L1145.79 342.854C1145.55 344.591 1146.03 346.088 1147.22 347.346C1148.47 348.609 1150.23 349.34 1152.5 349.538C1154.71 349.732 1156.54 349.453 1157.99 348.701C1159.5 347.953 1160.43 346.908 1160.79 345.567C1161.17 344.117 1160.69 342.976 1159.32 342.143C1158.03 341.26 1155.84 340.245 1152.75 339.095C1149.53 337.99 1146.93 336.911 1144.95 335.858C1143.02 334.811 1141.49 333.331 1140.36 331.419C1139.28 329.512 1139.15 327.056 1139.95 324.05C1140.61 321.581 1141.94 319.39 1143.92 317.476C1145.96 315.567 1148.5 314.141 1151.53 313.198C1154.61 312.259 1158.01 311.952 1161.72 312.276C1167.2 312.756 1171.21 314.48 1173.76 317.45C1176.32 320.366 1177.16 324.092 1176.29 328.63L1165.16 327.657C1165.47 325.871 1165.07 324.407 1163.96 323.267C1162.92 322.077 1161.26 321.383 1158.99 321.184C1156.89 321 1155.15 321.233 1153.79 321.883C1152.48 322.537 1151.65 323.535 1151.29 324.877C1150.89 326.38 1151.35 327.602 1152.69 328.543C1154.03 329.43 1156.23 330.419 1159.28 331.51C1162.39 332.605 1164.91 333.677 1166.84 334.725C1168.76 335.772 1170.26 337.277 1171.32 339.237C1172.45 341.149 1172.65 343.583 1171.91 346.54C1171.22 349.116 1169.86 351.359 1167.82 353.268C1165.83 355.182 1163.29 356.608 1160.21 357.547C1157.2 358.436 1153.86 358.722 1150.21 358.402Z" fill="black"/>
<path d="M431.755 573.695C438.171 549.752 463.39 532.094 488.083 534.254L778.706 559.681C803.4 561.841 818.217 583.002 811.801 606.945C805.386 630.888 780.167 648.547 755.473 646.386L464.85 620.96C440.157 618.8 425.34 597.638 431.755 573.695Z" fill="url(#paint1_linear_191_179)"/>
<path d="M535.297 576.771C534.527 579.644 532.863 581.95 530.306 583.687C527.792 585.394 524.456 586.065 520.3 585.702L513.453 585.103L509.59 599.521L504.94 599.114L514.193 564.58L525.69 565.586C529.71 565.938 532.507 567.146 534.08 569.21C535.688 571.278 536.093 573.798 535.297 576.771ZM521.296 581.986C523.885 582.212 525.939 581.834 527.457 580.851C528.976 579.869 530.005 578.37 530.545 576.355C531.686 572.094 529.736 569.743 524.695 569.302L517.848 568.703L514.449 581.387L521.296 581.986Z" fill="white"/>
<path d="M566.64 576.724L559.365 603.875L554.715 603.468L555.791 599.455C554.533 600.765 552.998 601.746 551.184 602.399C549.414 603.022 547.574 603.249 545.667 603.082C543.487 602.892 541.643 602.291 540.136 601.28C538.637 600.236 537.612 598.794 537.059 596.954C536.54 595.117 536.617 592.944 537.289 590.433L541.551 574.529L546.15 574.931L542.048 590.241C541.331 592.917 541.476 595.042 542.483 596.618C543.499 598.16 545.217 599.037 547.635 599.249C550.122 599.466 552.28 598.895 554.109 597.533C555.938 596.172 557.233 594.071 557.994 591.231L561.99 576.317L566.64 576.724Z" fill="white"/>
<path d="M577.96 582.227C579.194 580.746 580.675 579.642 582.404 578.915C584.167 578.19 586.139 577.923 588.319 578.114L587.071 582.771L585.844 582.664C580.632 582.208 577.292 584.721 575.823 590.204L571.866 604.969L567.216 604.562L574.492 577.411L579.142 577.818L577.96 582.227Z" fill="white"/>
<path d="M588.192 592.453C588.944 589.645 590.178 587.252 591.894 585.272C593.619 583.259 595.658 581.764 598.012 580.787C600.4 579.813 602.922 579.442 605.579 579.674C609.02 579.975 611.63 581.032 613.411 582.844C615.226 584.66 616.106 587.035 616.051 589.971L611.043 589.533C611.009 587.84 610.422 586.453 609.282 585.373C608.176 584.296 606.601 583.668 604.557 583.489C601.9 583.257 599.515 583.961 597.402 585.602C595.297 587.209 593.812 589.632 592.944 592.869C592.068 596.139 592.209 598.737 593.366 600.664C594.523 602.59 596.43 603.67 599.087 603.902C601.131 604.081 602.958 603.768 604.569 602.962C606.179 602.157 607.47 600.917 608.441 599.244L613.449 599.683C611.956 602.392 609.86 604.49 607.16 605.978C604.469 607.433 601.438 608.013 598.065 607.717C595.408 607.485 593.195 606.7 591.427 605.362C589.693 604.027 588.53 602.252 587.938 600.037C587.346 597.821 587.431 595.293 588.192 592.453Z" fill="white"/>
<path d="M638.624 582.515C640.736 582.7 642.524 583.312 643.988 584.353C645.461 585.361 646.44 586.782 646.925 588.616C647.444 590.453 647.367 592.627 646.694 595.137L642.406 611.14L637.808 610.738L641.923 595.379C642.649 592.67 642.504 590.545 641.487 589.002C640.48 587.427 638.767 586.533 636.349 586.322C633.896 586.107 631.738 586.679 629.875 588.037C628.046 589.398 626.751 591.499 625.99 594.34L621.967 609.352L617.317 608.945L627.141 572.281L631.791 572.688L628.207 586.066C629.498 584.759 631.046 583.796 632.851 583.176C634.69 582.559 636.614 582.339 638.624 582.515Z" fill="white"/>
<path d="M651.929 597.978C652.672 595.204 653.902 592.827 655.618 590.847C657.342 588.834 659.365 587.338 661.684 586.358C664.038 585.381 666.458 585.001 668.945 585.218C671.398 585.433 673.39 586.131 674.921 587.313C676.452 588.495 677.452 589.901 677.922 591.531L679.25 586.576L683.951 586.987L676.676 614.139L671.975 613.727L673.329 608.674C671.984 610.179 670.25 611.379 668.128 612.275C666.048 613.141 663.798 613.468 661.38 613.257C658.893 613.039 656.804 612.248 655.113 610.883C653.421 609.518 652.284 607.711 651.701 605.463C651.118 603.215 651.194 600.72 651.929 597.978ZM675.625 600.102C676.174 598.054 676.226 596.233 675.782 594.639C675.337 593.046 674.489 591.788 673.236 590.867C672.027 589.916 670.553 589.365 668.816 589.213C667.079 589.061 665.388 589.319 663.745 589.986C662.102 590.654 660.651 591.71 659.392 593.155C658.134 594.6 657.23 596.346 656.681 598.394C656.123 600.475 656.063 602.329 656.498 603.956C656.943 605.55 657.77 606.822 658.979 607.773C660.198 608.691 661.675 609.226 663.413 609.378C665.15 609.53 666.84 609.272 668.484 608.605C670.17 607.907 671.642 606.836 672.901 605.391C674.168 603.913 675.077 602.15 675.625 600.102Z" fill="white"/>
<path d="M694.327 616.139C692.181 615.952 690.349 615.436 688.832 614.594C687.323 613.718 686.243 612.609 685.592 611.268C684.949 609.893 684.798 608.376 685.138 606.715L689.941 607.135C689.715 608.502 690.065 609.665 690.994 610.625C691.956 611.588 693.391 612.153 695.298 612.32C697.07 612.475 698.568 612.217 699.794 611.547C701.019 610.877 701.787 609.963 702.097 608.807C702.415 607.618 702.105 606.695 701.165 606.038C700.234 605.348 698.703 604.623 696.571 603.862C694.635 603.151 693.073 602.474 691.886 601.829C690.742 601.154 689.835 600.247 689.164 599.106C688.536 597.936 688.457 596.475 688.926 594.725C689.298 593.337 690.064 592.103 691.226 591.021C692.387 589.94 693.84 589.137 695.584 588.614C697.337 588.057 699.218 587.867 701.228 588.043C704.328 588.314 706.628 589.293 708.129 590.979C709.63 592.665 710.094 594.836 709.522 597.49L704.872 597.083C705.151 595.654 704.86 594.462 704 593.508C703.174 592.557 701.858 592.002 700.053 591.844C698.383 591.698 696.962 591.929 695.788 592.536C694.614 593.143 693.877 594.008 693.576 595.131C693.337 596.023 693.428 596.792 693.847 597.437C694.31 598.052 694.936 598.58 695.724 599.021C696.555 599.432 697.714 599.922 699.2 600.491C701.068 601.196 702.562 601.867 703.681 602.506C704.808 603.112 705.678 603.965 706.289 605.067C706.935 606.171 707.053 607.551 706.645 609.205C706.246 610.692 705.462 611.992 704.292 613.107C703.121 614.221 701.66 615.057 699.907 615.613C698.197 616.14 696.337 616.315 694.327 616.139Z" fill="white"/>
<path d="M740.696 604.781C740.466 605.64 740.172 606.544 739.813 607.493L717.432 605.535C716.885 608.225 717.26 610.404 718.556 612.073C719.895 613.711 721.791 614.638 724.244 614.852C726.254 615.028 728.042 614.728 729.61 613.953C731.22 613.147 732.502 612.008 733.454 610.537L738.461 610.975C737.013 613.518 734.943 615.518 732.252 616.973C729.57 618.394 726.56 618.959 723.221 618.667C720.564 618.435 718.335 617.648 716.532 616.307C714.764 614.969 713.567 613.191 712.941 610.973C712.324 608.722 712.392 606.192 713.144 603.385C713.896 600.577 715.135 598.167 716.86 596.154C718.584 594.142 720.636 592.665 723.015 591.723C725.437 590.752 728.01 590.386 730.736 590.624C733.393 590.857 735.593 591.624 737.336 592.926C739.079 594.228 740.23 595.917 740.789 597.994C741.391 600.041 741.36 602.304 740.696 604.781ZM736.145 603.419C736.605 601.702 736.608 600.198 736.152 598.907C735.704 597.583 734.883 596.548 733.689 595.801C732.537 595.024 731.144 594.564 729.509 594.421C727.158 594.216 724.954 594.767 722.895 596.074C720.871 597.384 719.394 599.317 718.465 601.873L736.145 603.419Z" fill="white"/>
<path d="M903.451 616.281C904.354 612.912 905.947 609.958 908.231 607.42C910.524 604.849 913.219 602.921 916.318 601.637C919.45 600.356 922.669 599.86 925.973 600.149C929.856 600.489 933.003 601.694 935.411 603.764C937.82 605.834 939.242 608.595 939.677 612.047L934.107 611.56C933.677 609.393 932.675 607.665 931.102 606.378C929.564 605.095 927.5 604.339 924.911 604.113C922.424 603.895 920.042 604.262 917.766 605.212C915.489 606.162 913.51 607.628 911.828 609.611C910.155 611.56 908.947 613.922 908.203 616.697C907.469 619.439 907.385 621.899 907.951 624.078C908.527 626.225 909.652 627.946 911.327 629.241C913.002 630.537 915.083 631.294 917.569 631.512C920.158 631.738 922.519 631.387 924.65 630.458C926.825 629.499 928.685 628.022 930.23 626.027L935.8 626.515C933.586 629.702 930.788 632.077 927.406 633.64C924.033 635.17 920.404 635.766 916.521 635.426C913.216 635.137 910.4 634.13 908.074 632.405C905.789 630.65 904.222 628.366 903.372 625.554C902.522 622.741 902.548 619.65 903.451 616.281Z" fill="#080210"/>
<path d="M961.334 610.747C963.446 610.932 965.234 611.545 966.698 612.586C968.171 613.594 969.15 615.015 969.635 616.849C970.154 618.686 970.077 620.859 969.404 623.37L965.116 639.373L960.517 638.971L964.633 623.612C965.359 620.903 965.214 618.778 964.197 617.235C963.19 615.659 961.477 614.766 959.058 614.554C956.606 614.34 954.448 614.912 952.585 616.27C950.756 617.631 949.461 619.732 948.699 622.573L944.677 637.585L940.027 637.178L949.851 600.514L954.501 600.921L950.917 614.298C952.208 612.992 953.756 612.028 955.561 611.409C957.399 610.792 959.324 610.572 961.334 610.747Z" fill="#080210"/>
<path d="M1002.18 627.657C1001.95 628.516 1001.65 629.42 1001.29 630.369L978.913 628.41C978.366 631.101 978.741 633.28 980.037 634.949C981.377 636.587 983.272 637.514 985.725 637.728C987.735 637.904 989.524 637.604 991.091 636.828C992.702 636.023 993.983 634.884 994.935 633.412L999.943 633.851C998.494 636.394 996.424 638.394 993.734 639.849C991.052 641.27 988.041 641.835 984.703 641.543C982.046 641.311 979.816 640.524 978.014 639.183C976.246 637.845 975.048 636.067 974.423 633.849C973.806 631.598 973.873 629.068 974.626 626.261C975.378 623.453 976.616 621.043 978.341 619.03C980.066 617.018 982.117 615.541 984.496 614.599C986.918 613.628 989.492 613.262 992.217 613.5C994.874 613.733 997.074 614.5 998.817 615.802C1000.56 617.103 1001.71 618.793 1002.27 620.87C1002.87 622.917 1002.84 625.18 1002.18 627.657ZM997.627 626.295C998.087 624.578 998.089 623.074 997.633 621.783C997.186 620.459 996.365 619.424 995.17 618.677C994.019 617.9 992.626 617.44 990.99 617.297C988.64 617.092 986.435 617.642 984.377 618.95C982.352 620.26 980.875 622.193 979.947 624.748L997.627 626.295Z" fill="#080210"/>
<path d="M1006.31 629.033C1007.06 626.225 1008.3 623.832 1010.01 621.852C1011.74 619.839 1013.78 618.344 1016.13 617.367C1018.52 616.393 1021.04 616.022 1023.7 616.254C1027.14 616.556 1029.75 617.612 1031.53 619.424C1033.35 621.24 1034.23 623.615 1034.17 626.552L1029.16 626.113C1029.13 624.42 1028.54 623.033 1027.4 621.953C1026.3 620.876 1024.72 620.248 1022.68 620.07C1020.02 619.837 1017.64 620.541 1015.52 622.182C1013.42 623.789 1011.93 626.212 1011.06 629.449C1010.19 632.719 1010.33 635.317 1011.49 637.244C1012.64 639.17 1014.55 640.25 1017.21 640.482C1019.25 640.661 1021.08 640.348 1022.69 639.542C1024.3 638.737 1025.59 637.497 1026.56 635.824L1031.57 636.263C1030.08 638.972 1027.98 641.07 1025.28 642.558C1022.59 644.013 1019.56 644.593 1016.19 644.298C1013.53 644.065 1011.32 643.28 1009.55 641.942C1007.81 640.607 1006.65 638.832 1006.06 636.617C1005.47 634.401 1005.55 631.873 1006.31 629.033Z" fill="#080210"/>
<path d="M1051.07 646.893L1043.3 633.942L1040.09 645.932L1035.44 645.525L1045.26 608.861L1049.91 609.268L1044.14 630.821L1058.14 619.724L1064.63 620.292L1047.83 632.665L1057.41 647.448L1051.07 646.893Z" fill="#080210"/>
<path d="M1073.83 649.341C1071.21 649.111 1068.98 648.324 1067.14 646.981C1065.34 645.64 1064.11 643.859 1063.45 641.637C1062.83 639.386 1062.9 636.857 1063.65 634.049C1064.39 631.275 1065.66 628.884 1067.45 626.877C1069.29 624.841 1071.43 623.355 1073.88 622.419C1076.33 621.451 1078.89 621.083 1081.55 621.315C1084.2 621.548 1086.45 622.336 1088.29 623.68C1090.13 624.991 1091.38 626.757 1092.04 628.978C1092.74 631.202 1092.71 633.718 1091.96 636.526C1091.21 639.333 1089.89 641.754 1088.02 643.788C1086.2 645.791 1084.04 647.276 1081.55 648.241C1079.06 649.207 1076.49 649.573 1073.83 649.341ZM1074.89 645.377C1076.56 645.523 1078.23 645.28 1079.9 644.649C1081.57 644.017 1083.05 642.98 1084.34 641.538C1085.67 640.1 1086.62 638.29 1087.21 636.11C1087.79 633.93 1087.84 632.042 1087.36 630.445C1086.89 628.848 1086.03 627.623 1084.79 626.771C1083.56 625.887 1082.12 625.371 1080.45 625.225C1078.74 625.076 1077.07 625.319 1075.44 625.953C1073.85 626.558 1072.42 627.583 1071.17 629.027C1069.91 630.472 1068.99 632.285 1068.4 634.465C1067.81 636.678 1067.72 638.58 1068.13 640.171C1068.57 641.765 1069.39 643.003 1070.58 643.885C1071.79 644.733 1073.22 645.231 1074.89 645.377Z" fill="#080210"/>
<path d="M1126.53 625.707L1119.25 652.858L1114.6 652.452L1115.68 648.438C1114.42 649.748 1112.89 650.729 1111.07 651.382C1109.3 652.005 1107.46 652.233 1105.56 652.066C1103.38 651.875 1101.53 651.274 1100.02 650.263C1098.53 649.22 1097.5 647.778 1096.95 645.938C1096.43 644.101 1096.51 641.927 1097.18 639.417L1101.44 623.512L1106.04 623.915L1101.94 639.224C1101.22 641.9 1101.37 644.025 1102.37 645.601C1103.39 647.143 1105.11 648.02 1107.52 648.232C1110.01 648.45 1112.17 647.878 1114 646.517C1115.83 645.155 1117.12 643.054 1117.88 640.214L1121.88 625.3L1126.53 625.707Z" fill="#080210"/>
<path d="M1139.06 630.606L1134.77 646.61C1134.41 647.931 1134.45 648.898 1134.88 649.51C1135.32 650.089 1136.25 650.441 1137.68 650.566L1141.11 650.866L1140.08 654.681L1135.89 654.314C1133.31 654.088 1131.52 653.34 1130.53 652.071C1129.55 650.801 1129.41 648.845 1130.12 646.203L1134.41 630.2L1130.78 629.882L1131.77 626.166L1135.4 626.484L1137.23 619.646L1141.88 620.053L1140.05 626.89L1147.36 627.53L1146.36 631.246L1139.06 630.606Z" fill="#080210"/>
<path d="M1282.06 659.243L1266.53 657.884L1261.61 665.313L1256.7 664.884L1278.78 631.675L1284.14 632.145L1287.77 667.602L1282.86 667.173L1282.06 659.243ZM1281.71 655.46L1279.95 637.457L1268.84 654.334L1281.71 655.46Z" fill="#080210"/>
<path d="M1295.31 654.266C1296.05 651.492 1297.28 649.115 1299 647.135C1300.72 645.123 1302.74 643.626 1305.06 642.646C1307.42 641.669 1309.85 641.29 1312.38 641.511C1314.56 641.702 1316.45 642.374 1318.06 643.529C1319.67 644.651 1320.76 646.048 1321.33 647.72L1325.18 633.351L1329.88 633.763L1320.05 670.427L1315.35 670.015L1316.72 664.912C1315.37 666.45 1313.65 667.669 1311.56 668.568C1309.48 669.434 1307.23 669.761 1304.81 669.549C1302.32 669.332 1300.22 668.539 1298.49 667.171C1296.8 665.806 1295.66 664 1295.08 661.751C1294.5 659.503 1294.57 657.008 1295.31 654.266ZM1319 656.39C1319.55 654.342 1319.61 652.521 1319.16 650.928C1318.72 649.334 1317.87 648.076 1316.62 647.155C1315.41 646.204 1313.93 645.653 1312.2 645.501C1310.46 645.349 1308.77 645.607 1307.12 646.274C1305.48 646.942 1304.03 647.998 1302.77 649.443C1301.51 650.888 1300.61 652.634 1300.06 654.682C1299.5 656.763 1299.44 658.617 1299.88 660.244C1300.32 661.838 1301.15 663.11 1302.36 664.061C1303.58 664.979 1305.05 665.514 1306.79 665.666C1308.53 665.818 1310.22 665.56 1311.86 664.893C1313.55 664.195 1315.02 663.124 1316.28 661.679C1317.55 660.201 1318.46 658.438 1319 656.39Z" fill="#080210"/>
<path d="M1329.84 657.288C1330.58 654.513 1331.81 652.136 1333.53 650.156C1335.25 648.144 1337.28 646.647 1339.6 645.667C1341.95 644.69 1344.39 644.311 1346.91 644.532C1349.09 644.723 1350.98 645.395 1352.59 646.55C1354.21 647.672 1355.3 649.069 1355.86 650.741L1359.71 636.373L1364.41 636.784L1354.59 673.448L1349.89 673.037L1351.25 667.933C1349.9 669.471 1348.18 670.69 1346.09 671.589C1344.01 672.455 1341.76 672.782 1339.34 672.57C1336.85 672.353 1334.75 671.56 1333.02 670.192C1331.33 668.827 1330.2 667.021 1329.61 664.772C1329.03 662.524 1329.11 660.029 1329.84 657.288ZM1353.54 659.411C1354.08 657.363 1354.14 655.543 1353.69 653.949C1353.25 652.355 1352.4 651.097 1351.15 650.176C1349.94 649.225 1348.46 648.674 1346.73 648.522C1344.99 648.37 1343.3 648.628 1341.66 649.295C1340.01 649.963 1338.56 651.019 1337.3 652.464C1336.04 653.909 1335.14 655.655 1334.59 657.703C1334.03 659.784 1333.97 661.638 1334.41 663.265C1334.85 664.859 1335.68 666.131 1336.89 667.082C1338.11 668 1339.59 668.535 1341.32 668.687C1343.06 668.839 1344.75 668.581 1346.39 667.914C1348.08 667.216 1349.55 666.145 1350.81 664.7C1352.08 663.222 1352.99 661.459 1353.54 659.411Z" fill="#080210"/>
<path d="M1388.02 652.388L1383.73 668.391C1383.38 669.713 1383.41 670.679 1383.84 671.292C1384.28 671.871 1385.21 672.223 1386.65 672.348L1390.07 672.648L1389.05 676.463L1384.86 676.096C1382.27 675.87 1380.48 675.122 1379.5 673.852C1378.51 672.583 1378.37 670.627 1379.08 667.985L1383.37 651.981L1379.74 651.664L1380.74 647.948L1384.36 648.265L1386.2 641.428L1390.85 641.835L1389.01 648.672L1396.32 649.311L1395.33 653.027L1388.02 652.388Z" fill="#080210"/>
<path d="M1406.77 678.47C1404.15 678.24 1401.92 677.454 1400.08 676.11C1398.28 674.769 1397.05 672.988 1396.39 670.767C1395.77 668.516 1395.84 665.986 1396.59 663.178C1397.34 660.404 1398.61 658.013 1400.4 656.007C1402.23 653.97 1404.38 652.484 1406.82 651.549C1409.28 650.58 1411.83 650.212 1414.49 650.445C1417.15 650.677 1419.4 651.465 1421.23 652.809C1423.08 654.12 1424.33 655.886 1424.99 658.107C1425.68 660.332 1425.65 662.848 1424.9 665.655C1424.15 668.463 1422.84 670.883 1420.97 672.917C1419.14 674.921 1416.98 676.405 1414.49 677.371C1412 678.336 1409.43 678.702 1406.77 678.47ZM1407.84 674.506C1409.5 674.652 1411.17 674.41 1412.84 673.778C1414.51 673.146 1415.99 672.11 1417.28 670.668C1418.61 669.229 1419.57 667.419 1420.15 665.239C1420.73 663.059 1420.79 661.171 1420.31 659.574C1419.83 657.977 1418.97 656.753 1417.74 655.901C1416.51 655.016 1415.06 654.501 1413.39 654.354C1411.69 654.205 1410.02 654.448 1408.39 655.083C1406.79 655.687 1405.37 656.712 1404.11 658.157C1402.85 659.602 1401.93 661.414 1401.35 663.594C1400.75 665.807 1400.66 667.709 1401.07 669.3C1401.52 670.894 1402.34 672.132 1403.53 673.014C1404.73 673.863 1406.17 674.36 1407.84 674.506Z" fill="#080210"/>
<path d="M1442.9 667.23C1443.65 664.422 1444.89 662.029 1446.6 660.049C1448.33 658.036 1450.37 656.542 1452.72 655.564C1455.11 654.59 1457.63 654.219 1460.29 654.452C1463.73 654.753 1466.34 655.809 1468.12 657.621C1469.94 659.437 1470.82 661.812 1470.76 664.749L1465.75 664.31C1465.72 662.617 1465.13 661.231 1463.99 660.15C1462.89 659.073 1461.31 658.445 1459.27 658.267C1456.61 658.034 1454.22 658.738 1452.11 660.379C1450.01 661.986 1448.52 664.409 1447.65 667.646C1446.78 670.916 1446.92 673.514 1448.08 675.441C1449.23 677.367 1451.14 678.447 1453.8 678.68C1455.84 678.858 1457.67 678.545 1459.28 677.739C1460.89 676.934 1462.18 675.694 1463.15 674.022L1468.16 674.46C1466.67 677.169 1464.57 679.267 1461.87 680.755C1459.18 682.21 1456.15 682.79 1452.77 682.495C1450.12 682.262 1447.91 681.477 1446.14 680.139C1444.4 678.804 1443.24 677.029 1442.65 674.814C1442.06 672.598 1442.14 670.071 1442.9 667.23Z" fill="#080210"/>
<path d="M1473.95 669.896C1474.7 667.121 1475.93 664.744 1477.64 662.765C1479.37 660.752 1481.39 659.256 1483.71 658.275C1486.06 657.298 1488.48 656.918 1490.97 657.136C1493.42 657.35 1495.41 658.049 1496.95 659.231C1498.48 660.412 1499.48 661.818 1499.95 663.448L1501.27 658.494L1505.98 658.905L1498.7 686.056L1494 685.645L1495.35 680.591C1494.01 682.096 1492.28 683.297 1490.15 684.193C1488.07 685.059 1485.82 685.386 1483.4 685.174C1480.92 684.957 1478.83 684.166 1477.14 682.801C1475.45 681.436 1474.31 679.629 1473.73 677.381C1473.14 675.132 1473.22 672.637 1473.95 669.896ZM1497.65 672.02C1498.2 669.972 1498.25 668.151 1497.81 666.557C1497.36 664.963 1496.51 663.706 1495.26 662.785C1494.05 661.834 1492.58 661.282 1490.84 661.13C1489.1 660.978 1487.41 661.236 1485.77 661.904C1484.13 662.571 1482.68 663.628 1481.42 665.072C1480.16 666.517 1479.25 668.264 1478.71 670.312C1478.15 672.393 1478.09 674.246 1478.52 675.873C1478.97 677.467 1479.79 678.74 1481 679.691C1482.22 680.609 1483.7 681.144 1485.44 681.296C1487.17 681.448 1488.87 681.19 1490.51 680.522C1492.19 679.825 1493.67 678.753 1494.93 677.308C1496.19 675.831 1497.1 674.068 1497.65 672.02Z" fill="#080210"/>
<path d="M1517.3 664.409C1518.54 662.928 1520.02 661.824 1521.75 661.096C1523.51 660.371 1525.48 660.104 1527.66 660.295L1526.41 664.952L1525.19 664.845C1519.97 664.389 1516.63 666.903 1515.16 672.386L1511.21 687.15L1506.56 686.744L1513.83 659.592L1518.48 659.999L1517.3 664.409Z" fill="#080210"/>
<path d="M1537.57 665.472L1533.28 681.476C1532.93 682.797 1532.97 683.764 1533.4 684.376C1533.83 684.955 1534.77 685.307 1536.2 685.432L1539.62 685.732L1538.6 689.547L1534.41 689.18C1531.82 688.954 1530.03 688.206 1529.05 686.937C1528.06 685.667 1527.93 683.711 1528.63 681.069L1532.92 665.066L1529.29 664.748L1530.29 661.032L1533.92 661.35L1535.75 654.512L1540.4 654.919L1538.57 661.756L1545.87 662.396L1544.88 666.112L1537.57 665.472Z" fill="#080210"/>
<path d="M328.076 1212.44C328.076 1212.44 435.592 1016.16 478.346 1034.14C521.1 1052.12 513.121 1132.51 585.451 1138.84C657.782 1145.17 727.905 896.612 796.562 895.595C865.22 894.579 838.972 1064.19 909.264 1054.41C979.556 1044.63 1063.08 823.424 1136.51 822.337C1209.93 821.249 1213.09 987.319 1291.33 976.424C1369.57 965.529 1372.33 818.411 1463.72 784.41" stroke="url(#paint2_linear_191_179)" stroke-width="12"/>
<path d="M287.202 1332.75L1318.75 1423" stroke="#010101"/>
<path d="M365.677 1381.92L348.316 1402.41L344.825 1415.44L340.175 1415.03L343.666 1402L337.777 1379.48L342.938 1379.93L347.041 1398.19L360.516 1381.47L365.677 1381.92Z" fill="#0C1014"/>
<path d="M390.794 1404.5C390.564 1405.36 390.27 1406.26 389.911 1407.21L367.53 1405.26C366.983 1407.95 367.358 1410.13 368.654 1411.79C369.993 1413.43 371.889 1414.36 374.342 1414.57C376.352 1414.75 378.14 1414.45 379.708 1413.67C381.318 1412.87 382.6 1411.73 383.552 1410.26L388.559 1410.7C387.111 1413.24 385.041 1415.24 382.35 1416.69C379.668 1418.12 376.658 1418.68 373.319 1418.39C370.662 1418.16 368.433 1417.37 366.63 1416.03C364.862 1414.69 363.665 1412.91 363.039 1410.69C362.422 1408.44 362.49 1405.91 363.242 1403.11C363.994 1400.3 365.233 1397.89 366.958 1395.88C368.682 1393.86 370.734 1392.39 373.113 1391.44C375.535 1390.47 378.108 1390.11 380.834 1390.35C383.491 1390.58 385.691 1391.35 387.434 1392.65C389.177 1393.95 390.328 1395.64 390.887 1397.72C391.489 1399.76 391.458 1402.02 390.794 1404.5ZM386.243 1403.14C386.703 1401.42 386.706 1399.92 386.25 1398.63C385.802 1397.3 384.981 1396.27 383.787 1395.52C382.635 1394.75 381.242 1394.29 379.607 1394.14C377.256 1393.94 375.052 1394.49 372.993 1395.8C370.969 1397.11 369.492 1399.04 368.563 1401.59L386.243 1403.14Z" fill="#0C1014"/>
<path d="M402.809 1420.97C400.663 1420.78 398.831 1420.27 397.314 1419.42C395.805 1418.55 394.725 1417.44 394.074 1416.1C393.431 1414.72 393.28 1413.2 393.62 1411.54L398.423 1411.96C398.197 1413.33 398.548 1414.49 399.476 1415.45C400.438 1416.42 401.873 1416.98 403.78 1417.15C405.552 1417.3 407.05 1417.05 408.276 1416.38C409.501 1415.71 410.269 1414.79 410.579 1413.64C410.897 1412.45 410.587 1411.52 409.647 1410.87C408.717 1410.18 407.185 1409.45 405.053 1408.69C403.117 1407.98 401.555 1407.3 400.368 1406.66C399.224 1405.98 398.317 1405.08 397.646 1403.94C397.018 1402.76 396.939 1401.3 397.408 1399.55C397.78 1398.17 398.547 1396.93 399.708 1395.85C400.869 1394.77 402.322 1393.97 404.066 1393.44C405.819 1392.89 407.7 1392.7 409.71 1392.87C412.81 1393.14 415.111 1394.12 416.611 1395.81C418.112 1397.49 418.576 1399.66 418.004 1402.32L413.354 1401.91C413.633 1400.48 413.342 1399.29 412.482 1398.34C411.656 1397.39 410.34 1396.83 408.535 1396.67C406.866 1396.53 405.444 1396.76 404.27 1397.37C403.096 1397.97 402.359 1398.84 402.058 1399.96C401.819 1400.85 401.91 1401.62 402.329 1402.27C402.792 1402.88 403.418 1403.41 404.206 1403.85C405.037 1404.26 406.196 1404.75 407.682 1405.32C409.55 1406.02 411.044 1406.7 412.163 1407.34C413.29 1407.94 414.16 1408.79 414.771 1409.9C415.417 1411 415.535 1412.38 415.127 1414.03C414.728 1415.52 413.944 1416.82 412.774 1417.94C411.604 1419.05 410.142 1419.89 408.389 1420.44C406.679 1420.97 404.819 1421.14 402.809 1420.97Z" fill="#0C1014"/>
<path d="M431.664 1399.05L427.376 1415.06C427.022 1416.38 427.059 1417.34 427.488 1417.96C427.926 1418.53 428.86 1418.89 430.29 1419.01L433.714 1419.31L432.692 1423.13L428.502 1422.76C425.913 1422.53 424.126 1421.79 423.141 1420.52C422.156 1419.25 422.018 1417.29 422.726 1414.65L427.014 1398.65L423.386 1398.33L424.382 1394.61L428.01 1394.93L429.842 1388.09L434.492 1388.5L432.66 1395.34L439.967 1395.98L438.971 1399.69L431.664 1399.05Z" fill="#0C1014"/>
<path d="M467.791 1411.24C467.561 1412.1 467.267 1413 466.908 1413.95L444.527 1411.99C443.98 1414.68 444.355 1416.86 445.651 1418.53C446.99 1420.17 448.886 1421.1 451.339 1421.31C453.349 1421.49 455.137 1421.19 456.705 1420.41C458.315 1419.6 459.597 1418.47 460.549 1416.99L465.557 1417.43C464.108 1419.98 462.038 1421.98 459.347 1423.43C456.665 1424.85 453.655 1425.42 450.317 1425.12C447.66 1424.89 445.43 1424.11 443.628 1422.76C441.859 1421.43 440.662 1419.65 440.036 1417.43C439.419 1415.18 439.487 1412.65 440.239 1409.84C440.992 1407.03 442.23 1404.62 443.955 1402.61C445.679 1400.6 447.731 1399.12 450.11 1398.18C452.532 1397.21 455.106 1396.84 457.831 1397.08C460.488 1397.31 462.688 1398.08 464.431 1399.38C466.174 1400.69 467.325 1402.37 467.884 1404.45C468.486 1406.5 468.455 1408.76 467.791 1411.24ZM463.24 1409.88C463.701 1408.16 463.703 1406.66 463.247 1405.36C462.8 1404.04 461.979 1403.01 460.784 1402.26C459.633 1401.48 458.239 1401.02 456.604 1400.88C454.254 1400.67 452.049 1401.22 449.99 1402.53C447.966 1403.84 446.489 1405.77 445.56 1408.33L463.24 1409.88Z" fill="#0C1014"/>
<path d="M480.756 1404.06C481.99 1402.58 483.471 1401.47 485.2 1400.74C486.963 1400.02 488.935 1399.75 491.115 1399.94L489.867 1404.6L488.641 1404.49C483.429 1404.04 480.088 1406.55 478.619 1412.03L474.663 1426.8L470.013 1426.39L477.288 1399.24L481.938 1399.65L480.756 1404.06Z" fill="#0C1014"/>
<path d="M491.002 1414.23C491.745 1411.46 492.975 1409.08 494.691 1407.1C496.415 1405.09 498.438 1403.59 500.757 1402.61C503.111 1401.63 505.548 1401.26 508.069 1401.48C510.249 1401.67 512.143 1402.34 513.752 1403.5C515.368 1404.62 516.458 1406.01 517.022 1407.69L520.872 1393.32L525.573 1393.73L515.749 1430.39L511.047 1429.98L512.415 1424.88C511.061 1426.42 509.34 1427.64 507.252 1428.53C505.172 1429.4 502.923 1429.73 500.504 1429.52C498.017 1429.3 495.911 1428.51 494.186 1427.14C492.494 1425.77 491.357 1423.97 490.774 1421.72C490.191 1419.47 490.267 1416.97 491.002 1414.23ZM514.698 1416.36C515.247 1414.31 515.299 1412.49 514.855 1410.89C514.41 1409.3 513.562 1408.04 512.309 1407.12C511.1 1406.17 509.626 1405.62 507.889 1405.47C506.152 1405.32 504.461 1405.57 502.818 1406.24C501.175 1406.91 499.724 1407.96 498.465 1409.41C497.206 1410.85 496.303 1412.6 495.754 1414.65C495.196 1416.73 495.135 1418.58 495.571 1420.21C496.016 1421.8 496.843 1423.08 498.052 1424.03C499.27 1424.95 500.748 1425.48 502.486 1425.63C504.223 1425.78 505.913 1425.53 507.556 1424.86C509.243 1424.16 510.715 1423.09 511.974 1421.65C513.241 1420.17 514.15 1418.4 514.698 1416.36Z" fill="#0C1014"/>
<path d="M525.533 1417.25C526.277 1414.48 527.506 1412.1 529.222 1410.12C530.947 1408.11 532.969 1406.61 535.289 1405.63C537.642 1404.66 540.063 1404.28 542.549 1404.49C545.002 1404.71 546.994 1405.41 548.525 1406.59C550.056 1407.77 551.057 1409.18 551.526 1410.81L552.854 1405.85L557.555 1406.26L550.28 1433.41L545.579 1433L546.933 1427.95C545.588 1429.45 543.855 1430.65 541.732 1431.55C539.652 1432.42 537.403 1432.74 534.984 1432.53C532.497 1432.31 530.408 1431.52 528.717 1430.16C527.026 1428.79 525.889 1426.99 525.306 1424.74C524.723 1422.49 524.799 1420 525.533 1417.25ZM549.23 1419.38C549.779 1417.33 549.831 1415.51 549.386 1413.92C548.942 1412.32 548.093 1411.06 546.841 1410.14C545.631 1409.19 544.158 1408.64 542.42 1408.49C540.683 1408.34 538.993 1408.59 537.35 1409.26C535.706 1409.93 534.255 1410.99 532.997 1412.43C531.738 1413.88 530.834 1415.62 530.285 1417.67C529.728 1419.75 529.667 1421.6 530.103 1423.23C530.547 1424.83 531.374 1426.1 532.584 1427.05C533.802 1427.97 535.28 1428.5 537.017 1428.65C538.755 1428.81 540.445 1428.55 542.088 1427.88C543.774 1427.18 545.246 1426.11 546.505 1424.67C547.773 1423.19 548.681 1421.43 549.23 1419.38Z" fill="#0C1014"/>
<path d="M589.532 1409.06L561.969 1447.52L557.166 1447.1L566.189 1434.5L562.092 1406.66L567.253 1407.11L570.147 1429.88L584.728 1408.64L589.532 1409.06Z" fill="#0C1014"/>
<path d="M492.461 431.068L496.112 417.442L553.418 363.128L574.24 364.95L559.106 421.432L570.348 422.416L566.298 437.528L555.057 436.544L550.344 454.133L532.459 452.568L537.172 434.979L492.461 431.068ZM552.527 382.066L516.183 417.677L542.371 419.968L552.527 382.066Z" fill="#0C1014"/>
<path d="M599.44 439.793L575.167 473.292L563.67 472.286L581.3 438.206L599.44 439.793Z" fill="#0C1014"/>
<path d="M617.82 412.625C621.648 398.339 627.286 387.381 634.735 379.75C642.269 372.127 652.21 368.856 664.559 369.936C676.908 371.017 684.638 375.834 687.75 384.388C690.947 392.95 690.631 404.374 686.803 418.66C682.953 433.028 677.251 444.065 669.695 451.771C662.224 459.484 652.314 462.801 639.965 461.72C627.617 460.64 619.855 455.777 616.68 447.133C613.59 438.496 613.97 426.993 617.82 412.625ZM669.174 417.118C670.812 411.007 671.758 405.85 672.012 401.647C672.374 397.368 671.675 393.8 669.913 390.941C668.236 388.09 665.013 386.456 660.244 386.039C655.475 385.621 651.502 386.626 648.324 389.052C645.231 391.486 642.695 394.772 640.715 398.908C638.842 402.97 637.087 408.056 635.449 414.167C633.768 420.443 632.735 425.761 632.351 430.122C631.989 434.401 632.689 437.969 634.45 440.828C636.234 443.604 639.511 445.2 644.28 445.618C649.049 446.035 653.012 445.072 656.167 442.728C659.345 440.302 661.882 437.016 663.776 432.872C665.694 428.645 667.493 423.393 669.174 417.118Z" fill="#0C1014"/>
<path d="M706.072 399.682C708.71 391.462 713.395 385.364 720.125 381.39C726.963 377.34 734.938 375.713 744.051 376.511C750.268 377.054 755.303 378.594 759.156 381.128C763.032 383.58 765.59 386.719 766.83 390.547C768.178 394.299 768.244 398.445 767.027 402.987C765.633 408.189 763.044 412.484 759.26 415.872C755.583 419.184 751.663 421.292 747.499 422.195L747.366 422.691C751.907 424.609 755.031 427.587 756.739 431.624C758.531 435.668 758.631 440.663 757.038 446.609C755.711 451.564 753.335 455.877 749.91 459.55C746.571 463.229 742.303 465.983 737.106 467.81C732.017 469.562 726.279 470.159 719.892 469.6C710.268 468.758 703.064 465.719 698.278 460.483C693.493 455.248 692.158 448.032 694.273 438.836L711.647 440.356C710.733 444.417 711.264 447.802 713.24 450.51C715.324 453.143 718.708 454.665 723.392 455.074C727.735 455.454 731.366 454.589 734.285 452.478C737.312 450.292 739.323 447.341 740.318 443.625C741.646 438.67 740.979 434.978 738.318 432.548C735.657 430.118 730.92 428.605 724.107 428.009L720.403 427.684L724.219 413.44L727.924 413.764C740.017 414.822 747.115 411.429 749.217 403.584C750.168 400.033 749.802 397.17 748.119 394.994C746.521 392.826 743.678 391.563 739.59 391.206C735.588 390.856 732.191 391.657 729.402 393.61C726.72 395.489 724.777 398.023 723.573 401.214L706.072 399.682Z" fill="#0C1014"/>
<path d="M844.418 400.884L789.761 475.079L771.621 473.492L826.003 401.301L782.313 397.479L786.296 382.615L847.87 388.002L844.418 400.884Z" fill="#0C1014"/>
<path d="M1097.21 1445.92L1096.22 1449.59L1086.52 1448.74L1078.24 1479.61L1073.59 1479.2L1081.87 1448.33L1072.11 1447.48L1073.09 1443.81L1097.21 1445.92Z" fill="#0C1014"/>
<path d="M1105.77 1482.47C1103.15 1482.24 1100.92 1481.45 1099.08 1480.11C1097.28 1478.77 1096.05 1476.99 1095.39 1474.77C1094.77 1472.52 1094.84 1469.99 1095.59 1467.18C1096.33 1464.4 1097.6 1462.01 1099.39 1460.01C1101.23 1457.97 1103.37 1456.48 1105.82 1455.55C1108.27 1454.58 1110.83 1454.21 1113.49 1454.44C1116.15 1454.68 1118.39 1455.47 1120.23 1456.81C1122.07 1458.12 1123.33 1459.89 1123.99 1462.11C1124.68 1464.33 1124.65 1466.85 1123.9 1469.65C1123.15 1472.46 1121.84 1474.88 1119.97 1476.92C1118.14 1478.92 1115.98 1480.41 1113.49 1481.37C1111 1482.34 1108.43 1482.7 1105.77 1482.47ZM1106.83 1478.51C1108.5 1478.65 1110.17 1478.41 1111.84 1477.78C1113.51 1477.15 1114.99 1476.11 1116.28 1474.67C1117.61 1473.23 1118.56 1471.42 1119.15 1469.24C1119.73 1467.06 1119.78 1465.17 1119.31 1463.57C1118.83 1461.98 1117.97 1460.75 1116.73 1459.9C1115.51 1459.02 1114.06 1458.5 1112.39 1458.35C1110.69 1458.21 1109.02 1458.45 1107.38 1459.08C1105.79 1459.69 1104.37 1460.71 1103.11 1462.16C1101.85 1463.6 1100.93 1465.41 1100.34 1467.59C1099.75 1469.81 1099.66 1471.71 1100.07 1473.3C1100.51 1474.89 1101.33 1476.13 1102.53 1477.01C1103.73 1477.86 1105.16 1478.36 1106.83 1478.51Z" fill="#0C1014"/>
<path d="M1128.29 1469.99C1129.03 1467.21 1130.26 1464.84 1131.98 1462.86C1133.7 1460.84 1135.72 1459.35 1138.04 1458.37C1140.4 1457.39 1142.84 1457.01 1145.36 1457.23C1147.54 1457.42 1149.43 1458.1 1151.04 1459.25C1152.66 1460.37 1153.75 1461.77 1154.31 1463.44L1158.16 1449.07L1162.86 1449.48L1153.04 1486.15L1148.33 1485.74L1149.7 1480.63C1148.35 1482.17 1146.63 1483.39 1144.54 1484.29C1142.46 1485.16 1140.21 1485.48 1137.79 1485.27C1135.3 1485.05 1133.2 1484.26 1131.47 1482.89C1129.78 1481.53 1128.64 1479.72 1128.06 1477.47C1127.48 1475.22 1127.55 1472.73 1128.29 1469.99ZM1151.99 1472.11C1152.53 1470.06 1152.59 1468.24 1152.14 1466.65C1151.7 1465.06 1150.85 1463.8 1149.6 1462.88C1148.39 1461.93 1146.91 1461.37 1145.18 1461.22C1143.44 1461.07 1141.75 1461.33 1140.11 1462C1138.46 1462.66 1137.01 1463.72 1135.75 1465.16C1134.49 1466.61 1133.59 1468.36 1133.04 1470.4C1132.48 1472.48 1132.42 1474.34 1132.86 1475.97C1133.3 1477.56 1134.13 1478.83 1135.34 1479.78C1136.56 1480.7 1138.04 1481.24 1139.77 1481.39C1141.51 1481.54 1143.2 1481.28 1144.84 1480.61C1146.53 1479.92 1148 1478.85 1149.26 1477.4C1150.53 1475.92 1151.44 1474.16 1151.99 1472.11Z" fill="#0C1014"/>
<path d="M1162.82 1473.01C1163.56 1470.23 1164.79 1467.86 1166.51 1465.88C1168.23 1463.87 1170.26 1462.37 1172.58 1461.39C1174.93 1460.41 1177.35 1460.03 1179.84 1460.25C1182.29 1460.46 1184.28 1461.16 1185.81 1462.34C1187.34 1463.53 1188.34 1464.93 1188.81 1466.56L1190.14 1461.61L1194.84 1462.02L1187.57 1489.17L1182.87 1488.76L1184.22 1483.7C1182.88 1485.21 1181.14 1486.41 1179.02 1487.31C1176.94 1488.17 1174.69 1488.5 1172.27 1488.29C1169.78 1488.07 1167.7 1487.28 1166 1485.91C1164.31 1484.55 1163.18 1482.74 1162.59 1480.49C1162.01 1478.25 1162.09 1475.75 1162.82 1473.01ZM1186.52 1475.13C1187.07 1473.09 1187.12 1471.26 1186.67 1469.67C1186.23 1468.08 1185.38 1466.82 1184.13 1465.9C1182.92 1464.95 1181.44 1464.4 1179.71 1464.24C1177.97 1464.09 1176.28 1464.35 1174.64 1465.02C1172.99 1465.68 1171.54 1466.74 1170.28 1468.19C1169.03 1469.63 1168.12 1471.38 1167.57 1473.43C1167.01 1475.51 1166.95 1477.36 1167.39 1478.99C1167.83 1480.58 1168.66 1481.85 1169.87 1482.8C1171.09 1483.72 1172.57 1484.26 1174.3 1484.41C1176.04 1484.56 1177.73 1484.3 1179.38 1483.64C1181.06 1482.94 1182.53 1481.87 1183.79 1480.42C1185.06 1478.94 1185.97 1477.18 1186.52 1475.13Z" fill="#0C1014"/>
<path d="M1226.82 1464.82L1199.26 1503.27L1194.45 1502.85L1203.48 1490.26L1199.38 1462.42L1204.54 1462.87L1207.43 1485.63L1222.02 1464.4L1226.82 1464.82Z" fill="#0C1014"/>
<mask id="mask1_191_179" style="mask-type:alpha" maskUnits="userSpaceOnUse" x="3" y="1" width="1618" height="1507">
<rect width="1253.49" height="1449.05" rx="14" transform="matrix(0.996195 0.0871557 -0.258819 0.965926 375.04 0)" fill="white"/>
</mask>
<g mask="url(#mask1_191_179)">
<path opacity="0.6" d="M365.084 37.1596C370.583 16.637 392.199 1.50127 413.364 3.35303L1585.44 105.896C1606.6 107.748 1619.3 125.886 1613.81 146.409L1258.68 1471.76C1253.18 1492.29 1231.56 1507.42 1210.4 1505.57L38.3229 1403.03C17.1571 1401.18 4.45673 1383.04 9.95575 1362.51L365.084 37.1596Z" fill="white"/>
<path d="M1427.25 185.548C1268.93 776.428 664.504 1213.78 77.2369 1162.4C-510.03 1111.02 -857.756 590.368 -699.43 -0.512631C-541.104 -591.393 63.3186 -1028.74 650.586 -977.366C1237.85 -925.986 1585.58 -405.332 1427.25 185.548Z" fill="url(#paint3_radial_191_179)" fill-opacity="0.8"/>
</g>
<path d="M466.988 134.344L464.55 143.442L449.106 142.09L436.485 189.19L424.86 188.173L437.481 141.073L422.036 139.722L424.474 130.624L466.988 134.344Z" fill="black"/>
<path d="M480.472 154.475C482.6 152.244 485.033 150.562 487.773 149.429C490.569 148.3 493.516 147.871 496.616 148.142L493.445 159.978L490.373 159.709C486.719 159.389 483.728 159.979 481.4 161.478C479.128 162.982 477.438 165.801 476.33 169.934L470.376 192.155L458.751 191.138L470.703 146.534L482.328 147.551L480.472 154.475Z" fill="black"/>
<path d="M493.691 171.205C494.899 166.697 496.884 162.778 499.645 159.449C502.462 156.125 505.7 153.661 509.359 152.059C513.073 150.461 516.895 149.834 520.826 150.178C524.258 150.478 527.067 151.411 529.254 152.975C531.496 154.545 533.119 156.417 534.123 158.592L535.827 152.232L547.535 153.256L535.583 197.86L523.875 196.836L525.623 190.314C523.567 192.277 521.024 193.84 517.993 195.003C515.032 196.117 511.835 196.524 508.403 196.224C504.528 195.885 501.244 194.608 498.551 192.395C495.913 190.187 494.121 187.256 493.173 183.602C492.296 179.9 492.468 175.768 493.691 171.205ZM529.851 174.534C530.585 171.796 530.657 169.413 530.067 167.384C529.492 165.301 528.4 163.667 526.791 162.483C525.197 161.245 523.32 160.531 521.161 160.342C519.002 160.154 516.873 160.489 514.773 161.349C512.673 162.209 510.776 163.581 509.081 165.465C507.456 167.301 506.284 169.561 505.565 172.244C504.846 174.928 504.767 177.338 505.327 179.475C505.958 181.562 507.042 183.223 508.581 184.456C510.176 185.694 512.025 186.405 514.128 186.589C516.287 186.778 518.445 186.445 520.6 185.59C522.77 184.681 524.667 183.309 526.292 181.474C527.931 179.584 529.118 177.271 529.851 174.534Z" fill="black"/>
<path d="M548.263 176.145C549.5 171.529 551.547 167.588 554.405 164.322C557.277 161.003 560.681 158.554 564.617 156.976C568.567 155.343 572.756 154.721 577.184 155.109C582.886 155.607 587.218 157.415 590.179 160.53C593.209 163.597 594.693 167.682 594.628 172.785L582.09 171.688C581.943 169.698 581.211 168.096 579.894 166.882C578.646 165.619 576.859 164.886 574.534 164.682C571.213 164.392 568.267 165.343 565.697 167.535C563.141 169.673 561.287 172.889 560.137 177.183C559.001 181.424 559.085 184.81 560.39 187.341C561.709 189.818 564.029 191.202 567.35 191.493C572.056 191.905 575.674 190.134 578.207 186.18L590.745 187.277C588.177 191.997 584.63 195.614 580.104 198.129C575.577 200.645 570.491 201.656 564.845 201.162C560.416 200.774 556.737 199.491 553.809 197.312C550.894 195.08 548.929 192.161 547.912 188.556C546.909 184.898 547.026 180.761 548.263 176.145Z" fill="black"/>
<path d="M620.802 205.316L610.283 184.949L605.191 203.95L593.566 202.933L609.531 143.354L621.156 144.371L612.073 178.267L632.588 160.697L647.7 162.02L621.442 182.629L635.914 206.638L620.802 205.316Z" fill="black"/>
<path d="M659.668 157.628C657.62 157.449 656.069 156.682 655.016 155.326C654.033 153.922 653.793 152.28 654.296 150.401C654.799 148.523 655.881 147.024 657.54 145.906C659.269 144.739 661.158 144.245 663.206 144.424C665.254 144.603 666.77 145.395 667.753 146.8C668.806 148.155 669.081 149.772 668.578 151.651C668.075 153.53 666.958 155.052 665.229 156.22C663.57 157.338 661.716 157.807 659.668 157.628ZM663.974 163.443L652.022 208.047L640.397 207.03L652.349 162.426L663.974 163.443Z" fill="black"/>
<path d="M699.463 165.889C704.943 166.368 708.919 168.447 711.389 172.124C713.874 175.747 714.311 180.564 712.701 186.576L705.689 212.742L694.064 211.725L700.666 187.089C701.615 183.546 701.428 180.756 700.104 178.717C698.795 176.625 696.563 175.441 693.408 175.165C690.197 174.884 687.392 175.627 684.992 177.395C682.662 179.114 681.022 181.744 680.073 185.287L673.472 209.924L661.847 208.907L673.798 164.303L685.423 165.32L683.935 170.875C686.002 169.079 688.37 167.748 691.038 166.882C693.776 165.968 696.584 165.637 699.463 165.889Z" fill="black"/>
<path d="M745.248 169.812C748.68 170.113 751.517 171.047 753.759 172.617C756.016 174.133 757.611 176.003 758.545 178.227L760.249 171.866L771.957 172.891L759.919 217.816C758.812 221.949 756.968 225.551 754.389 228.621C751.796 231.745 748.532 234.097 744.596 235.675C740.646 237.307 736.236 237.91 731.364 237.484C724.832 236.912 719.858 234.966 716.442 231.646C713.081 228.331 711.807 224.099 712.62 218.952L724.162 219.962C724.224 222.055 725.094 223.779 726.77 225.134C728.488 226.548 730.785 227.38 733.664 227.632C737.041 227.928 740.047 227.174 742.683 225.372C745.304 223.624 747.147 220.764 748.211 216.792L750.066 209.868C748.011 211.831 745.468 213.393 742.437 214.557C739.461 215.724 736.285 216.161 732.908 215.865C729.033 215.526 725.749 214.25 723.056 212.037C720.363 209.824 718.543 206.89 717.596 203.237C716.718 199.535 716.891 195.402 718.113 190.84C719.321 186.331 721.306 182.412 724.068 179.083C726.885 175.759 730.122 173.296 733.781 171.693C737.495 170.095 741.317 169.468 745.248 169.812ZM754.273 194.168C755.007 191.431 755.079 189.048 754.489 187.018C753.914 184.936 752.822 183.302 751.214 182.117C749.619 180.879 747.742 180.166 745.583 179.977C743.425 179.788 741.295 180.123 739.195 180.983C737.095 181.843 735.198 183.216 733.503 185.1C731.878 186.935 730.706 189.195 729.987 191.879C729.268 194.562 729.189 196.973 729.749 199.109C730.38 201.197 731.464 202.857 733.004 204.09C734.598 205.329 736.447 206.04 738.551 206.224C740.709 206.413 742.867 206.08 745.022 205.224C747.192 204.316 749.089 202.943 750.714 201.108C752.353 199.219 753.54 196.906 754.273 194.168Z" fill="black"/>
<path d="M836.821 200.401C836.39 202.012 835.891 203.451 835.324 204.72L801.695 201.778C801.109 205.023 801.595 207.647 803.154 209.651C804.714 211.655 806.988 212.788 809.977 213.05C814.295 213.427 817.849 211.898 820.64 208.462L833.178 209.559C830.699 213.736 827.203 217.056 822.691 219.518C818.193 221.926 813.204 222.89 807.724 222.411C803.295 222.023 799.561 220.735 796.522 218.547C793.552 216.309 791.538 213.359 790.48 209.696C789.478 206.037 789.587 201.927 790.81 197.365C792.047 192.749 794.101 188.781 796.974 185.462C799.846 182.142 803.278 179.696 807.269 178.122C811.259 176.549 815.524 175.961 820.064 176.358C824.437 176.74 828.095 177.994 831.038 180.12C834.037 182.25 836.024 185.088 837 188.634C838.046 192.131 837.986 196.054 836.821 200.401ZM825.644 196.128C826.365 193.224 825.904 190.822 824.261 188.92C822.632 186.965 820.295 185.854 817.251 185.588C814.372 185.336 811.706 185.982 809.253 187.525C806.87 189.019 805.054 191.25 803.806 194.217L825.644 196.128Z" fill="black"/>
<path d="M859.375 215.559L880.169 182.358L892.541 183.44L863.567 226.555L849.451 225.32L844.464 179.234L856.919 180.324L859.375 215.559Z" fill="black"/>
<path d="M934.456 208.943C934.024 210.554 933.525 211.993 932.959 213.262L899.329 210.32C898.743 213.564 899.23 216.189 900.789 218.193C902.348 220.197 904.622 221.33 907.612 221.592C911.93 221.969 915.484 220.44 918.274 217.004L930.812 218.101C928.333 222.278 924.838 225.598 920.325 228.06C915.828 230.468 910.839 231.432 905.358 230.953C900.93 230.565 897.196 229.277 894.156 227.089C891.187 224.851 889.173 221.901 888.115 218.238C887.112 214.579 887.222 210.469 888.444 205.907C889.681 201.291 891.736 197.323 894.608 194.004C897.481 190.684 900.912 188.238 904.903 186.664C908.894 185.091 913.159 184.503 917.698 184.9C922.071 185.282 925.73 186.536 928.673 188.661C931.671 190.792 933.658 193.63 934.634 197.176C935.68 200.673 935.621 204.596 934.456 208.943ZM923.279 204.669C924 201.766 923.539 199.364 921.895 197.462C920.267 195.507 917.93 194.396 914.885 194.13C912.007 193.878 909.341 194.523 906.888 196.067C904.504 197.561 902.689 199.792 901.44 202.759L923.279 204.669Z" fill="black"/>
<path d="M972.661 189.791C978.142 190.27 982.117 192.348 984.588 196.025C987.073 199.649 987.51 204.466 985.899 210.478L978.888 236.644L967.263 235.627L973.865 210.99C974.814 207.448 974.627 204.657 973.303 202.619C971.994 200.527 969.762 199.343 966.607 199.067C963.396 198.786 960.591 199.529 958.191 201.297C955.861 203.016 954.221 205.646 953.272 209.189L946.67 233.825L935.045 232.808L946.997 188.205L958.622 189.222L957.133 194.777C959.201 192.98 961.569 191.649 964.237 190.784C966.975 189.87 969.783 189.539 972.661 189.791Z" fill="black"/>
<path d="M1011.29 203.305L1005.51 224.883C1005.1 226.385 1005.17 227.517 1005.7 228.278C1006.3 228.99 1007.49 229.423 1009.26 229.578L1014.66 230.051L1012.11 239.551L1004.81 238.912C995.008 238.054 991.346 233.01 993.819 223.778L999.58 202.281L994.099 201.802L996.58 192.543L1002.06 193.022L1005.02 181.992L1016.72 183.016L1013.77 194.046L1024.06 194.947L1021.58 204.206L1011.29 203.305Z" fill="black"/>
<path d="M1036.22 242.402C1032.46 242.073 1029.25 241.133 1026.61 239.583C1023.98 237.98 1022.08 235.974 1020.91 233.564C1019.8 231.16 1019.53 228.582 1020.1 225.83L1031.81 226.854C1031.57 228.591 1032.04 230.088 1033.24 231.346C1034.48 232.609 1036.24 233.34 1038.51 233.538C1040.73 233.732 1042.56 233.453 1044.01 232.701C1045.51 231.953 1046.44 230.908 1046.8 229.567C1047.19 228.117 1046.7 226.976 1045.34 226.143C1044.05 225.26 1041.85 224.245 1038.76 223.095C1035.55 221.99 1032.95 220.911 1030.96 219.858C1029.03 218.811 1027.5 217.331 1026.37 215.419C1025.3 213.512 1025.16 211.056 1025.97 208.05C1026.63 205.581 1027.95 203.39 1029.94 201.476C1031.98 199.567 1034.51 198.141 1037.54 197.198C1040.63 196.259 1044.02 195.952 1047.73 196.276C1053.21 196.756 1057.23 198.48 1059.77 201.45C1062.33 204.366 1063.18 208.092 1062.3 212.63L1051.17 211.657C1051.48 209.871 1051.08 208.407 1049.97 207.267C1048.93 206.077 1047.28 205.383 1045.01 205.184C1042.9 205 1041.17 205.233 1039.8 205.883C1038.5 206.537 1037.66 207.535 1037.3 208.877C1036.9 210.38 1037.37 211.602 1038.7 212.543C1040.05 213.43 1042.25 214.419 1045.3 215.51C1048.4 216.605 1050.92 217.677 1052.85 218.725C1054.78 219.772 1056.27 221.277 1057.33 223.237C1058.47 225.149 1058.66 227.583 1057.93 230.54C1057.24 233.116 1055.87 235.359 1053.83 237.268C1051.84 239.182 1049.31 240.608 1046.23 241.547C1043.21 242.436 1039.88 242.722 1036.22 242.402Z" fill="black"/>
<path d="M317.769 457.695C324.185 433.752 349.403 416.094 374.097 418.254L664.72 443.681C689.413 445.841 704.23 467.002 697.815 490.945C691.399 514.888 666.18 532.547 641.487 530.386L350.864 504.96C326.171 502.8 311.354 481.638 317.769 457.695Z" fill="url(#paint4_linear_191_179)"/>
<path d="M421.311 460.771C420.541 463.644 418.877 465.95 416.32 467.687C413.805 469.394 410.47 470.065 406.314 469.702L399.467 469.103L395.604 483.521L390.954 483.114L400.207 448.58L411.704 449.586C415.724 449.938 418.521 451.146 420.094 453.21C421.702 455.278 422.107 457.798 421.311 460.771ZM407.31 465.986C409.899 466.212 411.953 465.834 413.471 464.851C414.989 463.869 416.019 462.37 416.558 460.355C417.7 456.094 415.75 453.743 410.708 453.302L403.861 452.703L400.463 465.387L407.31 465.986Z" fill="white"/>
<path d="M452.654 460.724L445.379 487.875L440.729 487.468L441.804 483.455C440.547 484.765 439.011 485.746 437.198 486.399C435.427 487.022 433.588 487.249 431.68 487.082C429.5 486.892 427.657 486.291 426.149 485.28C424.651 484.236 423.625 482.794 423.072 480.954C422.554 479.117 422.63 476.944 423.303 474.433L427.565 458.529L432.163 458.931L428.061 474.241C427.344 476.917 427.49 479.042 428.497 480.618C429.513 482.16 431.23 483.037 433.649 483.249C436.136 483.466 438.294 482.895 440.123 481.533C441.952 480.172 443.247 478.071 444.008 475.231L448.004 460.317L452.654 460.724Z" fill="white"/>
<path d="M463.974 466.227C465.207 464.746 466.688 463.642 468.418 462.915C470.181 462.19 472.152 461.923 474.332 462.114L473.084 466.771L471.858 466.664C466.646 466.208 463.305 468.721 461.836 474.204L457.88 488.969L453.23 488.562L460.505 461.411L465.155 461.818L463.974 466.227Z" fill="white"/>
<path d="M474.206 476.453C474.958 473.645 476.192 471.252 477.908 469.272C479.633 467.259 481.672 465.764 484.026 464.787C486.413 463.813 488.936 463.442 491.593 463.674C495.034 463.975 497.644 465.032 499.425 466.844C501.239 468.66 502.119 471.035 502.065 473.971L497.057 473.533C497.023 471.84 496.436 470.453 495.295 469.373C494.19 468.296 492.615 467.668 490.571 467.489C487.913 467.257 485.528 467.961 483.415 469.602C481.311 471.209 479.825 473.632 478.958 476.869C478.082 480.139 478.222 482.737 479.379 484.664C480.537 486.59 482.444 487.67 485.101 487.902C487.145 488.081 488.972 487.768 490.583 486.962C492.193 486.157 493.484 484.917 494.455 483.244L499.463 483.683C497.97 486.392 495.874 488.49 493.174 489.978C490.483 491.433 487.451 492.013 484.079 491.717C481.422 491.485 479.209 490.7 477.441 489.362C475.707 488.027 474.544 486.252 473.952 484.037C473.36 481.821 473.445 479.293 474.206 476.453Z" fill="white"/>
<path d="M524.637 466.515C526.749 466.7 528.538 467.312 530.002 468.353C531.475 469.361 532.454 470.782 532.939 472.616C533.458 474.453 533.381 476.627 532.708 479.137L528.42 495.14L523.821 494.738L527.937 479.379C528.662 476.67 528.517 474.545 527.501 473.002C526.494 471.427 524.781 470.533 522.362 470.322C519.909 470.107 517.752 470.679 515.888 472.037C514.059 473.398 512.764 475.499 512.003 478.34L507.981 493.352L503.331 492.945L513.155 456.281L517.805 456.688L514.22 470.066C515.512 468.759 517.06 467.796 518.864 467.176C520.703 466.559 522.628 466.339 524.637 466.515Z" fill="white"/>
<path d="M537.943 481.978C538.686 479.204 539.916 476.827 541.631 474.847C543.356 472.834 545.378 471.338 547.698 470.358C550.052 469.381 552.472 469.001 554.959 469.218C557.411 469.433 559.403 470.131 560.934 471.313C562.466 472.495 563.466 473.901 563.936 475.531L565.263 470.576L569.964 470.987L562.689 498.139L557.988 497.727L559.342 492.674C557.998 494.179 556.264 495.379 554.141 496.275C552.061 497.141 549.812 497.468 547.393 497.257C544.907 497.039 542.818 496.248 541.126 494.883C539.435 493.518 538.298 491.711 537.715 489.463C537.132 487.215 537.208 484.72 537.943 481.978ZM561.639 484.102C562.188 482.054 562.24 480.233 561.795 478.639C561.351 477.046 560.502 475.788 559.25 474.867C558.04 473.916 556.567 473.365 554.83 473.213C553.092 473.061 551.402 473.319 549.759 473.986C548.116 474.654 546.665 475.71 545.406 477.155C544.147 478.6 543.243 480.346 542.695 482.394C542.137 484.475 542.076 486.329 542.512 487.956C542.956 489.55 543.783 490.822 544.993 491.773C546.211 492.691 547.689 493.226 549.426 493.378C551.164 493.53 552.854 493.272 554.497 492.605C556.183 491.907 557.656 490.836 558.914 489.391C560.182 487.913 561.09 486.15 561.639 484.102Z" fill="white"/>
<path d="M580.341 500.139C578.195 499.952 576.363 499.436 574.846 498.594C573.337 497.718 572.257 496.609 571.605 495.268C570.963 493.893 570.811 492.376 571.152 490.715L575.955 491.135C575.728 492.502 576.079 493.665 577.007 494.625C577.969 495.588 579.404 496.153 581.312 496.32C583.083 496.475 584.582 496.217 585.807 495.547C587.033 494.877 587.801 493.963 588.11 492.807C588.429 491.618 588.119 490.695 587.179 490.038C586.248 489.348 584.717 488.623 582.585 487.862C580.648 487.151 579.087 486.474 577.9 485.829C576.756 485.154 575.848 484.247 575.178 483.106C574.55 481.936 574.471 480.475 574.94 478.725C575.312 477.337 576.078 476.103 577.24 475.021C578.401 473.94 579.854 473.137 581.598 472.614C583.351 472.057 585.232 471.867 587.242 472.043C590.342 472.314 592.642 473.293 594.143 474.979C595.643 476.665 596.108 478.836 595.536 481.49L590.886 481.083C591.164 479.654 590.873 478.462 590.013 477.508C589.187 476.557 587.872 476.002 586.066 475.844C584.397 475.698 582.976 475.929 581.802 476.536C580.628 477.143 579.891 478.008 579.59 479.131C579.351 480.023 579.441 480.792 579.861 481.437C580.324 482.052 580.949 482.58 581.738 483.021C582.569 483.432 583.728 483.922 585.214 484.491C587.082 485.196 588.575 485.867 589.694 486.506C590.822 487.112 591.691 487.965 592.303 489.067C592.948 490.171 593.067 491.551 592.658 493.205C592.26 494.692 591.476 495.992 590.305 497.107C589.135 498.221 587.674 499.057 585.921 499.613C584.211 500.14 582.351 500.315 580.341 500.139Z" fill="white"/>
<path d="M626.71 488.781C626.48 489.64 626.185 490.544 625.826 491.493L603.445 489.535C602.899 492.225 603.274 494.404 604.57 496.073C605.909 497.711 607.805 498.638 610.257 498.852C612.267 499.028 614.056 498.728 615.624 497.953C617.234 497.147 618.515 496.008 619.467 494.537L624.475 494.975C623.026 497.518 620.957 499.518 618.266 500.973C615.584 502.394 612.574 502.959 609.235 502.667C606.578 502.435 604.348 501.648 602.546 500.307C600.778 498.969 599.581 497.191 598.955 494.973C598.338 492.722 598.405 490.192 599.158 487.385C599.91 484.577 601.149 482.167 602.873 480.154C604.598 478.142 606.65 476.665 609.029 475.723C611.45 474.752 614.024 474.386 616.749 474.624C619.406 474.857 621.606 475.624 623.349 476.926C625.093 478.228 626.244 479.917 626.803 481.994C627.405 484.041 627.374 486.304 626.71 488.781ZM622.159 487.419C622.619 485.702 622.621 484.198 622.165 482.907C621.718 481.583 620.897 480.548 619.703 479.801C618.551 479.024 617.158 478.564 615.523 478.421C613.172 478.216 610.968 478.767 608.909 480.074C606.884 481.384 605.408 483.317 604.479 485.873L622.159 487.419Z" fill="white"/>
<path d="M789.465 500.281C790.368 496.912 791.961 493.958 794.245 491.42C796.538 488.849 799.233 486.921 802.331 485.637C805.464 484.356 808.682 483.86 811.987 484.149C815.87 484.489 819.016 485.694 821.425 487.764C823.834 489.834 825.256 492.595 825.69 496.047L820.12 495.56C819.69 493.393 818.689 491.665 817.116 490.378C815.577 489.095 813.514 488.339 810.925 488.113C808.438 487.895 806.056 488.262 803.779 489.212C801.503 490.162 799.523 491.628 797.842 493.611C796.169 495.56 794.96 497.922 794.217 500.697C793.482 503.439 793.398 505.899 793.965 508.078C794.54 510.225 795.666 511.946 797.34 513.241C799.015 514.537 801.096 515.294 803.583 515.512C806.172 515.738 808.532 515.387 810.664 514.458C812.838 513.499 814.698 512.022 816.244 510.027L821.814 510.515C819.6 513.702 816.802 516.077 813.42 517.64C810.046 519.17 806.418 519.766 802.534 519.426C799.23 519.137 796.414 518.13 794.087 516.405C791.803 514.65 790.236 512.366 789.386 509.554C788.536 506.741 788.562 503.65 789.465 500.281Z" fill="#080210"/>
<path d="M847.347 494.747C849.459 494.932 851.248 495.545 852.712 496.586C854.185 497.594 855.164 499.015 855.649 500.849C856.168 502.686 856.091 504.859 855.418 507.37L851.13 523.373L846.531 522.971L850.647 507.612C851.372 504.903 851.227 502.778 850.211 501.235C849.204 499.659 847.491 498.766 845.072 498.554C842.619 498.34 840.461 498.912 838.598 500.27C836.769 501.631 835.474 503.732 834.713 506.573L830.691 521.585L826.041 521.178L835.865 484.514L840.515 484.921L836.93 498.298C838.222 496.992 839.77 496.028 841.574 495.409C843.413 494.792 845.337 494.572 847.347 494.747Z" fill="#080210"/>
<path d="M888.191 511.657C887.961 512.516 887.667 513.42 887.308 514.369L864.927 512.41C864.38 515.101 864.755 517.28 866.051 518.949C867.39 520.587 869.286 521.514 871.739 521.728C873.749 521.904 875.537 521.604 877.105 520.828C878.715 520.023 879.997 518.884 880.949 517.412L885.957 517.851C884.508 520.394 882.438 522.394 879.747 523.849C877.065 525.27 874.055 525.835 870.717 525.543C868.059 525.311 865.83 524.524 864.027 523.183C862.259 521.845 861.062 520.067 860.436 517.849C859.819 515.598 859.887 513.068 860.639 510.261C861.392 507.453 862.63 505.043 864.355 503.03C866.079 501.018 868.131 499.541 870.51 498.599C872.932 497.628 875.505 497.262 878.231 497.5C880.888 497.733 883.088 498.5 884.831 499.802C886.574 501.103 887.725 502.793 888.284 504.87C888.886 506.917 888.855 509.18 888.191 511.657ZM883.64 510.295C884.101 508.578 884.103 507.074 883.647 505.783C883.199 504.459 882.379 503.424 881.184 502.677C880.033 501.9 878.639 501.44 877.004 501.297C874.654 501.092 872.449 501.642 870.39 502.95C868.366 504.26 866.889 506.193 865.96 508.748L883.64 510.295Z" fill="#080210"/>
<path d="M892.326 513.033C893.079 510.225 894.313 507.832 896.028 505.852C897.753 503.839 899.792 502.344 902.146 501.367C904.534 500.393 907.056 500.022 909.713 500.254C913.154 500.556 915.765 501.612 917.545 503.424C919.36 505.24 920.24 507.615 920.185 510.552L915.178 510.113C915.143 508.42 914.556 507.033 913.416 505.953C912.31 504.876 910.735 504.248 908.691 504.07C906.034 503.837 903.649 504.541 901.536 506.182C899.432 507.789 897.946 510.212 897.078 513.449C896.202 516.719 896.343 519.317 897.5 521.244C898.657 523.17 900.564 524.25 903.222 524.482C905.265 524.661 907.093 524.348 908.703 523.542C910.314 522.737 911.604 521.497 912.576 519.824L917.583 520.263C916.09 522.972 913.994 525.07 911.294 526.558C908.604 528.013 905.572 528.593 902.199 528.298C899.542 528.065 897.33 527.28 895.561 525.942C893.827 524.607 892.664 522.832 892.072 520.617C891.481 518.401 891.565 515.873 892.326 513.033Z" fill="#080210"/>
<path d="M937.087 530.893L929.314 517.942L926.101 529.932L921.451 529.525L931.275 492.861L935.925 493.268L930.15 514.821L944.158 503.724L950.648 504.292L933.84 516.665L943.424 531.448L937.087 530.893Z" fill="#080210"/>
<path d="M959.842 533.341C957.219 533.111 954.989 532.324 953.153 530.981C951.351 529.64 950.12 527.859 949.46 525.637C948.843 523.386 948.91 520.857 949.663 518.049C950.406 515.275 951.674 512.884 953.467 510.877C955.303 508.841 957.444 507.355 959.891 506.419C962.347 505.451 964.903 505.083 967.561 505.315C970.218 505.548 972.464 506.336 974.301 507.68C976.146 508.991 977.399 510.757 978.059 512.978C978.753 515.202 978.723 517.718 977.971 520.526C977.219 523.333 975.908 525.754 974.038 527.788C972.211 529.791 970.053 531.276 967.563 532.241C965.073 533.207 962.499 533.573 959.842 533.341ZM960.904 529.377C962.573 529.523 964.242 529.28 965.911 528.649C967.579 528.017 969.06 526.98 970.352 525.538C971.679 524.1 972.635 522.29 973.219 520.11C973.803 517.93 973.856 516.042 973.377 514.445C972.899 512.848 972.041 511.623 970.805 510.771C969.578 509.887 968.13 509.371 966.461 509.225C964.757 509.076 963.089 509.319 961.454 509.953C959.863 510.558 958.438 511.583 957.179 513.027C955.92 514.472 954.999 516.285 954.415 518.465C953.822 520.678 953.73 522.58 954.141 524.171C954.585 525.765 955.404 527.003 956.597 527.885C957.799 528.733 959.235 529.231 960.904 529.377Z" fill="#080210"/>
<path d="M1012.54 509.707L1005.27 536.858L1000.62 536.452L1001.69 532.438C1000.44 533.748 998.901 534.729 997.087 535.382C995.316 536.005 993.477 536.233 991.57 536.066C989.389 535.875 987.546 535.274 986.038 534.263C984.54 533.22 983.514 531.778 982.962 529.938C982.443 528.101 982.52 525.927 983.192 523.417L987.454 507.512L992.053 507.915L987.95 523.224C987.234 525.9 987.379 528.025 988.386 529.601C989.402 531.143 991.12 532.02 993.538 532.232C996.025 532.45 998.183 531.878 1000.01 530.517C1001.84 529.155 1003.14 527.054 1003.9 524.214L1007.89 509.3L1012.54 509.707Z" fill="#080210"/>
<path d="M1025.07 514.606L1020.78 530.61C1020.43 531.931 1020.47 532.898 1020.89 533.51C1021.33 534.089 1022.27 534.441 1023.7 534.566L1027.12 534.866L1026.1 538.681L1021.91 538.314C1019.32 538.088 1017.53 537.34 1016.55 536.071C1015.56 534.801 1015.42 532.845 1016.13 530.203L1020.42 514.2L1016.79 513.882L1017.79 510.166L1021.42 510.484L1023.25 503.646L1027.9 504.053L1026.07 510.89L1033.37 511.53L1032.38 515.246L1025.07 514.606Z" fill="#080210"/>
<path d="M1168.07 543.243L1152.54 541.884L1147.62 549.313L1142.72 548.884L1164.79 515.675L1170.16 516.145L1173.78 551.602L1168.88 551.173L1168.07 543.243ZM1167.73 539.46L1165.96 521.457L1154.85 538.334L1167.73 539.46Z" fill="#080210"/>
<path d="M1181.32 538.266C1182.07 535.492 1183.3 533.115 1185.01 531.135C1186.74 529.123 1188.76 527.626 1191.08 526.646C1193.43 525.669 1195.87 525.29 1198.39 525.511C1200.57 525.702 1202.46 526.374 1204.07 527.529C1205.69 528.651 1206.78 530.048 1207.34 531.72L1211.19 517.351L1215.89 517.763L1206.07 554.427L1201.37 554.015L1202.74 548.912C1201.38 550.45 1199.66 551.669 1197.57 552.568C1195.49 553.434 1193.24 553.761 1190.82 553.549C1188.34 553.332 1186.23 552.539 1184.51 551.171C1182.82 549.806 1181.68 548 1181.1 545.751C1180.51 543.503 1180.59 541.008 1181.32 538.266ZM1205.02 540.39C1205.57 538.342 1205.62 536.521 1205.18 534.928C1204.73 533.334 1203.88 532.076 1202.63 531.155C1201.42 530.204 1199.95 529.653 1198.21 529.501C1196.47 529.349 1194.78 529.607 1193.14 530.274C1191.5 530.942 1190.05 531.998 1188.79 533.443C1187.53 534.888 1186.62 536.634 1186.08 538.682C1185.52 540.763 1185.46 542.617 1185.89 544.244C1186.34 545.838 1187.16 547.11 1188.37 548.061C1189.59 548.979 1191.07 549.514 1192.81 549.666C1194.54 549.818 1196.23 549.56 1197.88 548.893C1199.56 548.195 1201.04 547.124 1202.29 545.679C1203.56 544.201 1204.47 542.438 1205.02 540.39Z" fill="#080210"/>
<path d="M1215.85 541.288C1216.6 538.513 1217.83 536.136 1219.54 534.156C1221.27 532.144 1223.29 530.647 1225.61 529.667C1227.96 528.69 1230.4 528.311 1232.92 528.532C1235.1 528.723 1237 529.395 1238.6 530.55C1240.22 531.672 1241.31 533.069 1241.87 534.741L1245.72 520.373L1250.43 520.784L1240.6 557.448L1235.9 557.037L1237.27 551.933C1235.91 553.471 1234.19 554.69 1232.1 555.589C1230.02 556.455 1227.77 556.782 1225.36 556.57C1222.87 556.353 1220.76 555.56 1219.04 554.192C1217.35 552.827 1216.21 551.021 1215.63 548.772C1215.04 546.524 1215.12 544.029 1215.85 541.288ZM1239.55 543.411C1240.1 541.363 1240.15 539.543 1239.71 537.949C1239.26 536.355 1238.41 535.097 1237.16 534.176C1235.95 533.225 1234.48 532.674 1232.74 532.522C1231 532.37 1229.31 532.628 1227.67 533.295C1226.03 533.963 1224.58 535.019 1223.32 536.464C1222.06 537.909 1221.16 539.655 1220.61 541.703C1220.05 543.784 1219.99 545.638 1220.42 547.265C1220.87 548.859 1221.7 550.131 1222.9 551.082C1224.12 552 1225.6 552.535 1227.34 552.687C1229.08 552.839 1230.77 552.581 1232.41 551.914C1234.1 551.216 1235.57 550.145 1236.83 548.7C1238.09 547.222 1239 545.459 1239.55 543.411Z" fill="#080210"/>
<path d="M1274.03 536.388L1269.75 552.391C1269.39 553.713 1269.43 554.679 1269.86 555.292C1270.29 555.871 1271.23 556.223 1272.66 556.348L1276.08 556.648L1275.06 560.463L1270.87 560.096C1268.28 559.87 1266.5 559.122 1265.51 557.852C1264.53 556.583 1264.39 554.627 1265.1 551.985L1269.38 535.981L1265.76 535.664L1266.75 531.948L1270.38 532.265L1272.21 525.428L1276.86 525.835L1275.03 532.672L1282.34 533.311L1281.34 537.027L1274.03 536.388Z" fill="#080210"/>
<path d="M1292.79 562.47C1290.17 562.24 1287.94 561.454 1286.1 560.11C1284.3 558.769 1283.07 556.988 1282.41 554.767C1281.79 552.516 1281.86 549.986 1282.61 547.178C1283.35 544.404 1284.62 542.013 1286.41 540.007C1288.25 537.97 1290.39 536.484 1292.84 535.549C1295.29 534.58 1297.85 534.212 1300.51 534.445C1303.16 534.677 1305.41 535.465 1307.25 536.809C1309.09 538.12 1310.34 539.886 1311 542.107C1311.7 544.332 1311.67 546.848 1310.92 549.655C1310.16 552.463 1308.85 554.883 1306.98 556.917C1305.16 558.921 1303 560.405 1300.51 561.371C1298.02 562.336 1295.45 562.702 1292.79 562.47ZM1293.85 558.506C1295.52 558.652 1297.19 558.41 1298.86 557.778C1300.52 557.146 1302.01 556.11 1303.3 554.668C1304.63 553.229 1305.58 551.419 1306.16 549.239C1306.75 547.059 1306.8 545.171 1306.32 543.574C1305.84 541.977 1304.99 540.753 1303.75 539.901C1302.52 539.016 1301.08 538.501 1299.41 538.354C1297.7 538.205 1296.03 538.448 1294.4 539.083C1292.81 539.687 1291.38 540.712 1290.13 542.157C1288.87 543.602 1287.94 545.414 1287.36 547.594C1286.77 549.807 1286.68 551.709 1287.09 553.3C1287.53 554.894 1288.35 556.132 1289.54 557.014C1290.75 557.863 1292.18 558.36 1293.85 558.506Z" fill="#080210"/>
<path d="M1328.92 551.23C1329.67 548.422 1330.9 546.029 1332.62 544.049C1334.34 542.036 1336.38 540.542 1338.74 539.564C1341.12 538.59 1343.65 538.219 1346.3 538.452C1349.74 538.753 1352.35 539.809 1354.14 541.621C1355.95 543.437 1356.83 545.812 1356.78 548.749L1351.77 548.31C1351.73 546.617 1351.15 545.231 1350.01 544.15C1348.9 543.073 1347.33 542.445 1345.28 542.267C1342.62 542.034 1340.24 542.738 1338.13 544.379C1336.02 545.986 1334.54 548.409 1333.67 551.646C1332.79 554.916 1332.93 557.514 1334.09 559.441C1335.25 561.367 1337.15 562.447 1339.81 562.68C1341.86 562.858 1343.68 562.545 1345.29 561.739C1346.9 560.934 1348.19 559.694 1349.17 558.022L1354.17 558.46C1352.68 561.169 1350.58 563.267 1347.88 564.755C1345.19 566.21 1342.16 566.79 1338.79 566.495C1336.13 566.262 1333.92 565.477 1332.15 564.139C1330.42 562.804 1329.25 561.029 1328.66 558.814C1328.07 556.598 1328.16 554.071 1328.92 551.23Z" fill="#080210"/>
<path d="M1359.97 553.896C1360.71 551.121 1361.94 548.744 1363.66 546.765C1365.38 544.752 1367.4 543.256 1369.72 542.275C1372.08 541.298 1374.5 540.918 1376.98 541.136C1379.44 541.35 1381.43 542.049 1382.96 543.231C1384.49 544.412 1385.49 545.818 1385.96 547.448L1387.29 542.494L1391.99 542.905L1384.71 570.056L1380.01 569.645L1381.37 564.591C1380.02 566.096 1378.29 567.297 1376.17 568.193C1374.09 569.059 1371.84 569.386 1369.42 569.174C1366.93 568.957 1364.84 568.166 1363.15 566.801C1361.46 565.436 1360.32 563.629 1359.74 561.381C1359.16 559.132 1359.23 556.637 1359.97 553.896ZM1383.66 556.02C1384.21 553.972 1384.27 552.151 1383.82 550.557C1383.38 548.963 1382.53 547.706 1381.28 546.785C1380.07 545.834 1378.59 545.282 1376.86 545.13C1375.12 544.978 1373.43 545.236 1371.78 545.904C1370.14 546.571 1368.69 547.628 1367.43 549.072C1366.17 550.517 1365.27 552.264 1364.72 554.312C1364.16 556.393 1364.1 558.246 1364.54 559.873C1364.98 561.467 1365.81 562.74 1367.02 563.691C1368.24 564.609 1369.71 565.144 1371.45 565.296C1373.19 565.448 1374.88 565.19 1376.52 564.522C1378.21 563.825 1379.68 562.753 1380.94 561.308C1382.21 559.831 1383.12 558.068 1383.66 556.02Z" fill="#080210"/>
<path d="M1403.32 548.409C1404.55 546.928 1406.03 545.824 1407.76 545.096C1409.52 544.371 1411.5 544.104 1413.68 544.295L1412.43 548.952L1411.2 548.845C1405.99 548.389 1402.65 550.903 1401.18 556.386L1397.22 571.15L1392.57 570.744L1399.85 543.592L1404.5 543.999L1403.32 548.409Z" fill="#080210"/>
<path d="M1423.59 549.472L1419.3 565.476C1418.94 566.797 1418.98 567.764 1419.41 568.376C1419.85 568.955 1420.78 569.307 1422.21 569.432L1425.64 569.732L1424.61 573.547L1420.42 573.18C1417.84 572.954 1416.05 572.206 1415.06 570.937C1414.08 569.667 1413.94 567.711 1414.65 565.069L1418.94 549.066L1415.31 548.748L1416.3 545.032L1419.93 545.35L1421.76 538.512L1426.41 538.919L1424.58 545.756L1431.89 546.396L1430.89 550.112L1423.59 549.472Z" fill="#080210"/>
<path d="M214.09 1096.44C214.09 1096.44 321.606 900.163 364.36 918.14C407.114 936.117 399.135 1016.51 471.465 1022.84C543.795 1029.17 613.919 780.612 682.576 779.595C751.233 778.579 724.985 948.191 795.277 938.41C865.569 928.628 949.098 707.424 1022.52 706.337C1095.95 705.249 1099.11 871.319 1177.35 860.424C1255.59 849.529 1258.35 702.411 1349.73 668.41" stroke="url(#paint5_linear_191_179)" stroke-width="12"/>
<path d="M173.216 1216.75L1204.77 1307" stroke="#010101"/>
<path d="M251.692 1265.92L234.331 1286.41L230.839 1299.44L226.189 1299.03L229.681 1286L223.792 1263.48L228.953 1263.93L233.056 1282.19L246.531 1265.47L251.692 1265.92Z" fill="#0C1014"/>
<path d="M276.809 1288.5C276.579 1289.36 276.284 1290.26 275.925 1291.21L253.544 1289.26C252.998 1291.95 253.372 1294.13 254.669 1295.79C256.008 1297.43 257.904 1298.36 260.356 1298.57C262.366 1298.75 264.155 1298.45 265.722 1297.67C267.333 1296.87 268.614 1295.73 269.566 1294.26L274.574 1294.7C273.125 1297.24 271.056 1299.24 268.365 1300.69C265.683 1302.12 262.673 1302.68 259.334 1302.39C256.677 1302.16 254.447 1301.37 252.645 1300.03C250.877 1298.69 249.68 1296.91 249.054 1294.69C248.437 1292.44 248.504 1289.91 249.257 1287.11C250.009 1284.3 251.248 1281.89 252.972 1279.88C254.697 1277.86 256.749 1276.39 259.128 1275.44C261.549 1274.47 264.123 1274.11 266.848 1274.35C269.505 1274.58 271.705 1275.35 273.448 1276.65C275.191 1277.95 276.343 1279.64 276.902 1281.72C277.504 1283.76 277.473 1286.02 276.809 1288.5ZM272.258 1287.14C272.718 1285.42 272.72 1283.92 272.264 1282.63C271.817 1281.3 270.996 1280.27 269.802 1279.52C268.65 1278.75 267.257 1278.29 265.622 1278.14C263.271 1277.94 261.066 1278.49 259.008 1279.8C256.983 1281.11 255.507 1283.04 254.578 1285.59L272.258 1287.14Z" fill="#0C1014"/>
<path d="M288.824 1304.97C286.678 1304.78 284.846 1304.27 283.329 1303.42C281.82 1302.55 280.74 1301.44 280.088 1300.1C279.446 1298.72 279.294 1297.2 279.635 1295.54L284.438 1295.96C284.211 1297.33 284.562 1298.49 285.49 1299.45C286.453 1300.42 287.887 1300.98 289.795 1301.15C291.567 1301.3 293.065 1301.05 294.291 1300.38C295.516 1299.71 296.284 1298.79 296.594 1297.64C296.912 1296.45 296.602 1295.52 295.662 1294.87C294.731 1294.18 293.2 1293.45 291.068 1292.69C289.131 1291.98 287.57 1291.3 286.383 1290.66C285.239 1289.98 284.331 1289.08 283.661 1287.94C283.033 1286.76 282.954 1285.3 283.423 1283.55C283.795 1282.17 284.561 1280.93 285.723 1279.85C286.884 1278.77 288.337 1277.97 290.081 1277.44C291.834 1276.89 293.715 1276.7 295.725 1276.87C298.825 1277.14 301.125 1278.12 302.626 1279.81C304.126 1281.49 304.591 1283.66 304.019 1286.32L299.369 1285.91C299.647 1284.48 299.356 1283.29 298.497 1282.34C297.671 1281.39 296.355 1280.83 294.549 1280.67C292.88 1280.53 291.459 1280.76 290.285 1281.37C289.111 1281.97 288.374 1282.84 288.073 1283.96C287.834 1284.85 287.924 1285.62 288.344 1286.27C288.807 1286.88 289.432 1287.41 290.221 1287.85C291.052 1288.26 292.211 1288.75 293.697 1289.32C295.565 1290.02 297.059 1290.7 298.177 1291.34C299.305 1291.94 300.175 1292.79 300.786 1293.9C301.431 1295 301.55 1296.38 301.141 1298.03C300.743 1299.52 299.959 1300.82 298.788 1301.94C297.618 1303.05 296.157 1303.89 294.404 1304.44C292.694 1304.97 290.834 1305.14 288.824 1304.97Z" fill="#0C1014"/>
<path d="M317.679 1283.05L313.391 1299.06C313.037 1300.38 313.074 1301.34 313.503 1301.96C313.94 1302.53 314.874 1302.89 316.305 1303.01L319.729 1303.31L318.706 1307.13L314.516 1306.76C311.927 1306.53 310.14 1305.79 309.156 1304.52C308.171 1303.25 308.033 1301.29 308.741 1298.65L313.029 1282.65L309.401 1282.33L310.396 1278.61L314.024 1278.93L315.857 1272.09L320.507 1272.5L318.674 1279.34L325.982 1279.98L324.986 1283.69L317.679 1283.05Z" fill="#0C1014"/>
<path d="M353.806 1295.24C353.576 1296.1 353.281 1297 352.923 1297.95L330.541 1295.99C329.995 1298.68 330.37 1300.86 331.666 1302.53C333.005 1304.17 334.901 1305.1 337.354 1305.31C339.363 1305.49 341.152 1305.19 342.72 1304.41C344.33 1303.6 345.611 1302.47 346.564 1300.99L351.571 1301.43C350.123 1303.98 348.053 1305.98 345.362 1307.43C342.68 1308.85 339.67 1309.42 336.331 1309.12C333.674 1308.89 331.444 1308.11 329.642 1306.76C327.874 1305.43 326.677 1303.65 326.051 1301.43C325.434 1299.18 325.502 1296.65 326.254 1293.84C327.006 1291.03 328.245 1288.62 329.969 1286.61C331.694 1284.6 333.746 1283.12 336.125 1282.18C338.547 1281.21 341.12 1280.84 343.845 1281.08C346.503 1281.31 348.703 1282.08 350.446 1283.38C352.189 1284.69 353.34 1286.37 353.899 1288.45C354.501 1290.5 354.47 1292.76 353.806 1295.24ZM349.255 1293.88C349.715 1292.16 349.717 1290.66 349.261 1289.36C348.814 1288.04 347.993 1287.01 346.799 1286.26C345.647 1285.48 344.254 1285.02 342.619 1284.88C340.268 1284.67 338.064 1285.22 336.005 1286.53C333.98 1287.84 332.504 1289.77 331.575 1292.33L349.255 1293.88Z" fill="#0C1014"/>
<path d="M366.771 1288.06C368.005 1286.58 369.486 1285.47 371.215 1284.74C372.978 1284.02 374.95 1283.75 377.13 1283.94L375.882 1288.6L374.656 1288.49C369.444 1288.04 366.103 1290.55 364.634 1296.03L360.678 1310.8L356.028 1310.39L363.303 1283.24L367.953 1283.65L366.771 1288.06Z" fill="#0C1014"/>
<path d="M377.016 1298.23C377.76 1295.46 378.99 1293.08 380.705 1291.1C382.43 1289.09 384.452 1287.59 386.772 1286.61C389.126 1285.63 391.563 1285.26 394.084 1285.48C396.264 1285.67 398.158 1286.34 399.766 1287.5C401.383 1288.62 402.473 1290.01 403.036 1291.69L406.886 1277.32L411.587 1277.73L401.763 1314.39L397.062 1313.98L398.43 1308.88C397.076 1310.42 395.355 1311.64 393.266 1312.53C391.186 1313.4 388.937 1313.73 386.519 1313.52C384.032 1313.3 381.926 1312.51 380.2 1311.14C378.509 1309.77 377.372 1307.97 376.789 1305.72C376.206 1303.47 376.282 1300.97 377.016 1298.23ZM400.713 1300.36C401.262 1298.31 401.314 1296.49 400.869 1294.89C400.425 1293.3 399.576 1292.04 398.324 1291.12C397.114 1290.17 395.641 1289.62 393.904 1289.47C392.166 1289.32 390.476 1289.57 388.833 1290.24C387.19 1290.91 385.739 1291.96 384.48 1293.41C383.221 1294.85 382.317 1296.6 381.769 1298.65C381.211 1300.73 381.15 1302.58 381.586 1304.21C382.03 1305.8 382.857 1307.08 384.067 1308.03C385.285 1308.95 386.763 1309.48 388.5 1309.63C390.238 1309.78 391.928 1309.53 393.571 1308.86C395.257 1308.16 396.73 1307.09 397.988 1305.65C399.256 1304.17 400.164 1302.4 400.713 1300.36Z" fill="#0C1014"/>
<path d="M411.548 1301.25C412.291 1298.48 413.521 1296.1 415.237 1294.12C416.962 1292.11 418.984 1290.61 421.303 1289.63C423.657 1288.66 426.077 1288.28 428.564 1288.49C431.017 1288.71 433.009 1289.41 434.54 1290.59C436.071 1291.77 437.071 1293.18 437.541 1294.81L438.869 1289.85L443.57 1290.26L436.295 1317.41L431.594 1317L432.948 1311.95C431.603 1313.45 429.869 1314.65 427.747 1315.55C425.667 1316.42 423.418 1316.74 420.999 1316.53C418.512 1316.31 416.423 1315.52 414.732 1314.16C413.041 1312.79 411.903 1310.99 411.32 1308.74C410.738 1306.49 410.813 1304 411.548 1301.25ZM435.244 1303.38C435.793 1301.33 435.845 1299.51 435.401 1297.92C434.956 1296.32 434.108 1295.06 432.855 1294.14C431.646 1293.19 430.172 1292.64 428.435 1292.49C426.698 1292.34 425.007 1292.59 423.364 1293.26C421.721 1293.93 420.27 1294.99 419.011 1296.43C417.753 1297.88 416.849 1299.62 416.3 1301.67C415.743 1303.75 415.682 1305.6 416.117 1307.23C416.562 1308.83 417.389 1310.1 418.598 1311.05C419.817 1311.97 421.294 1312.5 423.032 1312.65C424.769 1312.81 426.459 1312.55 428.103 1311.88C429.789 1311.18 431.261 1310.11 432.52 1308.67C433.788 1307.19 434.696 1305.43 435.244 1303.38Z" fill="#0C1014"/>
<path d="M475.546 1293.06L447.983 1331.52L443.18 1331.1L452.204 1318.5L448.106 1290.66L453.267 1291.11L456.162 1313.88L470.743 1292.64L475.546 1293.06Z" fill="#0C1014"/>
<path d="M378.475 315.068L382.125 301.442L439.431 247.128L460.254 248.95L445.119 305.432L456.361 306.416L452.312 321.528L441.07 320.544L436.357 338.133L418.473 336.568L423.186 318.979L378.475 315.068ZM438.541 266.066L402.197 301.677L428.385 303.968L438.541 266.066Z" fill="#0C1014"/>
<path d="M485.454 323.793L461.181 357.292L449.684 356.286L467.314 322.206L485.454 323.793Z" fill="#0C1014"/>
<path d="M503.834 296.625C507.662 282.339 513.3 271.381 520.749 263.75C528.282 256.127 538.224 252.856 550.573 253.936C562.921 255.017 570.652 259.834 573.763 268.388C576.96 276.95 576.645 288.374 572.817 302.66C568.967 317.028 563.264 328.065 555.708 335.771C548.238 343.484 538.328 346.801 525.979 345.72C513.63 344.64 505.868 339.777 502.694 331.133C499.604 322.496 499.984 310.993 503.834 296.625ZM555.188 301.118C556.825 295.007 557.771 289.85 558.026 285.647C558.388 281.368 557.688 277.8 555.927 274.941C554.25 272.09 551.027 270.456 546.258 270.039C541.489 269.621 537.515 270.626 534.337 273.052C531.245 275.486 528.708 278.772 526.728 282.908C524.855 286.97 523.1 292.056 521.463 298.167C519.781 304.443 518.749 309.761 518.365 314.122C518.003 318.401 518.702 321.969 520.464 324.828C522.248 327.604 525.525 329.2 530.294 329.618C535.063 330.035 539.025 329.072 542.181 326.728C545.359 324.302 547.895 321.016 549.79 316.872C551.707 312.645 553.507 307.393 555.188 301.118Z" fill="#0C1014"/>
<path d="M592.086 283.682C594.724 275.462 599.408 269.364 606.139 265.39C612.977 261.34 620.952 259.713 630.065 260.511C636.282 261.054 641.317 262.594 645.17 265.128C649.045 267.58 651.603 270.719 652.844 274.547C654.192 278.299 654.258 282.445 653.041 286.987C651.647 292.189 649.058 296.484 645.274 299.872C641.597 303.184 637.677 305.292 633.512 306.195L633.379 306.691C637.921 308.609 641.045 311.587 642.753 315.624C644.545 319.668 644.645 324.663 643.052 330.609C641.724 335.564 639.348 339.877 635.924 343.55C632.584 347.229 628.316 349.983 623.12 351.81C618.031 353.562 612.293 354.159 605.906 353.6C596.282 352.758 589.078 349.719 584.292 344.483C579.507 339.248 578.172 332.032 580.287 322.836L597.661 324.356C596.747 328.417 597.278 331.802 599.254 334.51C601.338 337.143 604.722 338.665 609.406 339.074C613.749 339.454 617.38 338.589 620.299 336.478C623.325 334.292 625.336 331.341 626.332 327.625C627.66 322.67 626.993 318.978 624.332 316.548C621.671 314.118 616.934 312.605 610.121 312.009L606.416 311.684L610.233 297.44L613.938 297.764C626.031 298.822 633.129 295.429 635.231 287.584C636.182 284.033 635.816 281.17 634.133 278.994C632.535 276.826 629.692 275.563 625.604 275.206C621.601 274.856 618.205 275.657 615.416 277.61C612.733 279.489 610.79 282.023 609.587 285.214L592.086 283.682Z" fill="#0C1014"/>
<path d="M730.432 284.884L675.774 359.079L657.634 357.492L712.016 285.301L668.327 281.479L672.31 266.615L733.884 272.002L730.432 284.884Z" fill="#0C1014"/>
<path d="M983.22 1329.92L982.238 1333.59L972.529 1332.74L964.258 1363.61L959.608 1363.2L967.879 1332.33L958.119 1331.48L959.102 1327.81L983.22 1329.92Z" fill="#0C1014"/>
<path d="M991.784 1366.47C989.161 1366.24 986.931 1365.45 985.095 1364.11C983.292 1362.77 982.061 1360.99 981.401 1358.77C980.784 1356.52 980.852 1353.99 981.604 1351.18C982.348 1348.4 983.616 1346.01 985.409 1344.01C987.244 1341.97 989.386 1340.48 991.833 1339.55C994.289 1338.58 996.845 1338.21 999.502 1338.44C1002.16 1338.68 1004.41 1339.47 1006.24 1340.81C1008.09 1342.12 1009.34 1343.89 1010 1346.11C1010.69 1348.33 1010.67 1350.85 1009.91 1353.65C1009.16 1356.46 1007.85 1358.88 1005.98 1360.92C1004.15 1362.92 1001.99 1364.41 999.504 1365.37C997.014 1366.34 994.441 1366.7 991.784 1366.47ZM992.846 1362.51C994.515 1362.65 996.184 1362.41 997.852 1361.78C999.521 1361.15 1001 1360.11 1002.29 1358.67C1003.62 1357.23 1004.58 1355.42 1005.16 1353.24C1005.74 1351.06 1005.8 1349.17 1005.32 1347.57C1004.84 1345.98 1003.98 1344.75 1002.75 1343.9C1001.52 1343.02 1000.07 1342.5 998.402 1342.35C996.699 1342.21 995.03 1342.45 993.396 1343.08C991.805 1343.69 990.379 1344.71 989.121 1346.16C987.862 1347.6 986.94 1349.41 986.356 1351.59C985.763 1353.81 985.672 1355.71 986.083 1357.3C986.527 1358.89 987.346 1360.13 988.539 1361.01C989.741 1361.86 991.177 1362.36 992.846 1362.51Z" fill="#0C1014"/>
<path d="M1014.3 1353.99C1015.05 1351.21 1016.28 1348.84 1017.99 1346.86C1019.72 1344.84 1021.74 1343.35 1024.06 1342.37C1026.41 1341.39 1028.85 1341.01 1031.37 1341.23C1033.55 1341.42 1035.44 1342.1 1037.05 1343.25C1038.67 1344.37 1039.76 1345.77 1040.32 1347.44L1044.17 1333.07L1048.87 1333.48L1039.05 1370.15L1034.35 1369.74L1035.72 1364.63C1034.36 1366.17 1032.64 1367.39 1030.55 1368.29C1028.47 1369.16 1026.22 1369.48 1023.8 1369.27C1021.32 1369.05 1019.21 1368.26 1017.49 1366.89C1015.8 1365.53 1014.66 1363.72 1014.08 1361.47C1013.49 1359.22 1013.57 1356.73 1014.3 1353.99ZM1038 1356.11C1038.55 1354.06 1038.6 1352.24 1038.16 1350.65C1037.71 1349.06 1036.86 1347.8 1035.61 1346.88C1034.4 1345.93 1032.93 1345.37 1031.19 1345.22C1029.45 1345.07 1027.76 1345.33 1026.12 1346C1024.48 1346.66 1023.02 1347.72 1021.77 1349.16C1020.51 1350.61 1019.6 1352.36 1019.05 1354.4C1018.5 1356.48 1018.44 1358.34 1018.87 1359.97C1019.32 1361.56 1020.14 1362.83 1021.35 1363.78C1022.57 1364.7 1024.05 1365.24 1025.79 1365.39C1027.52 1365.54 1029.21 1365.28 1030.86 1364.61C1032.54 1363.92 1034.02 1362.85 1035.27 1361.4C1036.54 1359.92 1037.45 1358.16 1038 1356.11Z" fill="#0C1014"/>
<path d="M1048.83 1357.01C1049.58 1354.23 1050.81 1351.86 1052.52 1349.88C1054.25 1347.87 1056.27 1346.37 1058.59 1345.39C1060.94 1344.41 1063.36 1344.03 1065.85 1344.25C1068.3 1344.46 1070.29 1345.16 1071.83 1346.34C1073.36 1347.53 1074.36 1348.93 1074.83 1350.56L1076.15 1345.61L1080.86 1346.02L1073.58 1373.17L1068.88 1372.76L1070.23 1367.7C1068.89 1369.21 1067.16 1370.41 1065.03 1371.31C1062.95 1372.17 1060.7 1372.5 1058.28 1372.29C1055.8 1372.07 1053.71 1371.28 1052.02 1369.91C1050.33 1368.55 1049.19 1366.74 1048.61 1364.49C1048.02 1362.25 1048.1 1359.75 1048.83 1357.01ZM1072.53 1359.13C1073.08 1357.09 1073.13 1355.26 1072.69 1353.67C1072.24 1352.08 1071.39 1350.82 1070.14 1349.9C1068.93 1348.95 1067.46 1348.4 1065.72 1348.24C1063.98 1348.09 1062.29 1348.35 1060.65 1349.02C1059.01 1349.68 1057.56 1350.74 1056.3 1352.19C1055.04 1353.63 1054.13 1355.38 1053.59 1357.43C1053.03 1359.51 1052.97 1361.36 1053.4 1362.99C1053.85 1364.58 1054.67 1365.85 1055.88 1366.8C1057.1 1367.72 1058.58 1368.26 1060.32 1368.41C1062.06 1368.56 1063.75 1368.3 1065.39 1367.64C1067.07 1366.94 1068.55 1365.87 1069.81 1364.42C1071.07 1362.94 1071.98 1361.18 1072.53 1359.13Z" fill="#0C1014"/>
<path d="M1112.83 1348.82L1085.27 1387.27L1080.47 1386.85L1089.49 1374.26L1085.39 1346.42L1090.55 1346.87L1093.45 1369.63L1108.03 1348.4L1112.83 1348.82Z" fill="#0C1014"/>
<defs>
<radialGradient id="paint0_radial_191_179" cx="0" cy="0" r="1" gradientTransform="matrix(778.5 65.2917 -213.214 777.529 505.314 98.058)" gradientUnits="userSpaceOnUse">
<stop stop-color="white"/>
<stop offset="1" stop-color="white" stop-opacity="0"/>
</radialGradient>
<linearGradient id="paint1_linear_191_179" x1="431.755" y1="573.695" x2="794.655" y2="670.934" gradientUnits="userSpaceOnUse">
<stop stop-color="#ACEBCF"/>
<stop offset="1" stop-color="#711FE6"/>
</linearGradient>
<linearGradient id="paint2_linear_191_179" x1="350.232" y1="1264.86" x2="1564.71" y2="858.901" gradientUnits="userSpaceOnUse">
<stop stop-color="#ACEBCF"/>
<stop offset="1" stop-color="#7221E6"/>
</linearGradient>
<radialGradient id="paint3_radial_191_179" cx="0" cy="0" r="1" gradientTransform="matrix(778.5 65.2917 -213.214 777.529 391.328 -17.942)" gradientUnits="userSpaceOnUse">
<stop stop-color="white"/>
<stop offset="1" stop-color="white" stop-opacity="0"/>
</radialGradient>
<linearGradient id="paint4_linear_191_179" x1="317.769" y1="457.695" x2="680.668" y2="554.934" gradientUnits="userSpaceOnUse">
<stop stop-color="#ACEBCF"/>
<stop offset="1" stop-color="#711FE6"/>
</linearGradient>
<linearGradient id="paint5_linear_191_179" x1="236.245" y1="1148.86" x2="1450.72" y2="742.901" gradientUnits="userSpaceOnUse">
<stop stop-color="#ACEBCF"/>
<stop offset="1" stop-color="#7221E6"/>
</linearGradient>
</defs>
</svg>
