<svg width="537" height="511" viewBox="0 0 537 511" fill="none" xmlns="http://www.w3.org/2000/svg">
<mask id="mask0_180_248" style="mask-type:alpha" maskUnits="userSpaceOnUse" x="33" y="41" width="501" height="469">
<rect width="391" height="452" rx="14" transform="matrix(0.996195 0.0871557 -0.258819 0.965926 146.986 40)" fill="white"/>
</mask>
<g mask="url(#mask0_180_248)">
<foreignObject x="10.7061" y="18.998" width="545.086" height="512.68"><div xmlns="http://www.w3.org/1999/xhtml" style="backdrop-filter:blur(11px);clip-path:url(#bgblur_0_180_248_clip_path);height:100%;width:100%"></div></foreignObject><path data-figma-bg-blur-radius="22" d="M143.88 51.5911C145.596 45.1895 152.338 40.4683 158.941 41.0459L524.544 73.032C531.146 73.6097 535.108 79.2674 533.393 85.669L422.618 499.085C420.903 505.487 414.16 510.208 407.558 509.631L41.9544 477.644C35.3522 477.067 31.3906 471.409 33.1059 465.007L143.88 51.5911Z" fill="white" fill-opacity="0.4"/>
<path d="M475.201 97.8779C425.815 282.19 237.278 418.613 54.0925 402.586C-129.093 386.56 -237.559 224.153 -188.172 39.8402C-138.786 -144.472 49.751 -280.895 232.936 -264.868C416.122 -248.842 524.588 -86.4347 475.201 97.8779Z" fill="url(#paint0_radial_180_248)" fill-opacity="0.8"/>
</g>
<path d="M175.667 81.9057L174.906 84.7436L170.089 84.3221L166.152 99.0138L162.526 98.6966L166.463 84.0049L161.645 83.5834L162.406 80.7455L175.667 81.9057Z" fill="black"/>
<path d="M179.873 88.1853C180.537 87.4894 181.296 86.9647 182.15 86.6111C183.022 86.259 183.942 86.1252 184.909 86.2098L183.92 89.9016L182.961 89.8178C181.822 89.7181 180.889 89.902 180.163 90.3697C179.454 90.8389 178.926 91.718 178.581 93.0072L176.724 99.9387L173.098 99.6215L176.826 85.7083L180.452 86.0255L179.873 88.1853Z" fill="black"/>
<path d="M183.996 93.4039C184.373 91.9975 184.992 90.7751 185.854 89.7367C186.732 88.6998 187.742 87.9314 188.884 87.4315C190.042 86.9331 191.234 86.7376 192.46 86.8448C193.531 86.9385 194.407 87.2293 195.089 87.7174C195.789 88.207 196.295 88.791 196.608 89.4695L197.14 87.4855L200.792 87.805L197.064 101.718L193.412 101.399L193.957 99.3645C193.316 99.9767 192.522 100.464 191.577 100.827C190.653 101.175 189.656 101.301 188.585 101.208C187.377 101.102 186.352 100.704 185.512 100.014C184.69 99.3248 184.13 98.4106 183.835 97.2709C183.561 96.116 183.615 94.827 183.996 93.4039ZM195.276 94.4421C195.505 93.5883 195.527 92.8448 195.343 92.2119C195.164 91.5622 194.823 91.0526 194.321 90.6831C193.824 90.2969 193.239 90.0743 192.565 90.0154C191.892 89.9565 191.227 90.0612 190.572 90.3294C189.917 90.5977 189.326 91.0257 188.797 91.6135C188.29 92.186 187.924 92.8908 187.7 93.728C187.476 94.5651 187.451 95.3169 187.626 95.9833C187.823 96.6345 188.161 97.1525 188.641 97.5372C189.138 97.9234 189.715 98.1452 190.371 98.2026C191.045 98.2615 191.718 98.1576 192.39 97.8909C193.067 97.6074 193.659 97.1794 194.166 96.6069C194.677 96.0176 195.047 95.296 195.276 94.4421Z" fill="black"/>
<path d="M201.019 94.9446C201.405 93.5047 202.043 92.2755 202.935 91.2568C203.831 90.2214 204.893 89.4575 206.12 88.9652C207.352 88.4561 208.659 88.262 210.04 88.3829C211.819 88.5385 213.17 89.1022 214.094 90.074C215.039 91.0306 215.502 92.3048 215.482 93.8967L211.571 93.5545C211.525 92.9336 211.296 92.4339 210.885 92.0552C210.496 91.6613 209.939 91.4326 209.214 91.3692C208.178 91.2785 207.259 91.5751 206.457 92.2589C205.66 92.926 205.082 93.9292 204.723 95.2686C204.368 96.5913 204.395 97.6474 204.802 98.437C205.213 99.2098 205.937 99.6415 206.973 99.7322C208.441 99.8606 209.569 99.3082 210.359 98.075L214.27 98.4172C213.469 99.8893 212.363 101.018 210.951 101.802C209.539 102.587 207.952 102.902 206.191 102.748C204.81 102.627 203.662 102.227 202.749 101.547C201.84 100.851 201.227 99.9405 200.909 98.8161C200.597 97.675 200.633 96.3845 201.019 94.9446Z" fill="black"/>
<path d="M223.646 104.044L220.365 97.6909L218.777 103.618L215.15 103.301L220.13 84.7162L223.756 85.0335L220.923 95.6065L227.322 90.1262L232.036 90.5386L223.846 96.9674L228.36 104.456L223.646 104.044Z" fill="black"/>
<path d="M235.769 89.1688C235.13 89.1129 234.647 88.8735 234.318 88.4507C234.011 88.0126 233.937 87.5006 234.094 86.9146C234.251 86.3286 234.588 85.8612 235.106 85.5123C235.645 85.1483 236.234 84.9942 236.873 85.0501C237.512 85.106 237.985 85.353 238.291 85.7911C238.62 86.2139 238.706 86.7183 238.549 87.3043C238.392 87.8903 238.043 88.3653 237.504 88.7294C236.986 89.0782 236.408 89.2247 235.769 89.1688ZM237.112 90.9827L233.384 104.896L229.758 104.579L233.486 90.6654L237.112 90.9827Z" fill="black"/>
<path d="M248.182 91.7456C249.892 91.8951 251.132 92.5434 251.903 93.6903C252.678 94.8205 252.814 96.3232 252.312 98.1984L250.125 106.36L246.499 106.043L248.558 98.3583C248.854 97.2533 248.795 96.3829 248.383 95.747C247.974 95.0944 247.278 94.7251 246.294 94.639C245.292 94.5514 244.417 94.7832 243.669 95.3346C242.942 95.8707 242.43 96.6913 242.134 97.7963L240.075 105.481L236.449 105.164L240.177 91.2508L243.803 91.5681L243.339 93.3009C243.984 92.7405 244.722 92.3253 245.555 92.0554C246.409 91.7703 247.285 91.667 248.182 91.7456Z" fill="black"/>
<path d="M262.464 92.9694C263.535 93.063 264.42 93.3546 265.119 93.8442C265.823 94.317 266.321 94.9003 266.612 95.5941L267.143 93.6101L270.795 93.9296L267.041 107.943C266.695 109.232 266.12 110.356 265.316 111.314C264.507 112.288 263.488 113.021 262.261 113.514C261.029 114.023 259.653 114.211 258.133 114.078C256.096 113.9 254.544 113.293 253.479 112.257C252.43 111.223 252.033 109.903 252.287 108.297L255.887 108.612C255.906 109.265 256.177 109.803 256.7 110.226C257.236 110.667 257.953 110.926 258.851 111.005C259.904 111.097 260.842 110.862 261.664 110.3C262.482 109.755 263.057 108.863 263.388 107.624L263.967 105.464C263.326 106.076 262.533 106.564 261.587 106.926C260.659 107.291 259.668 107.427 258.615 107.335C257.406 107.229 256.382 106.831 255.542 106.14C254.702 105.45 254.134 104.535 253.839 103.395C253.565 102.241 253.619 100.952 254 99.5284C254.377 98.122 254.996 96.8996 255.857 95.8612C256.736 94.8243 257.746 94.0559 258.887 93.556C260.046 93.0576 261.238 92.8621 262.464 92.9694ZM265.279 100.567C265.508 99.7128 265.531 98.9694 265.347 98.3364C265.167 97.6867 264.827 97.1771 264.325 96.8077C263.828 96.4214 263.242 96.1989 262.569 96.14C261.895 96.081 261.231 96.1857 260.576 96.454C259.921 96.7222 259.329 97.1502 258.801 97.738C258.294 98.3105 257.928 99.0153 257.704 99.8525C257.48 100.69 257.455 101.441 257.63 102.108C257.826 102.759 258.165 103.277 258.645 103.662C259.142 104.048 259.719 104.27 260.375 104.327C261.049 104.386 261.721 104.282 262.394 104.015C263.071 103.732 263.662 103.304 264.169 102.731C264.681 102.142 265.051 101.421 265.279 100.567Z" fill="black"/>
<path d="M291.029 102.511C290.894 103.013 290.738 103.462 290.562 103.858L280.072 102.94C279.889 103.952 280.041 104.771 280.527 105.396C281.013 106.021 281.723 106.375 282.655 106.456C284.002 106.574 285.111 106.097 285.981 105.025L289.892 105.367C289.119 106.671 288.028 107.706 286.621 108.474C285.218 109.225 283.662 109.526 281.952 109.376C280.571 109.255 279.406 108.854 278.458 108.171C277.532 107.473 276.903 106.553 276.573 105.41C276.261 104.269 276.295 102.987 276.676 101.564C277.062 100.124 277.703 98.8862 278.599 97.8508C279.495 96.8154 280.565 96.0523 281.81 95.5615C283.055 95.0707 284.385 94.8872 285.801 95.0111C287.165 95.1304 288.307 95.5216 289.225 96.1845C290.16 96.8489 290.78 97.7342 291.084 98.8404C291.41 99.9313 291.392 101.155 291.029 102.511ZM287.542 101.178C287.767 100.272 287.623 99.5228 287.111 98.9297C286.602 98.3197 285.874 97.9732 284.924 97.8902C284.026 97.8116 283.194 98.013 282.429 98.4944C281.686 98.9605 281.119 99.6564 280.73 100.582L287.542 101.178Z" fill="black"/>
<path d="M298.064 107.239L304.55 96.8827L308.409 97.2203L299.371 110.669L294.968 110.284L293.412 95.9083L297.298 96.2482L298.064 107.239Z" fill="black"/>
<path d="M321.484 105.175C321.349 105.678 321.193 106.127 321.017 106.523L310.527 105.605C310.344 106.617 310.496 107.436 310.982 108.061C311.468 108.686 312.178 109.039 313.11 109.121C314.457 109.239 315.566 108.762 316.436 107.69L320.347 108.032C319.574 109.335 318.483 110.371 317.076 111.138C315.673 111.89 314.117 112.19 312.407 112.041C311.026 111.92 309.861 111.518 308.913 110.836C307.987 110.138 307.358 109.217 307.028 108.075C306.716 106.933 306.75 105.651 307.131 104.228C307.517 102.788 308.158 101.551 309.054 100.515C309.95 99.4799 311.02 98.7168 312.265 98.226C313.51 97.7352 314.84 97.5517 316.256 97.6756C317.62 97.7949 318.762 98.186 319.68 98.849C320.615 99.5134 321.235 100.399 321.539 101.505C321.865 102.596 321.847 103.819 321.484 105.175ZM317.997 103.842C318.222 102.937 318.078 102.187 317.566 101.594C317.057 100.984 316.329 100.638 315.379 100.555C314.481 100.476 313.649 100.677 312.884 101.159C312.141 101.625 311.574 102.321 311.185 103.246L317.997 103.842Z" fill="black"/>
<path d="M333.401 99.2012C335.11 99.3508 336.351 99.999 337.121 101.146C337.896 102.276 338.033 103.779 337.53 105.654L335.343 113.816L331.717 113.499L333.776 105.814C334.072 104.709 334.014 103.839 333.601 103.203C333.193 102.55 332.497 102.181 331.512 102.095C330.511 102.007 329.636 102.239 328.887 102.79C328.16 103.326 327.649 104.147 327.353 105.252L325.294 112.937L321.667 112.62L325.396 98.7065L329.022 99.0237L328.557 100.757C329.202 100.196 329.941 99.781 330.773 99.5111C331.627 99.226 332.503 99.1227 333.401 99.2012Z" fill="black"/>
<path d="M345.45 103.417L343.646 110.147C343.52 110.616 343.541 110.969 343.707 111.206C343.895 111.429 344.265 111.564 344.818 111.612L346.501 111.759L345.707 114.723L343.428 114.523C340.372 114.256 339.229 112.682 340.001 109.803L341.798 103.097L340.088 102.948L340.862 100.06L342.571 100.209L343.493 96.7685L347.145 97.088L346.223 100.529L349.435 100.81L348.661 103.698L345.45 103.417Z" fill="black"/>
<path d="M353.228 115.612C352.053 115.509 351.054 115.216 350.229 114.733C349.409 114.233 348.817 113.607 348.453 112.855C348.106 112.105 348.021 111.301 348.198 110.443L351.85 110.762C351.775 111.304 351.924 111.771 352.296 112.164C352.685 112.557 353.234 112.785 353.942 112.847C354.633 112.908 355.204 112.821 355.656 112.586C356.124 112.353 356.415 112.027 356.527 111.608C356.648 111.156 356.496 110.8 356.071 110.54C355.668 110.265 354.984 109.948 354.02 109.59C353.016 109.245 352.205 108.908 351.586 108.58C350.985 108.253 350.507 107.792 350.155 107.196C349.819 106.601 349.777 105.834 350.028 104.897C350.235 104.127 350.648 103.443 351.267 102.846C351.904 102.251 352.695 101.806 353.639 101.512C354.601 101.219 355.661 101.123 356.818 101.224C358.527 101.374 359.779 101.912 360.574 102.838C361.373 103.747 361.636 104.91 361.362 106.325L357.892 106.022C357.988 105.465 357.863 105.008 357.516 104.652C357.192 104.281 356.675 104.065 355.967 104.003C355.311 103.945 354.77 104.018 354.345 104.221C353.937 104.425 353.677 104.736 353.564 105.155C353.439 105.624 353.584 106.005 354 106.298C354.421 106.575 355.107 106.883 356.059 107.224C357.027 107.565 357.812 107.9 358.414 108.227C359.016 108.553 359.482 109.023 359.813 109.634C360.166 110.23 360.227 110.99 359.998 111.912C359.783 112.716 359.357 113.415 358.72 114.011C358.1 114.608 357.31 115.053 356.348 115.345C355.407 115.623 354.367 115.712 353.228 115.612Z" fill="black"/>
<path d="M129.123 182.768C131.124 175.3 138.99 169.792 146.693 170.466L237.346 178.397C245.049 179.071 249.671 185.671 247.67 193.14C245.669 200.608 237.802 206.117 230.1 205.443L139.446 197.512C131.743 196.838 127.121 190.237 129.123 182.768Z" fill="url(#paint1_linear_180_248)"/>
<path d="M161.42 183.728C161.18 184.624 160.661 185.343 159.863 185.885C159.079 186.417 158.038 186.627 156.742 186.513L154.606 186.326L153.401 190.824L151.951 190.697L154.837 179.925L158.423 180.239C159.677 180.348 160.55 180.725 161.04 181.369C161.542 182.014 161.668 182.8 161.42 183.728ZM157.053 185.354C157.86 185.425 158.501 185.307 158.974 185C159.448 184.694 159.769 184.226 159.938 183.598C160.294 182.269 159.685 181.535 158.113 181.398L155.977 181.211L154.917 185.167L157.053 185.354Z" fill="white"/>
<path d="M171.197 183.713L168.927 192.182L167.477 192.055L167.812 190.803C167.42 191.212 166.941 191.518 166.376 191.722C165.823 191.916 165.25 191.987 164.655 191.935C163.974 191.875 163.399 191.688 162.929 191.373C162.462 191.047 162.142 190.597 161.969 190.023C161.808 189.45 161.832 188.772 162.041 187.989L163.371 183.028L164.805 183.154L163.526 187.929C163.302 188.764 163.347 189.427 163.661 189.918C163.978 190.399 164.514 190.673 165.269 190.739C166.044 190.807 166.717 190.629 167.288 190.204C167.858 189.779 168.262 189.124 168.5 188.238L169.746 183.586L171.197 183.713Z" fill="white"/>
<path d="M174.728 185.43C175.112 184.968 175.575 184.623 176.114 184.396C176.664 184.17 177.279 184.087 177.959 184.146L177.57 185.599L177.187 185.566C175.561 185.423 174.519 186.208 174.061 187.918L172.827 192.523L171.376 192.396L173.646 183.927L175.096 184.054L174.728 185.43Z" fill="white"/>
<path d="M177.919 188.619C178.154 187.743 178.539 186.997 179.074 186.379C179.612 185.751 180.248 185.285 180.982 184.98C181.727 184.676 182.514 184.561 183.343 184.633C184.416 184.727 185.23 185.057 185.786 185.622C186.352 186.188 186.626 186.929 186.609 187.845L185.047 187.709C185.037 187.18 184.853 186.748 184.498 186.411C184.153 186.075 183.662 185.879 183.024 185.823C182.195 185.751 181.451 185.97 180.792 186.482C180.136 186.984 179.672 187.739 179.402 188.749C179.128 189.769 179.172 190.579 179.533 191.18C179.894 191.781 180.489 192.118 181.318 192.191C181.955 192.246 182.525 192.149 183.028 191.897C183.53 191.646 183.933 191.26 184.236 190.738L185.798 190.874C185.332 191.719 184.678 192.374 183.836 192.838C182.997 193.292 182.051 193.473 180.999 193.381C180.17 193.308 179.48 193.063 178.928 192.646C178.388 192.23 178.025 191.676 177.84 190.985C177.656 190.294 177.682 189.505 177.919 188.619Z" fill="white"/>
<path d="M193.65 185.519C194.309 185.577 194.867 185.768 195.324 186.093C195.783 186.407 196.089 186.85 196.24 187.422C196.402 187.995 196.378 188.673 196.168 189.457L194.83 194.448L193.396 194.323L194.68 189.532C194.906 188.687 194.861 188.024 194.544 187.543C194.23 187.051 193.695 186.773 192.941 186.707C192.176 186.64 191.503 186.818 190.921 187.242C190.351 187.666 189.947 188.322 189.709 189.208L188.455 193.891L187.004 193.764L190.069 182.327L191.519 182.454L190.401 186.627C190.804 186.219 191.287 185.919 191.85 185.725C192.423 185.533 193.024 185.464 193.65 185.519Z" fill="white"/>
<path d="M197.801 190.343C198.033 189.477 198.416 188.736 198.951 188.118C199.489 187.491 200.12 187.024 200.844 186.718C201.578 186.413 202.333 186.295 203.109 186.363C203.874 186.429 204.495 186.647 204.973 187.016C205.45 187.385 205.762 187.823 205.909 188.332L206.323 186.786L207.789 186.914L205.52 195.384L204.054 195.255L204.476 193.679C204.057 194.148 203.516 194.523 202.854 194.802C202.205 195.073 201.503 195.175 200.749 195.109C199.973 195.041 199.321 194.794 198.794 194.368C198.266 193.942 197.912 193.379 197.73 192.677C197.548 191.976 197.572 191.198 197.801 190.343ZM205.192 191.005C205.364 190.366 205.38 189.798 205.241 189.301C205.102 188.804 204.838 188.412 204.447 188.125C204.07 187.828 203.61 187.656 203.068 187.609C202.526 187.561 201.999 187.642 201.487 187.85C200.974 188.058 200.521 188.387 200.129 188.838C199.736 189.289 199.454 189.834 199.283 190.472C199.109 191.122 199.09 191.7 199.226 192.207C199.365 192.705 199.623 193.101 200 193.398C200.38 193.684 200.841 193.851 201.383 193.899C201.925 193.946 202.452 193.866 202.965 193.657C203.491 193.44 203.95 193.106 204.342 192.655C204.738 192.194 205.021 191.644 205.192 191.005Z" fill="white"/>
<path d="M211.026 196.008C210.357 195.949 209.785 195.788 209.312 195.526C208.841 195.252 208.504 194.907 208.301 194.488C208.101 194.059 208.053 193.586 208.16 193.068L209.658 193.199C209.587 193.625 209.697 193.988 209.986 194.288C210.286 194.588 210.734 194.764 211.329 194.816C211.881 194.865 212.349 194.784 212.731 194.575C213.113 194.366 213.353 194.081 213.45 193.721C213.549 193.35 213.452 193.062 213.159 192.857C212.869 192.642 212.391 192.415 211.726 192.178C211.122 191.956 210.635 191.745 210.265 191.544C209.908 191.333 209.625 191.05 209.415 190.695C209.22 190.329 209.195 189.874 209.341 189.328C209.457 188.895 209.696 188.51 210.059 188.173C210.421 187.835 210.874 187.585 211.418 187.422C211.965 187.248 212.552 187.189 213.179 187.244C214.146 187.328 214.863 187.633 215.331 188.159C215.799 188.685 215.944 189.362 215.766 190.19L214.315 190.064C214.402 189.618 214.311 189.246 214.043 188.948C213.785 188.652 213.375 188.479 212.812 188.429C212.291 188.384 211.848 188.456 211.482 188.645C211.116 188.835 210.886 189.104 210.792 189.455C210.717 189.733 210.745 189.973 210.876 190.174C211.021 190.366 211.216 190.53 211.462 190.668C211.721 190.796 212.082 190.949 212.546 191.127C213.129 191.346 213.595 191.556 213.944 191.755C214.295 191.944 214.567 192.21 214.757 192.554C214.959 192.898 214.996 193.329 214.868 193.845C214.744 194.308 214.499 194.714 214.134 195.062C213.769 195.409 213.313 195.67 212.766 195.844C212.233 196.008 211.653 196.063 211.026 196.008Z" fill="white"/>
<path d="M225.49 192.465C225.418 192.733 225.326 193.015 225.214 193.311L218.233 192.7C218.062 193.539 218.179 194.219 218.584 194.739C219.001 195.25 219.593 195.539 220.358 195.606C220.985 195.661 221.543 195.568 222.032 195.326C222.534 195.074 222.934 194.719 223.231 194.26L224.793 194.397C224.341 195.19 223.695 195.814 222.856 196.268C222.019 196.711 221.08 196.887 220.039 196.796C219.21 196.724 218.515 196.478 217.952 196.06C217.401 195.643 217.027 195.088 216.832 194.396C216.64 193.694 216.661 192.905 216.896 192.029C217.13 191.153 217.516 190.402 218.054 189.774C218.592 189.146 219.232 188.685 219.975 188.392C220.73 188.089 221.533 187.974 222.383 188.049C223.212 188.121 223.898 188.361 224.442 188.767C224.985 189.173 225.344 189.7 225.519 190.348C225.707 190.986 225.697 191.692 225.49 192.465ZM224.07 192.04C224.214 191.504 224.214 191.035 224.072 190.632C223.933 190.22 223.677 189.897 223.304 189.664C222.945 189.421 222.51 189.278 222 189.233C221.267 189.169 220.579 189.341 219.937 189.749C219.306 190.157 218.845 190.76 218.555 191.558L224.07 192.04Z" fill="white"/>
<path d="M276.258 196.052C276.539 195.001 277.036 194.08 277.749 193.288C278.464 192.486 279.305 191.885 280.271 191.484C281.248 191.085 282.252 190.93 283.283 191.02C284.494 191.126 285.476 191.502 286.227 192.148C286.978 192.793 287.422 193.655 287.557 194.731L285.82 194.579C285.686 193.903 285.373 193.365 284.883 192.963C284.403 192.563 283.759 192.327 282.952 192.256C282.176 192.189 281.433 192.303 280.723 192.599C280.013 192.896 279.395 193.353 278.871 193.971C278.349 194.58 277.972 195.316 277.74 196.182C277.511 197.037 277.485 197.804 277.661 198.484C277.841 199.154 278.192 199.691 278.714 200.095C279.237 200.499 279.886 200.735 280.662 200.803C281.469 200.874 282.205 200.764 282.87 200.474C283.549 200.175 284.129 199.714 284.611 199.092L286.348 199.244C285.658 200.238 284.785 200.979 283.73 201.467C282.678 201.944 281.546 202.13 280.334 202.024C279.304 201.934 278.425 201.62 277.7 201.082C276.987 200.534 276.498 199.822 276.233 198.944C275.968 198.067 275.976 197.103 276.258 196.052Z" fill="#080210"/>
<path d="M294.313 194.326C294.972 194.384 295.53 194.575 295.986 194.899C296.446 195.214 296.751 195.657 296.902 196.229C297.064 196.802 297.04 197.48 296.83 198.263L295.493 203.255L294.058 203.13L295.342 198.339C295.568 197.494 295.523 196.831 295.206 196.35C294.892 195.858 294.358 195.579 293.603 195.513C292.838 195.446 292.165 195.625 291.584 196.049C291.013 196.473 290.609 197.128 290.372 198.015L289.117 202.697L287.667 202.57L290.731 191.134L292.182 191.261L291.064 195.434C291.466 195.026 291.949 194.725 292.512 194.532C293.086 194.34 293.686 194.271 294.313 194.326Z" fill="#080210"/>
<path d="M307.053 199.601C306.982 199.868 306.89 200.15 306.778 200.446L299.796 199.836C299.626 200.675 299.743 201.355 300.147 201.875C300.565 202.386 301.156 202.675 301.921 202.742C302.548 202.797 303.106 202.703 303.595 202.461C304.098 202.21 304.497 201.855 304.794 201.396L306.356 201.532C305.904 202.326 305.259 202.95 304.419 203.403C303.583 203.847 302.644 204.023 301.602 203.932C300.774 203.86 300.078 203.614 299.516 203.196C298.964 202.779 298.591 202.224 298.396 201.532C298.203 200.83 298.224 200.041 298.459 199.165C298.694 198.289 299.08 197.537 299.618 196.91C300.156 196.282 300.796 195.821 301.538 195.527C302.293 195.225 303.096 195.11 303.946 195.185C304.775 195.257 305.461 195.496 306.005 195.902C306.549 196.309 306.908 196.836 307.082 197.484C307.27 198.122 307.26 198.828 307.053 199.601ZM305.634 199.176C305.777 198.64 305.778 198.171 305.636 197.768C305.496 197.355 305.24 197.032 304.868 196.799C304.508 196.557 304.074 196.414 303.564 196.369C302.831 196.305 302.143 196.477 301.501 196.884C300.869 197.293 300.409 197.896 300.119 198.693L305.634 199.176Z" fill="#080210"/>
<path d="M308.343 200.03C308.578 199.154 308.963 198.407 309.498 197.79C310.036 197.162 310.672 196.696 311.406 196.391C312.151 196.087 312.938 195.971 313.767 196.044C314.84 196.138 315.654 196.467 316.21 197.033C316.776 197.599 317.05 198.34 317.033 199.256L315.471 199.119C315.46 198.591 315.277 198.158 314.922 197.821C314.577 197.485 314.085 197.29 313.448 197.234C312.619 197.161 311.875 197.381 311.216 197.893C310.56 198.394 310.096 199.15 309.825 200.159C309.552 201.179 309.596 201.99 309.957 202.591C310.318 203.192 310.913 203.529 311.742 203.601C312.379 203.657 312.949 203.559 313.452 203.308C313.954 203.057 314.357 202.67 314.659 202.148L316.222 202.285C315.756 203.13 315.102 203.784 314.26 204.249C313.42 204.702 312.475 204.883 311.423 204.791C310.594 204.719 309.904 204.474 309.352 204.056C308.811 203.64 308.449 203.086 308.264 202.395C308.079 201.704 308.106 200.916 308.343 200.03Z" fill="#080210"/>
<path d="M322.305 205.601L319.881 201.561L318.879 205.301L317.428 205.174L320.492 193.738L321.943 193.865L320.142 200.587L324.511 197.126L326.535 197.303L321.292 201.163L324.282 205.774L322.305 205.601Z" fill="#080210"/>
<path d="M329.403 206.364C328.585 206.293 327.89 206.047 327.317 205.628C326.755 205.21 326.371 204.654 326.165 203.961C325.972 203.259 325.993 202.47 326.228 201.594C326.46 200.729 326.855 199.983 327.415 199.357C327.987 198.722 328.655 198.258 329.419 197.967C330.185 197.665 330.982 197.55 331.811 197.622C332.64 197.695 333.341 197.941 333.913 198.36C334.489 198.769 334.88 199.32 335.086 200.013C335.302 200.706 335.293 201.491 335.058 202.367C334.824 203.243 334.415 203.998 333.831 204.632C333.262 205.257 332.588 205.72 331.812 206.021C331.035 206.322 330.232 206.437 329.403 206.364ZM329.735 205.128C330.255 205.173 330.776 205.098 331.296 204.901C331.817 204.704 332.278 204.38 332.682 203.931C333.096 203.482 333.394 202.917 333.576 202.237C333.758 201.557 333.775 200.968 333.625 200.47C333.476 199.972 333.209 199.59 332.823 199.324C332.44 199.048 331.988 198.888 331.468 198.842C330.936 198.795 330.416 198.871 329.906 199.069C329.41 199.258 328.965 199.577 328.573 200.028C328.18 200.479 327.893 201.044 327.71 201.724C327.525 202.414 327.497 203.008 327.625 203.504C327.764 204.001 328.019 204.387 328.391 204.662C328.766 204.927 329.214 205.082 329.735 205.128Z" fill="#080210"/>
<path d="M345.842 198.992L343.573 207.462L342.122 207.335L342.458 206.083C342.066 206.491 341.587 206.797 341.021 207.001C340.469 207.195 339.895 207.266 339.3 207.214C338.62 207.155 338.045 206.967 337.575 206.652C337.107 206.327 336.787 205.877 336.615 205.303C336.453 204.73 336.477 204.052 336.687 203.269L338.016 198.308L339.451 198.433L338.171 203.209C337.947 204.043 337.993 204.706 338.307 205.198C338.624 205.679 339.16 205.952 339.914 206.018C340.69 206.086 341.363 205.908 341.933 205.483C342.504 205.059 342.908 204.403 343.145 203.517L344.392 198.865L345.842 198.992Z" fill="#080210"/>
<path d="M349.75 200.521L348.412 205.512C348.302 205.925 348.314 206.226 348.447 206.417C348.584 206.598 348.875 206.708 349.321 206.747L350.389 206.84L350.07 208.03L348.763 207.916C347.956 207.845 347.399 207.612 347.091 207.216C346.784 206.82 346.741 206.21 346.962 205.386L348.299 200.394L347.168 200.295L347.478 199.136L348.61 199.235L349.182 197.102L350.632 197.229L350.061 199.361L352.34 199.561L352.029 200.72L349.75 200.521Z" fill="#080210"/>
<path d="M394.355 209.453L389.509 209.029L387.975 211.346L386.445 211.213L393.331 200.854L395.005 201L396.136 212.06L394.606 211.927L394.355 209.453ZM394.247 208.273L393.696 202.657L390.23 207.922L394.247 208.273Z" fill="#080210"/>
<path d="M398.487 207.901C398.719 207.035 399.103 206.294 399.638 205.676C400.176 205.048 400.807 204.582 401.53 204.276C402.264 203.971 403.025 203.853 403.811 203.922C404.491 203.981 405.082 204.191 405.584 204.551C406.088 204.901 406.428 205.337 406.604 205.859L407.804 201.377L409.271 201.505L406.206 212.941L404.74 212.813L405.167 211.221C404.744 211.701 404.208 212.081 403.556 212.362C402.907 212.632 402.206 212.734 401.451 212.668C400.676 212.6 400.019 212.353 399.48 211.926C398.953 211.5 398.598 210.937 398.416 210.235C398.234 209.534 398.258 208.756 398.487 207.901ZM405.879 208.563C406.05 207.924 406.066 207.356 405.928 206.859C405.789 206.362 405.524 205.97 405.134 205.682C404.756 205.386 404.297 205.214 403.755 205.166C403.213 205.119 402.686 205.199 402.173 205.408C401.661 205.616 401.208 205.945 400.815 206.396C400.423 206.847 400.141 207.391 399.97 208.03C399.796 208.679 399.777 209.258 399.913 209.765C400.051 210.262 400.309 210.659 400.686 210.956C401.066 211.242 401.527 211.409 402.069 211.457C402.611 211.504 403.139 211.424 403.651 211.215C404.177 210.998 404.636 210.664 405.029 210.213C405.424 209.752 405.708 209.202 405.879 208.563Z" fill="#080210"/>
<path d="M409.259 208.843C409.491 207.978 409.874 207.236 410.409 206.619C410.947 205.991 411.578 205.524 412.302 205.218C413.036 204.913 413.796 204.795 414.582 204.864C415.262 204.924 415.853 205.133 416.355 205.494C416.859 205.844 417.199 206.279 417.375 206.801L418.576 202.319L420.042 202.447L416.978 213.884L415.511 213.756L415.938 212.164C415.516 212.643 414.979 213.024 414.327 213.304C413.679 213.574 412.977 213.676 412.223 213.61C411.447 213.542 410.79 213.295 410.252 212.868C409.724 212.443 409.37 211.879 409.188 211.178C409.006 210.476 409.029 209.698 409.259 208.843ZM416.65 209.505C416.821 208.867 416.838 208.299 416.699 207.801C416.56 207.304 416.296 206.912 415.905 206.625C415.528 206.328 415.068 206.156 414.526 206.109C413.984 206.061 413.457 206.142 412.944 206.35C412.432 206.558 411.979 206.888 411.587 207.338C411.194 207.789 410.912 208.334 410.741 208.973C410.567 209.622 410.548 210.2 410.684 210.708C410.823 211.205 411.081 211.602 411.458 211.898C411.838 212.185 412.299 212.351 412.841 212.399C413.383 212.446 413.91 212.366 414.422 212.158C414.948 211.94 415.408 211.606 415.8 211.155C416.196 210.694 416.479 210.144 416.65 209.505Z" fill="#080210"/>
<path d="M427.406 207.315L426.069 212.307C425.958 212.719 425.97 213.02 426.104 213.211C426.24 213.392 426.532 213.502 426.978 213.541L428.046 213.634L427.727 214.824L426.42 214.71C425.612 214.639 425.055 214.406 424.748 214.01C424.441 213.614 424.397 213.004 424.618 212.18L425.956 207.188L424.824 207.089L425.135 205.93L426.266 206.029L426.838 203.896L428.288 204.023L427.717 206.156L429.996 206.355L429.686 207.514L427.406 207.315Z" fill="#080210"/>
<path d="M433.256 215.45C432.438 215.379 431.743 215.133 431.17 214.714C430.608 214.296 430.224 213.74 430.018 213.048C429.825 212.345 429.847 211.556 430.081 210.681C430.313 209.815 430.709 209.069 431.268 208.443C431.84 207.808 432.508 207.345 433.272 207.053C434.038 206.751 434.835 206.636 435.664 206.709C436.493 206.781 437.194 207.027 437.767 207.446C438.342 207.855 438.733 208.406 438.939 209.099C439.155 209.793 439.146 210.577 438.911 211.453C438.677 212.329 438.268 213.084 437.685 213.718C437.115 214.343 436.441 214.806 435.665 215.107C434.888 215.409 434.085 215.523 433.256 215.45ZM433.588 214.214C434.108 214.26 434.629 214.184 435.149 213.987C435.67 213.79 436.132 213.466 436.535 213.017C436.949 212.568 437.247 212.003 437.429 211.323C437.611 210.643 437.628 210.054 437.478 209.556C437.329 209.058 437.062 208.676 436.676 208.41C436.293 208.134 435.842 207.974 435.321 207.928C434.79 207.882 434.269 207.957 433.759 208.155C433.263 208.344 432.818 208.663 432.426 209.114C432.033 209.565 431.746 210.13 431.564 210.81C431.379 211.501 431.35 212.094 431.478 212.59C431.617 213.087 431.872 213.473 432.244 213.748C432.619 214.013 433.067 214.168 433.588 214.214Z" fill="#080210"/>
<path d="M444.526 211.944C444.761 211.069 445.146 210.322 445.681 209.704C446.219 209.077 446.855 208.61 447.589 208.305C448.334 208.002 449.121 207.886 449.95 207.958C451.023 208.052 451.837 208.382 452.393 208.947C452.959 209.513 453.233 210.254 453.216 211.17L451.654 211.034C451.643 210.505 451.46 210.073 451.104 209.736C450.76 209.4 450.268 209.204 449.631 209.148C448.802 209.076 448.058 209.295 447.399 209.807C446.742 210.309 446.279 211.064 446.008 212.074C445.735 213.094 445.779 213.904 446.14 214.505C446.501 215.106 447.096 215.443 447.925 215.516C448.562 215.572 449.132 215.474 449.634 215.222C450.137 214.971 450.539 214.585 450.842 214.063L452.404 214.199C451.939 215.044 451.285 215.699 450.443 216.163C449.603 216.617 448.658 216.798 447.606 216.706C446.777 216.633 446.087 216.388 445.535 215.971C444.994 215.555 444.631 215.001 444.447 214.31C444.262 213.619 444.289 212.83 444.526 211.944Z" fill="#080210"/>
<path d="M454.212 212.776C454.444 211.91 454.827 211.169 455.363 210.551C455.901 209.924 456.531 209.457 457.255 209.151C457.989 208.846 458.744 208.728 459.52 208.796C460.285 208.863 460.906 209.08 461.384 209.449C461.861 209.818 462.173 210.256 462.32 210.765L462.734 209.219L464.2 209.348L461.931 217.817L460.465 217.688L460.887 216.112C460.468 216.582 459.927 216.956 459.265 217.235C458.616 217.506 457.914 217.608 457.16 217.542C456.384 217.474 455.733 217.227 455.205 216.801C454.677 216.375 454.323 215.812 454.141 215.111C453.959 214.409 453.983 213.631 454.212 212.776ZM461.604 213.438C461.775 212.8 461.791 212.232 461.652 211.734C461.514 211.237 461.249 210.845 460.858 210.558C460.481 210.261 460.021 210.089 459.479 210.042C458.938 209.994 458.41 210.075 457.898 210.283C457.385 210.491 456.933 210.821 456.54 211.271C456.147 211.722 455.865 212.267 455.694 212.906C455.52 213.555 455.501 214.133 455.637 214.64C455.776 215.138 456.034 215.535 456.411 215.831C456.791 216.117 457.252 216.284 457.794 216.332C458.336 216.379 458.863 216.299 459.376 216.091C459.902 215.873 460.361 215.539 460.754 215.088C461.149 214.627 461.432 214.077 461.604 213.438Z" fill="#080210"/>
<path d="M467.733 211.064C468.118 210.602 468.58 210.258 469.12 210.031C469.67 209.805 470.285 209.722 470.965 209.781L470.575 211.234L470.193 211.2C468.567 211.058 467.525 211.842 467.067 213.553L465.833 218.158L464.382 218.031L466.652 209.562L468.102 209.689L467.733 211.064Z" fill="#080210"/>
<path d="M474.056 211.396L472.719 216.388C472.608 216.8 472.62 217.102 472.754 217.293C472.89 217.473 473.181 217.583 473.628 217.622L474.696 217.716L474.377 218.906L473.07 218.791C472.262 218.721 471.705 218.487 471.398 218.091C471.091 217.695 471.047 217.085 471.268 216.261L472.606 211.269L471.474 211.17L471.785 210.011L472.916 210.11L473.488 207.977L474.938 208.104L474.367 210.237L476.646 210.436L476.336 211.595L474.056 211.396Z" fill="#080210"/>
<path d="M96.7811 382.011C96.7811 382.011 130.319 320.786 143.655 326.394C156.991 332.002 154.502 357.08 177.064 359.054C199.626 361.028 221.499 283.495 242.915 283.178C264.332 282.861 256.144 335.768 278.07 332.717C299.996 329.666 326.051 260.666 348.954 260.327C371.857 259.987 372.843 311.789 397.248 308.391C421.654 304.992 422.515 259.102 451.02 248.496" stroke="url(#paint2_linear_180_248)" stroke-width="4"/>
<path d="M84.0317 419.54L405.803 447.691" stroke="#010101"/>
<path d="M108.51 434.877L103.095 441.268L102.006 445.332L100.555 445.205L101.644 441.141L99.8075 434.116L101.417 434.256L102.697 439.952L106.9 434.736L108.51 434.877Z" fill="#0C1014"/>
<path d="M116.345 441.921C116.273 442.189 116.181 442.471 116.069 442.767L109.088 442.156C108.918 442.995 109.035 443.675 109.439 444.195C109.857 444.706 110.448 444.995 111.213 445.062C111.84 445.117 112.398 445.024 112.887 444.782C113.389 444.53 113.789 444.175 114.086 443.716L115.648 443.853C115.196 444.646 114.55 445.27 113.711 445.724C112.874 446.167 111.935 446.343 110.894 446.252C110.065 446.18 109.37 445.934 108.808 445.516C108.256 445.099 107.883 444.544 107.687 443.852C107.495 443.15 107.516 442.361 107.751 441.485C107.985 440.61 108.372 439.858 108.91 439.23C109.448 438.602 110.088 438.141 110.83 437.848C111.585 437.545 112.388 437.431 113.238 437.505C114.067 437.577 114.753 437.817 115.297 438.223C115.84 438.629 116.2 439.156 116.374 439.804C116.562 440.442 116.552 441.148 116.345 441.921ZM114.925 441.496C115.069 440.96 115.07 440.491 114.927 440.089C114.788 439.676 114.532 439.353 114.159 439.12C113.8 438.877 113.365 438.734 112.855 438.689C112.122 438.625 111.434 438.797 110.792 439.205C110.161 439.614 109.7 440.217 109.41 441.014L114.925 441.496Z" fill="#0C1014"/>
<path d="M120.093 447.057C119.423 446.999 118.852 446.838 118.379 446.575C117.908 446.302 117.571 445.956 117.368 445.538C117.167 445.109 117.12 444.635 117.226 444.117L118.725 444.249C118.654 444.675 118.763 445.038 119.053 445.337C119.353 445.637 119.801 445.814 120.396 445.866C120.948 445.914 121.416 445.834 121.798 445.625C122.18 445.416 122.42 445.131 122.516 444.77C122.616 444.399 122.519 444.111 122.226 443.906C121.935 443.691 121.458 443.465 120.793 443.227C120.189 443.006 119.702 442.794 119.331 442.593C118.975 442.383 118.691 442.1 118.482 441.744C118.287 441.379 118.262 440.923 118.408 440.377C118.524 439.945 118.763 439.56 119.125 439.222C119.488 438.885 119.941 438.634 120.485 438.471C121.032 438.298 121.619 438.238 122.245 438.293C123.212 438.378 123.93 438.683 124.398 439.209C124.866 439.735 125.011 440.412 124.833 441.24L123.382 441.113C123.469 440.667 123.378 440.295 123.11 439.998C122.852 439.701 122.442 439.528 121.879 439.479C121.358 439.433 120.915 439.505 120.549 439.695C120.182 439.884 119.952 440.154 119.859 440.504C119.784 440.782 119.812 441.022 119.943 441.223C120.088 441.415 120.283 441.58 120.529 441.717C120.788 441.846 121.149 441.998 121.613 442.176C122.196 442.396 122.661 442.605 123.01 442.805C123.362 442.993 123.633 443.26 123.824 443.603C124.025 443.948 124.062 444.378 123.935 444.894C123.811 445.358 123.566 445.764 123.201 446.111C122.836 446.459 122.38 446.719 121.833 446.893C121.3 447.057 120.72 447.112 120.093 447.057Z" fill="#0C1014"/>
<path d="M129.093 440.221L127.756 445.213C127.645 445.625 127.657 445.926 127.791 446.117C127.927 446.298 128.219 446.408 128.665 446.447L129.733 446.54L129.414 447.73L128.107 447.616C127.299 447.545 126.742 447.312 126.435 446.916C126.128 446.52 126.085 445.91 126.305 445.086L127.643 440.094L126.511 439.995L126.822 438.836L127.954 438.935L128.525 436.802L129.976 436.929L129.404 439.062L131.683 439.261L131.373 440.42L129.093 440.221Z" fill="#0C1014"/>
<path d="M140.363 444.022C140.291 444.29 140.199 444.572 140.087 444.868L133.106 444.257C132.935 445.096 133.052 445.776 133.456 446.297C133.874 446.808 134.466 447.097 135.231 447.164C135.858 447.218 136.415 447.125 136.904 446.883C137.407 446.632 137.806 446.277 138.103 445.817L139.666 445.954C139.214 446.748 138.568 447.371 137.729 447.825C136.892 448.269 135.953 448.445 134.912 448.354C134.083 448.281 133.387 448.036 132.825 447.617C132.274 447.2 131.9 446.646 131.705 445.954C131.513 445.251 131.534 444.462 131.768 443.587C132.003 442.711 132.389 441.959 132.927 441.331C133.465 440.703 134.105 440.243 134.847 439.949C135.603 439.646 136.406 439.532 137.256 439.606C138.084 439.679 138.771 439.918 139.314 440.324C139.858 440.73 140.217 441.257 140.392 441.905C140.579 442.544 140.57 443.249 140.363 444.022ZM138.943 443.597C139.087 443.062 139.087 442.592 138.945 442.19C138.805 441.777 138.549 441.454 138.177 441.221C137.818 440.979 137.383 440.835 136.873 440.791C136.14 440.727 135.452 440.898 134.81 441.306C134.178 441.715 133.718 442.318 133.428 443.115L138.943 443.597Z" fill="#0C1014"/>
<path d="M144.407 441.782C144.792 441.32 145.254 440.976 145.793 440.749C146.343 440.523 146.958 440.439 147.638 440.499L147.249 441.951L146.866 441.918C145.24 441.776 144.198 442.56 143.74 444.27L142.506 448.876L141.056 448.749L143.325 440.28L144.775 440.406L144.407 441.782Z" fill="#0C1014"/>
<path d="M147.603 444.956C147.835 444.091 148.218 443.349 148.753 442.732C149.291 442.104 149.922 441.637 150.646 441.331C151.38 441.026 152.14 440.908 152.926 440.977C153.606 441.037 154.197 441.247 154.699 441.607C155.203 441.957 155.543 442.392 155.719 442.914L156.92 438.432L158.386 438.56L155.322 449.997L153.855 449.869L154.282 448.277C153.86 448.757 153.323 449.137 152.671 449.417C152.023 449.687 151.321 449.789 150.567 449.723C149.791 449.655 149.134 449.408 148.596 448.981C148.068 448.556 147.713 447.992 147.532 447.291C147.35 446.589 147.373 445.811 147.603 444.956ZM154.994 445.619C155.165 444.98 155.182 444.412 155.043 443.915C154.904 443.417 154.64 443.025 154.249 442.738C153.872 442.441 153.412 442.269 152.87 442.222C152.328 442.174 151.801 442.255 151.288 442.463C150.776 442.671 150.323 443.001 149.931 443.452C149.538 443.902 149.256 444.447 149.085 445.086C148.911 445.735 148.892 446.313 149.028 446.821C149.167 447.318 149.425 447.715 149.802 448.011C150.182 448.298 150.643 448.465 151.185 448.512C151.727 448.559 152.254 448.479 152.766 448.271C153.292 448.053 153.752 447.719 154.144 447.268C154.54 446.807 154.823 446.257 154.994 445.619Z" fill="#0C1014"/>
<path d="M158.374 445.898C158.606 445.033 158.989 444.291 159.525 443.674C160.063 443.046 160.693 442.579 161.417 442.274C162.151 441.969 162.906 441.85 163.682 441.918C164.447 441.985 165.068 442.203 165.546 442.572C166.023 442.94 166.335 443.379 166.482 443.887L166.896 442.342L168.362 442.47L166.093 450.939L164.627 450.811L165.049 449.235C164.63 449.704 164.089 450.079 163.427 450.358C162.778 450.628 162.076 450.73 161.322 450.664C160.546 450.596 159.895 450.35 159.367 449.924C158.84 449.498 158.485 448.934 158.303 448.233C158.121 447.532 158.145 446.754 158.374 445.898ZM165.766 446.561C165.937 445.922 165.953 445.354 165.814 444.857C165.676 444.36 165.411 443.968 165.02 443.68C164.643 443.384 164.183 443.212 163.642 443.164C163.1 443.117 162.572 443.197 162.06 443.405C161.547 443.614 161.095 443.943 160.702 444.394C160.309 444.845 160.027 445.389 159.856 446.028C159.682 446.677 159.663 447.256 159.799 447.763C159.938 448.26 160.196 448.657 160.573 448.954C160.953 449.24 161.414 449.407 161.956 449.454C162.498 449.502 163.025 449.421 163.538 449.213C164.064 448.996 164.523 448.661 164.916 448.211C165.311 447.75 165.594 447.2 165.766 446.561Z" fill="#0C1014"/>
<path d="M178.337 443.343L169.739 455.339L168.241 455.208L171.056 451.279L169.778 442.594L171.387 442.735L172.29 449.837L176.839 443.212L178.337 443.343Z" fill="#0C1014"/>
<path d="M148.058 138.278L149.197 134.028L167.072 117.086L173.567 117.654L168.847 135.273L172.353 135.58L171.09 140.293L167.584 139.987L166.113 145.473L160.535 144.985L162.005 139.499L148.058 138.278ZM166.794 122.993L155.458 134.102L163.626 134.816L166.794 122.993Z" fill="#0C1014"/>
<path d="M181.428 141L173.857 151.449L170.27 151.136L175.77 140.505L181.428 141Z" fill="#0C1014"/>
<path d="M187.161 132.526C188.355 128.069 190.114 124.651 192.437 122.271C194.787 119.893 197.888 118.873 201.74 119.21C205.592 119.547 208.004 121.049 208.974 123.718C209.972 126.389 209.873 129.952 208.679 134.408C207.478 138.89 205.699 142.333 203.342 144.736C201.012 147.142 197.921 148.177 194.069 147.84C190.217 147.503 187.796 145.986 186.806 143.29C185.842 140.595 185.96 137.007 187.161 132.526ZM203.18 133.927C203.691 132.021 203.986 130.412 204.065 129.101C204.178 127.767 203.96 126.653 203.41 125.762C202.887 124.872 201.882 124.363 200.395 124.233C198.907 124.102 197.667 124.416 196.676 125.173C195.711 125.932 194.92 126.957 194.303 128.247C193.719 129.514 193.171 131.101 192.66 133.007C192.136 134.964 191.814 136.623 191.694 137.984C191.581 139.318 191.799 140.431 192.349 141.323C192.905 142.189 193.927 142.687 195.415 142.817C196.903 142.947 198.139 142.647 199.123 141.916C200.114 141.159 200.905 140.134 201.496 138.841C202.094 137.523 202.656 135.885 203.18 133.927Z" fill="#0C1014"/>
<path d="M214.689 128.488C215.512 125.924 216.974 124.022 219.073 122.782C221.206 121.519 223.694 121.012 226.536 121.26C228.475 121.43 230.046 121.91 231.248 122.701C232.457 123.466 233.255 124.445 233.642 125.639C234.062 126.809 234.083 128.103 233.703 129.519C233.268 131.142 232.461 132.482 231.28 133.538C230.134 134.572 228.911 135.229 227.612 135.511L227.57 135.665C228.987 136.264 229.961 137.193 230.494 138.452C231.053 139.714 231.084 141.272 230.587 143.126C230.173 144.672 229.432 146.017 228.364 147.163C227.322 148.311 225.991 149.17 224.37 149.74C222.783 150.286 220.993 150.472 219 150.298C215.999 150.035 213.751 149.087 212.258 147.454C210.766 145.821 210.349 143.57 211.009 140.702L216.428 141.176C216.143 142.442 216.309 143.498 216.926 144.343C217.576 145.164 218.631 145.639 220.092 145.767C221.447 145.885 222.58 145.615 223.49 144.957C224.434 144.275 225.061 143.355 225.372 142.195C225.786 140.65 225.578 139.498 224.748 138.74C223.918 137.982 222.44 137.51 220.315 137.324L219.16 137.223L220.35 132.78L221.506 132.881C225.278 133.211 227.492 132.152 228.148 129.705C228.444 128.598 228.33 127.705 227.805 127.026C227.307 126.35 226.42 125.956 225.145 125.844C223.896 125.735 222.837 125.985 221.967 126.594C221.13 127.18 220.524 127.971 220.149 128.966L214.689 128.488Z" fill="#0C1014"/>
<path d="M257.844 128.863L240.794 152.007L235.136 151.512L252.099 128.993L238.471 127.801L239.714 123.165L258.92 124.845L257.844 128.863Z" fill="#0C1014"/>
<path d="M336.695 454.841L336.388 455.984L333.36 455.719L330.78 465.348L329.329 465.221L331.909 455.592L328.865 455.326L329.171 454.182L336.695 454.841Z" fill="#0C1014"/>
<path d="M339.366 466.241C338.548 466.17 337.852 465.924 337.279 465.505C336.717 465.087 336.333 464.531 336.127 463.838C335.935 463.136 335.956 462.347 336.191 461.471C336.422 460.606 336.818 459.86 337.377 459.234C337.95 458.599 338.618 458.135 339.381 457.844C340.147 457.542 340.945 457.427 341.773 457.499C342.602 457.572 343.303 457.818 343.876 458.237C344.452 458.646 344.842 459.197 345.048 459.889C345.265 460.583 345.255 461.368 345.021 462.244C344.786 463.12 344.377 463.875 343.794 464.509C343.224 465.134 342.551 465.597 341.774 465.898C340.997 466.199 340.195 466.314 339.366 466.241ZM339.697 465.005C340.218 465.05 340.738 464.975 341.259 464.778C341.779 464.581 342.241 464.257 342.644 463.807C343.058 463.359 343.356 462.794 343.538 462.114C343.721 461.434 343.737 460.845 343.588 460.347C343.439 459.849 343.171 459.467 342.786 459.201C342.403 458.925 341.951 458.764 341.43 458.719C340.899 458.672 340.379 458.748 339.869 458.946C339.372 459.135 338.928 459.454 338.535 459.905C338.142 460.356 337.855 460.921 337.673 461.601C337.488 462.291 337.459 462.885 337.587 463.381C337.726 463.878 337.982 464.264 338.354 464.539C338.729 464.804 339.176 464.959 339.697 465.005Z" fill="#0C1014"/>
<path d="M346.39 462.348C346.622 461.482 347.006 460.741 347.541 460.123C348.079 459.496 348.71 459.029 349.433 458.723C350.167 458.418 350.928 458.3 351.714 458.369C352.394 458.428 352.985 458.638 353.486 458.999C353.991 459.349 354.331 459.784 354.506 460.306L355.707 455.824L357.174 455.952L354.109 467.389L352.643 467.26L353.069 465.669C352.647 466.148 352.11 466.528 351.459 466.809C350.81 467.079 350.109 467.181 349.354 467.115C348.578 467.047 347.921 466.8 347.383 466.373C346.856 465.947 346.501 465.384 346.319 464.683C346.137 463.981 346.161 463.203 346.39 462.348ZM353.782 463.01C353.953 462.372 353.969 461.804 353.83 461.306C353.692 460.809 353.427 460.417 353.036 460.13C352.659 459.833 352.2 459.661 351.658 459.614C351.116 459.566 350.589 459.647 350.076 459.855C349.563 460.063 349.111 460.393 348.718 460.843C348.326 461.294 348.044 461.839 347.872 462.478C347.699 463.127 347.679 463.705 347.815 464.212C347.954 464.71 348.212 465.107 348.589 465.403C348.969 465.689 349.43 465.856 349.972 465.904C350.514 465.951 351.041 465.871 351.554 465.663C352.08 465.445 352.539 465.111 352.932 464.66C353.327 464.199 353.611 463.649 353.782 463.01Z" fill="#0C1014"/>
<path d="M357.161 463.29C357.393 462.425 357.777 461.683 358.312 461.066C358.85 460.438 359.481 459.971 360.204 459.665C360.939 459.361 361.694 459.242 362.469 459.31C363.234 459.377 363.856 459.595 364.333 459.963C364.811 460.332 365.123 460.771 365.269 461.279L365.684 459.734L367.15 459.862L364.881 468.331L363.414 468.203L363.837 466.626C363.417 467.096 362.876 467.47 362.214 467.75C361.566 468.02 360.864 468.122 360.109 468.056C359.334 467.988 358.682 467.741 358.155 467.316C357.627 466.89 357.272 466.326 357.09 465.625C356.909 464.924 356.932 464.145 357.161 463.29ZM364.553 463.953C364.724 463.314 364.74 462.746 364.602 462.249C364.463 461.752 364.199 461.359 363.808 461.072C363.431 460.775 362.971 460.603 362.429 460.556C361.887 460.509 361.36 460.589 360.847 460.797C360.335 461.005 359.882 461.335 359.49 461.786C359.097 462.236 358.815 462.781 358.644 463.42C358.47 464.069 358.451 464.647 358.587 465.155C358.725 465.652 358.983 466.049 359.361 466.346C359.741 466.632 360.202 466.799 360.744 466.846C361.286 466.894 361.813 466.813 362.325 466.605C362.851 466.387 363.311 466.053 363.703 465.602C364.099 465.141 364.382 464.591 364.553 463.953Z" fill="#0C1014"/>
<path d="M377.124 460.734L368.527 472.731L367.028 472.6L369.843 468.67L368.565 459.986L370.175 460.126L371.078 467.228L375.626 460.603L377.124 460.734Z" fill="#0C1014"/>
<mask id="mask1_180_248" style="mask-type:alpha" maskUnits="userSpaceOnUse" x="3" y="1" width="501" height="469">
<rect width="391" height="452" rx="14" transform="matrix(0.996195 0.0871557 -0.258819 0.965926 116.986 0)" fill="white"/>
</mask>
<g mask="url(#mask1_180_248)">
<foreignObject x="-19.2939" y="-21.002" width="545.086" height="512.68"><div xmlns="http://www.w3.org/1999/xhtml" style="backdrop-filter:blur(11px);clip-path:url(#bgblur_1_180_248_clip_path);height:100%;width:100%"></div></foreignObject><path data-figma-bg-blur-radius="22" d="M113.88 11.5911C115.596 5.18953 122.338 0.468256 128.941 1.04587L494.544 33.032C501.146 33.6097 505.108 39.2674 503.393 45.669L392.618 459.085C390.903 465.487 384.16 470.208 377.558 469.631L11.9544 437.644C5.35224 437.067 1.39062 431.409 3.10592 425.007L113.88 11.5911Z" fill="white" fill-opacity="0.4"/>
<path d="M445.201 57.8779C395.815 242.19 207.278 378.613 24.0925 362.586C-159.093 346.56 -267.559 184.153 -218.172 -0.159759C-168.786 -184.472 19.751 -320.895 202.936 -304.868C386.122 -288.842 494.588 -126.435 445.201 57.8779Z" fill="url(#paint3_radial_180_248)" fill-opacity="0.8"/>
</g>
<path d="M145.667 41.9057L144.906 44.7436L140.089 44.3221L136.152 59.0138L132.526 58.6966L136.463 44.0049L131.645 43.5834L132.406 40.7455L145.667 41.9057Z" fill="black"/>
<path d="M149.873 48.1853C150.537 47.4894 151.296 46.9647 152.15 46.6111C153.022 46.259 153.942 46.1252 154.909 46.2098L153.92 49.9016L152.961 49.8178C151.822 49.7181 150.889 49.902 150.163 50.3697C149.454 50.8389 148.926 51.718 148.581 53.0072L146.724 59.9387L143.098 59.6215L146.826 45.7083L150.452 46.0255L149.873 48.1853Z" fill="black"/>
<path d="M153.996 53.4039C154.373 51.9975 154.992 50.7751 155.854 49.7367C156.732 48.6998 157.742 47.9314 158.884 47.4315C160.042 46.9331 161.234 46.7376 162.46 46.8448C163.531 46.9385 164.407 47.2293 165.089 47.7174C165.789 48.207 166.295 48.791 166.608 49.4695L167.14 47.4855L170.792 47.805L167.064 61.7182L163.412 61.3987L163.957 59.3645C163.316 59.9767 162.522 60.4642 161.577 60.827C160.653 61.1745 159.656 61.3015 158.585 61.2078C157.377 61.1021 156.352 60.704 155.512 60.0136C154.69 59.3248 154.13 58.4106 153.835 57.2709C153.561 56.116 153.615 54.827 153.996 53.4039ZM165.276 54.4421C165.505 53.5883 165.527 52.8448 165.343 52.2119C165.164 51.5622 164.823 51.0526 164.321 50.6831C163.824 50.2969 163.239 50.0743 162.565 50.0154C161.892 49.9565 161.227 50.0612 160.572 50.3294C159.917 50.5977 159.326 51.0257 158.797 51.6135C158.29 52.186 157.924 52.8908 157.7 53.728C157.476 54.5651 157.451 55.3169 157.626 55.9833C157.823 56.6345 158.161 57.1525 158.641 57.5372C159.138 57.9234 159.715 58.1452 160.371 58.2026C161.045 58.2615 161.718 58.1576 162.39 57.8909C163.067 57.6074 163.659 57.1794 164.166 56.6069C164.677 56.0176 165.047 55.296 165.276 54.4421Z" fill="black"/>
<path d="M171.019 54.9446C171.405 53.5047 172.043 52.2755 172.935 51.2568C173.831 50.2214 174.893 49.4575 176.12 48.9652C177.352 48.4561 178.659 48.262 180.04 48.3829C181.819 48.5385 183.17 49.1022 184.094 50.074C185.039 51.0306 185.502 52.3048 185.482 53.8967L181.571 53.5545C181.525 52.9336 181.296 52.4339 180.885 52.0552C180.496 51.6613 179.939 51.4326 179.214 51.3692C178.178 51.2785 177.259 51.5751 176.457 52.2589C175.66 52.926 175.082 53.9292 174.723 55.2686C174.368 56.5913 174.395 57.6474 174.802 58.437C175.213 59.2098 175.937 59.6415 176.973 59.7322C178.441 59.8606 179.569 59.3082 180.359 58.075L184.27 58.4172C183.469 59.8893 182.363 61.0177 180.951 61.8023C179.539 62.5869 177.952 62.9022 176.191 62.7481C174.81 62.6273 173.662 62.227 172.749 61.5473C171.84 60.8509 171.227 59.9405 170.909 58.8161C170.597 57.675 170.633 56.3845 171.019 54.9446Z" fill="black"/>
<path d="M193.646 64.0439L190.365 57.6909L188.777 63.6179L185.15 63.3006L190.13 44.7162L193.756 45.0335L190.923 55.6065L197.322 50.1262L202.036 50.5386L193.846 56.9674L198.36 64.4563L193.646 64.0439Z" fill="black"/>
<path d="M205.769 49.1688C205.13 49.1129 204.647 48.8735 204.318 48.4507C204.011 48.0126 203.937 47.5006 204.094 46.9146C204.251 46.3286 204.588 45.8612 205.106 45.5123C205.645 45.1483 206.234 44.9942 206.873 45.0501C207.512 45.106 207.985 45.353 208.291 45.7911C208.62 46.2139 208.706 46.7183 208.549 47.3043C208.392 47.8903 208.043 48.3653 207.504 48.7294C206.986 49.0782 206.408 49.2247 205.769 49.1688ZM207.112 50.9827L203.384 64.8959L199.758 64.5786L203.486 50.6654L207.112 50.9827Z" fill="black"/>
<path d="M218.182 51.7456C219.892 51.8951 221.132 52.5434 221.903 53.6903C222.678 54.8205 222.814 56.3232 222.312 58.1984L220.125 66.3605L216.499 66.0432L218.558 58.3583C218.854 57.2533 218.795 56.3829 218.383 55.747C217.974 55.0944 217.278 54.7251 216.294 54.639C215.292 54.5514 214.417 54.7832 213.669 55.3346C212.942 55.8707 212.43 56.6913 212.134 57.7963L210.075 65.4812L206.449 65.164L210.177 51.2508L213.803 51.5681L213.339 53.3009C213.984 52.7405 214.722 52.3253 215.555 52.0554C216.409 51.7703 217.285 51.667 218.182 51.7456Z" fill="black"/>
<path d="M232.464 52.9694C233.535 53.063 234.42 53.3546 235.119 53.8442C235.823 54.317 236.321 54.9003 236.612 55.5941L237.143 53.6101L240.795 53.9296L237.041 67.9432C236.695 69.2324 236.12 70.3559 235.316 71.3136C234.507 72.2881 233.488 73.0215 232.261 73.5138C231.029 74.0229 229.653 74.211 228.133 74.078C226.096 73.8998 224.544 73.2928 223.479 72.2571C222.43 71.223 222.033 69.9031 222.287 68.2974L225.887 68.6124C225.906 69.2652 226.177 69.803 226.7 70.2257C227.236 70.6667 227.953 70.9265 228.851 71.005C229.904 71.0972 230.842 70.8622 231.664 70.3002C232.482 69.7548 233.057 68.8627 233.388 67.6237L233.967 65.4639C233.326 66.0761 232.533 66.5636 231.587 66.9264C230.659 67.2907 229.668 67.4268 228.615 67.3346C227.406 67.2289 226.382 66.8308 225.542 66.1404C224.702 65.4501 224.134 64.5351 223.839 63.3954C223.565 62.2406 223.619 60.9516 224 59.5284C224.377 58.122 224.996 56.8996 225.857 55.8612C226.736 54.8243 227.746 54.0559 228.887 53.556C230.046 53.0576 231.238 52.8621 232.464 52.9694ZM235.279 60.5667C235.508 59.7128 235.531 58.9694 235.347 58.3364C235.167 57.6867 234.827 57.1771 234.325 56.8077C233.828 56.4214 233.242 56.1989 232.569 56.14C231.895 56.081 231.231 56.1857 230.576 56.454C229.921 56.7222 229.329 57.1502 228.801 57.738C228.294 58.3105 227.928 59.0153 227.704 59.8525C227.48 60.6896 227.455 61.4414 227.63 62.1078C227.826 62.759 228.165 63.277 228.645 63.6617C229.142 64.0479 229.719 64.2697 230.375 64.3271C231.049 64.3861 231.721 64.2822 232.394 64.0154C233.071 63.7319 233.662 63.3039 234.169 62.7314C234.681 62.1421 235.051 61.4205 235.279 60.5667Z" fill="black"/>
<path d="M261.029 62.511C260.894 63.0133 260.738 63.4623 260.562 63.8581L250.072 62.9403C249.889 63.9524 250.041 64.7711 250.527 65.3962C251.013 66.0214 251.723 66.3747 252.655 66.4563C254.002 66.5742 255.111 66.0971 255.981 65.0252L259.892 65.3674C259.119 66.6705 258.028 67.7061 256.621 68.474C255.218 69.2251 253.662 69.5259 251.952 69.3763C250.571 69.2555 249.406 68.8537 248.458 68.171C247.532 67.4731 246.903 66.5528 246.573 65.4102C246.261 64.269 246.295 62.9869 246.676 61.5638C247.062 60.1239 247.703 58.8862 248.599 57.8508C249.495 56.8154 250.565 56.0523 251.81 55.5615C253.055 55.0707 254.385 54.8872 255.801 55.0111C257.165 55.1304 258.307 55.5216 259.225 56.1845C260.16 56.8489 260.78 57.7342 261.084 58.8404C261.41 59.9313 261.392 61.1548 261.029 62.511ZM257.542 61.1778C257.767 60.2722 257.623 59.5228 257.111 58.9297C256.602 58.3197 255.874 57.9732 254.924 57.8902C254.026 57.8116 253.194 58.013 252.429 58.4944C251.686 58.9605 251.119 59.6564 250.73 60.5819L257.542 61.1778Z" fill="black"/>
<path d="M268.064 67.2389L274.55 56.8827L278.409 57.2203L269.371 70.669L264.968 70.2838L263.412 55.9083L267.298 56.2482L268.064 67.2389Z" fill="black"/>
<path d="M291.484 65.1755C291.349 65.6777 291.193 66.1268 291.017 66.5225L280.527 65.6048C280.344 66.6169 280.496 67.4355 280.982 68.0607C281.468 68.6858 282.178 69.0392 283.11 69.1208C284.457 69.2386 285.566 68.7616 286.436 67.6897L290.347 68.0318C289.574 69.335 288.483 70.3705 287.076 71.1384C285.673 71.8896 284.117 72.1904 282.407 72.0408C281.026 71.92 279.861 71.5182 278.913 70.8355C277.987 70.1376 277.358 69.2173 277.028 68.0747C276.716 66.9335 276.75 65.6514 277.131 64.2282C277.517 62.7884 278.158 61.5507 279.054 60.5153C279.95 59.4799 281.02 58.7168 282.265 58.226C283.51 57.7352 284.84 57.5517 286.256 57.6756C287.62 57.7949 288.762 58.186 289.68 58.849C290.615 59.5134 291.235 60.3987 291.539 61.5048C291.865 62.5958 291.847 63.8193 291.484 65.1755ZM287.997 63.8423C288.222 62.9367 288.078 62.1873 287.566 61.5941C287.057 60.9842 286.329 60.6377 285.379 60.5546C284.481 60.4761 283.649 60.6775 282.884 61.1589C282.141 61.625 281.574 62.3208 281.185 63.2463L287.997 63.8423Z" fill="black"/>
<path d="M303.401 59.2012C305.11 59.3508 306.351 59.999 307.121 61.146C307.896 62.2762 308.033 63.7789 307.53 65.6541L305.343 73.8161L301.717 73.4989L303.776 65.814C304.072 64.709 304.014 63.8385 303.601 63.2027C303.193 62.5501 302.497 62.1807 301.512 62.0946C300.511 62.007 299.636 62.2389 298.887 62.7903C298.16 63.3264 297.649 64.147 297.353 65.252L295.294 72.9369L291.667 72.6197L295.396 58.7065L299.022 59.0237L298.557 60.7566C299.202 60.1961 299.941 59.781 300.773 59.5111C301.627 59.226 302.503 59.1227 303.401 59.2012Z" fill="black"/>
<path d="M315.45 63.4168L313.646 70.1474C313.52 70.6162 313.541 70.9692 313.707 71.2065C313.895 71.4286 314.265 71.5638 314.818 71.6121L316.501 71.7594L315.707 74.7229L313.428 74.5234C310.372 74.256 309.229 72.6825 310.001 69.8027L311.798 63.0973L310.088 62.9477L310.862 60.0596L312.571 60.2092L313.493 56.7685L317.145 57.088L316.223 60.5287L319.435 60.8097L318.661 63.6978L315.45 63.4168Z" fill="black"/>
<path d="M323.228 75.6121C322.053 75.5094 321.054 75.2164 320.229 74.7329C319.409 74.2328 318.817 73.607 318.453 72.8554C318.106 72.1054 318.021 71.3012 318.198 70.4428L321.85 70.7623C321.775 71.3041 321.924 71.7712 322.296 72.1636C322.685 72.5575 323.234 72.7854 323.942 72.8473C324.633 72.9078 325.204 72.8206 325.656 72.586C326.124 72.3529 326.415 72.027 326.527 71.6084C326.648 71.1564 326.496 70.8004 326.071 70.5404C325.668 70.2652 324.984 69.9484 324.02 69.5899C323.016 69.2451 322.205 68.9085 321.586 68.5802C320.985 68.2534 320.507 67.7918 320.155 67.1955C319.819 66.6007 319.777 65.8345 320.028 64.8969C320.235 64.1267 320.648 63.4432 321.267 62.8462C321.904 62.2508 322.695 61.8059 323.639 61.5116C324.601 61.2188 325.661 61.123 326.818 61.2242C328.527 61.3738 329.779 61.9117 330.574 62.838C331.373 63.7475 331.636 64.91 331.362 66.3254L327.892 66.0218C327.988 65.4647 327.863 65.0083 327.516 64.6524C327.192 64.2813 326.675 64.0648 325.967 64.0028C325.311 63.9454 324.77 64.0181 324.345 64.2207C323.937 64.4249 323.677 64.7363 323.564 65.1549C323.439 65.6237 323.584 66.0048 324 66.2982C324.421 66.5749 325.107 66.8834 326.059 67.2237C327.027 67.5655 327.812 67.8997 328.414 68.2265C329.016 68.5533 329.482 69.0225 329.813 69.6341C330.166 70.2304 330.227 70.9897 329.998 71.9121C329.783 72.7157 329.357 73.4153 328.72 74.0107C328.1 74.6077 327.31 75.0525 326.348 75.3453C325.407 75.6229 324.367 75.7119 323.228 75.6121Z" fill="black"/>
<path d="M99.1225 142.768C101.124 135.3 108.99 129.792 116.693 130.466L207.346 138.397C215.049 139.071 219.671 145.671 217.67 153.14C215.669 160.608 207.802 166.117 200.1 165.443L109.446 157.512C101.743 156.838 97.1213 150.237 99.1225 142.768Z" fill="url(#paint4_linear_180_248)"/>
<path d="M131.42 143.728C131.18 144.624 130.661 145.343 129.863 145.885C129.079 146.417 128.038 146.627 126.742 146.513L124.606 146.326L123.401 150.824L121.951 150.697L124.837 139.925L128.423 140.239C129.677 140.348 130.55 140.725 131.04 141.369C131.542 142.014 131.668 142.8 131.42 143.728ZM127.053 145.354C127.86 145.425 128.501 145.307 128.974 145C129.448 144.694 129.769 144.226 129.938 143.598C130.294 142.269 129.685 141.535 128.113 141.398L125.977 141.211L124.917 145.167L127.053 145.354Z" fill="white"/>
<path d="M141.197 143.713L138.927 152.182L137.477 152.055L137.812 150.803C137.42 151.212 136.941 151.518 136.376 151.722C135.823 151.916 135.25 151.987 134.655 151.935C133.974 151.875 133.399 151.688 132.929 151.373C132.462 151.047 132.142 150.597 131.969 150.023C131.808 149.45 131.832 148.772 132.041 147.989L133.371 143.028L134.805 143.154L133.526 147.929C133.302 148.764 133.347 149.427 133.661 149.918C133.978 150.399 134.514 150.673 135.269 150.739C136.044 150.807 136.717 150.629 137.288 150.204C137.858 149.779 138.262 149.124 138.5 148.238L139.746 143.586L141.197 143.713Z" fill="white"/>
<path d="M144.728 145.43C145.112 144.968 145.575 144.623 146.114 144.396C146.664 144.17 147.279 144.087 147.959 144.146L147.57 145.599L147.187 145.566C145.561 145.423 144.519 146.208 144.061 147.918L142.827 152.523L141.376 152.396L143.646 143.927L145.096 144.054L144.728 145.43Z" fill="white"/>
<path d="M147.919 148.619C148.154 147.743 148.539 146.997 149.074 146.379C149.612 145.751 150.248 145.285 150.982 144.98C151.727 144.676 152.514 144.561 153.343 144.633C154.416 144.727 155.23 145.057 155.786 145.622C156.352 146.188 156.626 146.929 156.609 147.845L155.047 147.709C155.037 147.18 154.853 146.748 154.498 146.411C154.153 146.075 153.662 145.879 153.024 145.823C152.195 145.751 151.451 145.97 150.792 146.482C150.136 146.984 149.672 147.739 149.402 148.749C149.128 149.769 149.172 150.579 149.533 151.18C149.894 151.781 150.489 152.118 151.318 152.191C151.955 152.246 152.525 152.149 153.028 151.897C153.53 151.646 153.933 151.26 154.236 150.738L155.798 150.874C155.332 151.719 154.678 152.374 153.836 152.838C152.997 153.292 152.051 153.473 150.999 153.381C150.17 153.308 149.48 153.063 148.928 152.646C148.388 152.23 148.025 151.676 147.84 150.985C147.656 150.294 147.682 149.505 147.919 148.619Z" fill="white"/>
<path d="M163.65 145.519C164.309 145.577 164.867 145.768 165.324 146.093C165.783 146.407 166.089 146.85 166.24 147.422C166.402 147.995 166.378 148.673 166.168 149.457L164.83 154.448L163.396 154.323L164.68 149.532C164.906 148.687 164.861 148.024 164.544 147.543C164.23 147.051 163.695 146.773 162.941 146.707C162.176 146.64 161.503 146.818 160.921 147.242C160.351 147.666 159.947 148.322 159.709 149.208L158.455 153.891L157.004 153.764L160.069 142.327L161.519 142.454L160.401 146.627C160.804 146.219 161.287 145.919 161.85 145.725C162.423 145.533 163.024 145.464 163.65 145.519Z" fill="white"/>
<path d="M167.801 150.343C168.033 149.477 168.416 148.736 168.951 148.118C169.489 147.491 170.12 147.024 170.844 146.718C171.578 146.413 172.333 146.295 173.109 146.363C173.874 146.429 174.495 146.647 174.973 147.016C175.45 147.385 175.762 147.823 175.909 148.332L176.323 146.786L177.789 146.914L175.52 155.384L174.054 155.255L174.476 153.679C174.057 154.148 173.516 154.523 172.854 154.802C172.205 155.073 171.503 155.175 170.749 155.109C169.973 155.041 169.321 154.794 168.794 154.368C168.266 153.942 167.912 153.379 167.73 152.677C167.548 151.976 167.572 151.198 167.801 150.343ZM175.192 151.005C175.364 150.366 175.38 149.798 175.241 149.301C175.102 148.804 174.838 148.412 174.447 148.125C174.07 147.828 173.61 147.656 173.068 147.609C172.526 147.561 171.999 147.642 171.487 147.85C170.974 148.058 170.521 148.387 170.129 148.838C169.736 149.289 169.454 149.834 169.283 150.472C169.109 151.122 169.09 151.7 169.226 152.207C169.365 152.705 169.623 153.101 170 153.398C170.38 153.684 170.841 153.851 171.383 153.899C171.925 153.946 172.452 153.866 172.965 153.657C173.491 153.44 173.95 153.106 174.342 152.655C174.738 152.194 175.021 151.644 175.192 151.005Z" fill="white"/>
<path d="M181.026 156.008C180.357 155.949 179.785 155.788 179.312 155.526C178.841 155.252 178.504 154.907 178.301 154.488C178.101 154.059 178.053 153.586 178.16 153.068L179.658 153.199C179.587 153.625 179.697 153.988 179.986 154.288C180.286 154.588 180.734 154.764 181.329 154.816C181.881 154.865 182.349 154.784 182.731 154.575C183.113 154.366 183.353 154.081 183.45 153.721C183.549 153.35 183.452 153.062 183.159 152.857C182.869 152.642 182.391 152.415 181.726 152.178C181.122 151.956 180.635 151.745 180.265 151.544C179.908 151.333 179.625 151.05 179.415 150.695C179.22 150.329 179.195 149.874 179.341 149.328C179.457 148.895 179.696 148.51 180.059 148.173C180.421 147.835 180.874 147.585 181.418 147.422C181.965 147.248 182.552 147.189 183.179 147.244C184.146 147.328 184.863 147.633 185.331 148.159C185.799 148.685 185.944 149.362 185.766 150.19L184.315 150.064C184.402 149.618 184.311 149.246 184.043 148.948C183.785 148.652 183.375 148.479 182.812 148.429C182.291 148.384 181.848 148.456 181.482 148.645C181.116 148.835 180.886 149.104 180.792 149.455C180.717 149.733 180.745 149.973 180.876 150.174C181.021 150.366 181.216 150.53 181.462 150.668C181.721 150.796 182.082 150.949 182.546 151.127C183.129 151.346 183.595 151.556 183.944 151.755C184.295 151.944 184.567 152.21 184.757 152.554C184.959 152.898 184.996 153.329 184.868 153.845C184.744 154.308 184.499 154.714 184.134 155.062C183.769 155.409 183.313 155.67 182.766 155.844C182.233 156.008 181.653 156.063 181.026 156.008Z" fill="white"/>
<path d="M195.49 152.465C195.418 152.733 195.326 153.015 195.214 153.311L188.233 152.7C188.062 153.539 188.179 154.219 188.584 154.739C189.001 155.25 189.593 155.539 190.358 155.606C190.985 155.661 191.543 155.568 192.032 155.326C192.534 155.074 192.934 154.719 193.231 154.26L194.793 154.397C194.341 155.19 193.695 155.814 192.856 156.268C192.019 156.711 191.08 156.887 190.039 156.796C189.21 156.724 188.515 156.478 187.952 156.06C187.401 155.643 187.027 155.088 186.832 154.396C186.64 153.694 186.661 152.905 186.896 152.029C187.13 151.153 187.516 150.402 188.054 149.774C188.592 149.146 189.232 148.685 189.975 148.392C190.73 148.089 191.533 147.974 192.383 148.049C193.212 148.121 193.898 148.361 194.442 148.767C194.985 149.173 195.344 149.7 195.519 150.348C195.707 150.986 195.697 151.692 195.49 152.465ZM194.07 152.04C194.214 151.504 194.214 151.035 194.072 150.632C193.933 150.22 193.677 149.897 193.304 149.664C192.945 149.421 192.51 149.278 192 149.233C191.267 149.169 190.579 149.341 189.937 149.749C189.306 150.157 188.845 150.76 188.555 151.558L194.07 152.04Z" fill="white"/>
<path d="M246.258 156.052C246.539 155.001 247.036 154.08 247.749 153.288C248.464 152.486 249.305 151.885 250.271 151.484C251.248 151.085 252.252 150.93 253.283 151.02C254.494 151.126 255.476 151.502 256.227 152.148C256.978 152.793 257.422 153.655 257.557 154.731L255.82 154.579C255.686 153.903 255.373 153.365 254.883 152.963C254.403 152.563 253.759 152.327 252.952 152.256C252.176 152.189 251.433 152.303 250.723 152.599C250.013 152.896 249.395 153.353 248.871 153.971C248.349 154.58 247.972 155.316 247.74 156.182C247.511 157.037 247.485 157.804 247.661 158.484C247.841 159.154 248.192 159.691 248.714 160.095C249.237 160.499 249.886 160.735 250.662 160.803C251.469 160.874 252.205 160.764 252.87 160.474C253.549 160.175 254.129 159.714 254.611 159.092L256.348 159.244C255.658 160.238 254.785 160.979 253.73 161.467C252.678 161.944 251.546 162.13 250.334 162.024C249.304 161.934 248.425 161.62 247.7 161.082C246.987 160.534 246.498 159.822 246.233 158.944C245.968 158.067 245.976 157.103 246.258 156.052Z" fill="#080210"/>
<path d="M264.313 154.326C264.972 154.384 265.53 154.575 265.986 154.899C266.446 155.214 266.751 155.657 266.902 156.229C267.064 156.802 267.04 157.48 266.83 158.263L265.493 163.255L264.058 163.13L265.342 158.339C265.568 157.494 265.523 156.831 265.206 156.35C264.892 155.858 264.358 155.579 263.603 155.513C262.838 155.446 262.165 155.625 261.584 156.049C261.013 156.473 260.609 157.128 260.372 158.015L259.117 162.697L257.667 162.57L260.731 151.134L262.182 151.261L261.064 155.434C261.466 155.026 261.949 154.725 262.512 154.532C263.086 154.34 263.686 154.271 264.313 154.326Z" fill="#080210"/>
<path d="M277.053 159.601C276.982 159.868 276.89 160.15 276.778 160.446L269.796 159.836C269.626 160.675 269.743 161.355 270.147 161.875C270.565 162.386 271.156 162.675 271.921 162.742C272.548 162.797 273.106 162.703 273.595 162.461C274.098 162.21 274.497 161.855 274.794 161.396L276.356 161.532C275.904 162.326 275.259 162.95 274.419 163.403C273.583 163.847 272.644 164.023 271.602 163.932C270.774 163.86 270.078 163.614 269.516 163.196C268.964 162.779 268.591 162.224 268.396 161.532C268.203 160.83 268.224 160.041 268.459 159.165C268.694 158.289 269.08 157.537 269.618 156.91C270.156 156.282 270.796 155.821 271.538 155.527C272.293 155.225 273.096 155.11 273.946 155.185C274.775 155.257 275.461 155.496 276.005 155.902C276.549 156.309 276.908 156.836 277.082 157.484C277.27 158.122 277.26 158.828 277.053 159.601ZM275.634 159.176C275.777 158.64 275.778 158.171 275.636 157.768C275.496 157.355 275.24 157.032 274.868 156.799C274.508 156.557 274.074 156.414 273.564 156.369C272.831 156.305 272.143 156.477 271.501 156.884C270.869 157.293 270.409 157.896 270.119 158.693L275.634 159.176Z" fill="#080210"/>
<path d="M278.343 160.03C278.578 159.154 278.963 158.407 279.498 157.79C280.036 157.162 280.672 156.696 281.406 156.391C282.151 156.087 282.938 155.971 283.767 156.044C284.84 156.138 285.654 156.467 286.21 157.033C286.776 157.599 287.05 158.34 287.033 159.256L285.471 159.119C285.46 158.591 285.277 158.158 284.922 157.821C284.577 157.485 284.085 157.29 283.448 157.234C282.619 157.161 281.875 157.381 281.216 157.893C280.56 158.394 280.096 159.15 279.825 160.159C279.552 161.179 279.596 161.99 279.957 162.591C280.318 163.192 280.913 163.529 281.742 163.601C282.379 163.657 282.949 163.559 283.452 163.308C283.954 163.057 284.357 162.67 284.659 162.148L286.222 162.285C285.756 163.13 285.102 163.784 284.26 164.249C283.42 164.702 282.475 164.883 281.423 164.791C280.594 164.719 279.904 164.474 279.352 164.056C278.811 163.64 278.449 163.086 278.264 162.395C278.079 161.704 278.106 160.916 278.343 160.03Z" fill="#080210"/>
<path d="M292.305 165.601L289.881 161.561L288.879 165.301L287.428 165.174L290.492 153.738L291.943 153.865L290.142 160.587L294.511 157.126L296.535 157.303L291.292 161.163L294.282 165.774L292.305 165.601Z" fill="#080210"/>
<path d="M299.403 166.364C298.585 166.293 297.89 166.047 297.317 165.628C296.755 165.21 296.371 164.654 296.165 163.961C295.972 163.259 295.993 162.47 296.228 161.594C296.46 160.729 296.855 159.983 297.415 159.357C297.987 158.722 298.655 158.258 299.419 157.967C300.185 157.665 300.982 157.55 301.811 157.622C302.64 157.695 303.341 157.941 303.913 158.36C304.489 158.769 304.88 159.32 305.086 160.013C305.302 160.706 305.293 161.491 305.058 162.367C304.824 163.243 304.415 163.998 303.831 164.632C303.262 165.257 302.588 165.72 301.812 166.021C301.035 166.322 300.232 166.437 299.403 166.364ZM299.735 165.128C300.255 165.173 300.776 165.098 301.296 164.901C301.817 164.704 302.278 164.38 302.682 163.931C303.096 163.482 303.394 162.917 303.576 162.237C303.758 161.557 303.775 160.968 303.625 160.47C303.476 159.972 303.209 159.59 302.823 159.324C302.44 159.048 301.988 158.888 301.468 158.842C300.936 158.795 300.416 158.871 299.906 159.069C299.41 159.258 298.965 159.577 298.573 160.028C298.18 160.479 297.893 161.044 297.71 161.724C297.525 162.414 297.497 163.008 297.625 163.504C297.764 164.001 298.019 164.387 298.391 164.662C298.766 164.927 299.214 165.082 299.735 165.128Z" fill="#080210"/>
<path d="M315.842 158.992L313.573 167.462L312.122 167.335L312.458 166.083C312.066 166.491 311.587 166.797 311.021 167.001C310.469 167.195 309.895 167.266 309.3 167.214C308.62 167.155 308.045 166.967 307.575 166.652C307.107 166.327 306.787 165.877 306.615 165.303C306.453 164.73 306.477 164.052 306.687 163.269L308.016 158.308L309.451 158.433L308.171 163.209C307.947 164.043 307.993 164.706 308.307 165.198C308.624 165.679 309.16 165.952 309.914 166.018C310.69 166.086 311.363 165.908 311.933 165.483C312.504 165.059 312.908 164.403 313.145 163.517L314.392 158.865L315.842 158.992Z" fill="#080210"/>
<path d="M319.75 160.521L318.412 165.512C318.302 165.925 318.314 166.226 318.447 166.417C318.584 166.598 318.875 166.708 319.321 166.747L320.389 166.84L320.07 168.03L318.763 167.916C317.956 167.845 317.399 167.612 317.091 167.216C316.784 166.82 316.741 166.21 316.962 165.386L318.299 160.394L317.168 160.295L317.478 159.136L318.61 159.235L319.182 157.102L320.632 157.229L320.061 159.361L322.34 159.561L322.029 160.72L319.75 160.521Z" fill="#080210"/>
<path d="M364.355 169.453L359.509 169.029L357.975 171.346L356.445 171.213L363.331 160.854L365.005 161L366.136 172.06L364.606 171.927L364.355 169.453ZM364.247 168.273L363.696 162.657L360.23 167.922L364.247 168.273Z" fill="#080210"/>
<path d="M368.487 167.901C368.719 167.035 369.103 166.294 369.638 165.676C370.176 165.048 370.807 164.582 371.53 164.276C372.264 163.971 373.025 163.853 373.811 163.922C374.491 163.981 375.082 164.191 375.584 164.551C376.088 164.901 376.428 165.337 376.604 165.859L377.804 161.377L379.271 161.505L376.206 172.941L374.74 172.813L375.167 171.221C374.744 171.701 374.208 172.081 373.556 172.362C372.907 172.632 372.206 172.734 371.451 172.668C370.676 172.6 370.019 172.353 369.48 171.926C368.953 171.5 368.598 170.937 368.416 170.235C368.234 169.534 368.258 168.756 368.487 167.901ZM375.879 168.563C376.05 167.924 376.066 167.356 375.928 166.859C375.789 166.362 375.524 165.97 375.134 165.682C374.756 165.386 374.297 165.214 373.755 165.166C373.213 165.119 372.686 165.199 372.173 165.408C371.661 165.616 371.208 165.945 370.815 166.396C370.423 166.847 370.141 167.391 369.97 168.03C369.796 168.679 369.777 169.258 369.913 169.765C370.051 170.262 370.309 170.659 370.686 170.956C371.066 171.242 371.527 171.409 372.069 171.457C372.611 171.504 373.139 171.424 373.651 171.215C374.177 170.998 374.636 170.664 375.029 170.213C375.424 169.752 375.708 169.202 375.879 168.563Z" fill="#080210"/>
<path d="M379.259 168.843C379.491 167.978 379.874 167.236 380.409 166.619C380.947 165.991 381.578 165.524 382.302 165.218C383.036 164.913 383.796 164.795 384.582 164.864C385.262 164.924 385.853 165.133 386.355 165.494C386.859 165.844 387.199 166.279 387.375 166.801L388.576 162.319L390.042 162.447L386.978 173.884L385.511 173.756L385.938 172.164C385.516 172.643 384.979 173.024 384.327 173.304C383.679 173.574 382.977 173.676 382.223 173.61C381.447 173.542 380.79 173.295 380.252 172.868C379.724 172.443 379.37 171.879 379.188 171.178C379.006 170.476 379.029 169.698 379.259 168.843ZM386.65 169.505C386.821 168.867 386.838 168.299 386.699 167.801C386.56 167.304 386.296 166.912 385.905 166.625C385.528 166.328 385.068 166.156 384.526 166.109C383.984 166.061 383.457 166.142 382.944 166.35C382.432 166.558 381.979 166.888 381.587 167.338C381.194 167.789 380.912 168.334 380.741 168.973C380.567 169.622 380.548 170.2 380.684 170.708C380.823 171.205 381.081 171.602 381.458 171.898C381.838 172.185 382.299 172.351 382.841 172.399C383.383 172.446 383.91 172.366 384.422 172.158C384.948 171.94 385.408 171.606 385.8 171.155C386.196 170.694 386.479 170.144 386.65 169.505Z" fill="#080210"/>
<path d="M397.406 167.315L396.069 172.307C395.958 172.719 395.97 173.02 396.104 173.211C396.24 173.392 396.532 173.502 396.978 173.541L398.046 173.634L397.727 174.824L396.42 174.71C395.612 174.639 395.055 174.406 394.748 174.01C394.441 173.614 394.397 173.004 394.618 172.18L395.956 167.188L394.824 167.089L395.135 165.93L396.266 166.029L396.838 163.896L398.288 164.023L397.717 166.156L399.996 166.355L399.686 167.514L397.406 167.315Z" fill="#080210"/>
<path d="M403.256 175.45C402.438 175.379 401.743 175.133 401.17 174.714C400.608 174.296 400.224 173.74 400.018 173.048C399.825 172.345 399.847 171.556 400.081 170.681C400.313 169.815 400.709 169.069 401.268 168.443C401.84 167.808 402.508 167.345 403.272 167.053C404.038 166.751 404.835 166.636 405.664 166.709C406.493 166.781 407.194 167.027 407.767 167.446C408.342 167.855 408.733 168.406 408.939 169.099C409.155 169.793 409.146 170.577 408.911 171.453C408.677 172.329 408.268 173.084 407.685 173.718C407.115 174.343 406.441 174.806 405.665 175.107C404.888 175.409 404.085 175.523 403.256 175.45ZM403.588 174.214C404.108 174.26 404.629 174.184 405.149 173.987C405.67 173.79 406.132 173.466 406.535 173.017C406.949 172.568 407.247 172.003 407.429 171.323C407.611 170.643 407.628 170.054 407.478 169.556C407.329 169.058 407.062 168.676 406.676 168.41C406.293 168.134 405.842 167.974 405.321 167.928C404.79 167.882 404.269 167.957 403.759 168.155C403.263 168.344 402.818 168.663 402.426 169.114C402.033 169.565 401.746 170.13 401.564 170.81C401.379 171.501 401.35 172.094 401.478 172.59C401.617 173.087 401.872 173.473 402.244 173.748C402.619 174.013 403.067 174.168 403.588 174.214Z" fill="#080210"/>
<path d="M414.526 171.944C414.761 171.069 415.146 170.322 415.681 169.704C416.219 169.077 416.855 168.61 417.589 168.305C418.334 168.002 419.121 167.886 419.95 167.958C421.023 168.052 421.837 168.382 422.393 168.947C422.959 169.513 423.233 170.254 423.216 171.17L421.654 171.034C421.643 170.505 421.46 170.073 421.104 169.736C420.76 169.4 420.268 169.204 419.631 169.148C418.802 169.076 418.058 169.295 417.399 169.807C416.742 170.309 416.279 171.064 416.008 172.074C415.735 173.094 415.779 173.904 416.14 174.505C416.501 175.106 417.096 175.443 417.925 175.516C418.562 175.572 419.132 175.474 419.634 175.222C420.137 174.971 420.539 174.585 420.842 174.063L422.404 174.199C421.939 175.044 421.285 175.699 420.443 176.163C419.603 176.617 418.658 176.798 417.606 176.706C416.777 176.633 416.087 176.388 415.535 175.971C414.994 175.555 414.631 175.001 414.447 174.31C414.262 173.619 414.289 172.83 414.526 171.944Z" fill="#080210"/>
<path d="M424.212 172.776C424.444 171.91 424.827 171.169 425.363 170.551C425.901 169.924 426.531 169.457 427.255 169.151C427.989 168.846 428.744 168.728 429.52 168.796C430.285 168.863 430.906 169.08 431.384 169.449C431.861 169.818 432.173 170.256 432.32 170.765L432.734 169.219L434.2 169.348L431.931 177.817L430.465 177.688L430.887 176.112C430.468 176.582 429.927 176.956 429.265 177.235C428.616 177.506 427.914 177.608 427.16 177.542C426.384 177.474 425.733 177.227 425.205 176.801C424.677 176.375 424.323 175.812 424.141 175.111C423.959 174.409 423.983 173.631 424.212 172.776ZM431.604 173.438C431.775 172.8 431.791 172.232 431.652 171.734C431.514 171.237 431.249 170.845 430.858 170.558C430.481 170.261 430.021 170.089 429.479 170.042C428.938 169.994 428.41 170.075 427.898 170.283C427.385 170.491 426.933 170.821 426.54 171.271C426.147 171.722 425.865 172.267 425.694 172.906C425.52 173.555 425.501 174.133 425.637 174.64C425.776 175.138 426.034 175.535 426.411 175.831C426.791 176.117 427.252 176.284 427.794 176.332C428.336 176.379 428.863 176.299 429.376 176.091C429.902 175.873 430.361 175.539 430.754 175.088C431.149 174.627 431.432 174.077 431.604 173.438Z" fill="#080210"/>
<path d="M437.733 171.064C438.118 170.602 438.58 170.258 439.12 170.031C439.67 169.805 440.285 169.722 440.965 169.781L440.575 171.234L440.193 171.2C438.567 171.058 437.525 171.842 437.067 173.553L435.833 178.158L434.382 178.031L436.652 169.562L438.102 169.689L437.733 171.064Z" fill="#080210"/>
<path d="M444.056 171.396L442.719 176.388C442.608 176.8 442.62 177.102 442.754 177.293C442.89 177.473 443.181 177.583 443.628 177.622L444.696 177.716L444.377 178.906L443.07 178.791C442.262 178.721 441.705 178.487 441.398 178.091C441.091 177.695 441.047 177.085 441.268 176.261L442.606 171.269L441.474 171.17L441.785 170.011L442.916 170.11L443.488 167.977L444.938 168.104L444.367 170.237L446.646 170.436L446.336 171.595L444.056 171.396Z" fill="#080210"/>
<path d="M66.7811 342.011C66.7811 342.011 100.319 280.786 113.655 286.394C126.991 292.002 124.502 317.08 147.064 319.054C169.626 321.028 191.499 243.495 212.915 243.178C234.332 242.861 226.144 295.768 248.07 292.717C269.996 289.666 296.051 220.666 318.954 220.327C341.857 219.987 342.843 271.789 367.248 268.391C391.654 264.992 392.515 219.102 421.02 208.496" stroke="url(#paint5_linear_180_248)" stroke-width="4"/>
<path d="M54.0317 379.54L375.803 407.691" stroke="#010101"/>
<path d="M78.5103 394.877L73.0948 401.268L72.0057 405.332L70.5553 405.205L71.6444 401.141L69.8075 394.116L71.4173 394.256L72.6971 399.952L76.9004 394.736L78.5103 394.877Z" fill="#0C1014"/>
<path d="M86.345 401.921C86.2732 402.189 86.1814 402.471 86.0694 402.767L79.0881 402.156C78.9176 402.995 79.0345 403.675 79.4388 404.195C79.8565 404.706 80.4479 404.995 81.213 405.062C81.8399 405.117 82.3979 405.024 82.8868 404.782C83.3892 404.53 83.7888 404.175 84.0858 403.716L85.6479 403.853C85.196 404.646 84.5504 405.27 83.711 405.724C82.8744 406.167 81.9355 406.343 80.8941 406.252C80.0653 406.18 79.3698 405.934 78.8076 405.516C78.256 405.099 77.8826 404.544 77.6874 403.852C77.4949 403.15 77.516 402.361 77.7507 401.485C77.9853 400.61 78.3717 399.858 78.9096 399.23C79.4476 398.602 80.0876 398.141 80.8297 397.848C81.5851 397.545 82.3879 397.431 83.238 397.505C84.0668 397.577 84.7531 397.817 85.2968 398.223C85.8405 398.629 86.1995 399.156 86.3739 399.804C86.5617 400.442 86.552 401.148 86.345 401.921ZM84.9254 401.496C85.069 400.96 85.0696 400.491 84.9274 400.089C84.7879 399.676 84.5318 399.353 84.1592 399.12C83.8 398.877 83.3654 398.734 82.8554 398.689C82.1222 398.625 81.4345 398.797 80.7923 399.205C80.1608 399.614 79.7002 400.217 79.4105 401.014L84.9254 401.496Z" fill="#0C1014"/>
<path d="M90.0928 407.057C89.4234 406.999 88.852 406.838 88.3787 406.575C87.9081 406.302 87.5712 405.956 87.368 405.538C87.1675 405.109 87.1203 404.635 87.2265 404.117L88.7247 404.249C88.6541 404.675 88.7635 405.038 89.053 405.337C89.3531 405.637 89.8007 405.814 90.3958 405.866C90.9483 405.914 91.4157 405.834 91.798 405.625C92.1803 405.416 92.4198 405.131 92.5164 404.77C92.6158 404.399 92.5189 404.111 92.2258 403.906C91.9355 403.691 91.4578 403.465 90.7928 403.227C90.1888 403.006 89.7016 402.794 89.3314 402.593C88.9745 402.383 88.6915 402.1 88.4823 401.744C88.2865 401.379 88.2618 400.923 88.4081 400.377C88.524 399.945 88.7632 399.56 89.1254 399.222C89.4877 398.885 89.9409 398.634 90.4849 398.471C91.0316 398.298 91.6185 398.238 92.2454 398.293C93.2124 398.378 93.9299 398.683 94.398 399.209C94.8661 399.735 95.0109 400.412 94.8326 401.24L93.3821 401.113C93.4689 400.667 93.3782 400.295 93.11 399.998C92.8523 399.701 92.4419 399.528 91.8788 399.479C91.3581 399.433 90.9147 399.505 90.5485 399.695C90.1824 399.884 89.9524 400.154 89.8586 400.504C89.784 400.782 89.8122 401.022 89.9432 401.223C90.0875 401.415 90.2826 401.58 90.5285 401.717C90.7878 401.846 91.1492 401.998 91.6128 402.176C92.1956 402.396 92.6614 402.605 93.0104 402.805C93.3622 402.993 93.6334 403.26 93.8241 403.603C94.0254 403.948 94.0624 404.378 93.935 404.894C93.8107 405.358 93.5661 405.764 93.2011 406.111C92.836 406.459 92.3801 406.719 91.8333 406.893C91.2999 407.057 90.7198 407.112 90.0928 407.057Z" fill="#0C1014"/>
<path d="M99.0935 400.221L97.7559 405.213C97.6455 405.625 97.6571 405.926 97.7908 406.117C97.9273 406.298 98.2187 406.408 98.665 406.447L99.7329 406.54L99.414 407.73L98.107 407.616C97.2994 407.545 96.7421 407.312 96.4349 406.916C96.1277 406.52 96.0846 405.91 96.3054 405.086L97.643 400.094L96.5113 399.995L96.8219 398.836L97.9536 398.935L98.5251 396.802L99.9755 396.929L99.4041 399.062L101.683 399.261L101.373 400.42L99.0935 400.221Z" fill="#0C1014"/>
<path d="M110.363 404.022C110.291 404.29 110.199 404.572 110.087 404.868L103.106 404.257C102.935 405.096 103.052 405.776 103.456 406.297C103.874 406.808 104.466 407.097 105.231 407.164C105.858 407.218 106.415 407.125 106.904 406.883C107.407 406.632 107.806 406.277 108.103 405.817L109.666 405.954C109.214 406.748 108.568 407.371 107.729 407.825C106.892 408.269 105.953 408.445 104.912 408.354C104.083 408.281 103.387 408.036 102.825 407.617C102.274 407.2 101.9 406.646 101.705 405.954C101.513 405.251 101.534 404.462 101.768 403.587C102.003 402.711 102.389 401.959 102.927 401.331C103.465 400.703 104.105 400.243 104.847 399.949C105.603 399.646 106.406 399.532 107.256 399.606C108.084 399.679 108.771 399.918 109.314 400.324C109.858 400.73 110.217 401.257 110.392 401.905C110.579 402.544 110.57 403.249 110.363 404.022ZM108.943 403.597C109.087 403.062 109.087 402.592 108.945 402.19C108.805 401.777 108.549 401.454 108.177 401.221C107.818 400.979 107.383 400.835 106.873 400.791C106.14 400.727 105.452 400.898 104.81 401.306C104.178 401.715 103.718 402.318 103.428 403.115L108.943 403.597Z" fill="#0C1014"/>
<path d="M114.407 401.782C114.792 401.32 115.254 400.976 115.793 400.749C116.343 400.523 116.958 400.439 117.638 400.499L117.249 401.951L116.866 401.918C115.24 401.776 114.198 402.56 113.74 404.27L112.506 408.876L111.056 408.749L113.325 400.28L114.775 400.406L114.407 401.782Z" fill="#0C1014"/>
<path d="M117.603 404.956C117.835 404.091 118.218 403.349 118.753 402.732C119.291 402.104 119.922 401.637 120.646 401.331C121.38 401.026 122.14 400.908 122.926 400.977C123.606 401.037 124.197 401.247 124.699 401.607C125.203 401.957 125.543 402.392 125.719 402.914L126.92 398.432L128.386 398.56L125.322 409.997L123.855 409.869L124.282 408.277C123.86 408.757 123.323 409.137 122.671 409.417C122.023 409.687 121.321 409.789 120.567 409.723C119.791 409.655 119.134 409.408 118.596 408.981C118.068 408.556 117.713 407.992 117.532 407.291C117.35 406.589 117.373 405.811 117.603 404.956ZM124.994 405.619C125.165 404.98 125.182 404.412 125.043 403.915C124.904 403.417 124.64 403.025 124.249 402.738C123.872 402.441 123.412 402.269 122.87 402.222C122.328 402.174 121.801 402.255 121.288 402.463C120.776 402.671 120.323 403.001 119.931 403.452C119.538 403.902 119.256 404.447 119.085 405.086C118.911 405.735 118.892 406.313 119.028 406.821C119.167 407.318 119.425 407.715 119.802 408.011C120.182 408.298 120.643 408.465 121.185 408.512C121.727 408.559 122.254 408.479 122.766 408.271C123.292 408.053 123.752 407.719 124.144 407.268C124.54 406.807 124.823 406.257 124.994 405.619Z" fill="#0C1014"/>
<path d="M128.374 405.898C128.606 405.033 128.989 404.291 129.525 403.674C130.063 403.046 130.693 402.579 131.417 402.274C132.151 401.969 132.906 401.85 133.682 401.918C134.447 401.985 135.068 402.203 135.546 402.572C136.023 402.94 136.335 403.379 136.482 403.887L136.896 402.342L138.362 402.47L136.093 410.939L134.627 410.811L135.049 409.235C134.63 409.704 134.089 410.079 133.427 410.358C132.778 410.628 132.076 410.73 131.322 410.664C130.546 410.596 129.895 410.35 129.367 409.924C128.84 409.498 128.485 408.934 128.303 408.233C128.121 407.532 128.145 406.754 128.374 405.898ZM135.766 406.561C135.937 405.922 135.953 405.354 135.814 404.857C135.676 404.36 135.411 403.968 135.02 403.68C134.643 403.384 134.183 403.212 133.642 403.164C133.1 403.117 132.572 403.197 132.06 403.405C131.547 403.614 131.095 403.943 130.702 404.394C130.309 404.845 130.027 405.389 129.856 406.028C129.682 406.677 129.663 407.256 129.799 407.763C129.938 408.26 130.196 408.657 130.573 408.954C130.953 409.24 131.414 409.407 131.956 409.454C132.498 409.502 133.025 409.421 133.538 409.213C134.064 408.996 134.523 408.661 134.916 408.211C135.311 407.75 135.594 407.2 135.766 406.561Z" fill="#0C1014"/>
<path d="M148.337 403.343L139.739 415.339L138.241 415.208L141.056 411.279L139.778 402.594L141.387 402.735L142.29 409.837L146.839 403.212L148.337 403.343Z" fill="#0C1014"/>
<path d="M118.058 98.2784L119.197 94.0283L137.072 77.0862L143.567 77.6544L138.847 95.2729L142.353 95.5797L141.09 100.293L137.584 99.9866L136.113 105.473L130.535 104.985L132.005 99.4986L118.058 98.2784ZM136.794 82.9933L125.458 94.1016L133.626 94.8162L136.794 82.9933Z" fill="#0C1014"/>
<path d="M151.428 101L143.857 111.449L140.27 111.136L145.77 100.505L151.428 101Z" fill="#0C1014"/>
<path d="M157.161 92.5256C158.355 88.0694 160.114 84.6513 162.437 82.2711C164.787 79.8932 167.888 78.8728 171.74 79.2098C175.592 79.5468 178.004 81.0495 178.974 83.7178C179.972 86.3886 179.873 89.952 178.679 94.4081C177.478 98.89 175.699 102.333 173.342 104.736C171.012 107.142 167.921 108.177 164.069 107.84C160.217 107.503 157.796 105.986 156.806 103.29C155.842 100.595 155.96 97.0074 157.161 92.5256ZM173.18 93.927C173.691 92.0209 173.986 90.4123 174.065 89.1012C174.178 87.7666 173.96 86.6535 173.41 85.7618C172.887 84.8725 171.882 84.3627 170.395 84.2326C168.907 84.1024 167.667 84.4158 166.676 85.1726C165.711 85.9318 164.92 86.9566 164.303 88.247C163.719 89.514 163.171 91.1006 162.66 93.0067C162.136 94.9643 161.814 96.6232 161.694 97.9836C161.581 99.3181 161.799 100.431 162.349 101.323C162.905 102.189 163.927 102.687 165.415 102.817C166.903 102.947 168.139 102.647 169.123 101.916C170.114 101.159 170.905 100.134 171.496 98.8412C172.094 97.5227 172.656 95.8846 173.18 93.927Z" fill="#0C1014"/>
<path d="M184.689 88.4885C185.512 85.9243 186.974 84.0223 189.073 82.7824C191.206 81.5191 193.694 81.0118 196.536 81.2605C198.475 81.4302 200.046 81.9103 201.248 82.7008C202.457 83.4656 203.255 84.4449 203.642 85.6387C204.062 86.8091 204.083 88.1026 203.703 89.5193C203.268 91.142 202.461 92.4817 201.28 93.5384C200.134 94.5716 198.911 95.2291 197.612 95.5109L197.57 95.6654C198.987 96.2639 199.961 97.1927 200.494 98.452C201.053 99.7135 201.084 101.272 200.587 103.126C200.173 104.672 199.432 106.017 198.364 107.163C197.322 108.311 195.991 109.17 194.37 109.74C192.783 110.286 190.993 110.472 189 110.298C185.999 110.035 183.751 109.087 182.258 107.454C180.766 105.821 180.349 103.57 181.009 100.702L186.428 101.176C186.143 102.442 186.309 103.498 186.926 104.343C187.576 105.164 188.631 105.639 190.092 105.767C191.447 105.885 192.58 105.615 193.49 104.957C194.434 104.275 195.061 103.355 195.372 102.195C195.786 100.65 195.578 99.4982 194.748 98.7401C193.918 97.9821 192.44 97.5101 190.315 97.3242L189.16 97.2231L190.35 92.7798L191.506 92.8809C195.278 93.211 197.492 92.1525 198.148 89.7055C198.444 88.5979 198.33 87.7048 197.805 87.0261C197.307 86.3498 196.42 85.9559 195.145 85.8444C193.896 85.7351 192.837 85.9851 191.967 86.5944C191.13 87.1803 190.524 87.9708 190.149 88.9661L184.689 88.4885Z" fill="#0C1014"/>
<path d="M227.844 88.8633L210.794 112.007L205.136 111.512L222.099 88.9934L208.471 87.8011L209.714 83.1647L228.92 84.8451L227.844 88.8633Z" fill="#0C1014"/>
<path d="M306.695 414.841L306.388 415.984L303.36 415.719L300.78 425.348L299.329 425.221L301.909 415.592L298.865 415.326L299.171 414.182L306.695 414.841Z" fill="#0C1014"/>
<path d="M309.366 426.241C308.548 426.17 307.852 425.924 307.279 425.505C306.717 425.087 306.333 424.531 306.127 423.838C305.935 423.136 305.956 422.347 306.191 421.471C306.422 420.606 306.818 419.86 307.377 419.234C307.95 418.599 308.618 418.135 309.381 417.844C310.147 417.542 310.945 417.427 311.773 417.499C312.602 417.572 313.303 417.818 313.876 418.237C314.452 418.646 314.842 419.197 315.048 419.889C315.265 420.583 315.255 421.368 315.021 422.244C314.786 423.12 314.377 423.875 313.794 424.509C313.224 425.134 312.551 425.597 311.774 425.898C310.997 426.199 310.195 426.314 309.366 426.241ZM309.697 425.005C310.218 425.05 310.738 424.975 311.259 424.778C311.779 424.581 312.241 424.257 312.644 423.807C313.058 423.359 313.356 422.794 313.538 422.114C313.721 421.434 313.737 420.845 313.588 420.347C313.439 419.849 313.171 419.467 312.786 419.201C312.403 418.925 311.951 418.764 311.43 418.719C310.899 418.672 310.379 418.748 309.869 418.946C309.372 419.135 308.928 419.454 308.535 419.905C308.142 420.356 307.855 420.921 307.673 421.601C307.488 422.291 307.459 422.885 307.587 423.381C307.726 423.878 307.982 424.264 308.354 424.539C308.729 424.804 309.176 424.959 309.697 425.005Z" fill="#0C1014"/>
<path d="M316.39 422.348C316.622 421.482 317.006 420.741 317.541 420.123C318.079 419.496 318.71 419.029 319.433 418.723C320.167 418.418 320.928 418.3 321.714 418.369C322.394 418.428 322.985 418.638 323.486 418.999C323.991 419.349 324.331 419.784 324.506 420.306L325.707 415.824L327.174 415.952L324.109 427.389L322.643 427.26L323.069 425.669C322.647 426.148 322.11 426.528 321.459 426.809C320.81 427.079 320.109 427.181 319.354 427.115C318.578 427.047 317.921 426.8 317.383 426.373C316.856 425.947 316.501 425.384 316.319 424.683C316.137 423.981 316.161 423.203 316.39 422.348ZM323.782 423.01C323.953 422.372 323.969 421.804 323.83 421.306C323.692 420.809 323.427 420.417 323.036 420.13C322.659 419.833 322.2 419.661 321.658 419.614C321.116 419.566 320.589 419.647 320.076 419.855C319.563 420.063 319.111 420.393 318.718 420.843C318.326 421.294 318.044 421.839 317.872 422.478C317.699 423.127 317.679 423.705 317.815 424.212C317.954 424.71 318.212 425.107 318.589 425.403C318.969 425.689 319.43 425.856 319.972 425.904C320.514 425.951 321.041 425.871 321.554 425.663C322.08 425.445 322.539 425.111 322.932 424.66C323.327 424.199 323.611 423.649 323.782 423.01Z" fill="#0C1014"/>
<path d="M327.161 423.29C327.393 422.425 327.777 421.683 328.312 421.066C328.85 420.438 329.481 419.971 330.204 419.665C330.939 419.361 331.694 419.242 332.469 419.31C333.234 419.377 333.856 419.595 334.333 419.963C334.811 420.332 335.123 420.771 335.269 421.279L335.684 419.734L337.15 419.862L334.881 428.331L333.414 428.203L333.837 426.626C333.417 427.096 332.876 427.47 332.214 427.75C331.566 428.02 330.864 428.122 330.109 428.056C329.334 427.988 328.682 427.741 328.155 427.316C327.627 426.89 327.272 426.326 327.09 425.625C326.909 424.924 326.932 424.145 327.161 423.29ZM334.553 423.953C334.724 423.314 334.74 422.746 334.602 422.249C334.463 421.752 334.199 421.359 333.808 421.072C333.431 420.775 332.971 420.603 332.429 420.556C331.887 420.509 331.36 420.589 330.847 420.797C330.335 421.005 329.882 421.335 329.49 421.786C329.097 422.236 328.815 422.781 328.644 423.42C328.47 424.069 328.451 424.647 328.587 425.155C328.725 425.652 328.983 426.049 329.361 426.346C329.741 426.632 330.202 426.799 330.744 426.846C331.286 426.894 331.813 426.813 332.325 426.605C332.851 426.387 333.311 426.053 333.703 425.602C334.099 425.141 334.382 424.591 334.553 423.953Z" fill="#0C1014"/>
<path d="M347.124 420.734L338.527 432.731L337.028 432.6L339.843 428.67L338.565 419.986L340.175 420.126L341.078 427.228L345.626 420.603L347.124 420.734Z" fill="#0C1014"/>
<defs>
<clipPath id="bgblur_0_180_248_clip_path" transform="translate(-10.7061 -18.998)"><path d="M143.88 51.5911C145.596 45.1895 152.338 40.4683 158.941 41.0459L524.544 73.032C531.146 73.6097 535.108 79.2674 533.393 85.669L422.618 499.085C420.903 505.487 414.16 510.208 407.558 509.631L41.9544 477.644C35.3522 477.067 31.3906 471.409 33.1059 465.007L143.88 51.5911Z"/>
</clipPath><clipPath id="bgblur_1_180_248_clip_path" transform="translate(19.2939 21.002)"><path d="M113.88 11.5911C115.596 5.18953 122.338 0.468256 128.941 1.04587L494.544 33.032C501.146 33.6097 505.108 39.2674 503.393 45.669L392.618 459.085C390.903 465.487 384.16 470.208 377.558 469.631L11.9544 437.644C5.35224 437.067 1.39062 431.409 3.10592 425.007L113.88 11.5911Z"/>
</clipPath><radialGradient id="paint0_radial_180_248" cx="0" cy="0" r="1" gradientTransform="matrix(242.836 20.3663 -66.5077 242.534 152.066 34.4035)" gradientUnits="userSpaceOnUse">
<stop stop-color="white"/>
<stop offset="1" stop-color="white" stop-opacity="0"/>
</radialGradient>
<linearGradient id="paint1_linear_180_248" x1="129.123" y1="182.768" x2="242.321" y2="213.1" gradientUnits="userSpaceOnUse">
<stop stop-color="#ACEBCF"/>
<stop offset="1" stop-color="#711FE6"/>
</linearGradient>
<linearGradient id="paint2_linear_180_248" x1="103.692" y1="398.362" x2="482.522" y2="271.732" gradientUnits="userSpaceOnUse">
<stop stop-color="#ACEBCF"/>
<stop offset="1" stop-color="#7221E6"/>
</linearGradient>
<radialGradient id="paint3_radial_180_248" cx="0" cy="0" r="1" gradientTransform="matrix(242.836 20.3663 -66.5077 242.534 122.066 -5.59647)" gradientUnits="userSpaceOnUse">
<stop stop-color="white"/>
<stop offset="1" stop-color="white" stop-opacity="0"/>
</radialGradient>
<linearGradient id="paint4_linear_180_248" x1="99.1225" y1="142.768" x2="212.321" y2="173.1" gradientUnits="userSpaceOnUse">
<stop stop-color="#ACEBCF"/>
<stop offset="1" stop-color="#711FE6"/>
</linearGradient>
<linearGradient id="paint5_linear_180_248" x1="73.692" y1="358.362" x2="452.522" y2="231.732" gradientUnits="userSpaceOnUse">
<stop stop-color="#ACEBCF"/>
<stop offset="1" stop-color="#7221E6"/>
</linearGradient>
</defs>
</svg>
