<svg width="1420" height="839" viewBox="0 0 1420 839" fill="none" xmlns="http://www.w3.org/2000/svg">
<g clip-path="url(#clip0_1818_528)">
<g filter="url(#filter0_d_1818_528)">
<rect x="145.836" y="88" width="1015.74" height="603.767" rx="34.4493" fill="white"/>
</g>
<rect x="474.524" y="135.068" width="187.497" height="16.4696" rx="8.23479" fill="#D2D5EE"/>
<g filter="url(#filter1_d_1818_528)">
<rect x="480.946" y="194.827" width="387.599" height="91.0944" rx="13" fill="#FF0000" fill-opacity="0.01"/>
</g>
<rect x="475.024" y="191.032" width="399.531" height="99.1402" rx="13.03" fill="white" stroke="#EFF0F7"/>
<path d="M842.61 229.532C849.237 229.532 854.61 224.16 854.61 217.532C854.61 210.905 849.237 205.532 842.61 205.532C835.982 205.532 830.61 210.905 830.61 217.532C830.61 224.16 835.982 229.532 842.61 229.532Z" fill="#1B7DC5"/>
<path d="M837.829 218.01L840.698 220.879L847.392 214.185" stroke="white" stroke-width="2.5" stroke-linecap="round" stroke-linejoin="round"/>
<rect x="558.218" y="226.044" width="104.798" height="8.9288" rx="4.4644" fill="#A0A3BD"/>
<rect x="558.219" y="243.466" width="178.482" height="8.9288" rx="4.4644" fill="#EFF0F7"/>
<path d="M491.61 239.22C491.61 223.756 504.146 211.22 519.61 211.22V211.22C535.074 211.22 547.61 223.756 547.61 239.22V239.22C547.61 254.684 535.074 267.22 519.61 267.22V267.22C504.146 267.22 491.61 254.684 491.61 239.22V239.22Z" fill="#E9F6FF"/>
<g filter="url(#filter2_d_1818_528)">
<rect x="480.946" y="314.574" width="387.599" height="91.6068" rx="13" fill="#FF0000" fill-opacity="0.01"/>
</g>
<rect x="475.024" y="310.755" width="399.531" height="99.7036" rx="13.03" fill="white" stroke="#EFF0F7"/>
<path opacity="0.7" d="M842.61 347.989C849.237 347.989 854.61 342.617 854.61 335.989C854.61 329.362 849.237 323.989 842.61 323.989C835.982 323.989 830.61 329.362 830.61 335.989C830.61 342.617 835.982 347.989 842.61 347.989Z" fill="#D9DBE9"/>
<rect x="558.218" y="347.431" width="169.745" height="8.9288" rx="4.4644" fill="#A0A3BD"/>
<rect x="558.219" y="364.853" width="67.3504" height="8.9288" rx="4.4644" fill="#EFF0F7"/>
<path d="M491.61 360.606C491.61 345.142 504.146 332.606 519.61 332.606V332.606C535.074 332.606 547.61 345.142 547.61 360.606V360.606C547.61 376.07 535.074 388.606 519.61 388.606V388.606C504.146 388.606 491.61 376.07 491.61 360.606V360.606Z" fill="#E9F6FF"/>
<g filter="url(#filter3_d_1818_528)">
<rect x="480.946" y="434.84" width="387.599" height="91.1632" rx="13" fill="#FF0000" fill-opacity="0.01"/>
</g>
<rect x="475.024" y="431.04" width="399.531" height="99.2159" rx="13.03" fill="white" stroke="#EFF0F7"/>
<path d="M842.61 468.196C849.237 468.196 854.61 462.824 854.61 456.196C854.61 449.569 849.237 444.196 842.61 444.196C835.982 444.196 830.61 449.569 830.61 456.196C830.61 462.824 835.982 468.196 842.61 468.196Z" fill="#1B7DC5"/>
<path d="M837.829 456.674L840.698 459.543L847.392 452.849" stroke="white" stroke-width="2.5" stroke-linecap="round" stroke-linejoin="round"/>
<rect x="558.218" y="467.474" width="67.3504" height="8.9288" rx="4.4644" fill="#A0A3BD"/>
<rect x="558.219" y="484.896" width="117.605" height="8.9288" rx="4.4644" fill="#EFF0F7"/>
<path d="M491.61 480.649C491.61 465.185 504.146 452.649 519.61 452.649V452.649C535.074 452.649 547.61 465.185 547.61 480.649V480.649C547.61 496.113 535.074 508.649 519.61 508.649V508.649C504.146 508.649 491.61 496.113 491.61 480.649V480.649Z" fill="#E9F6FF"/>
<g filter="url(#filter4_d_1818_528)">
<rect x="480.946" y="554.646" width="387.599" height="91.3482" rx="13" fill="#FF0000" fill-opacity="0.01"/>
</g>
<rect x="475.024" y="550.839" width="399.531" height="99.4193" rx="13.03" fill="white" stroke="#EFF0F7"/>
<path opacity="0.7" d="M842.61 589.253C849.237 589.253 854.61 583.881 854.61 577.253C854.61 570.625 849.237 565.253 842.61 565.253C835.982 565.253 830.61 570.625 830.61 577.253C830.61 583.881 835.982 589.253 842.61 589.253Z" fill="#D9DBE9"/>
<rect x="558.218" y="587.373" width="139.017" height="8.9288" rx="4.4644" fill="#A0A3BD"/>
<rect x="558.219" y="604.795" width="55.2767" height="8.9288" rx="4.4644" fill="#EFF0F7"/>
<path d="M491.61 600.549C491.61 585.085 504.146 572.549 519.61 572.549V572.549C535.074 572.549 547.61 585.085 547.61 600.549V600.549C547.61 616.013 535.074 628.549 519.61 628.549V628.549C504.146 628.549 491.61 616.013 491.61 600.549V600.549Z" fill="#E9F6FF"/>
<g filter="url(#filter5_d_1818_528)">
<rect x="916.912" y="194.461" width="221.285" height="456.297" rx="13" fill="#FF0000" fill-opacity="0.01"/>
</g>
<rect x="912.955" y="189.065" width="228.869" height="465.194" rx="13.03" fill="white" stroke="#EFF0F7"/>
<rect x="992.95" y="272.763" width="57.1391" height="8.9288" rx="4.4644" fill="#A0A3BD"/>
<rect x="992.95" y="337.12" width="98.8365" height="8.9288" rx="4.4644" fill="#A0A3BD"/>
<rect x="992.95" y="400.835" width="26.417" height="8.9288" rx="4.4644" fill="#A0A3BD"/>
<rect x="992.951" y="465.192" width="72.8608" height="8.9288" rx="4.4644" fill="#A0A3BD"/>
<rect x="992.951" y="528.265" width="88.6242" height="8.9288" rx="4.4644" fill="#A0A3BD"/>
<rect x="992.951" y="592.88" width="40.7913" height="8.9288" rx="4.4644" fill="#A0A3BD"/>
<rect x="992.95" y="287.692" width="124.089" height="8.9288" rx="4.4644" fill="#EFF0F7"/>
<rect x="992.95" y="352.048" width="72.8608" height="8.9288" rx="4.4644" fill="#EFF0F7"/>
<rect x="992.95" y="415.763" width="110.023" height="8.9288" rx="4.4644" fill="#EFF0F7"/>
<rect x="992.951" y="480.12" width="36.5918" height="8.9288" rx="4.4644" fill="#EFF0F7"/>
<rect x="992.951" y="543.192" width="65.5628" height="8.9288" rx="4.4644" fill="#EFF0F7"/>
<rect x="992.951" y="607.81" width="114.372" height="8.9288" rx="4.4644" fill="#EFF0F7"/>
<rect x="932.957" y="223.405" width="110.72" height="10.143" rx="5.0715" fill="#D2D5EE"/>
<rect x="177.526" y="118.757" width="267.633" height="537.97" rx="30.48" fill="#F5F6FF"/>
<rect x="242.04" y="172.097" width="144.954" height="16.4696" rx="8.23479" fill="#D2D5EE"/>
<circle cx="217.983" cy="180.331" r="14" fill="#1B7DC5"/>
<rect x="242.04" y="216.002" width="102.688" height="16.4696" rx="8.23479" fill="#D2D5EE"/>
<circle cx="217.983" cy="224.236" r="14" fill="#B4B8D8"/>
<rect x="242.04" y="265.672" width="168.866" height="16.4696" rx="8.23479" fill="#D2D5EE"/>
<circle cx="217.983" cy="273.906" r="14" fill="#B4B8D8"/>
<rect x="242.04" y="309.577" width="102.688" height="16.4696" rx="8.23479" fill="#D2D5EE"/>
<circle cx="217.983" cy="317.812" r="14" fill="#B4B8D8"/>
<rect x="242.04" y="356.149" width="102.688" height="16.4696" rx="8.23479" fill="#D2D5EE"/>
<circle cx="217.983" cy="364.384" r="14" fill="#B4B8D8"/>
<rect x="203.983" y="573.966" width="215.682" height="49.7506" rx="24.8753" fill="#1B7DC5"/>
<rect opacity="0.1" x="932.958" y="259.632" width="50.1196" height="50.1196" rx="11" fill="#1B7DC5"/>
<rect opacity="0.1" x="932.958" y="323.989" width="50.1196" height="50.1196" rx="11" fill="#1B7DC5"/>
<rect opacity="0.1" x="932.958" y="451.419" width="50.1196" height="50.1196" rx="11" fill="#1B7DC5"/>
<rect opacity="0.1" x="932.958" y="579.75" width="50.1196" height="50.1196" rx="11" fill="#1B7DC5"/>
<rect opacity="0.1" x="932.958" y="387.704" width="50.1196" height="50.1196" rx="11" fill="#1B7DC5"/>
<rect opacity="0.1" x="932.958" y="515.134" width="50.1196" height="50.1196" rx="11" fill="#1B7DC5"/>
<rect x="1009.73" y="138.839" width="67.4495" height="8.9288" rx="4.4644" fill="#D9DBE9"/>
<path d="M1091.01 143.304C1091.01 130.851 1101.11 120.757 1113.56 120.757V120.757C1126.01 120.757 1136.11 130.851 1136.11 143.304V143.304C1136.11 155.756 1126.01 165.85 1113.56 165.85V165.85C1101.11 165.85 1091.01 155.756 1091.01 143.304V143.304Z" fill="#E0DDFF"/>
<g filter="url(#filter6_d_1818_528)">
<rect x="1022.11" y="308.306" width="254.79" height="285.555" rx="26.6913" fill="#FF0000" fill-opacity="0.01"/>
</g>
<rect x="1013.35" y="296.62" width="272.309" height="305.189" rx="28.5265" fill="white"/>
<rect x="1088.76" y="352.992" width="105.415" height="10" rx="5" fill="#D9DBE9"/>
<rect x="1088.76" y="396.636" width="163.48" height="10" rx="5" fill="#D9DBE9"/>
<rect opacity="0.4" x="1088.76" y="444.215" width="118.709" height="10" rx="5" fill="#D9DBE9"/>
<rect x="1088.76" y="491.794" width="163.48" height="10" rx="5" fill="#D9DBE9"/>
<rect opacity="0.4" x="1088.76" y="535.438" width="83.5395" height="10" rx="5" fill="#D9DBE9"/>
<path d="M1062.76 373.992C1071.6 373.992 1078.76 366.829 1078.76 357.992C1078.76 349.155 1071.6 341.992 1062.76 341.992C1053.92 341.992 1046.76 349.155 1046.76 357.992C1046.76 366.829 1053.92 373.992 1062.76 373.992Z" fill="#1B7DC5"/>
<path d="M1056.43 358.625L1060.23 362.425L1069.09 353.56" stroke="white" stroke-width="2.5" stroke-linecap="round" stroke-linejoin="round"/>
<path d="M1062.76 417.636C1071.6 417.636 1078.76 410.473 1078.76 401.636C1078.76 392.799 1071.6 385.636 1062.76 385.636C1053.92 385.636 1046.76 392.799 1046.76 401.636C1046.76 410.473 1053.92 417.636 1062.76 417.636Z" fill="#1B7DC5"/>
<path d="M1056.39 402.273L1060.21 406.099L1069.14 397.173" stroke="white" stroke-width="2.5" stroke-linecap="round" stroke-linejoin="round"/>
<path opacity="0.4" d="M1062.76 465.215C1071.6 465.215 1078.76 458.052 1078.76 449.215C1078.76 440.378 1071.6 433.215 1062.76 433.215C1053.92 433.215 1046.76 440.378 1046.76 449.215C1046.76 458.052 1053.92 465.215 1062.76 465.215Z" fill="#A0A3BD"/>
<path d="M1062.76 512.794C1071.6 512.794 1078.76 505.631 1078.76 496.794C1078.76 487.957 1071.6 480.794 1062.76 480.794C1053.92 480.794 1046.76 487.957 1046.76 496.794C1046.76 505.631 1053.92 512.794 1062.76 512.794Z" fill="#1B7DC5"/>
<path d="M1056.09 497.46L1060.09 501.462L1069.43 492.125" stroke="white" stroke-width="2.5" stroke-linecap="round" stroke-linejoin="round"/>
<path opacity="0.4" d="M1062.76 556.438C1071.6 556.438 1078.76 549.275 1078.76 540.438C1078.76 531.602 1071.6 524.438 1062.76 524.438C1053.92 524.438 1046.76 531.602 1046.76 540.438C1046.76 549.275 1053.92 556.438 1062.76 556.438Z" fill="#A0A3BD"/>
<g filter="url(#filter7_d_1818_528)">
<rect x="52.7598" y="236.494" width="254.79" height="319.856" rx="26.6913" fill="#FF0000" fill-opacity="0.01"/>
</g>
<rect x="44" y="223.405" width="272.309" height="341.848" rx="28.5265" fill="white"/>
<rect x="127.756" y="269.179" width="104.798" height="13.406" rx="6.70301" fill="#A0A3BD"/>
<rect opacity="0.15" x="70.1934" y="347.142" width="29.5847" height="29.5847" rx="6" fill="#A0A3BD"/>
<rect opacity="0.15" x="117.777" y="347.142" width="29.5847" height="29.5847" rx="6" fill="#A0A3BD"/>
<rect opacity="0.15" x="165.361" y="347.142" width="29.5847" height="29.5847" rx="6" fill="#A0A3BD"/>
<rect opacity="0.15" x="212.945" y="347.142" width="29.5847" height="29.5847" rx="6" fill="#A0A3BD"/>
<rect opacity="0.15" x="260.529" y="347.142" width="29.5847" height="29.5847" rx="6" fill="#A0A3BD"/>
<rect opacity="0.15" x="70.1934" y="394.725" width="29.5847" height="29.5847" rx="6" fill="#A0A3BD"/>
<rect opacity="0.15" x="117.777" y="394.725" width="29.5847" height="29.5847" rx="6" fill="#A0A3BD"/>
<rect opacity="0.15" x="165.361" y="394.725" width="29.5847" height="29.5847" rx="6" fill="#A0A3BD"/>
<rect opacity="0.15" x="212.945" y="394.725" width="29.5847" height="29.5847" rx="6" fill="#A0A3BD"/>
<rect opacity="0.15" x="260.529" y="394.725" width="29.5847" height="29.5847" rx="6" fill="#A0A3BD"/>
<rect opacity="0.15" x="70.1934" y="442.31" width="29.5847" height="29.5847" rx="6" fill="#A0A3BD"/>
<rect opacity="0.15" x="117.777" y="442.31" width="29.5847" height="29.5847" rx="6" fill="#A0A3BD"/>
<g filter="url(#filter8_d_1818_528)">
<rect x="165.361" y="442.31" width="29.5847" height="29.5847" rx="6" fill="#FF0000" fill-opacity="0.01" shape-rendering="crispEdges"/>
</g>
<rect x="165.361" y="442.31" width="29.5847" height="29.5847" rx="6" fill="#1B7DC5"/>
<rect opacity="0.15" x="212.945" y="442.31" width="29.5847" height="29.5847" rx="6" fill="#A0A3BD"/>
<rect opacity="0.15" x="260.529" y="442.31" width="29.5847" height="29.5847" rx="6" fill="#A0A3BD"/>
<rect opacity="0.15" x="70.1934" y="489.895" width="29.5847" height="29.5847" rx="6" fill="#A0A3BD"/>
<rect opacity="0.15" x="117.777" y="489.895" width="29.5847" height="29.5847" rx="6" fill="#A0A3BD"/>
<rect opacity="0.15" x="165.361" y="489.895" width="29.5847" height="29.5847" rx="6" fill="#A0A3BD"/>
<rect opacity="0.15" x="212.945" y="489.895" width="29.5847" height="29.5847" rx="6" fill="#A0A3BD"/>
<rect opacity="0.15" x="260.529" y="489.895" width="29.5847" height="29.5847" rx="6" fill="#A0A3BD"/>
<rect x="68.4512" y="310.207" width="33.071" height="12.9342" rx="6.46709" fill="#CFD0DD"/>
<rect x="116.037" y="310.207" width="33.071" height="12.9342" rx="6.46709" fill="#CFD0DD"/>
<rect x="163.619" y="310.207" width="33.071" height="12.9342" rx="6.46709" fill="#CFD0DD"/>
<rect x="211.205" y="310.207" width="33.071" height="12.9342" rx="6.46709" fill="#CFD0DD"/>
<rect x="258.787" y="310.207" width="33.071" height="12.9342" rx="6.46709" fill="#CFD0DD"/>
</g>
<defs>
<filter id="filter0_d_1818_528" x="28.6459" y="-2.4041" width="1250.12" height="838.148" filterUnits="userSpaceOnUse" color-interpolation-filters="sRGB">
<feFlood flood-opacity="0" result="BackgroundImageFix"/>
<feColorMatrix in="SourceAlpha" type="matrix" values="0 0 0 0 0 0 0 0 0 0 0 0 0 0 0 0 0 0 127 0" result="hardAlpha"/>
<feOffset dy="26.7864"/>
<feGaussianBlur stdDeviation="58.5952"/>
<feColorMatrix type="matrix" values="0 0 0 0 0.12549 0 0 0 0 0.141176 0 0 0 0 0.541176 0 0 0 0.06 0"/>
<feBlend mode="normal" in2="BackgroundImageFix" result="effect1_dropShadow_1818_528"/>
<feBlend mode="normal" in="SourceGraphic" in2="effect1_dropShadow_1818_528" result="shape"/>
</filter>
<filter id="filter1_d_1818_528" x="469.286" y="188.347" width="410.919" height="114.414" filterUnits="userSpaceOnUse" color-interpolation-filters="sRGB">
<feFlood flood-opacity="0" result="BackgroundImageFix"/>
<feColorMatrix in="SourceAlpha" type="matrix" values="0 0 0 0 0 0 0 0 0 0 0 0 0 0 0 0 0 0 127 0" result="hardAlpha"/>
<feOffset dy="5.18"/>
<feGaussianBlur stdDeviation="5.83"/>
<feColorMatrix type="matrix" values="0 0 0 0 0.124574 0 0 0 0 0.141235 0 0 0 0 0.541097 0 0 0 0.1 0"/>
<feBlend mode="normal" in2="BackgroundImageFix" result="effect1_dropShadow_1818_528"/>
<feBlend mode="normal" in="SourceGraphic" in2="effect1_dropShadow_1818_528" result="shape"/>
</filter>
<filter id="filter2_d_1818_528" x="474.286" y="314.574" width="400.919" height="105.447" filterUnits="userSpaceOnUse" color-interpolation-filters="sRGB">
<feFlood flood-opacity="0" result="BackgroundImageFix"/>
<feColorMatrix in="SourceAlpha" type="matrix" values="0 0 0 0 0 0 0 0 0 0 0 0 0 0 0 0 0 0 127 0" result="hardAlpha"/>
<feOffset dy="7.18"/>
<feGaussianBlur stdDeviation="3.33"/>
<feColorMatrix type="matrix" values="0 0 0 0 0.124574 0 0 0 0 0.141235 0 0 0 0 0.541097 0 0 0 0.1 0"/>
<feBlend mode="normal" in2="BackgroundImageFix" result="effect1_dropShadow_1818_528"/>
<feBlend mode="normal" in="SourceGraphic" in2="effect1_dropShadow_1818_528" result="shape"/>
</filter>
<filter id="filter3_d_1818_528" x="474.286" y="434.84" width="400.919" height="105.003" filterUnits="userSpaceOnUse" color-interpolation-filters="sRGB">
<feFlood flood-opacity="0" result="BackgroundImageFix"/>
<feColorMatrix in="SourceAlpha" type="matrix" values="0 0 0 0 0 0 0 0 0 0 0 0 0 0 0 0 0 0 127 0" result="hardAlpha"/>
<feOffset dy="7.18"/>
<feGaussianBlur stdDeviation="3.33"/>
<feColorMatrix type="matrix" values="0 0 0 0 0.124574 0 0 0 0 0.141235 0 0 0 0 0.541097 0 0 0 0.1 0"/>
<feBlend mode="normal" in2="BackgroundImageFix" result="effect1_dropShadow_1818_528"/>
<feBlend mode="normal" in="SourceGraphic" in2="effect1_dropShadow_1818_528" result="shape"/>
</filter>
<filter id="filter4_d_1818_528" x="474.286" y="554.646" width="400.919" height="105.188" filterUnits="userSpaceOnUse" color-interpolation-filters="sRGB">
<feFlood flood-opacity="0" result="BackgroundImageFix"/>
<feColorMatrix in="SourceAlpha" type="matrix" values="0 0 0 0 0 0 0 0 0 0 0 0 0 0 0 0 0 0 127 0" result="hardAlpha"/>
<feOffset dy="7.18"/>
<feGaussianBlur stdDeviation="3.33"/>
<feColorMatrix type="matrix" values="0 0 0 0 0.124574 0 0 0 0 0.141235 0 0 0 0 0.541097 0 0 0 0.1 0"/>
<feBlend mode="normal" in2="BackgroundImageFix" result="effect1_dropShadow_1818_528"/>
<feBlend mode="normal" in="SourceGraphic" in2="effect1_dropShadow_1818_528" result="shape"/>
</filter>
<filter id="filter5_d_1818_528" x="905.252" y="189.981" width="244.605" height="479.617" filterUnits="userSpaceOnUse" color-interpolation-filters="sRGB">
<feFlood flood-opacity="0" result="BackgroundImageFix"/>
<feColorMatrix in="SourceAlpha" type="matrix" values="0 0 0 0 0 0 0 0 0 0 0 0 0 0 0 0 0 0 127 0" result="hardAlpha"/>
<feOffset dy="7.18"/>
<feGaussianBlur stdDeviation="5.83"/>
<feColorMatrix type="matrix" values="0 0 0 0 0.124574 0 0 0 0 0.141235 0 0 0 0 0.541097 0 0 0 0.1 0"/>
<feBlend mode="normal" in2="BackgroundImageFix" result="effect1_dropShadow_1818_528"/>
<feBlend mode="normal" in="SourceGraphic" in2="effect1_dropShadow_1818_528" result="shape"/>
</filter>
<filter id="filter6_d_1818_528" x="923.524" y="248.479" width="451.954" height="482.72" filterUnits="userSpaceOnUse" color-interpolation-filters="sRGB">
<feFlood flood-opacity="0" result="BackgroundImageFix"/>
<feColorMatrix in="SourceAlpha" type="matrix" values="0 0 0 0 0 0 0 0 0 0 0 0 0 0 0 0 0 0 127 0" result="hardAlpha"/>
<feOffset dy="38.7553"/>
<feGaussianBlur stdDeviation="49.291"/>
<feColorMatrix type="matrix" values="0 0 0 0 0.124574 0 0 0 0 0.141235 0 0 0 0 0.541097 0 0 0 0.09 0"/>
<feBlend mode="normal" in2="BackgroundImageFix" result="effect1_dropShadow_1818_528"/>
<feBlend mode="normal" in="SourceGraphic" in2="effect1_dropShadow_1818_528" result="shape"/>
</filter>
<filter id="filter7_d_1818_528" x="-45.8223" y="176.667" width="451.954" height="517.02" filterUnits="userSpaceOnUse" color-interpolation-filters="sRGB">
<feFlood flood-opacity="0" result="BackgroundImageFix"/>
<feColorMatrix in="SourceAlpha" type="matrix" values="0 0 0 0 0 0 0 0 0 0 0 0 0 0 0 0 0 0 127 0" result="hardAlpha"/>
<feOffset dy="38.7553"/>
<feGaussianBlur stdDeviation="49.291"/>
<feColorMatrix type="matrix" values="0 0 0 0 0.124574 0 0 0 0 0.141235 0 0 0 0 0.541097 0 0 0 0.09 0"/>
<feBlend mode="normal" in2="BackgroundImageFix" result="effect1_dropShadow_1818_528"/>
<feBlend mode="normal" in="SourceGraphic" in2="effect1_dropShadow_1818_528" result="shape"/>
</filter>
<filter id="filter8_d_1818_528" x="153.361" y="434.31" width="53.5845" height="53.5847" filterUnits="userSpaceOnUse" color-interpolation-filters="sRGB">
<feFlood flood-opacity="0" result="BackgroundImageFix"/>
<feColorMatrix in="SourceAlpha" type="matrix" values="0 0 0 0 0 0 0 0 0 0 0 0 0 0 0 0 0 0 127 0" result="hardAlpha"/>
<feOffset dy="4"/>
<feGaussianBlur stdDeviation="6"/>
<feComposite in2="hardAlpha" operator="out"/>
<feColorMatrix type="matrix" values="0 0 0 0 0.290196 0 0 0 0 0.227451 0 0 0 0 1 0 0 0 0.16 0"/>
<feBlend mode="normal" in2="BackgroundImageFix" result="effect1_dropShadow_1818_528"/>
<feBlend mode="normal" in="SourceGraphic" in2="effect1_dropShadow_1818_528" result="shape"/>
</filter>
<clipPath id="clip0_1818_528">
<rect width="1420" height="839" fill="white"/>
</clipPath>
</defs>
</svg>
