<svg width="926" height="315" viewBox="0 0 926 315" fill="none" xmlns="http://www.w3.org/2000/svg">
<path fill-rule="evenodd" clip-rule="evenodd" d="M921.5 313.5H103.5L0.000193437 314.5L3.4293e-05 297.5C-4.28663e-05 297.288 17 296 17 296V276L5.5 264C5.5 264 27 250 40.5 244.5C54 239 75.5 239 75.5 239C75.5 239 49.3696 164.288 39.9998 143C80.7026 123.939 110.477 126.172 170.5 143L164.5 82.5C220.203 80.1401 247.999 87.6443 285.5 111.5L257 0C384.381 29.0618 441.035 63.048 500.5 173.5C574.003 131.492 619.809 122.683 710.5 136L678.061 199.88C674.557 199.497 652.422 202.362 650.509 203.594C650.282 203.74 650.088 203.863 649.922 203.967L649.908 203.976L649.9 203.981C648.945 203.713 648.912 204.858 649.241 206.675C649.815 209.839 684.625 290.866 686.918 290.984C689.211 291.101 658.353 212.026 653.772 207.206C652.978 206.37 652.306 205.713 651.74 205.215C657.865 204.728 678.049 201.003 678.514 200.077C707.315 204.428 722.247 208.354 744 219C827.636 190.862 867.198 185.357 926 192L873.5 256L926 287L921.5 313.5ZM185.969 281.324C184.959 281.805 165.818 159.413 165.414 154.404C165.011 149.394 165.186 147.399 167.423 153.943C169.661 160.487 186.978 280.843 185.969 281.324ZM284.217 122.765C284.794 129.022 311.812 281.921 313.217 281.323C314.623 280.726 290.153 130.374 287.016 122.195C283.88 114.017 283.641 116.508 284.217 122.765ZM697.554 290.429C698.519 290.993 739.511 231.315 740.794 228.757C742.077 226.199 742.239 225.078 738.786 227.9C735.333 230.722 696.588 289.865 697.554 290.429ZM475.5 284.5C475.363 281.642 492.382 182.982 493.5 183C494.618 183.018 487.124 280.347 485.5 284.5C483.876 288.653 475.638 287.358 475.5 284.5Z" fill="#DDDDDD"/>
</svg>
