<svg width="1379" height="852" viewBox="0 0 1379 852" fill="none" xmlns="http://www.w3.org/2000/svg">
<path fill-rule="evenodd" clip-rule="evenodd" d="M1378.5 816V646L1375.5 522L1363 509.5V494.5V485L1356 483L1340 468.5L1337 424.5L1336 468.5L1325 484L1320.5 487L1319.5 512.5L1310 515.5V584.5V611.5L1251.5 576.5L1243.5 560.5L1229.5 543.5L1214.5 518.5C1210.67 526.5 1202.2 542.7 1199 543.5C1195.8 544.3 1194.67 537.167 1194.5 533.5L1182.5 522V515.5L1168.5 509.5L1162 501L1164.5 497.5L1162 494.5V485L1158.5 484.5L1158 496L1155.5 499L1158 500L1157 503.5L1143.5 512L1140 512.5V518.5L1142 519L1140.5 522L1124 539.5L1061.5 507L1051 483L1022.5 484V478.5L1020 476.5V469L1006 468.5V473L1004 476.5V483H989L990.5 490L929.5 464L931.5 454L934.5 449.5L947 440.5V430.5L927 422.5V397L914.5 386.5L920.5 377L908.5 369L892.5 377L857 337.5V324L825.5 302.5L817.5 298.5L825.5 293L817.5 276L813 302.5L789.679 317H783.289L786.5 328L778.5 337.5L754.5 364H749.5V344L738.5 337.5L733 328V317V312L710 293L583.5 154L579 142L583.5 134.5L579 123L561 104.5V0.5H554V104.5L547.5 115L535.5 123L531 134.5L541.5 146L531 161L422 269.5L414 276L409.5 298.5V312L403 337.5L393.5 344L387 369H355L333.5 337.5L326.5 324L304 312L292 276L280 312L252 324V337.5L216 386.5V377H200L190.5 386.5V392L183.5 401.5V430.5L156 440.5L163.5 449.5L168 454.5L178 461.5V607.5L110.5 600.5L0.5 651.5V803.5L471.855 844.641C468.353 802.483 463.108 698.55 490.637 648.652C525.652 585.185 576.174 586.383 576.174 586.383C576.174 586.383 606.187 579.198 652.207 627.097C692.781 669.328 688.639 817.208 687.091 851.617L1378.5 816ZM574 406C585.598 406 595 396.15 595 384C595 371.85 585.598 362 574 362C562.402 362 553 371.85 553 384C553 396.15 562.402 406 574 406Z" fill="#D9D9D9" fill-opacity="0.8"/>
</svg>
