<svg width="1422" height="839" viewBox="0 0 1422 839" fill="none" xmlns="http://www.w3.org/2000/svg">
<rect width="1422" height="839" fill="#E5E5E5"/>
<rect width="2458" height="1501" transform="translate(-668 -530)" fill="white"/>
<g filter="url(#filter0_d_1_5)">
<rect x="191.836" y="91" width="1015.74" height="603.767" rx="34.4493" fill="white"/>
</g>
<rect x="520.524" y="138.068" width="187.497" height="16.4696" rx="8.23479" fill="#D2D5EE"/>
<g filter="url(#filter1_d_1_5)">
<rect x="526.946" y="197.827" width="387.599" height="91.0944" rx="13" fill="#FF0000" fill-opacity="0.01"/>
</g>
<rect x="521.024" y="194.032" width="399.531" height="99.1402" rx="13.03" fill="white" stroke="#EFF0F7"/>
<path d="M888.61 232.532C895.237 232.532 900.61 227.16 900.61 220.532C900.61 213.905 895.237 208.532 888.61 208.532C881.982 208.532 876.61 213.905 876.61 220.532C876.61 227.16 881.982 232.532 888.61 232.532Z" fill="#1B7DC5"/>
<path d="M883.829 221.01L886.698 223.879L893.392 217.185" stroke="white" stroke-width="2.5" stroke-linecap="round" stroke-linejoin="round"/>
<rect x="604.218" y="229.044" width="104.798" height="8.9288" rx="4.4644" fill="#A0A3BD"/>
<rect x="604.219" y="246.466" width="178.482" height="8.9288" rx="4.4644" fill="#EFF0F7"/>
<path d="M537.61 242.22C537.61 226.756 550.146 214.22 565.61 214.22C581.074 214.22 593.61 226.756 593.61 242.22C593.61 257.684 581.074 270.22 565.61 270.22C550.146 270.22 537.61 257.684 537.61 242.22Z" fill="#E9F6FF"/>
<g filter="url(#filter2_d_1_5)">
<rect x="526.946" y="317.574" width="387.599" height="91.6068" rx="13" fill="#FF0000" fill-opacity="0.01"/>
</g>
<rect x="521.024" y="313.755" width="399.531" height="99.7036" rx="13.03" fill="white" stroke="#EFF0F7"/>
<path opacity="0.7" d="M888.61 350.989C895.237 350.989 900.61 345.617 900.61 338.989C900.61 332.362 895.237 326.989 888.61 326.989C881.982 326.989 876.61 332.362 876.61 338.989C876.61 345.617 881.982 350.989 888.61 350.989Z" fill="#D9DBE9"/>
<rect x="604.218" y="350.431" width="169.745" height="8.9288" rx="4.4644" fill="#A0A3BD"/>
<rect x="604.219" y="367.853" width="67.3504" height="8.9288" rx="4.4644" fill="#EFF0F7"/>
<path d="M537.61 363.606C537.61 348.142 550.146 335.606 565.61 335.606C581.074 335.606 593.61 348.142 593.61 363.606C593.61 379.07 581.074 391.606 565.61 391.606C550.146 391.606 537.61 379.07 537.61 363.606Z" fill="#E9F6FF"/>
<g filter="url(#filter3_d_1_5)">
<rect x="526.946" y="437.84" width="387.599" height="91.1632" rx="13" fill="#FF0000" fill-opacity="0.01"/>
</g>
<rect x="521.024" y="434.04" width="399.531" height="99.2159" rx="13.03" fill="white" stroke="#EFF0F7"/>
<path d="M888.61 471.196C895.237 471.196 900.61 465.824 900.61 459.196C900.61 452.569 895.237 447.196 888.61 447.196C881.982 447.196 876.61 452.569 876.61 459.196C876.61 465.824 881.982 471.196 888.61 471.196Z" fill="#1B7DC5"/>
<path d="M883.829 459.674L886.698 462.543L893.392 455.849" stroke="white" stroke-width="2.5" stroke-linecap="round" stroke-linejoin="round"/>
<rect x="604.218" y="470.474" width="67.3504" height="8.9288" rx="4.4644" fill="#A0A3BD"/>
<rect x="604.219" y="487.896" width="117.605" height="8.9288" rx="4.4644" fill="#EFF0F7"/>
<path d="M537.61 483.649C537.61 468.185 550.146 455.649 565.61 455.649C581.074 455.649 593.61 468.185 593.61 483.649C593.61 499.113 581.074 511.649 565.61 511.649C550.146 511.649 537.61 499.113 537.61 483.649Z" fill="#E9F6FF"/>
<g filter="url(#filter4_d_1_5)">
<rect x="526.946" y="557.646" width="387.599" height="91.3482" rx="13" fill="#FF0000" fill-opacity="0.01"/>
</g>
<rect x="521.024" y="553.839" width="399.531" height="99.4193" rx="13.03" fill="white" stroke="#EFF0F7"/>
<path opacity="0.7" d="M888.61 592.253C895.237 592.253 900.61 586.881 900.61 580.253C900.61 573.625 895.237 568.253 888.61 568.253C881.982 568.253 876.61 573.625 876.61 580.253C876.61 586.881 881.982 592.253 888.61 592.253Z" fill="#D9DBE9"/>
<rect x="604.218" y="590.373" width="139.017" height="8.9288" rx="4.4644" fill="#A0A3BD"/>
<rect x="604.219" y="607.795" width="55.2767" height="8.9288" rx="4.4644" fill="#EFF0F7"/>
<path d="M537.61 603.549C537.61 588.085 550.146 575.549 565.61 575.549C581.074 575.549 593.61 588.085 593.61 603.549C593.61 619.013 581.074 631.549 565.61 631.549C550.146 631.549 537.61 619.013 537.61 603.549Z" fill="#E9F6FF"/>
<g filter="url(#filter5_d_1_5)">
<rect x="962.912" y="197.461" width="221.285" height="456.297" rx="13" fill="#FF0000" fill-opacity="0.01"/>
</g>
<rect x="958.955" y="192.065" width="228.869" height="465.194" rx="13.03" fill="white" stroke="#EFF0F7"/>
<rect x="1038.95" y="275.763" width="57.1391" height="8.9288" rx="4.4644" fill="#A0A3BD"/>
<rect x="1038.95" y="340.12" width="98.8365" height="8.9288" rx="4.4644" fill="#A0A3BD"/>
<rect x="1038.95" y="403.835" width="26.417" height="8.9288" rx="4.4644" fill="#A0A3BD"/>
<rect x="1038.95" y="468.192" width="72.8608" height="8.9288" rx="4.4644" fill="#A0A3BD"/>
<rect x="1038.95" y="531.265" width="88.6242" height="8.9288" rx="4.4644" fill="#A0A3BD"/>
<rect x="1038.95" y="595.88" width="40.7913" height="8.9288" rx="4.4644" fill="#A0A3BD"/>
<rect x="1038.95" y="290.692" width="124.089" height="8.9288" rx="4.4644" fill="#EFF0F7"/>
<rect x="1038.95" y="355.048" width="72.8608" height="8.9288" rx="4.4644" fill="#EFF0F7"/>
<rect x="1038.95" y="418.763" width="110.023" height="8.9288" rx="4.4644" fill="#EFF0F7"/>
<rect x="1038.95" y="483.12" width="36.5918" height="8.9288" rx="4.4644" fill="#EFF0F7"/>
<rect x="1038.95" y="546.192" width="65.5628" height="8.9288" rx="4.4644" fill="#EFF0F7"/>
<rect x="1038.95" y="610.81" width="114.372" height="8.9288" rx="4.4644" fill="#EFF0F7"/>
<rect x="978.957" y="226.405" width="110.72" height="10.143" rx="5.0715" fill="#D2D5EE"/>
<rect x="223.525" y="121.757" width="267.633" height="537.97" rx="30.48" fill="#F5F6FF"/>
<rect x="288.039" y="175.097" width="144.954" height="16.4696" rx="8.23479" fill="#D2D5EE"/>
<circle cx="263.982" cy="183.331" r="14" fill="#1B7DC5"/>
<rect x="288.039" y="219.002" width="102.688" height="16.4696" rx="8.23479" fill="#D2D5EE"/>
<circle cx="263.982" cy="227.236" r="14" fill="#B4B8D8"/>
<rect x="288.039" y="268.672" width="168.866" height="16.4696" rx="8.23479" fill="#D2D5EE"/>
<circle cx="263.982" cy="276.906" r="14" fill="#B4B8D8"/>
<rect x="288.039" y="312.577" width="102.688" height="16.4696" rx="8.23479" fill="#D2D5EE"/>
<circle cx="263.982" cy="320.812" r="14" fill="#B4B8D8"/>
<rect x="288.039" y="359.149" width="102.688" height="16.4696" rx="8.23479" fill="#D2D5EE"/>
<circle cx="263.982" cy="367.384" r="14" fill="#B4B8D8"/>
<rect x="249.982" y="576.966" width="215.682" height="49.7506" rx="24.8753" fill="#1B7DC5"/>
<rect opacity="0.1" x="978.958" y="262.632" width="50.1196" height="50.1196" rx="11" fill="#1B7DC5"/>
<rect opacity="0.1" x="978.958" y="326.989" width="50.1196" height="50.1196" rx="11" fill="#1B7DC5"/>
<rect opacity="0.1" x="978.958" y="454.419" width="50.1196" height="50.1196" rx="11" fill="#1B7DC5"/>
<rect opacity="0.1" x="978.958" y="582.75" width="50.1196" height="50.1196" rx="11" fill="#1B7DC5"/>
<rect opacity="0.1" x="978.958" y="390.704" width="50.1196" height="50.1196" rx="11" fill="#1B7DC5"/>
<rect opacity="0.1" x="978.958" y="518.134" width="50.1196" height="50.1196" rx="11" fill="#1B7DC5"/>
<rect x="1055.73" y="141.839" width="67.4495" height="8.9288" rx="4.4644" fill="#D9DBE9"/>
<path d="M1137.01 146.304C1137.01 133.851 1147.11 123.757 1159.56 123.757C1172.01 123.757 1182.11 133.851 1182.11 146.304C1182.11 158.756 1172.01 168.85 1159.56 168.85C1147.11 168.85 1137.01 158.756 1137.01 146.304Z" fill="#E0DDFF"/>
<g filter="url(#filter6_d_1_5)">
<rect x="1068.11" y="311.306" width="254.79" height="285.555" rx="26.6913" fill="#FF0000" fill-opacity="0.01"/>
</g>
<rect x="1059.35" y="299.62" width="272.309" height="305.189" rx="28.5265" fill="white"/>
<rect x="1134.76" y="355.992" width="105.415" height="10" rx="5" fill="#D9DBE9"/>
<rect x="1134.76" y="399.636" width="163.48" height="10" rx="5" fill="#D9DBE9"/>
<rect opacity="0.4" x="1134.76" y="447.215" width="118.709" height="10" rx="5" fill="#D9DBE9"/>
<rect x="1134.76" y="494.794" width="163.48" height="10" rx="5" fill="#D9DBE9"/>
<rect opacity="0.4" x="1134.76" y="538.438" width="83.5395" height="10" rx="5" fill="#D9DBE9"/>
<path d="M1108.76 376.992C1117.6 376.992 1124.76 369.829 1124.76 360.992C1124.76 352.155 1117.6 344.992 1108.76 344.992C1099.92 344.992 1092.76 352.155 1092.76 360.992C1092.76 369.829 1099.92 376.992 1108.76 376.992Z" fill="#1B7DC5"/>
<path d="M1102.43 361.625L1106.23 365.425L1115.09 356.56" stroke="white" stroke-width="2.5" stroke-linecap="round" stroke-linejoin="round"/>
<path d="M1108.76 420.636C1117.6 420.636 1124.76 413.473 1124.76 404.636C1124.76 395.799 1117.6 388.636 1108.76 388.636C1099.92 388.636 1092.76 395.799 1092.76 404.636C1092.76 413.473 1099.92 420.636 1108.76 420.636Z" fill="#1B7DC5"/>
<path d="M1102.39 405.273L1106.21 409.099L1115.14 400.173" stroke="white" stroke-width="2.5" stroke-linecap="round" stroke-linejoin="round"/>
<path opacity="0.4" d="M1108.76 468.215C1117.6 468.215 1124.76 461.052 1124.76 452.215C1124.76 443.378 1117.6 436.215 1108.76 436.215C1099.92 436.215 1092.76 443.378 1092.76 452.215C1092.76 461.052 1099.92 468.215 1108.76 468.215Z" fill="#A0A3BD"/>
<path d="M1108.76 515.794C1117.6 515.794 1124.76 508.631 1124.76 499.794C1124.76 490.957 1117.6 483.794 1108.76 483.794C1099.92 483.794 1092.76 490.957 1092.76 499.794C1092.76 508.631 1099.92 515.794 1108.76 515.794Z" fill="#1B7DC5"/>
<path d="M1102.09 500.46L1106.09 504.462L1115.43 495.125" stroke="white" stroke-width="2.5" stroke-linecap="round" stroke-linejoin="round"/>
<path opacity="0.4" d="M1108.76 559.438C1117.6 559.438 1124.76 552.275 1124.76 543.438C1124.76 534.602 1117.6 527.438 1108.76 527.438C1099.92 527.438 1092.76 534.602 1092.76 543.438C1092.76 552.275 1099.92 559.438 1108.76 559.438Z" fill="#A0A3BD"/>
<g filter="url(#filter7_d_1_5)">
<rect x="98.7598" y="239.494" width="254.79" height="319.856" rx="26.6913" fill="#FF0000" fill-opacity="0.01"/>
</g>
<rect x="90" y="226.405" width="272.309" height="341.848" rx="28.5265" fill="white"/>
<rect x="173.756" y="272.179" width="104.798" height="13.406" rx="6.70301" fill="#A0A3BD"/>
<rect opacity="0.15" x="116.193" y="350.142" width="29.5847" height="29.5847" rx="6" fill="#A0A3BD"/>
<rect opacity="0.15" x="163.777" y="350.142" width="29.5847" height="29.5847" rx="6" fill="#A0A3BD"/>
<rect opacity="0.15" x="211.361" y="350.142" width="29.5847" height="29.5847" rx="6" fill="#A0A3BD"/>
<rect opacity="0.15" x="258.945" y="350.142" width="29.5847" height="29.5847" rx="6" fill="#A0A3BD"/>
<rect opacity="0.15" x="306.529" y="350.142" width="29.5847" height="29.5847" rx="6" fill="#A0A3BD"/>
<rect opacity="0.15" x="116.193" y="397.725" width="29.5847" height="29.5847" rx="6" fill="#A0A3BD"/>
<rect opacity="0.15" x="163.777" y="397.725" width="29.5847" height="29.5847" rx="6" fill="#A0A3BD"/>
<rect opacity="0.15" x="211.361" y="397.725" width="29.5847" height="29.5847" rx="6" fill="#A0A3BD"/>
<rect opacity="0.15" x="258.945" y="397.725" width="29.5847" height="29.5847" rx="6" fill="#A0A3BD"/>
<rect opacity="0.15" x="306.529" y="397.725" width="29.5847" height="29.5847" rx="6" fill="#A0A3BD"/>
<rect opacity="0.15" x="116.193" y="445.31" width="29.5847" height="29.5847" rx="6" fill="#A0A3BD"/>
<rect opacity="0.15" x="163.777" y="445.31" width="29.5847" height="29.5847" rx="6" fill="#A0A3BD"/>
<g filter="url(#filter8_d_1_5)">
<rect x="211.361" y="445.31" width="29.5847" height="29.5847" rx="6" fill="#FF0000" fill-opacity="0.01" shape-rendering="crispEdges"/>
</g>
<rect x="211.361" y="445.31" width="29.5847" height="29.5847" rx="6" fill="#1B7DC5"/>
<rect opacity="0.15" x="258.945" y="445.31" width="29.5847" height="29.5847" rx="6" fill="#A0A3BD"/>
<rect opacity="0.15" x="306.529" y="445.31" width="29.5847" height="29.5847" rx="6" fill="#A0A3BD"/>
<rect opacity="0.15" x="116.193" y="492.895" width="29.5847" height="29.5847" rx="6" fill="#A0A3BD"/>
<rect opacity="0.15" x="163.777" y="492.895" width="29.5847" height="29.5847" rx="6" fill="#A0A3BD"/>
<rect opacity="0.15" x="211.361" y="492.895" width="29.5847" height="29.5847" rx="6" fill="#A0A3BD"/>
<rect opacity="0.15" x="258.945" y="492.895" width="29.5847" height="29.5847" rx="6" fill="#A0A3BD"/>
<rect opacity="0.15" x="306.529" y="492.895" width="29.5847" height="29.5847" rx="6" fill="#A0A3BD"/>
<rect x="114.451" y="313.207" width="33.071" height="12.9342" rx="6.46709" fill="#CFD0DD"/>
<rect x="162.037" y="313.207" width="33.071" height="12.9342" rx="6.46709" fill="#CFD0DD"/>
<rect x="209.619" y="313.207" width="33.071" height="12.9342" rx="6.46709" fill="#CFD0DD"/>
<rect x="257.205" y="313.207" width="33.071" height="12.9342" rx="6.46709" fill="#CFD0DD"/>
<rect x="304.787" y="313.207" width="33.071" height="12.9342" rx="6.46709" fill="#CFD0DD"/>
<defs>
<filter id="filter0_d_1_5" x="74.6454" y="0.595901" width="1250.12" height="838.148" filterUnits="userSpaceOnUse" color-interpolation-filters="sRGB">
<feFlood flood-opacity="0" result="BackgroundImageFix"/>
<feColorMatrix in="SourceAlpha" type="matrix" values="0 0 0 0 0 0 0 0 0 0 0 0 0 0 0 0 0 0 127 0" result="hardAlpha"/>
<feOffset dy="26.7864"/>
<feGaussianBlur stdDeviation="58.5952"/>
<feColorMatrix type="matrix" values="0 0 0 0 0.12549 0 0 0 0 0.141176 0 0 0 0 0.541176 0 0 0 0.06 0"/>
<feBlend mode="normal" in2="BackgroundImageFix" result="effect1_dropShadow_1_5"/>
<feBlend mode="normal" in="SourceGraphic" in2="effect1_dropShadow_1_5" result="shape"/>
</filter>
<filter id="filter1_d_1_5" x="515.286" y="191.347" width="410.919" height="114.414" filterUnits="userSpaceOnUse" color-interpolation-filters="sRGB">
<feFlood flood-opacity="0" result="BackgroundImageFix"/>
<feColorMatrix in="SourceAlpha" type="matrix" values="0 0 0 0 0 0 0 0 0 0 0 0 0 0 0 0 0 0 127 0" result="hardAlpha"/>
<feOffset dy="5.18"/>
<feGaussianBlur stdDeviation="5.83"/>
<feColorMatrix type="matrix" values="0 0 0 0 0.124574 0 0 0 0 0.141235 0 0 0 0 0.541097 0 0 0 0.1 0"/>
<feBlend mode="normal" in2="BackgroundImageFix" result="effect1_dropShadow_1_5"/>
<feBlend mode="normal" in="SourceGraphic" in2="effect1_dropShadow_1_5" result="shape"/>
</filter>
<filter id="filter2_d_1_5" x="520.286" y="317.574" width="400.919" height="105.447" filterUnits="userSpaceOnUse" color-interpolation-filters="sRGB">
<feFlood flood-opacity="0" result="BackgroundImageFix"/>
<feColorMatrix in="SourceAlpha" type="matrix" values="0 0 0 0 0 0 0 0 0 0 0 0 0 0 0 0 0 0 127 0" result="hardAlpha"/>
<feOffset dy="7.18"/>
<feGaussianBlur stdDeviation="3.33"/>
<feColorMatrix type="matrix" values="0 0 0 0 0.124574 0 0 0 0 0.141235 0 0 0 0 0.541097 0 0 0 0.1 0"/>
<feBlend mode="normal" in2="BackgroundImageFix" result="effect1_dropShadow_1_5"/>
<feBlend mode="normal" in="SourceGraphic" in2="effect1_dropShadow_1_5" result="shape"/>
</filter>
<filter id="filter3_d_1_5" x="520.286" y="437.84" width="400.919" height="105.003" filterUnits="userSpaceOnUse" color-interpolation-filters="sRGB">
<feFlood flood-opacity="0" result="BackgroundImageFix"/>
<feColorMatrix in="SourceAlpha" type="matrix" values="0 0 0 0 0 0 0 0 0 0 0 0 0 0 0 0 0 0 127 0" result="hardAlpha"/>
<feOffset dy="7.18"/>
<feGaussianBlur stdDeviation="3.33"/>
<feColorMatrix type="matrix" values="0 0 0 0 0.124574 0 0 0 0 0.141235 0 0 0 0 0.541097 0 0 0 0.1 0"/>
<feBlend mode="normal" in2="BackgroundImageFix" result="effect1_dropShadow_1_5"/>
<feBlend mode="normal" in="SourceGraphic" in2="effect1_dropShadow_1_5" result="shape"/>
</filter>
<filter id="filter4_d_1_5" x="520.286" y="557.646" width="400.919" height="105.188" filterUnits="userSpaceOnUse" color-interpolation-filters="sRGB">
<feFlood flood-opacity="0" result="BackgroundImageFix"/>
<feColorMatrix in="SourceAlpha" type="matrix" values="0 0 0 0 0 0 0 0 0 0 0 0 0 0 0 0 0 0 127 0" result="hardAlpha"/>
<feOffset dy="7.18"/>
<feGaussianBlur stdDeviation="3.33"/>
<feColorMatrix type="matrix" values="0 0 0 0 0.124574 0 0 0 0 0.141235 0 0 0 0 0.541097 0 0 0 0.1 0"/>
<feBlend mode="normal" in2="BackgroundImageFix" result="effect1_dropShadow_1_5"/>
<feBlend mode="normal" in="SourceGraphic" in2="effect1_dropShadow_1_5" result="shape"/>
</filter>
<filter id="filter5_d_1_5" x="951.252" y="192.981" width="244.605" height="479.617" filterUnits="userSpaceOnUse" color-interpolation-filters="sRGB">
<feFlood flood-opacity="0" result="BackgroundImageFix"/>
<feColorMatrix in="SourceAlpha" type="matrix" values="0 0 0 0 0 0 0 0 0 0 0 0 0 0 0 0 0 0 127 0" result="hardAlpha"/>
<feOffset dy="7.18"/>
<feGaussianBlur stdDeviation="5.83"/>
<feColorMatrix type="matrix" values="0 0 0 0 0.124574 0 0 0 0 0.141235 0 0 0 0 0.541097 0 0 0 0.1 0"/>
<feBlend mode="normal" in2="BackgroundImageFix" result="effect1_dropShadow_1_5"/>
<feBlend mode="normal" in="SourceGraphic" in2="effect1_dropShadow_1_5" result="shape"/>
</filter>
<filter id="filter6_d_1_5" x="969.524" y="251.479" width="451.954" height="482.72" filterUnits="userSpaceOnUse" color-interpolation-filters="sRGB">
<feFlood flood-opacity="0" result="BackgroundImageFix"/>
<feColorMatrix in="SourceAlpha" type="matrix" values="0 0 0 0 0 0 0 0 0 0 0 0 0 0 0 0 0 0 127 0" result="hardAlpha"/>
<feOffset dy="38.7553"/>
<feGaussianBlur stdDeviation="49.291"/>
<feColorMatrix type="matrix" values="0 0 0 0 0.124574 0 0 0 0 0.141235 0 0 0 0 0.541097 0 0 0 0.09 0"/>
<feBlend mode="normal" in2="BackgroundImageFix" result="effect1_dropShadow_1_5"/>
<feBlend mode="normal" in="SourceGraphic" in2="effect1_dropShadow_1_5" result="shape"/>
</filter>
<filter id="filter7_d_1_5" x="0.177734" y="179.667" width="451.954" height="517.02" filterUnits="userSpaceOnUse" color-interpolation-filters="sRGB">
<feFlood flood-opacity="0" result="BackgroundImageFix"/>
<feColorMatrix in="SourceAlpha" type="matrix" values="0 0 0 0 0 0 0 0 0 0 0 0 0 0 0 0 0 0 127 0" result="hardAlpha"/>
<feOffset dy="38.7553"/>
<feGaussianBlur stdDeviation="49.291"/>
<feColorMatrix type="matrix" values="0 0 0 0 0.124574 0 0 0 0 0.141235 0 0 0 0 0.541097 0 0 0 0.09 0"/>
<feBlend mode="normal" in2="BackgroundImageFix" result="effect1_dropShadow_1_5"/>
<feBlend mode="normal" in="SourceGraphic" in2="effect1_dropShadow_1_5" result="shape"/>
</filter>
<filter id="filter8_d_1_5" x="199.361" y="437.31" width="53.585" height="53.5845" filterUnits="userSpaceOnUse" color-interpolation-filters="sRGB">
<feFlood flood-opacity="0" result="BackgroundImageFix"/>
<feColorMatrix in="SourceAlpha" type="matrix" values="0 0 0 0 0 0 0 0 0 0 0 0 0 0 0 0 0 0 127 0" result="hardAlpha"/>
<feOffset dy="4"/>
<feGaussianBlur stdDeviation="6"/>
<feComposite in2="hardAlpha" operator="out"/>
<feColorMatrix type="matrix" values="0 0 0 0 0.290196 0 0 0 0 0.227451 0 0 0 0 1 0 0 0 0.16 0"/>
<feBlend mode="normal" in2="BackgroundImageFix" result="effect1_dropShadow_1_5"/>
<feBlend mode="normal" in="SourceGraphic" in2="effect1_dropShadow_1_5" result="shape"/>
</filter>
</defs>
</svg>
