<svg width="1792" height="862" viewBox="0 0 1792 862" fill="none" xmlns="http://www.w3.org/2000/svg">
<path d="M287.5 606.721V568.057L306.5 567.562L304 471.399L283 456.032L321 447.11L323.5 409.933C324.424 397.772 326.813 392.934 337.5 391.097C350.06 390.685 353.651 393.712 357 402.002H364.5C384 347.477 407.424 326.508 452.5 321.701L455.5 293.943L461.5 321.701C505.804 330.022 523.749 342.591 533 391.097L599.5 387.132V370.774H611V309.309C630.854 228.064 660.253 198.904 744 174.978L743.5 147.219C743.5 147.219 738.429 147.219 738 141.271C737.571 135.323 743.5 134.827 743.5 134.827C743.75 123.036 746.927 118.777 757.5 112.521C756.514 102.349 754.281 95.2291 761.5 85.7539L764 0L771 85.7539C776.77 95.765 775.713 102.763 774.5 112.521C785.925 117.252 790.207 122.016 795 133.34C795 133.34 802 133.836 802 140.279C802 146.723 798 147.715 798 147.715L798.5 174.978C888.235 203.345 919.796 229.903 944 309.309V343.016C951.353 336.929 955.913 335.779 964.5 336.076C982.556 342.213 987.021 347.663 988 359.869V387.132H1002L1010.5 376.227L1014 356.399L1032.5 350.947C1034.12 343.959 1036.41 341.573 1042.5 339.546L1045.5 321.701L1048.5 339.546C1056.49 342.451 1059.51 345.621 1060 356.399L1079.5 364.826L1112 399.028V410.429L1116.5 421.334L1135 426.787C1135.5 419.809 1138.98 417.829 1147 415.386C1156.66 421.607 1159.62 426.826 1162 438.187V467.433L1180.5 479.329L1218.5 484.286V519.48L1226 520.472L1244.5 524.437C1244.5 516.01 1253.48 507.045 1263 508.575C1274.5 511.053 1279.31 518.725 1278.5 535.838L1313.5 550.708C1320.82 539.003 1325.66 534.106 1336.5 530.385C1336.73 523.558 1339.02 521.466 1346.5 520.472C1346.5 520.472 1349.5 500.148 1350 499.653C1350.5 499.157 1354.5 520.472 1354.5 520.472C1363 520.472 1364.61 521.947 1368 530.385L1383 545.752H1392L1397 535.838L1402.5 550.708C1416.7 552.322 1421.3 559.039 1425.5 577.971L1454.5 591.355V606.721L1466.5 614.156V620.105H1489V565.579L1485 560.622V512.541H1492V484.286H1489V479.329H1495C1494.93 467.313 1497.11 463.054 1505.5 460.493C1513.91 463.315 1516.54 467.005 1515.5 479.329H1520V484.286H1525.5V516.01H1536.5L1546.5 522.95V545.752L1550.5 554.178V644.889L1791.5 726.182L1792 862H0V702.884L287.5 606.721Z" fill="#D9D9D9" fill-opacity="0.8"/>
<path d="M1284 716V608.5L1343.5 623.5V719.5L1284 716Z" fill="white" fill-opacity="0.5"/>
<path d="M1171.5 711.5V582L1231 599.5V713.5L1171.5 711.5Z" fill="white" fill-opacity="0.5"/>
<path d="M1361.5 720V628L1421 642V724.5L1361.5 720Z" fill="white" fill-opacity="0.5"/>
<path d="M1548 732V666.5L1585 679V734L1548 732Z" fill="white" fill-opacity="0.5"/>
<path d="M819.797 343L987 433L618 429.17L819.797 343Z" fill="white" fill-opacity="0.35"/>
<path d="M825 362L955.5 432.5L667.5 429.5L825 362Z" fill="#777777" fill-opacity="0.2"/>
<circle cx="820.5" cy="431" r="44" fill="#F8F8F8"/>
<path d="M966 862H684L686 718.5C686 648.5 743.067 615.178 823 606.5C907.238 611.907 961 648.5 966 724V862Z" fill="white" fill-opacity="0.5"/>
<path d="M714.5 730H716.072C717.524 665.601 760.77 646.998 822.94 640C887.131 644.272 929.286 660.643 934.212 730H934.5V735.037C934.425 733.328 934.329 731.649 934.212 730H716.072C716.068 730.196 716.064 730.392 716.06 730.588L714.5 730Z" fill="#D4D4D4" fill-opacity="0.5"/>
<path d="M590.5 717H494.188V600.529C494.188 539 513.818 525.317 541.312 519C570.288 522.936 590.5 537 590.5 604.533V717Z" fill="white" fill-opacity="0.5"/>
<path d="M423 655L372.104 645.912L349 640.897V590.243C349 539.59 350.472 516.336 376.477 510C403.883 513.948 423 528.055 423 595.793L423 655Z" fill="white" fill-opacity="0.5"/>
<path d="M1088 714L1002 711.816L1002.61 597.529C1002.61 536 1020.01 522.317 1044.39 516C1070.08 519.936 1088 534 1088 601.533V714Z" fill="white" fill-opacity="0.5"/>
<path d="M733.5 284.5L610.5 311.5V343L733.5 325H873.5L936 352.5L942.5 344V314L872.5 285L733.5 284.5Z" fill="white" fill-opacity="0.5"/>
<rect x="716.5" y="754" width="218" height="108" fill="#D4D4D4" fill-opacity="0.5"/>
<path d="M744.5 177C737.152 220.157 734.563 243.913 732.5 285.5H878.5C852.217 233.049 834.013 209.613 797.5 177H744.5Z" fill="white" fill-opacity="0.3"/>
</svg>
