<svg width="1422" height="644" viewBox="0 0 1422 644" fill="none" xmlns="http://www.w3.org/2000/svg">
<rect width="1422" height="644" fill="#E5E5E5"/>
<rect x="191.836" width="1015.74" height="603.767" rx="34.4493" fill="white"/>
<rect x="520.524" y="47.0684" width="187.497" height="16.4696" rx="8.23479" fill="#D2D5EE"/>
<g filter="url(#filter0_d_1_5)">
<rect x="526.946" y="106.827" width="387.599" height="91.0944" rx="13" fill="#FF0000" fill-opacity="0.01"/>
</g>
<rect x="521.024" y="103.032" width="399.531" height="99.1402" rx="13.03" fill="white" stroke="#EFF0F7"/>
<path d="M888.61 141.532C895.237 141.532 900.61 136.16 900.61 129.532C900.61 122.905 895.237 117.532 888.61 117.532C881.982 117.532 876.61 122.905 876.61 129.532C876.61 136.16 881.982 141.532 888.61 141.532Z" fill="#1B7DC5"/>
<path d="M883.829 130.01L886.698 132.879L893.392 126.185" stroke="white" stroke-width="2.5" stroke-linecap="round" stroke-linejoin="round"/>
<rect x="604.218" y="138.044" width="104.798" height="8.9288" rx="4.4644" fill="#A0A3BD"/>
<rect x="604.219" y="155.466" width="178.482" height="8.9288" rx="4.4644" fill="#EFF0F7"/>
<path d="M537.61 151.22C537.61 135.756 550.146 123.22 565.61 123.22V123.22C581.074 123.22 593.61 135.756 593.61 151.22V151.22C593.61 166.684 581.074 179.22 565.61 179.22V179.22C550.146 179.22 537.61 166.684 537.61 151.22V151.22Z" fill="#E9F6FF"/>
<g filter="url(#filter1_d_1_5)">
<rect x="526.946" y="226.574" width="387.599" height="91.6068" rx="13" fill="#FF0000" fill-opacity="0.01"/>
</g>
<rect x="521.024" y="222.755" width="399.531" height="99.7036" rx="13.03" fill="white" stroke="#EFF0F7"/>
<path opacity="0.7" d="M888.61 259.989C895.237 259.989 900.61 254.617 900.61 247.989C900.61 241.362 895.237 235.989 888.61 235.989C881.982 235.989 876.61 241.362 876.61 247.989C876.61 254.617 881.982 259.989 888.61 259.989Z" fill="#D9DBE9"/>
<rect x="604.218" y="259.431" width="169.745" height="8.9288" rx="4.4644" fill="#A0A3BD"/>
<rect x="604.219" y="276.853" width="67.3504" height="8.9288" rx="4.4644" fill="#EFF0F7"/>
<path d="M537.61 272.606C537.61 257.142 550.146 244.606 565.61 244.606V244.606C581.074 244.606 593.61 257.142 593.61 272.606V272.606C593.61 288.07 581.074 300.606 565.61 300.606V300.606C550.146 300.606 537.61 288.07 537.61 272.606V272.606Z" fill="#E9F6FF"/>
<g filter="url(#filter2_d_1_5)">
<rect x="526.946" y="346.84" width="387.599" height="91.1632" rx="13" fill="#FF0000" fill-opacity="0.01"/>
</g>
<rect x="521.024" y="343.04" width="399.531" height="99.2159" rx="13.03" fill="white" stroke="#EFF0F7"/>
<path d="M888.61 380.196C895.237 380.196 900.61 374.824 900.61 368.196C900.61 361.569 895.237 356.196 888.61 356.196C881.982 356.196 876.61 361.569 876.61 368.196C876.61 374.824 881.982 380.196 888.61 380.196Z" fill="#1B7DC5"/>
<path d="M883.829 368.674L886.698 371.543L893.392 364.849" stroke="white" stroke-width="2.5" stroke-linecap="round" stroke-linejoin="round"/>
<rect x="604.218" y="379.474" width="67.3504" height="8.9288" rx="4.4644" fill="#A0A3BD"/>
<rect x="604.219" y="396.896" width="117.605" height="8.9288" rx="4.4644" fill="#EFF0F7"/>
<path d="M537.61 392.649C537.61 377.185 550.146 364.649 565.61 364.649V364.649C581.074 364.649 593.61 377.185 593.61 392.649V392.649C593.61 408.113 581.074 420.649 565.61 420.649V420.649C550.146 420.649 537.61 408.113 537.61 392.649V392.649Z" fill="#E9F6FF"/>
<g filter="url(#filter3_d_1_5)">
<rect x="526.946" y="466.646" width="387.599" height="91.3482" rx="13" fill="#FF0000" fill-opacity="0.01"/>
</g>
<rect x="521.024" y="462.839" width="399.531" height="99.4193" rx="13.03" fill="white" stroke="#EFF0F7"/>
<path opacity="0.7" d="M888.61 501.253C895.237 501.253 900.61 495.881 900.61 489.253C900.61 482.625 895.237 477.253 888.61 477.253C881.982 477.253 876.61 482.625 876.61 489.253C876.61 495.881 881.982 501.253 888.61 501.253Z" fill="#D9DBE9"/>
<rect x="604.218" y="499.373" width="139.017" height="8.9288" rx="4.4644" fill="#A0A3BD"/>
<rect x="604.219" y="516.795" width="55.2767" height="8.9288" rx="4.4644" fill="#EFF0F7"/>
<path d="M537.61 512.549C537.61 497.085 550.146 484.549 565.61 484.549V484.549C581.074 484.549 593.61 497.085 593.61 512.549V512.549C593.61 528.013 581.074 540.549 565.61 540.549V540.549C550.146 540.549 537.61 528.013 537.61 512.549V512.549Z" fill="#E9F6FF"/>
<g filter="url(#filter4_d_1_5)">
<rect x="962.912" y="106.461" width="221.285" height="456.297" rx="13" fill="#FF0000" fill-opacity="0.01"/>
</g>
<rect x="958.955" y="101.065" width="228.869" height="465.194" rx="13.03" fill="white" stroke="#EFF0F7"/>
<rect x="1038.95" y="184.763" width="57.1391" height="8.9288" rx="4.4644" fill="#A0A3BD"/>
<rect x="1038.95" y="249.12" width="98.8365" height="8.9288" rx="4.4644" fill="#A0A3BD"/>
<rect x="1038.95" y="312.835" width="26.417" height="8.9288" rx="4.4644" fill="#A0A3BD"/>
<rect x="1038.95" y="377.192" width="72.8608" height="8.9288" rx="4.4644" fill="#A0A3BD"/>
<rect x="1038.95" y="440.265" width="88.6242" height="8.9288" rx="4.4644" fill="#A0A3BD"/>
<rect x="1038.95" y="504.88" width="40.7913" height="8.9288" rx="4.4644" fill="#A0A3BD"/>
<rect x="1038.95" y="199.692" width="124.089" height="8.9288" rx="4.4644" fill="#EFF0F7"/>
<rect x="1038.95" y="264.048" width="72.8608" height="8.9288" rx="4.4644" fill="#EFF0F7"/>
<rect x="1038.95" y="327.763" width="110.023" height="8.9288" rx="4.4644" fill="#EFF0F7"/>
<rect x="1038.95" y="392.12" width="36.5918" height="8.9288" rx="4.4644" fill="#EFF0F7"/>
<rect x="1038.95" y="455.192" width="65.5628" height="8.9288" rx="4.4644" fill="#EFF0F7"/>
<rect x="1038.95" y="519.81" width="114.372" height="8.9288" rx="4.4644" fill="#EFF0F7"/>
<rect x="978.957" y="135.405" width="110.72" height="10.143" rx="5.0715" fill="#D2D5EE"/>
<rect x="223.526" y="30.7568" width="267.633" height="537.97" rx="30.48" fill="#F5F6FF"/>
<rect x="288.04" y="84.0967" width="144.954" height="16.4696" rx="8.23479" fill="#D2D5EE"/>
<circle cx="263.983" cy="92.3311" r="14" fill="#1B7DC5"/>
<rect x="288.04" y="128.002" width="102.688" height="16.4696" rx="8.23479" fill="#D2D5EE"/>
<circle cx="263.983" cy="136.236" r="14" fill="#B4B8D8"/>
<rect x="288.04" y="177.672" width="168.866" height="16.4696" rx="8.23479" fill="#D2D5EE"/>
<circle cx="263.983" cy="185.906" r="14" fill="#B4B8D8"/>
<rect x="288.04" y="221.577" width="102.688" height="16.4696" rx="8.23479" fill="#D2D5EE"/>
<circle cx="263.983" cy="229.812" r="14" fill="#B4B8D8"/>
<rect x="288.04" y="268.149" width="102.688" height="16.4696" rx="8.23479" fill="#D2D5EE"/>
<circle cx="263.983" cy="276.384" r="14" fill="#B4B8D8"/>
<rect x="249.983" y="485.966" width="215.682" height="49.7506" rx="24.8753" fill="#1B7DC5"/>
<rect opacity="0.1" x="978.958" y="171.632" width="50.1196" height="50.1196" rx="11" fill="#1B7DC5"/>
<rect opacity="0.1" x="978.958" y="235.989" width="50.1196" height="50.1196" rx="11" fill="#1B7DC5"/>
<rect opacity="0.1" x="978.958" y="363.419" width="50.1196" height="50.1196" rx="11" fill="#1B7DC5"/>
<rect opacity="0.1" x="978.958" y="491.75" width="50.1196" height="50.1196" rx="11" fill="#1B7DC5"/>
<rect opacity="0.1" x="978.958" y="299.704" width="50.1196" height="50.1196" rx="11" fill="#1B7DC5"/>
<rect opacity="0.1" x="978.958" y="427.134" width="50.1196" height="50.1196" rx="11" fill="#1B7DC5"/>
<rect x="1055.73" y="50.8389" width="67.4495" height="8.9288" rx="4.4644" fill="#D9DBE9"/>
<path d="M1137.01 55.3036C1137.01 42.8514 1147.11 32.7568 1159.56 32.7568V32.7568C1172.01 32.7568 1182.11 42.8514 1182.11 55.3036V55.3036C1182.11 67.7559 1172.01 77.8504 1159.56 77.8504V77.8504C1147.11 77.8504 1137.01 67.7559 1137.01 55.3036V55.3036Z" fill="#E0DDFF"/>
<g filter="url(#filter5_d_1_5)">
<rect x="1068.11" y="220.306" width="254.79" height="285.555" rx="26.6913" fill="#FF0000" fill-opacity="0.01"/>
</g>
<rect x="1059.35" y="208.62" width="272.309" height="305.189" rx="28.5265" fill="white"/>
<rect x="1134.76" y="264.992" width="105.415" height="10" rx="5" fill="#D9DBE9"/>
<rect x="1134.76" y="308.636" width="163.48" height="10" rx="5" fill="#D9DBE9"/>
<rect opacity="0.4" x="1134.76" y="356.215" width="118.709" height="10" rx="5" fill="#D9DBE9"/>
<rect x="1134.76" y="403.794" width="163.48" height="10" rx="5" fill="#D9DBE9"/>
<rect opacity="0.4" x="1134.76" y="447.438" width="83.5395" height="10" rx="5" fill="#D9DBE9"/>
<path d="M1108.76 285.992C1117.6 285.992 1124.76 278.829 1124.76 269.992C1124.76 261.155 1117.6 253.992 1108.76 253.992C1099.92 253.992 1092.76 261.155 1092.76 269.992C1092.76 278.829 1099.92 285.992 1108.76 285.992Z" fill="#1B7DC5"/>
<path d="M1102.43 270.625L1106.23 274.425L1115.09 265.56" stroke="white" stroke-width="2.5" stroke-linecap="round" stroke-linejoin="round"/>
<path d="M1108.76 329.636C1117.6 329.636 1124.76 322.473 1124.76 313.636C1124.76 304.799 1117.6 297.636 1108.76 297.636C1099.92 297.636 1092.76 304.799 1092.76 313.636C1092.76 322.473 1099.92 329.636 1108.76 329.636Z" fill="#1B7DC5"/>
<path d="M1102.39 314.273L1106.21 318.099L1115.14 309.173" stroke="white" stroke-width="2.5" stroke-linecap="round" stroke-linejoin="round"/>
<path opacity="0.4" d="M1108.76 377.215C1117.6 377.215 1124.76 370.052 1124.76 361.215C1124.76 352.378 1117.6 345.215 1108.76 345.215C1099.92 345.215 1092.76 352.378 1092.76 361.215C1092.76 370.052 1099.92 377.215 1108.76 377.215Z" fill="#A0A3BD"/>
<path d="M1108.76 424.794C1117.6 424.794 1124.76 417.631 1124.76 408.794C1124.76 399.957 1117.6 392.794 1108.76 392.794C1099.92 392.794 1092.76 399.957 1092.76 408.794C1092.76 417.631 1099.92 424.794 1108.76 424.794Z" fill="#1B7DC5"/>
<path d="M1102.09 409.46L1106.09 413.462L1115.43 404.125" stroke="white" stroke-width="2.5" stroke-linecap="round" stroke-linejoin="round"/>
<path opacity="0.4" d="M1108.76 468.438C1117.6 468.438 1124.76 461.275 1124.76 452.438C1124.76 443.602 1117.6 436.438 1108.76 436.438C1099.92 436.438 1092.76 443.602 1092.76 452.438C1092.76 461.275 1099.92 468.438 1108.76 468.438Z" fill="#A0A3BD"/>
<g filter="url(#filter6_d_1_5)">
<rect x="98.7598" y="148.494" width="254.79" height="319.856" rx="26.6913" fill="#FF0000" fill-opacity="0.01"/>
</g>
<rect x="90" y="135.405" width="272.309" height="341.848" rx="28.5265" fill="white"/>
<rect x="173.756" y="181.179" width="104.798" height="13.406" rx="6.70301" fill="#A0A3BD"/>
<rect opacity="0.15" x="116.193" y="259.142" width="29.5847" height="29.5847" rx="6" fill="#A0A3BD"/>
<rect opacity="0.15" x="163.777" y="259.142" width="29.5847" height="29.5847" rx="6" fill="#A0A3BD"/>
<rect opacity="0.15" x="211.361" y="259.142" width="29.5847" height="29.5847" rx="6" fill="#A0A3BD"/>
<rect opacity="0.15" x="258.945" y="259.142" width="29.5847" height="29.5847" rx="6" fill="#A0A3BD"/>
<rect opacity="0.15" x="306.529" y="259.142" width="29.5847" height="29.5847" rx="6" fill="#A0A3BD"/>
<rect opacity="0.15" x="116.193" y="306.725" width="29.5847" height="29.5847" rx="6" fill="#A0A3BD"/>
<rect opacity="0.15" x="163.777" y="306.725" width="29.5847" height="29.5847" rx="6" fill="#A0A3BD"/>
<rect opacity="0.15" x="211.361" y="306.725" width="29.5847" height="29.5847" rx="6" fill="#A0A3BD"/>
<rect opacity="0.15" x="258.945" y="306.725" width="29.5847" height="29.5847" rx="6" fill="#A0A3BD"/>
<rect opacity="0.15" x="306.529" y="306.725" width="29.5847" height="29.5847" rx="6" fill="#A0A3BD"/>
<rect opacity="0.15" x="116.193" y="354.31" width="29.5847" height="29.5847" rx="6" fill="#A0A3BD"/>
<rect opacity="0.15" x="163.777" y="354.31" width="29.5847" height="29.5847" rx="6" fill="#A0A3BD"/>
<g filter="url(#filter7_d_1_5)">
<rect x="211.361" y="354.31" width="29.5847" height="29.5847" rx="6" fill="#FF0000" fill-opacity="0.01" shape-rendering="crispEdges"/>
</g>
<rect x="211.361" y="354.31" width="29.5847" height="29.5847" rx="6" fill="#1B7DC5"/>
<rect opacity="0.15" x="258.945" y="354.31" width="29.5847" height="29.5847" rx="6" fill="#A0A3BD"/>
<rect opacity="0.15" x="306.529" y="354.31" width="29.5847" height="29.5847" rx="6" fill="#A0A3BD"/>
<rect opacity="0.15" x="116.193" y="401.895" width="29.5847" height="29.5847" rx="6" fill="#A0A3BD"/>
<rect opacity="0.15" x="163.777" y="401.895" width="29.5847" height="29.5847" rx="6" fill="#A0A3BD"/>
<rect opacity="0.15" x="211.361" y="401.895" width="29.5847" height="29.5847" rx="6" fill="#A0A3BD"/>
<rect opacity="0.15" x="258.945" y="401.895" width="29.5847" height="29.5847" rx="6" fill="#A0A3BD"/>
<rect opacity="0.15" x="306.529" y="401.895" width="29.5847" height="29.5847" rx="6" fill="#A0A3BD"/>
<rect x="114.451" y="222.207" width="33.071" height="12.9342" rx="6.46709" fill="#CFD0DD"/>
<rect x="162.037" y="222.207" width="33.071" height="12.9342" rx="6.46709" fill="#CFD0DD"/>
<rect x="209.619" y="222.207" width="33.071" height="12.9342" rx="6.46709" fill="#CFD0DD"/>
<rect x="257.205" y="222.207" width="33.071" height="12.9342" rx="6.46709" fill="#CFD0DD"/>
<rect x="304.787" y="222.207" width="33.071" height="12.9342" rx="6.46709" fill="#CFD0DD"/>
<defs>
<filter id="filter0_d_1_5" x="515.286" y="100.347" width="410.919" height="114.414" filterUnits="userSpaceOnUse" color-interpolation-filters="sRGB">
<feFlood flood-opacity="0" result="BackgroundImageFix"/>
<feColorMatrix in="SourceAlpha" type="matrix" values="0 0 0 0 0 0 0 0 0 0 0 0 0 0 0 0 0 0 127 0" result="hardAlpha"/>
<feOffset dy="5.18"/>
<feGaussianBlur stdDeviation="5.83"/>
<feColorMatrix type="matrix" values="0 0 0 0 0.124574 0 0 0 0 0.141235 0 0 0 0 0.541097 0 0 0 0.1 0"/>
<feBlend mode="normal" in2="BackgroundImageFix" result="effect1_dropShadow_1_5"/>
<feBlend mode="normal" in="SourceGraphic" in2="effect1_dropShadow_1_5" result="shape"/>
</filter>
<filter id="filter1_d_1_5" x="520.286" y="226.574" width="400.919" height="105.447" filterUnits="userSpaceOnUse" color-interpolation-filters="sRGB">
<feFlood flood-opacity="0" result="BackgroundImageFix"/>
<feColorMatrix in="SourceAlpha" type="matrix" values="0 0 0 0 0 0 0 0 0 0 0 0 0 0 0 0 0 0 127 0" result="hardAlpha"/>
<feOffset dy="7.18"/>
<feGaussianBlur stdDeviation="3.33"/>
<feColorMatrix type="matrix" values="0 0 0 0 0.124574 0 0 0 0 0.141235 0 0 0 0 0.541097 0 0 0 0.1 0"/>
<feBlend mode="normal" in2="BackgroundImageFix" result="effect1_dropShadow_1_5"/>
<feBlend mode="normal" in="SourceGraphic" in2="effect1_dropShadow_1_5" result="shape"/>
</filter>
<filter id="filter2_d_1_5" x="520.286" y="346.84" width="400.919" height="105.003" filterUnits="userSpaceOnUse" color-interpolation-filters="sRGB">
<feFlood flood-opacity="0" result="BackgroundImageFix"/>
<feColorMatrix in="SourceAlpha" type="matrix" values="0 0 0 0 0 0 0 0 0 0 0 0 0 0 0 0 0 0 127 0" result="hardAlpha"/>
<feOffset dy="7.18"/>
<feGaussianBlur stdDeviation="3.33"/>
<feColorMatrix type="matrix" values="0 0 0 0 0.124574 0 0 0 0 0.141235 0 0 0 0 0.541097 0 0 0 0.1 0"/>
<feBlend mode="normal" in2="BackgroundImageFix" result="effect1_dropShadow_1_5"/>
<feBlend mode="normal" in="SourceGraphic" in2="effect1_dropShadow_1_5" result="shape"/>
</filter>
<filter id="filter3_d_1_5" x="520.286" y="466.646" width="400.919" height="105.188" filterUnits="userSpaceOnUse" color-interpolation-filters="sRGB">
<feFlood flood-opacity="0" result="BackgroundImageFix"/>
<feColorMatrix in="SourceAlpha" type="matrix" values="0 0 0 0 0 0 0 0 0 0 0 0 0 0 0 0 0 0 127 0" result="hardAlpha"/>
<feOffset dy="7.18"/>
<feGaussianBlur stdDeviation="3.33"/>
<feColorMatrix type="matrix" values="0 0 0 0 0.124574 0 0 0 0 0.141235 0 0 0 0 0.541097 0 0 0 0.1 0"/>
<feBlend mode="normal" in2="BackgroundImageFix" result="effect1_dropShadow_1_5"/>
<feBlend mode="normal" in="SourceGraphic" in2="effect1_dropShadow_1_5" result="shape"/>
</filter>
<filter id="filter4_d_1_5" x="951.252" y="101.981" width="244.605" height="479.617" filterUnits="userSpaceOnUse" color-interpolation-filters="sRGB">
<feFlood flood-opacity="0" result="BackgroundImageFix"/>
<feColorMatrix in="SourceAlpha" type="matrix" values="0 0 0 0 0 0 0 0 0 0 0 0 0 0 0 0 0 0 127 0" result="hardAlpha"/>
<feOffset dy="7.18"/>
<feGaussianBlur stdDeviation="5.83"/>
<feColorMatrix type="matrix" values="0 0 0 0 0.124574 0 0 0 0 0.141235 0 0 0 0 0.541097 0 0 0 0.1 0"/>
<feBlend mode="normal" in2="BackgroundImageFix" result="effect1_dropShadow_1_5"/>
<feBlend mode="normal" in="SourceGraphic" in2="effect1_dropShadow_1_5" result="shape"/>
</filter>
<filter id="filter5_d_1_5" x="969.524" y="160.479" width="451.954" height="482.72" filterUnits="userSpaceOnUse" color-interpolation-filters="sRGB">
<feFlood flood-opacity="0" result="BackgroundImageFix"/>
<feColorMatrix in="SourceAlpha" type="matrix" values="0 0 0 0 0 0 0 0 0 0 0 0 0 0 0 0 0 0 127 0" result="hardAlpha"/>
<feOffset dy="38.7553"/>
<feGaussianBlur stdDeviation="49.291"/>
<feColorMatrix type="matrix" values="0 0 0 0 0.124574 0 0 0 0 0.141235 0 0 0 0 0.541097 0 0 0 0.09 0"/>
<feBlend mode="normal" in2="BackgroundImageFix" result="effect1_dropShadow_1_5"/>
<feBlend mode="normal" in="SourceGraphic" in2="effect1_dropShadow_1_5" result="shape"/>
</filter>
<filter id="filter6_d_1_5" x="0.177734" y="88.6674" width="451.954" height="517.02" filterUnits="userSpaceOnUse" color-interpolation-filters="sRGB">
<feFlood flood-opacity="0" result="BackgroundImageFix"/>
<feColorMatrix in="SourceAlpha" type="matrix" values="0 0 0 0 0 0 0 0 0 0 0 0 0 0 0 0 0 0 127 0" result="hardAlpha"/>
<feOffset dy="38.7553"/>
<feGaussianBlur stdDeviation="49.291"/>
<feColorMatrix type="matrix" values="0 0 0 0 0.124574 0 0 0 0 0.141235 0 0 0 0 0.541097 0 0 0 0.09 0"/>
<feBlend mode="normal" in2="BackgroundImageFix" result="effect1_dropShadow_1_5"/>
<feBlend mode="normal" in="SourceGraphic" in2="effect1_dropShadow_1_5" result="shape"/>
</filter>
<filter id="filter7_d_1_5" x="199.361" y="346.31" width="53.5845" height="53.5845" filterUnits="userSpaceOnUse" color-interpolation-filters="sRGB">
<feFlood flood-opacity="0" result="BackgroundImageFix"/>
<feColorMatrix in="SourceAlpha" type="matrix" values="0 0 0 0 0 0 0 0 0 0 0 0 0 0 0 0 0 0 127 0" result="hardAlpha"/>
<feOffset dy="4"/>
<feGaussianBlur stdDeviation="6"/>
<feComposite in2="hardAlpha" operator="out"/>
<feColorMatrix type="matrix" values="0 0 0 0 0.290196 0 0 0 0 0.227451 0 0 0 0 1 0 0 0 0.16 0"/>
<feBlend mode="normal" in2="BackgroundImageFix" result="effect1_dropShadow_1_5"/>
<feBlend mode="normal" in="SourceGraphic" in2="effect1_dropShadow_1_5" result="shape"/>
</filter>
</defs>
</svg>
