<svg width="1321" height="863" viewBox="0 0 1321 863" fill="none" xmlns="http://www.w3.org/2000/svg">
<path d="M21 612.5V573.5L40 573L37.5 476L16.5 460.5L54.5 451.5L57 414L71 395L90.5 406H109C128.5 351 143.924 329.849 189 325L192 297L195 325C239.304 333.394 257.249 346.072 266.5 395L333 391V374.5H344.5V312.5C364.354 230.548 393.753 201.135 477.5 177V147.5C477.5 147.5 473.5 148 472 143.5C470.5 139 477.5 137.5 477.5 137.5C477.75 125.606 480.427 120.311 491 114C490.014 103.74 487.781 96.5576 495 87L497.5 0.5L504.5 87C510.27 97.0982 509.213 104.157 508 114C519.425 118.772 523.707 123.577 528.5 135C528.5 135 534.5 135.5 534.5 139C534.5 142.5 532 143.5 532 143.5V173C621.735 201.614 653.296 232.403 677.5 312.5V346.5C684.853 340.361 689.413 339.2 698 339.5C716.056 345.69 720.521 351.188 721.5 363.5V391H735.5L744 380L747.5 360L766 354.5C767.621 347.452 769.909 345.045 776 343L779 325L782 343C789.994 345.93 793.009 349.128 793.5 360L813 368.5L845.5 403V414.5L850 425.5L868.5 431C869 423.962 872.483 421.964 880.5 419.5C890.157 425.775 893.121 431.04 895.5 442.5V472L914 484L952 489V524.5L959.5 525.5L978 529.5C978 521 986.98 511.957 996.5 513.5C1008 516 1012.81 523.738 1012 541L1047 556C1054.32 544.193 1059.16 539.253 1070 535.5C1070.23 528.614 1072.52 526.503 1080 525.5L1082.5 505L1088 525.5C1096.5 525.5 1098.11 526.989 1101.5 535.5L1116.5 551H1125.5L1130.5 541L1136 556C1150.2 557.627 1154.8 564.403 1159 583.5L1188 597V612.5L1200 620V626H1222.5V571L1218.5 566V517.5H1225.5V489H1222.5V484H1228.5C1228.43 471.879 1230.61 467.583 1239 465C1247.41 467.846 1250.04 471.569 1249 484H1253.5V489H1259V521H1270L1280 528V551L1284 559.5V651L1321 661.5L1317 863H0.5V612.5H21Z" fill="#D9D9D9" fill-opacity="0.8"/>
<path d="M1018.5 714V609.5L1078 624.5V717.5L1018.5 714Z" fill="white" fill-opacity="0.5"/>
<path d="M906 712.5V583L965.5 600.5V714.5L906 712.5Z" fill="white" fill-opacity="0.5"/>
<path d="M1096 719V626L1155.5 641V725.5L1096 719Z" fill="white" fill-opacity="0.5"/>
<path d="M1282.5 733V667.5L1319.5 680V735L1282.5 733Z" fill="white" fill-opacity="0.5"/>
<circle cx="555" cy="431" r="44" fill="white" fill-opacity="0.6"/>
<path d="M700.5 863H418.5L420.5 719.5C420.5 649.5 477.567 616.178 557.5 607.5C641.738 612.907 695.5 649.5 700.5 725V863Z" fill="white" fill-opacity="0.5"/>
<path d="M449 731H450.572C452.024 666.601 495.27 647.998 557.44 641C621.631 645.272 663.786 661.643 668.712 731H669V736.037C668.925 734.328 668.829 732.649 668.712 731H450.572C450.568 731.196 450.564 731.392 450.56 731.588L449 731Z" fill="white" fill-opacity="0.5"/>
<path d="M325 718L228 715.816L228.688 601.529C228.688 540 248.318 526.317 275.812 520C304.788 523.936 325 538 325 605.533V718Z" fill="white" fill-opacity="0.5"/>
<path d="M835 718L738 715.816L738.688 601.529C738.688 540 758.318 526.317 785.812 520C814.788 523.936 835 538 835 605.533V718Z" fill="white" fill-opacity="0.5"/>
<path d="M468 285.5L345 312.5V344L468 326H608L670.5 353.5L677 345V315L607 286L468 285.5Z" fill="white" fill-opacity="0.5"/>
<rect x="451" y="755" width="218" height="108" fill="white" fill-opacity="0.5"/>
</svg>
