<svg width="2184" height="870" viewBox="0 0 2184 870" fill="none" xmlns="http://www.w3.org/2000/svg">
<path d="M297.5 612.5V573.5L316.5 573L314 476L293 460.5L331 451.5L333.5 414C334.424 401.733 336.813 396.853 347.5 395C360.06 394.584 363.651 397.638 367 406H374.5C394 351 417.424 329.849 462.5 325L465.5 297L471.5 325C515.804 333.394 533.749 346.072 543 395L609.5 391V374.5H621V312.5C640.854 230.548 670.253 201.135 754 177L753.5 149C753.5 149 748.429 149 748 143C747.571 137 753.5 136.5 753.5 136.5C753.75 124.606 756.927 120.311 767.5 114C766.514 103.74 764.281 96.5576 771.5 87L774 0.5L781 87C786.77 97.0982 785.713 104.157 784.5 114C795.925 118.772 800.207 123.577 805 135C805 135 812 135.5 812 142C812 148.5 808 149.5 808 149.5L808.5 173C898.235 201.614 929.796 232.403 954 312.5V346.5C961.353 340.361 965.913 339.2 974.5 339.5C992.556 345.69 997.021 351.188 998 363.5V391H1012L1020.5 380L1024 360L1042.5 354.5C1044.12 347.452 1046.41 345.045 1052.5 343L1055.5 325L1058.5 343C1066.49 345.93 1069.51 349.128 1070 360L1089.5 368.5L1122 403V414.5L1126.5 425.5L1145 431C1145.5 423.962 1148.98 421.964 1157 419.5C1166.66 425.775 1169.62 431.04 1172 442.5V472L1190.5 484L1228.5 489V524.5L1236 525.5L1254.5 529.5C1254.5 521 1263.48 511.957 1273 513.5C1284.5 516 1289.31 523.738 1288.5 541L1323.5 556C1330.82 544.193 1335.66 539.253 1346.5 535.5C1346.73 528.614 1349.02 526.503 1356.5 525.5C1356.5 525.5 1359.5 505 1360 504.5C1360.5 504 1364.5 525.5 1364.5 525.5C1373 525.5 1374.61 526.989 1378 535.5L1393 551H1402L1407 541L1412.5 556C1426.7 557.627 1431.3 564.403 1435.5 583.5L1464.5 597V612.5L1476.5 620V626H1499V571L1495 566V517.5H1502V489H1499V484H1505C1504.93 471.879 1507.11 467.583 1515.5 465C1523.91 467.846 1526.54 471.569 1525.5 484H1530V489H1535.5V521H1546.5L1556.5 528V551L1560.5 559.5V651L1981.5 798L2184 870H0V709.5L297.5 612.5Z" fill="#D9D9D9" fill-opacity="0.8"/>
<path d="M1295 714V609.5L1354.5 624.5V717.5L1295 714Z" fill="white" fill-opacity="0.5"/>
<path d="M1182.5 712.5V583L1242 600.5V714.5L1182.5 712.5Z" fill="white" fill-opacity="0.5"/>
<path d="M1372.5 719V626L1432 641V725.5L1372.5 719Z" fill="white" fill-opacity="0.5"/>
<path d="M1559 733V667.5L1596 680V735L1559 733Z" fill="white" fill-opacity="0.5"/>
<path d="M830.797 344L998 434L629 430.17L830.797 344Z" fill="white" fill-opacity="0.35"/>
<path d="M836 363L966.5 433.5L678.5 430.5L836 363Z" fill="white" fill-opacity="0.2"/>
<circle cx="831.5" cy="432" r="44" fill="#F8F8F8"/>
<path d="M977 863H695L697 719.5C697 649.5 754.067 616.178 834 607.5C918.238 612.907 972 649.5 977 725V863Z" fill="white" fill-opacity="0.5"/>
<path d="M725.5 731H727.072C728.524 666.601 771.77 647.998 833.94 641C898.131 645.272 940.286 661.643 945.212 731H945.5V736.037C945.425 734.328 945.329 732.649 945.212 731H727.072C727.068 731.196 727.064 731.392 727.06 731.588L725.5 731Z" fill="white" fill-opacity="0.5"/>
<path d="M601.5 718H505.188V601.529C505.188 540 524.818 526.317 552.312 520C581.288 523.936 601.5 538 601.5 605.533V718Z" fill="white" fill-opacity="0.5"/>
<path d="M434 676L383.104 646.912L350 641.897V591.243C350 540.59 361.472 517.336 387.477 511C414.883 514.948 434 529.055 434 596.793L434 676Z" fill="white" fill-opacity="0.5"/>
<path d="M1099 715L1013 712.816L1013.61 598.529C1013.61 537 1031.01 523.317 1055.39 517C1081.08 520.936 1099 535 1099 602.533V715Z" fill="white" fill-opacity="0.5"/>
<path d="M744.5 285.5L621.5 312.5V344L744.5 326H884.5L947 353.5L953.5 345V315L883.5 286L744.5 285.5Z" fill="white" fill-opacity="0.5"/>
<rect x="727.5" y="755" width="218" height="108" fill="white" fill-opacity="0.5"/>
</svg>
