<svg width="47" height="42" viewBox="0 0 47 42" fill="none" xmlns="http://www.w3.org/2000/svg">
<path d="M34.7865 2.93928V12.3351L23.5573 18.7518V5.68928L31.5781 1.10595C32.9531 0.418449 34.7865 1.33512 34.7865 2.93928ZM1.78647 24.9393L9.8073 29.5227L21.0365 23.106L9.8073 16.6893L1.78647 21.2727C0.182302 22.1893 0.182302 24.2518 1.78647 24.9393ZM37.3073 39.1477V29.7518L26.0781 23.3352V36.3977L34.099 40.981C35.474 41.6685 37.3073 40.7518 37.3073 39.1477Z" fill="#349DEB"/>
<path opacity="0.3" d="M15.5364 1.10595L23.5573 5.68928V18.7518L12.3281 12.3351V2.93928C12.3281 1.33512 14.1614 0.418449 15.5364 1.10595ZM13.0156 40.981L21.0365 36.3977V23.3352L9.80728 29.7518V39.1477C9.80728 40.7518 11.6406 41.6685 13.0156 40.981ZM45.3281 21.2727L37.3073 16.6893L26.0781 23.106L37.3073 29.5227L45.3281 24.9393C46.9323 24.2518 46.9323 22.1893 45.3281 21.2727Z" fill="#349DEB"/>
</svg>
