<svg width="356" height="96" viewBox="0 0 356 96" fill="none" xmlns="http://www.w3.org/2000/svg">
<path d="M42.1753 8.37252C43.3809 2.6722 48.9889 -0.973549 54.7012 0.229518L95.7734 8.87976C101.486 10.0828 105.139 15.6791 103.933 21.3795L95.2651 62.3657C94.0595 68.0661 88.4515 71.7118 82.7392 70.5087L41.667 61.8585C35.9547 60.6554 32.3013 55.0591 33.5069 49.3588L42.1753 8.37252Z" fill="#ACEBCF"/>
<path d="M0.93741 47.4789C-1.46293 42.1682 0.905409 35.9212 6.22725 33.5259L48.6228 14.444C53.9447 12.0486 60.2047 14.412 62.6051 19.7227L81.7271 62.0296C84.1274 67.3403 81.7591 73.5873 76.4372 75.9826L34.0416 95.0645C28.7198 97.4599 22.4597 95.0965 20.0594 89.7858L0.93741 47.4789Z" fill="#FFCCDE"/>
<path d="M12.4083 24.7945C12.5071 16.4724 19.3478 9.80593 27.6874 9.90456L72.9878 10.4403C81.3274 10.5389 88.0078 17.3653 87.909 25.6874L87.3721 70.8931C87.2733 79.2152 80.4326 85.8817 72.093 85.7831L26.7926 85.2473C18.453 85.1487 11.7726 78.3223 11.8714 70.0002L12.4083 24.7945Z" fill="#4A54F5"/>
<path d="M57.2628 30.1155L47.1206 64.013C46.7248 65.2992 45.4224 66.0431 44.1336 65.6482C42.8447 65.2533 42.0992 63.9537 42.495 62.6675L52.6372 28.7699C53.0329 27.4837 54.3353 26.7398 55.6242 27.1347C56.913 27.5296 57.6585 28.8293 57.2628 30.1155ZM65.1021 36.3587L73.5222 44.9626C74.5004 45.8854 74.4815 47.4797 73.4816 48.3791L64.8596 56.7815C63.9349 57.7577 62.3372 57.7388 61.436 56.741C60.4577 55.8183 60.4767 54.2239 61.4765 53.3245L68.3289 46.5717L61.6379 39.7346C60.6597 38.8119 60.6786 37.2175 61.6785 36.3182C62.6032 35.342 64.2009 35.3609 65.1021 36.3587ZM38.2812 39.4584L31.4298 46.1353L38.1198 53.0483C39.0981 53.9711 39.0791 55.5654 38.0793 56.4648C37.1546 57.441 35.5569 57.4221 34.6556 56.4243L26.2356 47.8203C25.2574 46.8976 25.2763 45.3032 26.2762 44.4039L34.8982 36.0015C35.8229 35.0253 37.4205 35.0442 38.3218 36.0419C39.3 36.9647 39.2811 38.559 38.2812 39.4584Z" fill="white"/>
<path d="M130.412 67.3714C126.295 67.3714 122.686 66.5439 119.586 64.8888C116.486 63.1851 114.088 60.8486 112.393 57.8793C110.698 54.8614 109.85 51.4053 109.85 47.5111V15.3112H120.022V46.4159C120.022 50.018 120.87 52.8656 122.565 54.9587C124.309 57.0032 126.924 58.0254 130.412 58.0254C133.899 58.0254 136.49 57.0032 138.186 54.9587C139.929 52.8656 140.801 50.018 140.801 46.4159V15.3112H150.973V47.5111C150.973 51.4053 150.125 54.8614 148.43 57.8793C146.735 60.8486 144.337 63.1851 141.237 64.8888C138.186 66.5439 134.577 67.3714 130.412 67.3714Z" fill="#4A54F5"/>
<path d="M156.821 66.4222V28.4541H166.484V34.0032C168.47 29.7197 172.32 27.5779 178.036 27.5779C180.748 27.5779 183.194 28.2107 185.374 29.4763C187.554 30.7419 189.273 32.5429 190.532 34.8794C191.792 37.2159 192.421 39.9905 192.421 43.2032V66.4222H182.613V45.6127C182.613 42.3027 181.862 39.9175 180.361 38.4572C178.859 36.9482 176.898 36.1937 174.476 36.1937C172.393 36.1937 170.552 36.9482 168.954 38.4572C167.404 39.9175 166.629 42.3027 166.629 45.6127V66.4222H156.821Z" fill="#4A54F5"/>
<path d="M202.77 25.3144C201.123 25.3144 199.718 24.7546 198.556 23.635C197.442 22.4668 196.885 21.0795 196.885 19.4731C196.885 17.9155 197.442 16.5769 198.556 15.4573C199.718 14.289 201.123 13.7049 202.77 13.7049C204.465 13.7049 205.87 14.289 206.984 15.4573C208.098 16.5769 208.655 17.9155 208.655 19.4731C208.655 21.1282 208.098 22.5155 206.984 23.635C205.87 24.7546 204.465 25.3144 202.77 25.3144ZM197.902 66.4222V28.4541H207.71V66.4222H197.902Z" fill="#4A54F5"/>
<path d="M214.238 66.4222V15.3112H231.384C237.1 15.3112 241.58 16.6742 244.826 19.4001C248.119 22.0774 249.766 26.0932 249.766 31.4477C249.766 36.8508 248.119 40.9397 244.826 43.7143C241.58 46.4889 237.1 47.8762 231.384 47.8762H224.409V66.4222H214.238ZM224.409 38.6762H230.803C233.564 38.6762 235.695 38.0921 237.197 36.9239C238.698 35.7556 239.449 33.9546 239.449 31.5207C239.449 29.0869 238.698 27.3101 237.197 26.1906C235.695 25.0223 233.564 24.4382 230.803 24.4382H224.409V38.6762Z" fill="#4A54F5"/>
<path d="M258.254 25.3144C256.607 25.3144 255.203 24.7546 254.04 23.635C252.926 22.4668 252.369 21.0795 252.369 19.4731C252.369 17.9155 252.926 16.5769 254.04 15.4573C255.203 14.289 256.607 13.7049 258.254 13.7049C259.949 13.7049 261.354 14.289 262.468 15.4573C263.582 16.5769 264.139 17.9155 264.139 19.4731C264.139 21.1282 263.582 22.5155 262.468 23.635C261.354 24.7546 259.949 25.3144 258.254 25.3144ZM253.386 66.4222V28.4541H263.195V66.4222H253.386Z" fill="#4A54F5"/>
<path d="M265.363 66.4222L279.531 47.4381L266.09 28.4541H277.787L285.488 40.5016L293.48 28.4541H304.96L291.519 47.5841L305.686 66.4222H293.771L285.561 54.3016L277.06 66.4222H265.363Z" fill="#4A54F5"/>
<path d="M322.705 67.3714C318.83 67.3714 315.415 66.4708 312.46 64.6698C309.506 62.8687 307.205 60.4836 305.558 57.5143C303.96 54.4963 303.161 51.1619 303.161 47.5111C303.161 43.8603 304.008 40.526 305.704 37.508C307.399 34.4413 309.7 32.0075 312.606 30.2064C315.56 28.4054 318.927 27.5049 322.705 27.5049C326.483 27.5049 329.801 28.4054 332.658 30.2064C335.565 32.0075 337.817 34.4413 339.415 37.508C341.062 40.526 341.886 43.8603 341.886 47.5111C341.886 48.0466 341.861 48.6064 341.813 49.1905C341.765 49.7746 341.692 50.3831 341.595 51.0159H313.332C313.865 53.255 314.931 55.0804 316.529 56.492C318.176 57.9037 320.234 58.6095 322.705 58.6095C324.836 58.6095 326.677 58.1227 328.227 57.1492C329.825 56.1756 331.06 54.9587 331.932 53.4984L339.561 59.2666C338.059 61.6518 335.807 63.5989 332.804 65.1079C329.801 66.6169 326.434 67.3714 322.705 67.3714ZM322.559 35.9747C320.234 35.9747 318.249 36.6805 316.602 38.0921C314.955 39.5037 313.865 41.3535 313.332 43.6413H332.005C331.472 41.5482 330.358 39.7471 328.662 38.2381C327.016 36.7292 324.981 35.9747 322.559 35.9747Z" fill="#4A54F5"/>
<path d="M346.192 66.4222V13.1208H356V66.4222H346.192Z" fill="#4A54F5"/>
<path d="M117.627 74.0597V75.1963H114.497V84.7654H112.997V75.1963H109.85V74.0597H117.627Z" fill="#4A54F5"/>
<path d="M120.973 77.7153C121.236 77.234 121.61 76.8603 122.093 76.594C122.587 76.3278 123.186 76.1947 123.889 76.1947V77.6385H123.494C121.813 77.6385 120.973 78.4884 120.973 80.1882V84.7654H119.473V76.3483H120.973V77.7153Z" fill="#4A54F5"/>
<path d="M125.06 80.5261C125.06 79.666 125.246 78.9134 125.62 78.2683C125.993 77.6129 126.504 77.106 127.152 76.7476C127.811 76.3892 128.542 76.21 129.344 76.21C130.135 76.21 130.821 76.3688 131.403 76.6862C131.986 77.0036 132.419 77.403 132.705 77.8843V76.3483H134.221V84.7654H132.705V83.1987C132.408 83.6902 131.964 84.0998 131.37 84.4275C130.788 84.7449 130.107 84.9037 129.327 84.9037C128.525 84.9037 127.8 84.7193 127.152 84.3507C126.504 83.9821 125.993 83.465 125.62 82.7994C125.246 82.1338 125.06 81.376 125.06 80.5261ZM132.705 80.5415C132.705 79.9066 132.568 79.3537 132.293 78.8826C132.018 78.4116 131.645 78.0532 131.173 77.8075C130.711 77.5515 130.2 77.4235 129.64 77.4235C129.08 77.4235 128.569 77.5463 128.108 77.7921C127.647 78.0379 127.279 78.3963 127.004 78.8673C126.729 79.3383 126.592 79.8913 126.592 80.5261C126.592 81.1712 126.729 81.7344 127.004 82.2157C127.279 82.6867 127.647 83.0502 128.108 83.3062C128.569 83.552 129.08 83.6749 129.64 83.6749C130.2 83.6749 130.711 83.552 131.173 83.3062C131.645 83.0502 132.018 82.6867 132.293 82.2157C132.568 81.7344 132.705 81.1764 132.705 80.5415Z" fill="#4A54F5"/>
<path d="M136.195 80.5415C136.195 79.6711 136.381 78.9134 136.755 78.2683C137.128 77.6129 137.645 77.106 138.304 76.7476C138.974 76.3892 139.737 76.21 140.594 76.21C141.703 76.21 142.615 76.4609 143.329 76.9627C144.054 77.4644 144.532 78.1607 144.763 79.0516H143.148C142.994 78.5396 142.692 78.1351 142.242 77.8382C141.802 77.5412 141.253 77.3927 140.594 77.3927C139.737 77.3927 139.045 77.6692 138.518 78.2222C137.991 78.7649 137.727 79.538 137.727 80.5415C137.727 81.5552 137.991 82.3386 138.518 82.8915C139.045 83.4445 139.737 83.721 140.594 83.721C141.253 83.721 141.802 83.5776 142.242 83.2909C142.681 83.0042 142.983 82.5946 143.148 82.0621H144.763C144.521 82.9223 144.038 83.6134 143.313 84.1357C142.588 84.6477 141.681 84.9037 140.594 84.9037C139.737 84.9037 138.974 84.7245 138.304 84.3661C137.645 84.0077 137.128 83.5008 136.755 82.8455C136.381 82.1901 136.195 81.4221 136.195 80.5415Z" fill="#4A54F5"/>
<path d="M151.805 84.7654L148.263 81.0484V84.7654H146.763V73.3992H148.263V80.0807L151.739 76.3483H153.832L149.581 80.5415L153.848 84.7654H151.805Z" fill="#4A54F5"/>
<path d="M163.277 84.8729C162.519 84.8729 161.838 84.7501 161.234 84.5043C160.641 84.2483 160.174 83.9002 159.834 83.4598C159.493 83.0093 159.317 82.4922 159.306 81.9085H160.905C160.96 82.4103 161.179 82.8352 161.564 83.1834C161.959 83.5213 162.53 83.6902 163.277 83.6902C163.991 83.6902 164.552 83.5264 164.958 83.1987C165.375 82.8608 165.584 82.4307 165.584 81.9085C165.584 81.4989 165.463 81.1661 165.222 80.9101C164.98 80.6541 164.678 80.4596 164.315 80.3265C163.953 80.1933 163.464 80.05 162.849 79.8964C162.091 79.7121 161.481 79.5278 161.02 79.3434C160.57 79.1591 160.18 78.8724 159.85 78.4833C159.532 78.0839 159.372 77.5515 159.372 76.8859C159.372 76.3022 159.532 75.7851 159.85 75.3345C160.169 74.884 160.614 74.5358 161.185 74.2901C161.767 74.0443 162.432 73.9214 163.179 73.9214C164.255 73.9214 165.134 74.1723 165.815 74.6741C166.507 75.1758 166.897 75.8414 166.985 76.6708H165.337C165.282 76.2612 165.051 75.9029 164.645 75.5957C164.239 75.2782 163.7 75.1195 163.03 75.1195C162.404 75.1195 161.893 75.2731 161.498 75.5803C161.102 75.8773 160.905 76.2971 160.905 76.8398C160.905 77.2289 161.02 77.5463 161.251 77.7921C161.492 78.0379 161.783 78.2273 162.124 78.3604C162.476 78.4833 162.964 78.6266 163.59 78.7905C164.348 78.985 164.958 79.1796 165.419 79.3742C165.881 79.5585 166.276 79.8503 166.606 80.2497C166.935 80.6388 167.1 81.1712 167.1 81.8471C167.1 82.3693 166.952 82.8608 166.655 83.3216C166.359 83.7824 165.919 84.1562 165.337 84.4429C164.755 84.7296 164.068 84.8729 163.277 84.8729Z" fill="#4A54F5"/>
<path d="M180.165 76.1947C180.868 76.1947 181.494 76.3329 182.043 76.6094C182.593 76.8756 183.027 77.2801 183.345 77.8228C183.664 78.3655 183.823 79.026 183.823 79.8042V84.7654H182.34V80.0039C182.34 79.1642 182.115 78.5242 181.664 78.0839C181.225 77.6334 180.626 77.4081 179.868 77.4081C179.088 77.4081 178.468 77.6436 178.007 78.1147C177.545 78.5754 177.314 79.2462 177.314 80.1268V84.7654H175.832V80.0039C175.832 79.1642 175.606 78.5242 175.156 78.0839C174.717 77.6334 174.118 77.4081 173.36 77.4081C172.58 77.4081 171.959 77.6436 171.498 78.1147C171.037 78.5754 170.806 79.2462 170.806 80.1268V84.7654H169.307V76.3483H170.806V77.5617C171.103 77.1214 171.498 76.7835 171.992 76.548C172.498 76.3124 173.052 76.1947 173.657 76.1947C174.414 76.1947 175.085 76.3534 175.667 76.6708C176.249 76.9883 176.683 77.4542 176.968 78.0686C177.221 77.4747 177.639 77.0139 178.221 76.6862C178.803 76.3585 179.451 76.1947 180.165 76.1947Z" fill="#4A54F5"/>
<path d="M185.722 80.5261C185.722 79.666 185.909 78.9134 186.282 78.2683C186.656 77.6129 187.167 77.106 187.815 76.7476C188.474 76.3892 189.204 76.21 190.006 76.21C190.797 76.21 191.484 76.3688 192.066 76.6862C192.648 77.0036 193.082 77.403 193.368 77.8843V76.3483H194.884V84.7654H193.368V83.1987C193.071 83.6902 192.626 84.0998 192.033 84.4275C191.451 84.7449 190.77 84.9037 189.99 84.9037C189.188 84.9037 188.463 84.7193 187.815 84.3507C187.167 83.9821 186.656 83.465 186.282 82.7994C185.909 82.1338 185.722 81.376 185.722 80.5261ZM193.368 80.5415C193.368 79.9066 193.23 79.3537 192.956 78.8826C192.681 78.4116 192.308 78.0532 191.835 77.8075C191.374 77.5515 190.863 77.4235 190.303 77.4235C189.743 77.4235 189.232 77.5463 188.771 77.7921C188.309 78.0379 187.941 78.3963 187.667 78.8673C187.392 79.3383 187.255 79.8913 187.255 80.5261C187.255 81.1712 187.392 81.7344 187.667 82.2157C187.941 82.6867 188.309 83.0502 188.771 83.3062C189.232 83.552 189.743 83.6749 190.303 83.6749C190.863 83.6749 191.374 83.552 191.835 83.3062C192.308 83.0502 192.681 82.6867 192.956 82.2157C193.23 81.7344 193.368 81.1764 193.368 80.5415Z" fill="#4A54F5"/>
<path d="M198.917 77.7153C199.18 77.234 199.554 76.8603 200.037 76.594C200.532 76.3278 201.13 76.1947 201.833 76.1947V77.6385H201.438C199.757 77.6385 198.917 78.4884 198.917 80.1882V84.7654H197.417V76.3483H198.917V77.7153Z" fill="#4A54F5"/>
<path d="M205.393 77.5003V82.4615C205.393 82.8711 205.486 83.1629 205.673 83.337C205.86 83.5008 206.184 83.5827 206.645 83.5827H207.749V84.7654H206.398C205.563 84.7654 204.937 84.5862 204.52 84.2278C204.102 83.8694 203.894 83.2806 203.894 82.4615V77.5003H202.724V76.3483H203.894V74.2286H205.393V76.3483H207.749V77.5003H205.393Z" fill="#4A54F5"/>
<path d="M217.805 80.2343C217.805 80.5005 217.788 80.7821 217.755 81.0791H210.538C210.593 81.9085 210.895 82.5587 211.444 83.0298C212.005 83.4906 212.68 83.721 213.471 83.721C214.119 83.721 214.657 83.5827 215.086 83.3062C215.525 83.0195 215.833 82.6407 216.009 82.1696H217.623C217.382 82.9786 216.898 83.639 216.173 84.151C215.448 84.6528 214.548 84.9037 213.471 84.9037C212.614 84.9037 211.845 84.7245 211.164 84.3661C210.494 84.0077 209.967 83.5008 209.582 82.8455C209.198 82.1799 209.006 81.4119 209.006 80.5415C209.006 79.6711 209.193 78.9082 209.566 78.2529C209.939 77.5975 210.461 77.0958 211.131 76.7476C211.812 76.3892 212.592 76.21 213.471 76.21C214.328 76.21 215.086 76.3841 215.745 76.7323C216.404 77.0804 216.909 77.5617 217.261 78.1761C217.623 78.7802 217.805 79.4663 217.805 80.2343ZM216.256 79.9425C216.256 79.41 216.129 78.9543 215.877 78.5754C215.624 78.1863 215.278 77.8945 214.839 77.6999C214.41 77.4951 213.932 77.3927 213.405 77.3927C212.647 77.3927 211.999 77.618 211.461 78.0686C210.934 78.5191 210.632 79.1438 210.555 79.9425H216.256Z" fill="#4A54F5"/>
<path d="M221.283 77.7153C221.547 77.234 221.92 76.8603 222.404 76.594C222.898 76.3278 223.497 76.1947 224.2 76.1947V77.6385H223.804C222.123 77.6385 221.283 78.4884 221.283 80.1882V84.7654H219.784V76.3483H221.283V77.7153Z" fill="#4A54F5"/>
<path d="M227.479 82.8301L225.634 86.9619H224.629L225.832 82.8301H227.479Z" fill="#4A54F5"/>
<path d="M245.239 74.1365V84.7654H243.74V76.8398L239.95 84.7654H238.895L235.089 76.8244V84.7654H233.59V74.1365H235.204L239.423 82.9223L243.641 74.1365H245.239Z" fill="#4A54F5"/>
<path d="M256.02 80.2343C256.02 80.5005 256.004 80.7821 255.971 81.0791H248.754C248.809 81.9085 249.111 82.5587 249.66 83.0298C250.22 83.4906 250.896 83.721 251.687 83.721C252.335 83.721 252.873 83.5827 253.302 83.3062C253.741 83.0195 254.049 82.6407 254.224 82.1696H255.839C255.597 82.9786 255.114 83.639 254.389 84.151C253.664 84.6528 252.763 84.9037 251.687 84.9037C250.83 84.9037 250.061 84.7245 249.38 84.3661C248.71 84.0077 248.183 83.5008 247.798 82.8455C247.414 82.1799 247.222 81.4119 247.222 80.5415C247.222 79.6711 247.408 78.9082 247.782 78.2529C248.155 77.5975 248.677 77.0958 249.347 76.7476C250.028 76.3892 250.808 76.21 251.687 76.21C252.544 76.21 253.302 76.3841 253.961 76.7323C254.62 77.0804 255.125 77.5617 255.477 78.1761C255.839 78.7802 256.02 79.4663 256.02 80.2343ZM254.472 79.9425C254.472 79.41 254.345 78.9543 254.093 78.5754C253.84 78.1863 253.494 77.8945 253.055 77.6999C252.626 77.4951 252.148 77.3927 251.621 77.3927C250.863 77.3927 250.215 77.618 249.677 78.0686C249.149 78.5191 248.847 79.1438 248.77 79.9425H254.472Z" fill="#4A54F5"/>
<path d="M257.439 80.5261C257.439 79.666 257.626 78.9134 258 78.2683C258.373 77.6129 258.884 77.106 259.532 76.7476C260.191 76.3892 260.921 76.21 261.723 76.21C262.514 76.21 263.201 76.3688 263.783 76.6862C264.365 77.0036 264.799 77.403 265.085 77.8843V76.3483H266.601V84.7654H265.085V83.1987C264.788 83.6902 264.343 84.0998 263.75 84.4275C263.168 84.7449 262.487 84.9037 261.707 84.9037C260.905 84.9037 260.18 84.7193 259.532 84.3507C258.884 83.9821 258.373 83.465 258 82.7994C257.626 82.1338 257.439 81.376 257.439 80.5261ZM265.085 80.5415C265.085 79.9066 264.947 79.3537 264.673 78.8826C264.398 78.4116 264.025 78.0532 263.552 77.8075C263.091 77.5515 262.58 77.4235 262.02 77.4235C261.46 77.4235 260.949 77.5463 260.488 77.7921C260.026 78.0379 259.658 78.3963 259.384 78.8673C259.109 79.3383 258.972 79.8913 258.972 80.5261C258.972 81.1712 259.109 81.7344 259.384 82.2157C259.658 82.6867 260.026 83.0502 260.488 83.3062C260.949 83.552 261.46 83.6749 262.02 83.6749C262.58 83.6749 263.091 83.552 263.552 83.3062C264.025 83.0502 264.398 82.6867 264.673 82.2157C264.947 81.7344 265.085 81.1764 265.085 80.5415Z" fill="#4A54F5"/>
<path d="M272.331 84.9037C271.639 84.9037 271.018 84.7961 270.469 84.5811C269.92 84.3558 269.486 84.0486 269.167 83.6595C268.849 83.2602 268.673 82.8045 268.64 82.2925H270.189C270.233 82.7123 270.442 83.0554 270.815 83.3216C271.2 83.5878 271.699 83.721 272.315 83.721C272.886 83.721 273.336 83.6032 273.666 83.3677C273.995 83.1322 274.16 82.8352 274.16 82.4768C274.16 82.1082 273.984 81.8368 273.633 81.6628C273.281 81.4784 272.737 81.2992 272.001 81.1252C271.331 80.9613 270.782 80.7975 270.354 80.6337C269.936 80.4596 269.574 80.2087 269.266 79.881C268.97 79.5431 268.821 79.1028 268.821 78.5601C268.821 78.13 268.959 77.7358 269.233 77.3774C269.508 77.019 269.898 76.7374 270.403 76.5326C270.908 76.3176 271.485 76.21 272.133 76.21C273.133 76.21 273.94 76.4456 274.555 76.9166C275.171 77.3876 275.5 78.0327 275.544 78.8519H274.045C274.012 78.4116 273.819 78.0583 273.468 77.7921C273.127 77.5259 272.666 77.3927 272.084 77.3927C271.546 77.3927 271.117 77.5003 270.799 77.7153C270.48 77.9303 270.321 78.2119 270.321 78.5601C270.321 78.8366 270.414 79.067 270.601 79.2513C270.799 79.4254 271.04 79.5687 271.326 79.6813C271.622 79.7837 272.029 79.9015 272.545 80.0346C273.193 80.1985 273.721 80.3623 274.127 80.5261C274.533 80.6797 274.879 80.9152 275.165 81.2327C275.462 81.5501 275.615 81.9648 275.626 82.4768C275.626 82.9376 275.489 83.3523 275.215 83.721C274.94 84.0896 274.55 84.3814 274.045 84.5965C273.55 84.8013 272.979 84.9037 272.331 84.9037Z" fill="#4A54F5"/>
<path d="M285.751 76.3483V84.7654H284.252V83.5213C283.966 83.9514 283.565 84.2893 283.049 84.535C282.543 84.7705 281.983 84.8883 281.368 84.8883C280.665 84.8883 280.033 84.7552 279.473 84.4889C278.913 84.2125 278.468 83.8029 278.139 83.2602C277.82 82.7175 277.661 82.057 277.661 81.2788V76.3483H279.144V81.0944C279.144 81.9239 279.369 82.5639 279.819 83.0144C280.27 83.4547 280.885 83.6749 281.665 83.6749C282.466 83.6749 283.098 83.4445 283.559 82.9837C284.021 82.5229 284.252 81.8522 284.252 80.9716V76.3483H285.751Z" fill="#4A54F5"/>
<path d="M289.782 77.7153C290.046 77.234 290.419 76.8603 290.902 76.594C291.397 76.3278 291.995 76.1947 292.698 76.1947V77.6385H292.303C290.622 77.6385 289.782 78.4884 289.782 80.1882V84.7654H288.283V76.3483H289.782V77.7153Z" fill="#4A54F5"/>
<path d="M302.668 80.2343C302.668 80.5005 302.651 80.7821 302.618 81.0791H295.401C295.456 81.9085 295.758 82.5587 296.308 83.0298C296.868 83.4906 297.543 83.721 298.334 83.721C298.982 83.721 299.521 83.5827 299.949 83.3062C300.389 83.0195 300.696 82.6407 300.872 82.1696H302.487C302.245 82.9786 301.762 83.639 301.037 84.151C300.312 84.6528 299.411 84.9037 298.334 84.9037C297.478 84.9037 296.709 84.7245 296.028 84.3661C295.358 84.0077 294.83 83.5008 294.446 82.8455C294.061 82.1799 293.869 81.4119 293.869 80.5415C293.869 79.6711 294.056 78.9082 294.429 78.2529C294.803 77.5975 295.325 77.0958 295.995 76.7476C296.676 76.3892 297.456 76.21 298.334 76.21C299.191 76.21 299.949 76.3841 300.608 76.7323C301.267 77.0804 301.773 77.5617 302.124 78.1761C302.487 78.7802 302.668 79.4663 302.668 80.2343ZM301.119 79.9425C301.119 79.41 300.993 78.9543 300.74 78.5754C300.487 78.1863 300.141 77.8945 299.702 77.6999C299.274 77.4951 298.796 77.3927 298.268 77.3927C297.511 77.3927 296.862 77.618 296.324 78.0686C295.797 78.5191 295.495 79.1438 295.418 79.9425H301.119Z" fill="#4A54F5"/>
<path d="M314.79 79.2513C315.208 79.3127 315.587 79.4714 315.927 79.7274C316.279 79.9834 316.553 80.3009 316.751 80.6797C316.96 81.0586 317.064 81.4631 317.064 81.8932C317.064 82.4359 316.916 82.9274 316.619 83.3677C316.323 83.7978 315.889 84.1408 315.318 84.3968C314.757 84.6425 314.093 84.7654 313.324 84.7654H309.04V74.0597H313.159C313.939 74.0597 314.604 74.1826 315.153 74.4283C315.702 74.6638 316.114 74.9864 316.389 75.396C316.663 75.8056 316.801 76.2664 316.801 76.7784C316.801 77.4132 316.614 77.9406 316.24 78.3604C315.878 78.77 315.394 79.067 314.79 79.2513ZM310.539 78.683H313.06C313.763 78.683 314.307 78.5294 314.691 78.2222C315.076 77.915 315.268 77.49 315.268 76.9473C315.268 76.4046 315.076 75.9796 314.691 75.6725C314.307 75.3653 313.752 75.2117 313.027 75.2117H310.539V78.683ZM313.192 83.6134C313.939 83.6134 314.521 83.4496 314.939 83.1219C315.356 82.7943 315.565 82.3386 315.565 81.7549C315.565 81.161 315.345 80.6951 314.906 80.3572C314.466 80.009 313.879 79.8349 313.143 79.8349H310.539V83.6134H313.192Z" fill="#4A54F5"/>
<path d="M327.383 80.2343C327.383 80.5005 327.367 80.7821 327.334 81.0791H320.117C320.172 81.9085 320.474 82.5587 321.023 83.0298C321.584 83.4906 322.259 83.721 323.05 83.721C323.698 83.721 324.236 83.5827 324.665 83.3062C325.104 83.0195 325.412 82.6407 325.587 82.1696H327.202C326.961 82.9786 326.477 83.639 325.752 84.151C325.027 84.6528 324.126 84.9037 323.05 84.9037C322.193 84.9037 321.424 84.7245 320.743 84.3661C320.073 84.0077 319.546 83.5008 319.161 82.8455C318.777 82.1799 318.585 81.4119 318.585 80.5415C318.585 79.6711 318.771 78.9082 319.145 78.2529C319.518 77.5975 320.04 77.0958 320.71 76.7476C321.391 76.3892 322.171 76.21 323.05 76.21C323.907 76.21 324.665 76.3841 325.324 76.7323C325.983 77.0804 326.488 77.5617 326.84 78.1761C327.202 78.7802 327.383 79.4663 327.383 80.2343ZM325.835 79.9425C325.835 79.41 325.708 78.9543 325.456 78.5754C325.203 78.1863 324.857 77.8945 324.418 77.6999C323.989 77.4951 323.511 77.3927 322.984 77.3927C322.226 77.3927 321.578 77.618 321.04 78.0686C320.513 78.5191 320.21 79.1438 320.134 79.9425H325.835Z" fill="#4A54F5"/>
<path d="M331.192 77.5003V82.4615C331.192 82.8711 331.285 83.1629 331.472 83.337C331.658 83.5008 331.982 83.5827 332.444 83.5827H333.548V84.7654H332.197C331.362 84.7654 330.736 84.5862 330.318 84.2278C329.901 83.8694 329.692 83.2806 329.692 82.4615V77.5003H328.522V76.3483H329.692V74.2286H331.192V76.3483H333.548V77.5003H331.192Z" fill="#4A54F5"/>
<path d="M337.193 77.5003V82.4615C337.193 82.8711 337.287 83.1629 337.474 83.337C337.66 83.5008 337.984 83.5827 338.446 83.5827H339.55V84.7654H338.199C337.364 84.7654 336.738 84.5862 336.32 84.2278C335.903 83.8694 335.694 83.2806 335.694 82.4615V77.5003H334.524V76.3483H335.694V74.2286H337.193V76.3483H339.55V77.5003H337.193Z" fill="#4A54F5"/>
<path d="M349.605 80.2343C349.605 80.5005 349.588 80.7821 349.556 81.0791H342.339C342.393 81.9085 342.696 82.5587 343.245 83.0298C343.805 83.4906 344.481 83.721 345.272 83.721C345.92 83.721 346.458 83.5827 346.886 83.3062C347.326 83.0195 347.633 82.6407 347.809 82.1696H349.424C349.182 82.9786 348.699 83.639 347.974 84.151C347.249 84.6528 346.348 84.9037 345.272 84.9037C344.415 84.9037 343.646 84.7245 342.965 84.3661C342.295 84.0077 341.767 83.5008 341.383 82.8455C340.998 82.1799 340.806 81.4119 340.806 80.5415C340.806 79.6711 340.993 78.9082 341.366 78.2529C341.74 77.5975 342.262 77.0958 342.932 76.7476C343.613 76.3892 344.393 76.21 345.272 76.21C346.128 76.21 346.886 76.3841 347.545 76.7323C348.204 77.0804 348.71 77.5617 349.061 78.1761C349.424 78.7802 349.605 79.4663 349.605 80.2343ZM348.056 79.9425C348.056 79.41 347.93 78.9543 347.677 78.5754C347.424 78.1863 347.078 77.8945 346.639 77.6999C346.211 77.4951 345.733 77.3927 345.206 77.3927C344.448 77.3927 343.8 77.618 343.261 78.0686C342.734 78.5191 342.432 79.1438 342.355 79.9425H348.056Z" fill="#4A54F5"/>
<path d="M353.084 77.7153C353.347 77.234 353.721 76.8603 354.204 76.594C354.698 76.3278 355.297 76.1947 356 76.1947V77.6385H355.605C353.924 77.6385 353.084 78.4884 353.084 80.1882V84.7654H351.584V76.3483H353.084V77.7153Z" fill="#4A54F5"/>
</svg>
