<svg width="303" height="66" viewBox="0 0 303 66" fill="none" xmlns="http://www.w3.org/2000/svg">
<path fill-rule="evenodd" clip-rule="evenodd" d="M36.6396 7.94434C37.788 7.94434 38.7964 8.32678 39.5664 9.1377C40.3441 9.9156 40.7002 10.9258 40.7002 12.0645V40.084C40.7002 43.498 39.8329 46.567 38.083 49.2598L38.084 49.2607C36.379 51.9459 33.9958 54.0441 30.9668 55.5586L30.957 55.5635C27.9205 57.0396 24.4671 57.7646 20.6201 57.7646C16.6576 57.7646 13.107 57.0416 9.99219 55.5684L9.98242 55.5635C6.87707 54.0527 4.41495 51.9598 2.62793 49.2793L2.62207 49.2695C0.868226 46.5746 0 43.5019 0 40.084V12.0645C0 10.9768 0.342103 10.0138 1.06738 9.26074L1.21777 9.11328C2.00889 8.33433 2.99751 7.94434 4.12012 7.94434C5.26376 7.94436 6.26827 8.32374 7.03711 9.12793C7.8549 9.89917 8.24023 10.9114 8.24023 12.0645V40.084C8.24023 42.0534 8.74514 43.7725 9.74023 45.2725C10.7902 46.7548 12.2281 47.9462 14.085 48.8389C15.9733 49.6878 18.1451 50.124 20.6201 50.124C23.0176 50.124 25.0852 49.6872 26.8477 48.8428C28.6618 47.9528 30.0352 46.7665 31.0049 45.2939L31.0078 45.29C32.0105 43.7859 32.5195 42.061 32.5195 40.084V12.0645C32.5195 10.9767 32.8624 10.0138 33.5879 9.26074L33.7373 9.11328C34.5284 8.33426 35.5171 7.94442 36.6396 7.94434ZM26.4365 50.1094C26.4729 50.0951 26.5097 50.082 26.5459 50.0674L26.5693 50.0576C26.5254 50.0755 26.4808 50.092 26.4365 50.1094ZM9.375 46.4434C9.40854 46.4846 9.44341 46.5247 9.47754 46.5654C9.43835 46.5186 9.39876 46.4722 9.36035 46.4248L9.375 46.4434ZM33.4902 40.915C33.4729 41.1665 33.4486 41.4146 33.415 41.6592L33.4609 41.2744C33.473 41.1555 33.4819 41.0356 33.4902 40.915Z" fill="#650EE2"/>
<path fill-rule="evenodd" clip-rule="evenodd" d="M199.706 21.7441C202.979 21.7442 205.851 22.48 208.276 23.9961C210.678 25.4568 212.501 27.4987 213.74 30.0967C215.021 32.6582 215.646 35.597 215.646 38.8848C215.645 39.8999 215.288 40.7974 214.573 41.5117L214.544 41.5391C213.815 42.212 212.902 42.5244 211.886 42.5244H190.312C190.539 43.3336 190.858 44.0921 191.271 44.8018C192.18 46.3661 193.431 47.6004 195.04 48.5146C196.631 49.4186 198.477 49.8847 200.605 49.8848C201.723 49.8848 202.871 49.6858 204.053 49.2803C205.31 48.8224 206.271 48.3258 206.966 47.8047L206.975 47.7979C207.714 47.2558 208.539 46.9582 209.431 46.9463L209.609 46.9395C210.439 46.9286 211.201 47.1688 211.854 47.6699L211.992 47.7812L212.008 47.7949C212.834 48.5237 213.366 49.4169 213.425 50.4688C213.486 51.5783 212.965 52.4893 212.087 53.166L212.088 53.167C210.618 54.3345 208.808 55.2642 206.683 55.9727L206.682 55.9717C204.595 56.6805 202.568 57.0439 200.605 57.0439C197.141 57.0439 194.015 56.3128 191.252 54.8252L191.244 54.8203L191.235 54.8154C188.526 53.2915 186.378 51.2092 184.808 48.5771L184.803 48.5684L184.798 48.5605C183.262 45.8726 182.506 42.818 182.506 39.4248C182.506 36.0038 183.216 32.953 184.669 30.3037L184.672 30.2988C186.156 27.6274 188.201 25.5355 190.798 24.043L191.292 23.7637C193.783 22.4107 196.596 21.7441 199.706 21.7441ZM198.183 55.9131C198.2 55.915 198.217 55.9161 198.234 55.918C198.021 55.8947 197.809 55.8686 197.599 55.8389L198.183 55.9131ZM211.466 52.3848C211.546 52.3238 211.621 52.2619 211.69 52.1982L211.704 52.1846C211.63 52.2527 211.551 52.3197 211.466 52.3848ZM199.706 28.9043C197.575 28.9043 195.803 29.3701 194.347 30.2578C192.918 31.1529 191.828 32.3838 191.068 33.9746L191.064 33.9834C190.796 34.5335 190.574 35.1137 190.397 35.7246H207.925C207.741 34.9295 207.481 34.1891 207.146 33.502L207.143 33.4932C206.456 32.0488 205.495 30.9336 204.257 30.1201C203.049 29.3266 201.549 28.9043 199.706 28.9043ZM208.735 34.873C208.742 34.895 208.75 34.9165 208.756 34.9385C208.746 34.9024 208.734 34.8669 208.724 34.8311C208.728 34.845 208.731 34.8591 208.735 34.873ZM189.871 34.2002C189.827 34.3078 189.784 34.4161 189.742 34.5254C189.826 34.3033 189.917 34.085 190.014 33.8701L189.871 34.2002ZM200.612 27.9385C200.556 27.9342 200.499 27.9292 200.441 27.9258L200.419 27.9248C200.484 27.9285 200.548 27.9337 200.612 27.9385Z" fill="#650EE2"/>
<path fill-rule="evenodd" clip-rule="evenodd" d="M65.6035 21.6846C68.5049 21.6846 71.1288 22.3151 73.4492 23.5996C75.8316 24.8557 77.6926 26.7217 79.0225 29.167C80.4016 31.6292 81.0634 34.6035 81.0635 38.0439V52.8047C81.0634 53.9387 80.666 54.9364 79.8711 55.7314C79.102 56.5006 78.1167 56.8642 77.0039 56.8643C75.8908 56.8643 74.9008 56.5016 74.1016 55.7559L74.0762 55.7314L74.0527 55.707C73.3068 54.9078 72.9434 53.9178 72.9434 52.8047V38.0439C72.9433 35.8788 72.5432 34.2086 71.8193 32.9678C71.0762 31.694 70.0851 30.7779 68.8369 30.1885L68.8213 30.1816L68.8066 30.1738C67.5702 29.5379 66.1111 29.2041 64.4033 29.2041C62.8622 29.2041 61.498 29.5156 60.291 30.1191C59.0697 30.7298 58.1235 31.5416 57.4268 32.5518L57.417 32.5654C56.7475 33.5028 56.4033 34.5966 56.4033 35.8848V52.8047C56.4032 53.9178 56.0409 54.9078 55.2949 55.707L55.2832 55.7197L55.2705 55.7314C54.4926 56.5093 53.4825 56.8642 52.3438 56.8643C51.2306 56.8643 50.2407 56.5017 49.4414 55.7559L49.416 55.7314L49.3926 55.707C48.6466 54.9078 48.2833 53.9178 48.2832 52.8047V26.0439C48.2833 24.9054 48.6383 23.895 49.416 23.1172L49.4414 23.0938C50.2407 22.3477 51.2305 21.9844 52.3438 21.9844C53.4825 21.9844 54.4926 22.3393 55.2705 23.1172C55.721 23.5677 56.029 24.0964 56.209 24.6826C56.7655 24.2696 57.3564 23.8899 57.9834 23.5469C60.2639 22.2991 62.8117 21.6846 65.6035 21.6846ZM55.6328 34.0449C55.6212 34.0889 55.6113 34.1334 55.6006 34.1777C55.6138 34.1231 55.627 34.0687 55.6416 34.0146L55.6328 34.0449Z" fill="#650EE2"/>
<path d="M92.042 21.9844C93.1807 21.9844 94.1908 22.3394 94.9688 23.1172C95.7466 23.8951 96.1015 24.9052 96.1016 26.0439V52.7441C96.1016 53.8574 95.7391 54.8472 94.9932 55.6465L94.9814 55.6592L94.9688 55.6719C94.1909 56.4495 93.1806 56.8047 92.042 56.8047C90.9287 56.8047 89.9389 56.4413 89.1396 55.6953L89.1143 55.6719L89.0908 55.6465C88.3449 54.8472 87.9824 53.8573 87.9824 52.7441V26.0439C87.9825 24.9052 88.3374 23.8951 89.1152 23.1172L89.127 23.1055L89.1396 23.0938C89.9389 22.3477 90.9287 21.9844 92.042 21.9844Z" fill="#650EE2"/>
<path fill-rule="evenodd" clip-rule="evenodd" d="M120.407 7.94434C123.559 7.94434 126.393 8.63885 128.882 10.0547C131.365 11.4676 133.299 13.4447 134.667 15.9678C136.077 18.4543 136.768 21.3029 136.768 24.4844C136.768 27.5606 136.071 30.3369 134.653 32.7852L134.652 32.7842C133.28 35.2236 131.347 37.1333 128.87 38.5C126.384 39.8718 123.553 40.5439 120.407 40.5439H112.527V52.6846C112.527 53.8186 112.13 54.8163 111.335 55.6113L111.334 55.6104C110.564 56.4215 109.556 56.8047 108.407 56.8047C107.273 56.8046 106.276 56.4064 105.48 55.6113C104.685 54.8162 104.287 53.8187 104.287 52.6846V12.0645C104.287 10.9766 104.63 10.0138 105.355 9.26074L105.505 9.11328C106.296 8.33426 107.285 7.9444 108.407 7.94434H120.407ZM112.527 32.7842H120.407C122.098 32.7842 123.543 32.4179 124.771 31.7158C126.016 31.0044 126.988 30.033 127.699 28.7881C128.403 27.5562 128.768 26.131 128.768 24.4844C128.768 22.706 128.398 21.1982 127.693 19.9297L127.688 19.9199C126.97 18.5927 125.994 17.5671 124.753 16.8223C123.527 16.0869 122.09 15.7041 120.407 15.7041H112.527V32.7842ZM129.748 25.1631C129.748 25.1589 129.749 25.1546 129.749 25.1504L129.75 25.1289C129.749 25.1403 129.749 25.1517 129.748 25.1631Z" fill="#650EE2"/>
<path d="M143.931 21.9844C145.069 21.9844 146.08 22.3393 146.857 23.1172C147.635 23.8951 147.99 24.9053 147.99 26.0439V52.7441C147.99 53.8573 147.628 54.8472 146.882 55.6465L146.869 55.6592L146.857 55.6719C146.08 56.4496 145.069 56.8046 143.931 56.8047C142.817 56.8047 141.828 56.4413 141.028 55.6953L141.003 55.6719L140.979 55.6465C140.233 54.8472 139.87 53.8574 139.87 52.7441V26.0439C139.87 24.9053 140.225 23.895 141.003 23.1172L141.028 23.0938C141.828 22.3477 142.817 21.9844 143.931 21.9844Z" fill="#650EE2"/>
<path d="M179.256 21.9844C180.363 21.9844 181.348 22.3484 182.022 23.2061C182.619 23.9254 182.874 24.7947 182.835 25.7441C182.835 26.7656 182.455 27.713 181.79 28.5703L173.241 39.7705L182.243 50.543L182.244 50.5439C182.956 51.3982 183.372 52.3584 183.314 53.3994C183.3 54.3479 182.916 55.1713 182.214 55.8193L182.213 55.8184C181.516 56.4991 180.617 56.8046 179.616 56.8047C179.115 56.8047 178.627 56.729 178.159 56.5732C177.569 56.3764 177.085 55.9758 176.688 55.4834L167.955 45.0059L159.639 55.4668L159.613 55.499L159.585 55.5283C158.805 56.3598 157.825 56.8047 156.695 56.8047C155.681 56.8046 154.769 56.4916 154.068 55.791L154.039 55.7617L154.013 55.7305C153.411 55.0191 153.116 54.1664 153.116 53.2246C153.116 52.2287 153.507 51.2982 154.166 50.4502L154.174 50.4404L162.948 39.4463L153.592 28.3691L153.586 28.3623L153.58 28.3545C152.947 27.5755 152.571 26.6997 152.518 25.7402V25.7373C152.466 24.7553 152.728 23.8559 153.353 23.1182C154.035 22.3118 155.014 21.9844 156.096 21.9844C157.321 21.9844 158.374 22.4333 159.143 23.3623L168.167 34.1279L176.236 23.4033L176.246 23.3916L176.255 23.3799C176.639 22.8992 177.107 22.5059 177.674 22.2998C178.169 22.084 178.701 21.9844 179.256 21.9844Z" fill="#650EE2"/>
<path fill-rule="evenodd" clip-rule="evenodd" d="M222.451 7.94434C223.564 7.94434 224.549 8.30808 225.318 9.07715C226.088 9.84635 226.451 10.8314 226.451 11.9443V44.7041C226.451 46.0638 226.709 47.0959 227.155 47.8604C227.591 48.6065 228.023 48.8046 228.451 48.8047H229.951C231.005 48.8047 231.925 49.1844 232.61 49.9707C232.617 49.9782 232.624 49.9857 232.631 49.9932C233.33 50.7615 233.651 51.7267 233.651 52.8047C233.651 54.0283 233.098 55.0371 232.104 55.7695C231.131 56.4867 229.926 56.8047 228.571 56.8047H228.451C226.498 56.8046 224.734 56.2675 223.195 55.1816C221.68 54.1121 220.512 52.6695 219.685 50.8848L219.681 50.877C218.853 49.0471 218.451 46.9821 218.451 44.7041V11.9443C218.451 10.8315 218.815 9.84633 219.584 9.07715C220.353 8.30803 221.338 7.94442 222.451 7.94434ZM226.509 48.7021C226.532 48.7341 226.556 48.7644 226.579 48.7949C226.518 48.7142 226.457 48.6295 226.398 48.5391L226.509 48.7021Z" fill="#650EE2"/>
<path fill-rule="evenodd" clip-rule="evenodd" d="M92.042 8.72461C93.3858 8.72461 94.553 9.22943 95.4912 10.1992L95.6719 10.3789C96.5476 11.2915 97.002 12.4089 97.002 13.6846C97.0019 15.0434 96.4863 16.2344 95.5088 17.2119C94.5603 18.1602 93.3856 18.6445 92.042 18.6445C90.6996 18.6445 89.5145 18.1618 88.5332 17.2295L88.5146 17.2119L88.4971 17.1934C87.5648 16.2121 87.0821 15.0269 87.082 13.6846C87.082 12.3408 87.5661 11.1654 88.5146 10.2168C89.4922 9.23925 90.6831 8.72462 92.042 8.72461ZM88.7959 11.4209C88.7925 11.4256 88.7896 11.4308 88.7861 11.4355L88.9551 11.2168L88.7959 11.4209ZM89.373 10.7793C89.322 10.8262 89.2717 10.8748 89.2217 10.9248L89.373 10.7793C89.424 10.7326 89.4763 10.6872 89.5283 10.6436L89.373 10.7793ZM90.0127 10.292C89.9018 10.3607 89.793 10.4354 89.6865 10.5166L89.8486 10.3994C89.9028 10.3621 89.9575 10.3262 90.0127 10.292Z" fill="#650EE2"/>
<path fill-rule="evenodd" clip-rule="evenodd" d="M143.931 8.72461C145.274 8.7247 146.441 9.22971 147.379 10.1992C148.373 11.1434 148.891 12.3238 148.891 13.6846C148.891 15.0434 148.375 16.2344 147.397 17.2119C146.449 18.1602 145.274 18.6444 143.931 18.6445C142.588 18.6445 141.403 18.1616 140.422 17.2295L140.403 17.2119L140.386 17.1934C139.454 16.2121 138.971 15.0269 138.971 13.6846C138.971 12.3408 139.455 11.1654 140.403 10.2168C141.381 9.23937 142.572 8.72461 143.931 8.72461ZM144.131 17.6396L143.931 17.6445C144.019 17.6445 144.107 17.6409 144.193 17.6357L144.131 17.6396ZM147.891 13.6846C147.891 13.6172 147.889 13.5505 147.886 13.4844C147.885 13.4612 147.882 13.4381 147.881 13.415C147.887 13.5038 147.891 13.5936 147.891 13.6846Z" fill="#650EE2"/>
<path d="M261.708 6.56699C262.857 2.94014 266.729 0.931703 270.356 2.08102L296.433 10.3448C300.06 11.4941 302.068 15.3659 300.919 18.9928L292.655 45.0704C291.506 48.6972 287.634 50.7057 284.007 49.5563L257.93 41.2926C254.303 40.1433 252.294 36.2714 253.444 32.6446L261.708 6.56699Z" fill="#ACEBCF"/>
<path d="M233.832 32.0794C232.268 28.6113 233.829 24.5238 237.319 22.9498L265.119 10.4108C268.609 8.83675 272.706 10.3723 274.27 13.8404L286.732 41.4689C288.296 44.937 286.735 49.0245 283.245 50.5985L255.445 63.1375C251.955 64.7115 247.858 63.176 246.294 59.7079L233.832 32.0794Z" fill="#FFCCDE"/>
<path d="M241.583 17.2663C241.647 11.8315 246.105 7.47799 251.54 7.5424L281.061 7.89227C286.496 7.95668 290.849 12.4146 290.785 17.8494L290.435 47.3709C290.371 52.8056 285.913 57.1591 280.478 57.0947L250.957 56.7449C245.522 56.6805 241.168 52.2225 241.233 46.7878L241.583 17.2663Z" fill="#711FE6"/>
<path d="M270.813 20.7393L264.204 42.8761C263.946 43.716 263.097 44.2018 262.257 43.9439C261.417 43.686 260.931 42.8373 261.189 41.9974L267.799 19.8606C268.057 19.0207 268.905 18.5349 269.745 18.7928C270.585 19.0507 271.071 19.8994 270.813 20.7393ZM275.922 24.8164L281.409 30.4352C282.047 31.0378 282.034 32.079 281.383 32.6664L275.764 38.1535C275.161 38.791 274.12 38.7787 273.533 38.1271C272.895 37.5245 272.908 36.4833 273.559 35.896L278.025 31.4861L273.664 27.0211C273.027 26.4185 273.039 25.3773 273.691 24.79C274.293 24.1525 275.335 24.1648 275.922 24.8164ZM258.443 26.8407L253.978 31.2011L258.338 35.7156C258.976 36.3182 258.963 37.3594 258.312 37.9467C257.709 38.5842 256.668 38.5719 256.081 37.9203L250.593 32.3015C249.956 31.6989 249.968 30.6577 250.62 30.0703L256.239 24.5832C256.841 23.9457 257.882 23.958 258.47 24.6096C259.107 25.2122 259.095 26.2534 258.443 26.8407Z" fill="white"/>
</svg>
