<svg width="72" height="66" viewBox="0 0 72 66" fill="none" xmlns="http://www.w3.org/2000/svg">
<path d="M30.7073 6.56699C31.8566 2.94014 35.7285 0.931703 39.3553 2.08102L65.4329 10.3448C69.0598 11.4941 71.0682 15.3659 69.9189 18.9928L61.6551 45.0704C60.5058 48.6972 56.634 50.7057 53.0071 49.5563L26.9295 41.2926C23.3027 40.1433 21.2943 36.2714 22.4436 32.6446L30.7073 6.56699Z" fill="#ACEBCF"/>
<path d="M2.83234 32.0794C1.26808 28.6113 2.829 24.5238 6.31875 22.9498L34.1193 10.4108C37.6091 8.83675 41.7061 10.3723 43.2704 13.8404L55.7318 41.4689C57.2961 44.937 55.7352 49.0245 52.2454 50.5985L24.4449 63.1375C20.9551 64.7115 16.858 63.176 15.2938 59.7079L2.83234 32.0794Z" fill="#FFCCDE"/>
<path d="M10.5824 17.2663C10.6468 11.8315 15.1047 7.47799 20.5395 7.5424L50.0609 7.89227C55.4957 7.95668 59.8492 12.4146 59.7848 17.8494L59.435 47.3709C59.3705 52.8056 54.9126 57.1591 49.4778 57.0947L19.9564 56.7449C14.5216 56.6805 10.1681 52.2225 10.2325 46.7878L10.5824 17.2663Z" fill="#711FE6"/>
<path d="M39.8129 20.7393L33.2034 42.8761C32.9455 43.716 32.0968 44.2018 31.2569 43.9439C30.4169 43.686 29.9311 42.8373 30.189 41.9974L36.7985 19.8606C37.0564 19.0207 37.9052 18.5349 38.7451 18.7928C39.585 19.0507 40.0708 19.8994 39.8129 20.7393ZM44.9217 24.8164L50.4089 30.4352C51.0464 31.0378 51.034 32.079 50.3824 32.6664L44.7636 38.1535C44.161 38.791 43.1198 38.7787 42.5325 38.1271C41.895 37.5245 41.9074 36.4833 42.559 35.896L47.0245 31.4861L42.6641 27.0211C42.0267 26.4185 42.039 25.3773 42.6906 24.79C43.2932 24.1525 44.3344 24.1648 44.9217 24.8164ZM27.443 26.8407L22.9781 31.2011L27.3378 35.7156C27.9753 36.3182 27.963 37.3594 27.3114 37.9467C26.7088 38.5842 25.6676 38.5719 25.0803 37.9203L19.5931 32.3015C18.9556 31.6989 18.9679 30.6577 19.6195 30.0703L25.2383 24.5832C25.8409 23.9457 26.8821 23.958 27.4694 24.6096C28.1069 25.2122 28.0946 26.2534 27.443 26.8407Z" fill="white"/>
</svg>
