<svg width="236" height="64" viewBox="0 0 236 64" fill="none" xmlns="http://www.w3.org/2000/svg">
<path d="M27.9284 5.5559C28.7267 1.77323 32.4404 -0.646034 36.223 0.152306L63.421 5.8925C67.2037 6.69084 69.6229 10.4045 68.8246 14.1871L63.0844 41.3851C62.2861 45.1678 58.5724 47.587 54.7898 46.7887L27.5918 41.0485C23.8091 40.2502 21.3899 36.5365 22.1882 32.7539L27.9284 5.5559Z" fill="#ACEBCF"/>
<path d="M0.620752 31.5064C-0.968752 27.9823 0.599561 23.8369 4.12367 22.2474L32.198 9.58483C35.7221 7.99533 39.8675 9.56364 41.457 13.0878L54.1195 41.1621C55.709 44.6862 54.1407 48.8316 50.6166 50.4211L22.5423 63.0836C19.0182 64.6731 14.8728 63.1048 13.2833 59.5807L0.620752 31.5064Z" fill="#FFCCDE"/>
<path d="M8.21673 16.4533C8.28217 10.9309 12.8121 6.50709 18.3345 6.57254L48.3324 6.92805C53.8549 6.9935 58.2787 11.5234 58.2132 17.0459L57.8577 47.0437C57.7923 52.5662 53.2624 56.99 47.7399 56.9245L17.742 56.569C12.2195 56.5036 7.79577 51.9737 7.86122 46.4512L8.21673 16.4533Z" fill="#4A54F5"/>
<path d="M37.9193 19.9842L31.2032 42.4782C30.9411 43.3317 30.0787 43.8254 29.2252 43.5633C28.3717 43.3013 27.8781 42.4388 28.1401 41.5853L34.8563 19.0913C35.1183 18.2379 35.9808 17.7442 36.8343 18.0063C37.6877 18.2683 38.1814 19.1308 37.9193 19.9842ZM43.1105 24.1271L48.6863 29.8366C49.3341 30.4489 49.3215 31.5069 48.6594 32.1037L42.9499 37.6795C42.3376 38.3273 41.2796 38.3147 40.6828 37.6526C40.035 37.0403 40.0476 35.9823 40.7097 35.3855L45.2473 30.9044L40.8166 26.3674C40.1688 25.7551 40.1813 24.6971 40.8434 24.1003C41.4558 23.4525 42.5137 23.465 43.1105 24.1271ZM25.3498 26.1841L20.8128 30.6148L25.2429 35.2022C25.8907 35.8145 25.8781 36.8725 25.216 37.4693C24.6037 38.1171 23.5457 38.1045 22.9489 37.4424L17.3732 31.733C16.7254 31.1206 16.7379 30.0626 17.4 29.4658L23.1095 23.8901C23.7218 23.2423 24.7798 23.2549 25.3766 23.917C26.0244 24.5293 26.0119 25.5873 25.3498 26.1841Z" fill="white"/>
<path d="M86.3584 44.7068C83.632 44.7068 81.2425 44.1577 79.1897 43.0594C77.1369 41.9289 75.5492 40.3784 74.4266 38.408C73.304 36.4053 72.7427 34.1119 72.7427 31.5278V10.1603H79.4784V30.801C79.4784 33.1913 80.0397 35.0809 81.1623 36.4699C82.317 37.8266 84.049 38.5049 86.3584 38.5049C88.6678 38.5049 90.3838 37.8266 91.5064 36.4699C92.6611 35.0809 93.2384 33.1913 93.2384 30.801V10.1603H99.9741V31.5278C99.9741 34.1119 99.4128 36.4053 98.2902 38.408C97.1675 40.3784 95.5799 41.9289 93.5271 43.0594C91.5064 44.1577 89.1168 44.7068 86.3584 44.7068Z" fill="#4A54F5"/>
<path d="M103.846 44.0769V18.8817H110.245V22.5641C111.56 19.7216 114.11 18.3003 117.895 18.3003C119.691 18.3003 121.311 18.7202 122.754 19.5601C124.198 20.3999 125.336 21.5951 126.17 23.1455C127.004 24.696 127.421 26.5372 127.421 28.6691V44.0769H120.926V30.268C120.926 28.0715 120.429 26.4887 119.435 25.5197C118.44 24.5184 117.141 24.0177 115.538 24.0177C114.158 24.0177 112.94 24.5184 111.881 25.5197C110.855 26.4887 110.341 28.0715 110.341 30.268V44.0769H103.846Z" fill="#4A54F5"/>
<path d="M134.274 16.7983C133.183 16.7983 132.253 16.4268 131.483 15.6839C130.746 14.9087 130.377 13.9881 130.377 12.9221C130.377 11.8885 130.746 11.0002 131.483 10.2573C132.253 9.48202 133.183 9.0944 134.274 9.0944C135.396 9.0944 136.327 9.48202 137.064 10.2573C137.802 11.0002 138.171 11.8885 138.171 12.9221C138.171 14.0204 137.802 14.941 137.064 15.6839C136.327 16.4268 135.396 16.7983 134.274 16.7983ZM131.05 44.0769V18.8817H137.545V44.0769H131.05Z" fill="#4A54F5"/>
<path d="M141.868 44.0769V10.1603H153.222C157.007 10.1603 159.974 11.0648 162.123 12.8737C164.304 14.6503 165.395 17.3151 165.395 20.8683C165.395 24.4538 164.304 27.1671 162.123 29.0083C159.974 30.8494 157.007 31.77 153.222 31.77H148.604V44.0769H141.868ZM148.604 25.6651H152.837C154.666 25.6651 156.077 25.2774 157.071 24.5022C158.066 23.727 158.563 22.5318 158.563 20.9167C158.563 19.3017 158.066 18.1227 157.071 17.3797C156.077 16.6045 154.666 16.2169 152.837 16.2169H148.604V25.6651Z" fill="#4A54F5"/>
<path d="M171.016 16.7983C169.925 16.7983 168.995 16.4268 168.225 15.6839C167.487 14.9087 167.118 13.9881 167.118 12.9221C167.118 11.8885 167.487 11.0002 168.225 10.2573C168.995 9.48202 169.925 9.0944 171.016 9.0944C172.138 9.0944 173.068 9.48202 173.806 10.2573C174.544 11.0002 174.913 11.8885 174.913 12.9221C174.913 14.0204 174.544 14.941 173.806 15.6839C173.068 16.4268 172.138 16.7983 171.016 16.7983ZM167.792 44.0769V18.8817H174.287V44.0769H167.792Z" fill="#4A54F5"/>
<path d="M175.723 44.0769L185.105 31.4793L176.204 18.8817H183.95L189.05 26.8764L194.342 18.8817H201.944L193.043 31.5762L202.425 44.0769H194.535L189.098 36.0338L183.469 44.0769H175.723Z" fill="#4A54F5"/>
<path d="M213.695 44.7068C211.129 44.7068 208.867 44.1092 206.911 42.9141C204.954 41.7189 203.431 40.1361 202.34 38.1657C201.282 36.163 200.753 33.9504 200.753 31.5278C200.753 29.1052 201.314 26.8925 202.436 24.8898C203.559 22.8548 205.083 21.2398 207.007 20.0446C208.964 18.8494 211.193 18.2519 213.695 18.2519C216.196 18.2519 218.394 18.8494 220.286 20.0446C222.21 21.2398 223.702 22.8548 224.76 24.8898C225.851 26.8925 226.396 29.1052 226.396 31.5278C226.396 31.8831 226.38 32.2546 226.348 32.6422C226.316 33.0298 226.268 33.4336 226.204 33.8535H207.488C207.841 35.3394 208.547 36.5507 209.605 37.4874C210.696 38.4241 212.059 38.8925 213.695 38.8925C215.106 38.8925 216.325 38.5695 217.351 37.9235C218.41 37.2774 219.228 36.4699 219.805 35.5009L224.857 39.3286C223.862 40.9114 222.371 42.2034 220.382 43.2048C218.394 44.2061 216.164 44.7068 213.695 44.7068ZM213.598 23.8723C212.059 23.8723 210.744 24.3407 209.653 25.2774C208.563 26.2142 207.841 27.4416 207.488 28.9598H219.853C219.5 27.5708 218.762 26.3757 217.64 25.3743C216.549 24.373 215.202 23.8723 213.598 23.8723Z" fill="#4A54F5"/>
<path d="M229.248 44.0769V8.70678H235.743V44.0769H229.248Z" fill="#4A54F5"/>
<path d="M77.8927 49.1451V49.8993H75.8196V56.2493H74.8267V49.8993H72.7427V49.1451H77.8927Z" fill="#4A54F5"/>
<path d="M80.1079 51.5709C80.2824 51.2515 80.5297 51.0035 80.8498 50.8268C81.1771 50.6502 81.5736 50.5618 82.0391 50.5618V51.5199H81.7773C80.6643 51.5199 80.1079 52.0839 80.1079 53.2119V56.2493H79.1149V50.6637H80.1079V51.5709Z" fill="#4A54F5"/>
<path d="M82.8143 53.4361C82.8143 52.8653 82.938 52.3659 83.1853 51.9378C83.4326 51.5029 83.7709 51.1666 84.2 50.9288C84.6365 50.6909 85.1202 50.572 85.6512 50.572C86.1749 50.572 86.6296 50.6773 87.0151 50.888C87.4006 51.0986 87.6879 51.3636 87.8771 51.683V50.6637H88.8809V56.2493H87.8771V55.2096C87.6807 55.5358 87.3861 55.8076 86.9933 56.025C86.6077 56.2357 86.1567 56.341 85.6403 56.341C85.1093 56.341 84.6292 56.2187 84.2 55.9741C83.7709 55.7294 83.4326 55.3863 83.1853 54.9446C82.938 54.5029 82.8143 54.0001 82.8143 53.4361ZM87.8771 53.4463C87.8771 53.025 87.7861 52.6581 87.6043 52.3455C87.4224 52.0329 87.1751 51.7951 86.8623 51.632C86.5568 51.4622 86.2186 51.3772 85.8476 51.3772C85.4766 51.3772 85.1384 51.4588 84.8329 51.6218C84.5274 51.7849 84.2837 52.0228 84.1018 52.3353C83.92 52.6479 83.829 53.0148 83.829 53.4361C83.829 53.8642 83.92 54.2379 84.1018 54.5573C84.2837 54.8699 84.5274 55.1111 84.8329 55.281C85.1384 55.444 85.4766 55.5256 85.8476 55.5256C86.2186 55.5256 86.5568 55.444 86.8623 55.281C87.1751 55.1111 87.4224 54.8699 87.6043 54.5573C87.7861 54.2379 87.8771 53.8676 87.8771 53.4463Z" fill="#4A54F5"/>
<path d="M90.1878 53.4463C90.1878 52.8687 90.3115 52.3659 90.5588 51.9378C90.8061 51.5029 91.148 51.1666 91.5844 50.9288C92.0282 50.6909 92.5337 50.572 93.1011 50.572C93.8358 50.572 94.4395 50.7385 94.9123 51.0714C95.3924 51.4044 95.7088 51.8665 95.8616 52.4576H94.7923C94.6905 52.1179 94.4904 51.8495 94.1922 51.6524C93.9012 51.4554 93.5375 51.3568 93.1011 51.3568C92.5337 51.3568 92.0754 51.5403 91.7263 51.9072C91.3771 52.2674 91.2026 52.7804 91.2026 53.4463C91.2026 54.119 91.3771 54.6388 91.7263 55.0058C92.0754 55.3727 92.5337 55.5562 93.1011 55.5562C93.5375 55.5562 93.9012 55.461 94.1922 55.2708C94.4832 55.0805 94.6832 54.8087 94.7923 54.4554H95.8616C95.7016 55.0261 95.3815 55.4848 94.9014 55.8314C94.4213 56.1711 93.8212 56.341 93.1011 56.341C92.5337 56.341 92.0282 56.2221 91.5844 55.9842C91.148 55.7464 90.8061 55.4101 90.5588 54.9752C90.3115 54.5403 90.1878 54.0307 90.1878 53.4463Z" fill="#4A54F5"/>
<path d="M100.525 56.2493L98.1794 53.7827V56.2493H97.1864V48.7068H98.1794V53.1405L100.482 50.6637H101.867L99.0522 53.4463L101.878 56.2493H100.525Z" fill="#4A54F5"/>
<path d="M108.122 56.3206C107.62 56.3206 107.169 56.2391 106.769 56.076C106.376 55.9061 106.067 55.6751 105.842 55.3829C105.616 55.0839 105.5 54.7408 105.493 54.3534H106.551C106.587 54.6864 106.733 54.9684 106.987 55.1994C107.249 55.4237 107.627 55.5358 108.122 55.5358C108.595 55.5358 108.966 55.4271 109.235 55.2096C109.511 54.9854 109.65 54.7 109.65 54.3534C109.65 54.0816 109.57 53.8608 109.41 53.6909C109.25 53.5211 109.05 53.3919 108.809 53.3036C108.569 53.2153 108.246 53.1201 107.838 53.0182C107.336 52.8959 106.933 52.7736 106.627 52.6513C106.329 52.529 106.071 52.3387 105.853 52.0805C105.642 51.8155 105.536 51.4622 105.536 51.0205C105.536 50.6332 105.642 50.29 105.853 49.991C106.064 49.6921 106.358 49.461 106.736 49.298C107.122 49.1349 107.562 49.0533 108.057 49.0533C108.769 49.0533 109.351 49.2198 109.802 49.5528C110.261 49.8857 110.519 50.3274 110.577 50.8778H109.486C109.45 50.606 109.297 50.3682 109.028 50.1643C108.759 49.9537 108.402 49.8483 107.958 49.8483C107.544 49.8483 107.206 49.9503 106.944 50.1541C106.682 50.3512 106.551 50.6298 106.551 50.9899C106.551 51.2481 106.627 51.4588 106.78 51.6218C106.94 51.7849 107.133 51.9106 107.358 51.999C107.591 52.0805 107.915 52.1756 108.329 52.2844C108.831 52.4135 109.235 52.5426 109.541 52.6717C109.846 52.794 110.108 52.9876 110.326 53.2526C110.544 53.5109 110.653 53.8642 110.653 54.3127C110.653 54.6592 110.555 54.9854 110.359 55.2912C110.162 55.5969 109.871 55.8449 109.486 56.0352C109.1 56.2255 108.646 56.3206 108.122 56.3206Z" fill="#4A54F5"/>
<path d="M119.305 50.5618C119.771 50.5618 120.185 50.6536 120.549 50.837C120.913 51.0137 121.2 51.2821 121.411 51.6422C121.622 52.0024 121.727 52.4406 121.727 52.9571V56.2493H120.745V53.0896C120.745 52.5324 120.596 52.1077 120.298 51.8155C120.007 51.5165 119.611 51.367 119.109 51.367C118.592 51.367 118.181 51.5233 117.876 51.8359C117.57 52.1417 117.417 52.5867 117.417 53.1711V56.2493H116.435V53.0896C116.435 52.5324 116.286 52.1077 115.988 51.8155C115.697 51.5165 115.301 51.367 114.799 51.367C114.282 51.367 113.871 51.5233 113.566 51.8359C113.26 52.1417 113.108 52.5867 113.108 53.1711V56.2493H112.115V50.6637H113.108V51.469C113.304 51.1768 113.566 50.9525 113.893 50.7962C114.228 50.64 114.595 50.5618 114.995 50.5618C115.497 50.5618 115.941 50.6671 116.326 50.8778C116.712 51.0884 116.999 51.3976 117.188 51.8053C117.356 51.4112 117.632 51.1054 118.018 50.888C118.403 50.6705 118.832 50.5618 119.305 50.5618Z" fill="#4A54F5"/>
<path d="M122.985 53.4361C122.985 52.8653 123.109 52.3659 123.356 51.9378C123.603 51.5029 123.942 51.1666 124.371 50.9288C124.807 50.6909 125.291 50.572 125.822 50.572C126.346 50.572 126.8 50.6773 127.186 50.888C127.571 51.0986 127.859 51.3636 128.048 51.683V50.6637H129.052V56.2493H128.048V55.2096C127.851 55.5358 127.557 55.8076 127.164 56.025C126.778 56.2357 126.327 56.341 125.811 56.341C125.28 56.341 124.8 56.2187 124.371 55.9741C123.942 55.7294 123.603 55.3863 123.356 54.9446C123.109 54.5029 122.985 54.0001 122.985 53.4361ZM128.048 53.4463C128.048 53.025 127.957 52.6581 127.775 52.3455C127.593 52.0329 127.346 51.7951 127.033 51.632C126.728 51.4622 126.389 51.3772 126.018 51.3772C125.647 51.3772 125.309 51.4588 125.004 51.6218C124.698 51.7849 124.454 52.0228 124.273 52.3353C124.091 52.6479 124 53.0148 124 53.4361C124 53.8642 124.091 54.2379 124.273 54.5573C124.454 54.8699 124.698 55.1111 125.004 55.281C125.309 55.444 125.647 55.5256 126.018 55.5256C126.389 55.5256 126.728 55.444 127.033 55.281C127.346 55.1111 127.593 54.8699 127.775 54.5573C127.957 54.2379 128.048 53.8676 128.048 53.4463Z" fill="#4A54F5"/>
<path d="M131.722 51.5709C131.897 51.2515 132.144 51.0035 132.464 50.8268C132.792 50.6502 133.188 50.5618 133.654 50.5618V51.5199H133.392C132.279 51.5199 131.722 52.0839 131.722 53.2119V56.2493H130.73V50.6637H131.722V51.5709Z" fill="#4A54F5"/>
<path d="M136.011 51.4282V54.7204C136.011 54.9922 136.073 55.1858 136.196 55.3013C136.32 55.4101 136.535 55.4644 136.84 55.4644H137.571V56.2493H136.677C136.124 56.2493 135.709 56.1303 135.433 55.8925C135.156 55.6547 135.018 55.264 135.018 54.7204V51.4282H134.243V50.6637H135.018V49.2572H136.011V50.6637H137.571V51.4282H136.011Z" fill="#4A54F5"/>
<path d="M144.23 53.2425C144.23 53.4191 144.219 53.606 144.197 53.803H139.418C139.454 54.3534 139.654 54.7849 140.018 55.0975C140.389 55.4033 140.837 55.5562 141.36 55.5562C141.789 55.5562 142.146 55.4644 142.43 55.281C142.72 55.0907 142.924 54.8393 143.041 54.5267H144.11C143.95 55.0635 143.63 55.5018 143.15 55.8415C142.67 56.1745 142.073 56.341 141.36 56.341C140.793 56.341 140.284 56.2221 139.833 55.9842C139.389 55.7464 139.04 55.4101 138.785 54.9752C138.531 54.5335 138.403 54.0239 138.403 53.4463C138.403 52.8687 138.527 52.3625 138.774 51.9276C139.022 51.4927 139.367 51.1598 139.811 50.9288C140.262 50.6909 140.778 50.572 141.36 50.572C141.928 50.572 142.43 50.6875 142.866 50.9186C143.302 51.1496 143.637 51.469 143.87 51.8767C144.11 52.2776 144.23 52.7328 144.23 53.2425ZM143.204 53.0488C143.204 52.6955 143.121 52.3931 142.953 52.1417C142.786 51.8835 142.557 51.6898 142.266 51.5607C141.982 51.4248 141.666 51.3568 141.317 51.3568C140.815 51.3568 140.386 51.5063 140.029 51.8053C139.68 52.1043 139.48 52.5188 139.429 53.0488H143.204Z" fill="#4A54F5"/>
<path d="M146.533 51.5709C146.708 51.2515 146.955 51.0035 147.275 50.8268C147.603 50.6502 147.999 50.5618 148.465 50.5618V51.5199H148.203C147.09 51.5199 146.533 52.0839 146.533 53.2119V56.2493H145.54V50.6637H146.533V51.5709Z" fill="#4A54F5"/>
<path d="M150.636 54.965L149.414 57.7068H148.749L149.545 54.965H150.636Z" fill="#4A54F5"/>
<path d="M162.397 49.196V56.2493H161.404V50.9899L158.894 56.2493H158.196L155.676 50.9797V56.2493H154.683V49.196H155.752L158.545 55.0261L161.339 49.196H162.397Z" fill="#4A54F5"/>
<path d="M169.536 53.2425C169.536 53.4191 169.525 53.606 169.504 53.803H164.725C164.761 54.3534 164.961 54.7849 165.325 55.0975C165.696 55.4033 166.143 55.5562 166.667 55.5562C167.096 55.5562 167.452 55.4644 167.736 55.281C168.027 55.0907 168.231 54.8393 168.347 54.5267H169.416C169.256 55.0635 168.936 55.5018 168.456 55.8415C167.976 56.1745 167.38 56.341 166.667 56.341C166.099 56.341 165.59 56.2221 165.139 55.9842C164.695 55.7464 164.346 55.4101 164.092 54.9752C163.837 54.5335 163.71 54.0239 163.71 53.4463C163.71 52.8687 163.833 52.3625 164.081 51.9276C164.328 51.4927 164.674 51.1598 165.117 50.9288C165.568 50.6909 166.085 50.572 166.667 50.572C167.234 50.572 167.736 50.6875 168.172 50.9186C168.609 51.1496 168.943 51.469 169.176 51.8767C169.416 52.2776 169.536 52.7328 169.536 53.2425ZM168.511 53.0488C168.511 52.6955 168.427 52.3931 168.26 52.1417C168.092 51.8835 167.863 51.6898 167.572 51.5607C167.289 51.4248 166.972 51.3568 166.623 51.3568C166.121 51.3568 165.692 51.5063 165.336 51.8053C164.986 52.1043 164.786 52.5188 164.735 53.0488H168.511Z" fill="#4A54F5"/>
<path d="M170.476 53.4361C170.476 52.8653 170.6 52.3659 170.847 51.9378C171.094 51.5029 171.433 51.1666 171.862 50.9288C172.298 50.6909 172.782 50.572 173.313 50.572C173.837 50.572 174.291 50.6773 174.677 50.888C175.062 51.0986 175.35 51.3636 175.539 51.683V50.6637H176.543V56.2493H175.539V55.2096C175.342 55.5358 175.048 55.8076 174.655 56.025C174.269 56.2357 173.818 56.341 173.302 56.341C172.771 56.341 172.291 56.2187 171.862 55.9741C171.433 55.7294 171.094 55.3863 170.847 54.9446C170.6 54.5029 170.476 54.0001 170.476 53.4361ZM175.539 53.4463C175.539 53.025 175.448 52.6581 175.266 52.3455C175.084 52.0329 174.837 51.7951 174.524 51.632C174.218 51.4622 173.88 51.3772 173.509 51.3772C173.138 51.3772 172.8 51.4588 172.495 51.6218C172.189 51.7849 171.945 52.0228 171.763 52.3353C171.582 52.6479 171.491 53.0148 171.491 53.4361C171.491 53.8642 171.582 54.2379 171.763 54.5573C171.945 54.8699 172.189 55.1111 172.495 55.281C172.8 55.444 173.138 55.5256 173.509 55.5256C173.88 55.5256 174.218 55.444 174.524 55.281C174.837 55.1111 175.084 54.8699 175.266 54.5573C175.448 54.2379 175.539 53.8676 175.539 53.4463Z" fill="#4A54F5"/>
<path d="M180.337 56.341C179.879 56.341 179.468 56.2696 179.104 56.1269C178.741 55.9775 178.453 55.7736 178.242 55.5154C178.031 55.2504 177.915 54.948 177.893 54.6083H178.919C178.948 54.8868 179.086 55.1145 179.333 55.2912C179.588 55.4678 179.919 55.5562 180.326 55.5562C180.705 55.5562 181.003 55.478 181.221 55.3217C181.439 55.1654 181.548 54.9684 181.548 54.7306C181.548 54.4859 181.432 54.3059 181.199 54.1904C180.966 54.0681 180.606 53.9491 180.119 53.8336C179.675 53.7249 179.312 53.6162 179.028 53.5075C178.751 53.3919 178.511 53.2255 178.308 53.008C178.111 52.7838 178.013 52.4916 178.013 52.1315C178.013 51.8461 178.104 51.5845 178.286 51.3466C178.468 51.1088 178.726 50.922 179.061 50.7861C179.395 50.6434 179.777 50.572 180.206 50.572C180.868 50.572 181.403 50.7283 181.81 51.0409C182.218 51.3534 182.436 51.7815 182.465 52.3251H181.472C181.45 52.0329 181.323 51.7985 181.09 51.6218C180.865 51.4452 180.559 51.3568 180.174 51.3568C179.817 51.3568 179.533 51.4282 179.322 51.5709C179.112 51.7136 179.006 51.9004 179.006 52.1315C179.006 52.3149 179.068 52.4678 179.192 52.5901C179.322 52.7057 179.482 52.8008 179.672 52.8755C179.868 52.9435 180.137 53.0216 180.479 53.11C180.908 53.2187 181.257 53.3274 181.527 53.4361C181.796 53.538 182.025 53.6943 182.214 53.905C182.41 54.1156 182.512 54.3908 182.519 54.7306C182.519 55.0363 182.429 55.3115 182.247 55.5562C182.065 55.8008 181.807 55.9944 181.472 56.1371C181.145 56.273 180.766 56.341 180.337 56.341Z" fill="#4A54F5"/>
<path d="M189.224 50.6637V56.2493H188.231V55.4237C188.042 55.709 187.776 55.9333 187.434 56.0964C187.1 56.2526 186.729 56.3308 186.322 56.3308C185.856 56.3308 185.438 56.2425 185.067 56.0658C184.696 55.8823 184.401 55.6105 184.183 55.2504C183.972 54.8903 183.867 54.452 183.867 53.9355V50.6637H184.849V53.8132C184.849 54.3636 184.998 54.7883 185.296 55.0873C185.594 55.3795 186.001 55.5256 186.518 55.5256C187.049 55.5256 187.467 55.3727 187.773 55.0669C188.078 54.7611 188.231 54.3161 188.231 53.7317V50.6637H189.224Z" fill="#4A54F5"/>
<path d="M191.893 51.5709C192.068 51.2515 192.315 51.0035 192.635 50.8268C192.963 50.6502 193.359 50.5618 193.825 50.5618V51.5199H193.563C192.45 51.5199 191.893 52.0839 191.893 53.2119V56.2493H190.9V50.6637H191.893V51.5709Z" fill="#4A54F5"/>
<path d="M200.426 53.2425C200.426 53.4191 200.415 53.606 200.393 53.803H195.614C195.651 54.3534 195.851 54.7849 196.215 55.0975C196.586 55.4033 197.033 55.5562 197.557 55.5562C197.986 55.5562 198.342 55.4644 198.626 55.281C198.917 55.0907 199.121 54.8393 199.237 54.5267H200.306C200.146 55.0635 199.826 55.5018 199.346 55.8415C198.866 56.1745 198.269 56.341 197.557 56.341C196.989 56.341 196.48 56.2221 196.029 55.9842C195.585 55.7464 195.236 55.4101 194.982 54.9752C194.727 54.5335 194.6 54.0239 194.6 53.4463C194.6 52.8687 194.723 52.3625 194.971 51.9276C195.218 51.4927 195.564 51.1598 196.007 50.9288C196.458 50.6909 196.975 50.572 197.557 50.572C198.124 50.572 198.626 50.6875 199.062 50.9186C199.499 51.1496 199.833 51.469 200.066 51.8767C200.306 52.2776 200.426 52.7328 200.426 53.2425ZM199.401 53.0488C199.401 52.6955 199.317 52.3931 199.15 52.1417C198.982 51.8835 198.753 51.6898 198.462 51.5607C198.179 51.4248 197.862 51.3568 197.513 51.3568C197.011 51.3568 196.582 51.5063 196.225 51.8053C195.876 52.1043 195.676 52.5188 195.625 53.0488H199.401Z" fill="#4A54F5"/>
<path d="M208.454 52.5901C208.73 52.6309 208.981 52.7362 209.207 52.9061C209.439 53.076 209.621 53.2866 209.752 53.538C209.89 53.7895 209.959 54.0579 209.959 54.3433C209.959 54.7034 209.861 55.0295 209.665 55.3217C209.468 55.6071 209.181 55.8348 208.803 56.0046C208.432 56.1677 207.992 56.2493 207.483 56.2493H204.646V49.1451H207.374C207.89 49.1451 208.33 49.2266 208.694 49.3897C209.057 49.546 209.33 49.76 209.512 50.0318C209.694 50.3036 209.785 50.6094 209.785 50.9491C209.785 51.3704 209.661 51.7204 209.414 51.999C209.174 52.2708 208.854 52.4678 208.454 52.5901ZM205.639 52.213H207.308C207.774 52.213 208.134 52.1111 208.388 51.9072C208.643 51.7034 208.77 51.4214 208.77 51.0613C208.77 50.7011 208.643 50.4191 208.388 50.2153C208.134 50.0114 207.766 49.9095 207.286 49.9095H205.639V52.213ZM207.395 55.4848C207.89 55.4848 208.276 55.3761 208.552 55.1587C208.828 54.9412 208.967 54.6388 208.967 54.2515C208.967 53.8574 208.821 53.5482 208.53 53.324C208.239 53.093 207.85 52.9775 207.363 52.9775H205.639V55.4848H207.395Z" fill="#4A54F5"/>
<path d="M216.793 53.2425C216.793 53.4191 216.782 53.606 216.76 53.803H211.981C212.017 54.3534 212.217 54.7849 212.581 55.0975C212.952 55.4033 213.4 55.5562 213.923 55.5562C214.352 55.5562 214.709 55.4644 214.993 55.281C215.283 55.0907 215.487 54.8393 215.604 54.5267H216.673C216.513 55.0635 216.193 55.5018 215.713 55.8415C215.233 56.1745 214.636 56.341 213.923 56.341C213.356 56.341 212.847 56.2221 212.396 55.9842C211.952 55.7464 211.603 55.4101 211.348 54.9752C211.094 54.5335 210.966 54.0239 210.966 53.4463C210.966 52.8687 211.09 52.3625 211.337 51.9276C211.585 51.4927 211.93 51.1598 212.374 50.9288C212.825 50.6909 213.341 50.572 213.923 50.572C214.491 50.572 214.993 50.6875 215.429 50.9186C215.865 51.1496 216.2 51.469 216.433 51.8767C216.673 52.2776 216.793 52.7328 216.793 53.2425ZM215.767 53.0488C215.767 52.6955 215.684 52.3931 215.516 52.1417C215.349 51.8835 215.12 51.6898 214.829 51.5607C214.545 51.4248 214.229 51.3568 213.88 51.3568C213.378 51.3568 212.949 51.5063 212.592 51.8053C212.243 52.1043 212.043 52.5188 211.992 53.0488H215.767Z" fill="#4A54F5"/>
<path d="M219.315 51.4282V54.7204C219.315 54.9922 219.376 55.1858 219.5 55.3013C219.624 55.4101 219.838 55.4644 220.144 55.4644H220.875V56.2493H219.98C219.427 56.2493 219.013 56.1303 218.736 55.8925C218.46 55.6547 218.322 55.264 218.322 54.7204V51.4282H217.547V50.6637H218.322V49.2572H219.315V50.6637H220.875V51.4282H219.315Z" fill="#4A54F5"/>
<path d="M223.289 51.4282V54.7204C223.289 54.9922 223.351 55.1858 223.475 55.3013C223.598 55.4101 223.813 55.4644 224.118 55.4644H224.849V56.2493H223.955C223.402 56.2493 222.987 56.1303 222.711 55.8925C222.434 55.6547 222.296 55.264 222.296 54.7204V51.4282H221.521V50.6637H222.296V49.2572H223.289V50.6637H224.849V51.4282H223.289Z" fill="#4A54F5"/>
<path d="M231.508 53.2425C231.508 53.4191 231.497 53.606 231.475 53.803H226.696C226.732 54.3534 226.933 54.7849 227.296 55.0975C227.667 55.4033 228.115 55.5562 228.638 55.5562C229.067 55.5562 229.424 55.4644 229.708 55.281C229.999 55.0907 230.202 54.8393 230.319 54.5267H231.388C231.228 55.0635 230.908 55.5018 230.428 55.8415C229.948 56.1745 229.351 56.341 228.638 56.341C228.071 56.341 227.562 56.2221 227.111 55.9842C226.667 55.7464 226.318 55.4101 226.063 54.9752C225.809 54.5335 225.681 54.0239 225.681 53.4463C225.681 52.8687 225.805 52.3625 226.052 51.9276C226.3 51.4927 226.645 51.1598 227.089 50.9288C227.54 50.6909 228.056 50.572 228.638 50.572C229.206 50.572 229.708 50.6875 230.144 50.9186C230.58 51.1496 230.915 51.469 231.148 51.8767C231.388 52.2776 231.508 52.7328 231.508 53.2425ZM230.482 53.0488C230.482 52.6955 230.399 52.3931 230.231 52.1417C230.064 51.8835 229.835 51.6898 229.544 51.5607C229.26 51.4248 228.944 51.3568 228.595 51.3568C228.093 51.3568 227.664 51.5063 227.307 51.8053C226.958 52.1043 226.758 52.5188 226.707 53.0488H230.482Z" fill="#4A54F5"/>
<path d="M233.811 51.5709C233.986 51.2515 234.233 51.0035 234.553 50.8268C234.881 50.6502 235.277 50.5618 235.743 50.5618V51.5199H235.481C234.368 51.5199 233.811 52.0839 233.811 53.2119V56.2493H232.819V50.6637H233.811V51.5709Z" fill="#4A54F5"/>
</svg>
