<svg width="431" height="94" viewBox="0 0 431 94" fill="none" xmlns="http://www.w3.org/2000/svg">
<path d="M29.2513 79.1077C23.813 79.1077 18.9979 78.1255 14.8059 76.1611C10.6139 74.1406 7.32822 71.3624 4.94896 67.8265C2.62636 64.2907 1.46506 60.2496 1.46506 55.7035V16.3879C1.46506 15.097 1.88992 14.0587 2.73966 13.2729C3.58939 12.431 4.6374 12.0101 5.88367 12.0101C7.1866 12.0101 8.2346 12.431 9.02769 13.2729C9.87742 14.0587 10.3023 15.097 10.3023 16.3879V55.7035C10.3023 58.7343 11.0954 61.4283 12.6815 63.7855C14.3244 66.0867 16.562 67.9107 19.3944 69.2577C22.2835 70.5486 25.5692 71.194 29.2513 71.194C32.8202 71.194 35.9642 70.5486 38.6834 69.2577C41.4592 67.9107 43.6118 66.0867 45.1414 63.7855C46.7275 61.4283 47.5206 58.7343 47.5206 55.7035V16.3879C47.5206 15.097 47.9455 14.0587 48.7952 13.2729C49.6449 12.431 50.6929 12.0101 51.9392 12.0101C53.2421 12.0101 54.2902 12.431 55.0832 13.2729C55.8763 14.0587 56.2729 15.097 56.2729 16.3879V55.7035C56.2729 60.2496 55.1116 64.2907 52.789 67.8265C50.523 71.3624 47.3507 74.1406 43.2719 76.1611C39.1932 78.1255 34.5197 79.1077 29.2513 79.1077Z" fill="white"/>
<path d="M109.103 77.8449C107.857 77.8449 106.809 77.452 105.959 76.6662C105.166 75.8244 104.769 74.7861 104.769 73.5513V52.8411C104.769 49.642 104.175 47.0322 102.985 45.0117C101.795 42.9912 100.181 41.5039 98.1415 40.5497C96.1588 39.5395 93.8645 39.0343 91.2586 39.0343C88.8794 39.0343 86.7267 39.5114 84.8007 40.4655C82.8746 41.4197 81.3451 42.7105 80.2121 44.3382C79.0791 45.9097 78.5126 47.7337 78.5126 49.8104H73.1593C73.1593 46.2745 74.0091 43.1315 75.7085 40.3814C77.4646 37.5751 79.8439 35.3582 82.8463 33.7305C85.8487 32.1029 89.2193 31.2891 92.9581 31.2891C96.8669 31.2891 100.351 32.131 103.41 33.8147C106.526 35.4423 108.961 37.8557 110.718 41.0549C112.53 44.254 113.437 48.1827 113.437 52.8411V73.5513C113.437 74.7861 113.012 75.8244 112.162 76.6662C111.369 77.452 110.349 77.8449 109.103 77.8449ZM74.179 77.8449C72.9327 77.8449 71.8847 77.452 71.035 76.6662C70.2419 75.8244 69.8454 74.7861 69.8454 73.5513V36.0036C69.8454 34.7127 70.2419 33.6744 71.035 32.8886C71.8847 32.1029 72.9327 31.71 74.179 31.71C75.4819 31.71 76.5299 32.1029 77.323 32.8886C78.1161 33.6744 78.5126 34.7127 78.5126 36.0036V73.5513C78.5126 74.7861 78.1161 75.8244 77.323 76.6662C76.5299 77.452 75.4819 77.8449 74.179 77.8449Z" fill="white"/>
<path d="M130.401 77.7607C129.155 77.7607 128.107 77.3678 127.257 76.5821C126.464 75.7402 126.067 74.7019 126.067 73.4671V36.0036C126.067 34.7127 126.464 33.6744 127.257 32.8886C128.107 32.1029 129.155 31.71 130.401 31.71C131.704 31.71 132.752 32.1029 133.545 32.8886C134.338 33.6744 134.734 34.7127 134.734 36.0036V73.4671C134.734 74.7019 134.338 75.7402 133.545 76.5821C132.752 77.3678 131.704 77.7607 130.401 77.7607ZM130.401 24.2173C128.871 24.2173 127.54 23.6841 126.407 22.6178C125.331 21.4952 124.793 20.1763 124.793 18.6609C124.793 17.1456 125.331 15.8547 126.407 14.7883C127.54 13.6658 128.871 13.1045 130.401 13.1045C131.93 13.1045 133.233 13.6658 134.31 14.7883C135.443 15.8547 136.009 17.1456 136.009 18.6609C136.009 20.1763 135.443 21.4952 134.31 22.6178C133.233 23.6841 131.93 24.2173 130.401 24.2173Z" fill="white"/>
<path d="M153.578 77.7607C152.332 77.7607 151.284 77.3397 150.434 76.4979C149.584 75.656 149.159 74.6177 149.159 73.3829V16.3879C149.159 15.097 149.584 14.0587 150.434 13.2729C151.284 12.431 152.332 12.0101 153.578 12.0101H170.573C174.821 12.0101 178.588 12.9362 181.874 14.7883C185.16 16.6404 187.709 19.2222 189.522 22.5336C191.391 25.7888 192.326 29.5492 192.326 33.8147C192.326 37.9118 191.391 41.56 189.522 44.7591C187.709 47.9582 185.16 50.4558 181.874 52.2518C178.588 54.0478 174.821 54.9458 170.573 54.9458H157.997V73.3829C157.997 74.6177 157.572 75.656 156.722 76.4979C155.929 77.3397 154.881 77.7607 153.578 77.7607ZM157.997 46.8638H170.573C173.178 46.8638 175.473 46.3025 177.455 45.18C179.438 44.0575 180.996 42.5141 182.129 40.5497C183.262 38.5853 183.828 36.3403 183.828 33.8147C183.828 31.1207 183.262 28.7635 182.129 26.7429C180.996 24.6663 179.438 23.0387 177.455 21.8601C175.473 20.6814 173.178 20.0921 170.573 20.0921H157.997V46.8638Z" fill="white"/>
<path d="M203.886 77.7607C202.64 77.7607 201.592 77.3678 200.742 76.5821C199.949 75.7402 199.553 74.7019 199.553 73.4671V36.0036C199.553 34.7127 199.949 33.6744 200.742 32.8886C201.592 32.1029 202.64 31.71 203.886 31.71C205.189 31.71 206.237 32.1029 207.03 32.8886C207.823 33.6744 208.22 34.7127 208.22 36.0036V73.4671C208.22 74.7019 207.823 75.7402 207.03 76.5821C206.237 77.3678 205.189 77.7607 203.886 77.7607ZM203.886 24.2173C202.357 24.2173 201.025 23.6841 199.892 22.6178C198.816 21.4952 198.278 20.1763 198.278 18.6609C198.278 17.1456 198.816 15.8547 199.892 14.7883C201.025 13.6658 202.357 13.1045 203.886 13.1045C205.416 13.1045 206.719 13.6658 207.795 14.7883C208.928 15.8547 209.494 17.1456 209.494 18.6609C209.494 20.1763 208.928 21.4952 207.795 22.6178C206.719 23.6841 205.416 24.2173 203.886 24.2173Z" fill="white"/>
<path d="M254.425 77.7607C253.858 77.7607 253.32 77.6765 252.81 77.5081C252.3 77.3397 251.819 76.9749 251.366 76.4137L236.495 58.7343L233.436 55.7035L218.651 38.3608C217.915 37.4628 217.518 36.5087 217.461 35.4985C217.405 34.4321 217.688 33.5341 218.311 32.8045C218.934 32.0748 219.869 31.71 221.115 31.71C222.475 31.71 223.551 32.1871 224.344 33.1412L238.875 50.3155L241.084 52.336L257.059 71.2782C257.909 72.2885 258.305 73.2987 258.249 74.309C258.249 75.2631 257.88 76.0769 257.144 76.7504C256.464 77.4239 255.558 77.7607 254.425 77.7607ZM221.965 77.7607C220.832 77.7607 219.926 77.4239 219.246 76.7504C218.623 76.0208 218.311 75.1509 218.311 74.1406C218.311 73.1304 218.708 72.1201 219.501 71.1099L233.946 53.1779L238.535 59.5761L225.024 76.4137C224.174 77.3117 223.155 77.7607 221.965 77.7607ZM242.953 56.1244L237.09 51.1574L250.771 33.1412C251.224 32.58 251.706 32.2151 252.215 32.0468C252.725 31.8223 253.292 31.71 253.915 31.71C255.161 31.71 256.096 32.1029 256.719 32.8886C257.342 33.6183 257.625 34.5163 257.569 35.5827C257.569 36.649 257.172 37.6873 256.379 38.6976L242.953 56.1244Z" fill="white"/>
<path d="M284.151 78.0974C279.45 78.0974 275.258 77.1152 271.575 75.1509C267.95 73.1304 265.089 70.3802 262.993 66.9005C260.954 63.3646 259.934 59.3236 259.934 54.7774C259.934 50.1752 260.897 46.1342 262.823 42.6544C264.806 39.1185 267.525 36.3684 270.981 34.404C274.436 32.3835 278.402 31.3733 282.877 31.3733C287.295 31.3733 291.091 32.3555 294.263 34.3198C297.436 36.2281 299.843 38.894 301.486 42.3177C303.185 45.6852 304.035 49.5859 304.035 54.0198C304.035 55.0861 303.667 55.9841 302.931 56.7138C302.194 57.3873 301.259 57.724 300.126 57.724H265.882V50.989H299.872L296.388 53.3463C296.331 50.54 295.764 48.0424 294.688 45.8535C293.612 43.6085 292.082 41.8406 290.1 40.5497C288.117 39.2588 285.709 38.6134 282.877 38.6134C279.648 38.6134 276.872 39.315 274.549 40.7181C272.284 42.1212 270.556 44.0575 269.366 46.5271C268.176 48.9404 267.582 51.6906 267.582 54.7774C267.582 57.8643 268.29 60.6145 269.706 63.0278C271.122 65.4412 273.077 67.3495 275.569 68.7526C278.062 70.1557 280.922 70.8573 284.151 70.8573C285.908 70.8573 287.692 70.5486 289.505 69.9312C291.374 69.2577 292.875 68.5 294.008 67.6582C294.858 67.0408 295.764 66.7321 296.728 66.7321C297.747 66.676 298.625 66.9566 299.362 67.574C300.325 68.4158 300.835 69.3419 300.891 70.3522C300.948 71.3624 300.495 72.2324 299.532 72.962C297.606 74.4774 295.198 75.7121 292.309 76.6662C289.476 77.6204 286.757 78.0974 284.151 78.0974Z" fill="white"/>
<path d="M323.587 77.7607C321.095 77.7607 318.885 77.0872 316.959 75.7402C315.033 74.3932 313.532 72.5691 312.456 70.268C311.379 67.9107 310.841 65.2167 310.841 62.186V16.2195C310.841 14.9847 311.238 13.9745 312.031 13.1887C312.824 12.403 313.843 12.0101 315.09 12.0101C316.336 12.0101 317.356 12.403 318.149 13.1887C318.942 13.9745 319.338 14.9847 319.338 16.2195V62.186C319.338 64.2626 319.735 65.9744 320.528 67.3214C321.321 68.6684 322.341 69.3419 323.587 69.3419H325.711C326.844 69.3419 327.751 69.7348 328.431 70.5205C329.167 71.3063 329.535 72.3165 329.535 73.5513C329.535 74.7861 328.997 75.7963 327.921 76.5821C326.844 77.3678 325.456 77.7607 323.757 77.7607H323.587Z" fill="white"/>
<path d="M103.304 73.5519V52.841C103.304 49.8086 102.739 47.475 101.72 45.7436C100.672 43.964 99.2749 42.6853 97.5165 41.8625L97.4936 41.8511L97.4721 41.8412C95.729 40.9531 93.6706 40.4861 91.2585 40.4861C89.0826 40.4861 87.1575 40.9201 85.4555 41.7633C83.7325 42.6168 82.3997 43.7521 81.418 45.1624L81.4037 45.1822C80.4621 46.4886 79.9773 48.0125 79.9773 49.8104V73.5519C79.9771 75.125 79.4589 76.526 78.3935 77.657L78.3763 77.6754L78.3591 77.6924C77.2467 78.7945 75.8021 79.297 74.1786 79.297C72.5908 79.2969 71.1768 78.7834 70.0352 77.7279L69.998 77.6938L69.9637 77.657C68.8982 76.526 68.38 75.125 68.3798 73.5519V36.004C68.3798 34.3954 68.887 32.9642 69.9994 31.8621L70.0166 31.8451L70.0352 31.8281C71.1768 30.7724 72.5907 30.259 74.1786 30.2589C75.8021 30.2589 77.2467 30.76 78.3591 31.8621C78.9862 32.4833 79.4199 33.2094 79.6797 34.0124C80.4534 33.4475 81.2744 32.9285 82.1434 32.4574C85.3809 30.7024 88.9969 29.8379 92.9582 29.8379C97.0859 29.8379 100.82 30.7285 104.121 32.5453C107.485 34.3093 110.112 36.9229 111.994 40.3443C113.958 43.8114 114.901 47.9997 114.901 52.841V73.5519C114.901 75.1553 114.334 76.5675 113.199 77.6924C112.099 78.7818 110.69 79.297 109.102 79.297C107.515 79.2969 106.101 78.7834 104.959 77.7279L104.922 77.6938L104.888 77.657C103.822 76.526 103.304 75.125 103.304 73.5519ZM134.734 36.0036C134.734 34.8739 134.431 33.9373 133.824 33.1945L133.545 32.8886C132.851 32.2013 131.962 31.8149 130.878 31.7288L130.401 31.71C129.155 31.71 128.107 32.1029 127.257 32.8886C126.464 33.6744 126.067 34.7127 126.067 36.0036V73.4671C126.067 74.7019 126.464 75.7402 127.257 76.5821C128.107 77.3678 129.155 77.7607 130.401 77.7607C131.541 77.7607 132.486 77.4605 133.236 76.8589L133.545 76.5821C134.338 75.7402 134.734 74.7019 134.734 73.4671V36.0036ZM147.695 73.3832V16.3873C147.695 14.8505 148.183 13.4876 149.22 12.4212L149.434 12.2114C150.564 11.1099 151.976 10.5586 153.578 10.5586L153.578 12.0101C152.332 12.0101 151.284 12.431 150.434 13.2729L150.28 13.4233C149.533 14.1895 149.159 15.1778 149.159 16.3879V73.3829L149.18 73.8368C149.273 74.8742 149.69 75.7613 150.434 76.4979C151.284 77.3397 152.332 77.7607 153.578 77.7607C154.881 77.7607 155.929 77.3397 156.722 76.4979C157.465 75.7613 157.884 74.874 157.977 73.8368L157.997 73.3829V54.9458H170.573L171.363 54.9346C175.028 54.8364 178.325 54.0519 181.252 52.5787L181.874 52.2518C185.16 50.4558 187.709 47.9582 189.522 44.7591C191.274 41.7602 192.205 38.3661 192.315 34.578L192.326 33.8147C192.326 29.8158 191.504 26.2611 189.861 23.1502L189.522 22.5336C187.822 19.4291 185.475 16.9661 182.481 15.1442L181.874 14.7883C178.794 13.0519 175.29 12.1299 171.363 12.0214L170.573 12.0101L170.573 10.5586C175.044 10.5587 179.066 11.5355 182.599 13.5268C186.115 15.509 188.854 18.2803 190.795 21.8163L191.16 22.4783C192.926 25.8221 193.791 29.6137 193.791 33.8154C193.791 38.1322 192.803 42.0294 190.798 45.4686C188.85 48.9067 186.103 51.598 182.581 53.5228C179.052 55.4519 175.036 56.3973 170.573 56.3974H159.461V73.3832C159.461 74.9867 158.894 76.3987 157.758 77.5237L157.757 77.5223C156.656 78.6708 155.216 79.212 153.578 79.212C151.959 79.2119 150.534 78.6488 149.399 77.5237C148.263 76.3987 147.695 74.9869 147.695 73.3832ZM208.22 36.0036C208.22 34.7127 207.823 33.6744 207.03 32.8886C206.336 32.2014 205.447 31.8147 204.363 31.7288L203.886 31.71C202.64 31.71 201.592 32.1029 200.742 32.8886C199.949 33.6744 199.553 34.7127 199.553 36.0036V73.4671L199.571 73.9205C199.658 74.9581 200.048 75.8453 200.742 76.5821C201.486 77.2696 202.381 77.6561 203.428 77.742L203.886 77.7607C205.026 77.7607 205.971 77.4602 206.72 76.8589L207.03 76.5821C207.724 75.8453 208.115 74.9581 208.201 73.9205L208.22 73.4671V36.0036ZM253.914 30.2589C255.493 30.2589 256.906 30.7745 257.872 31.9925C258.724 33.0114 259.089 34.2416 259.033 35.583L259.028 35.8537C258.964 37.1964 258.43 38.4438 257.543 39.5775L245.46 55.262L258.184 70.347L258.185 70.3484C259.199 71.5536 259.794 72.9132 259.712 74.3897C259.69 75.7332 259.141 76.8998 258.138 77.8172L258.136 77.8157C257.139 78.7809 255.852 79.2119 254.425 79.212C253.71 79.212 253.015 79.1048 252.348 78.8845C251.491 78.6018 250.791 78.0263 250.222 77.321L237.91 62.6854L226.171 77.3168L226.134 77.3636L226.092 77.4061C224.98 78.5822 223.579 79.212 221.965 79.212C220.518 79.212 219.212 78.7713 218.209 77.7775L218.166 77.7335L218.128 77.6882C217.267 76.6807 216.846 75.4725 216.846 74.1402C216.846 72.7299 217.405 71.4151 218.344 70.2194L218.355 70.2038L230.757 54.8084L217.531 39.2968L217.522 39.2869L217.514 39.2756C216.612 38.1757 216.075 36.9367 215.999 35.5787V35.5745C215.925 34.186 216.3 32.912 217.193 31.8663C218.172 30.7214 219.573 30.2589 221.115 30.2589C222.868 30.2589 224.377 30.8962 225.476 32.2179L238.209 47.2688L249.601 32.2689L249.626 32.2349C250.176 31.5542 250.848 30.9951 251.664 30.7026C252.369 30.3994 253.126 30.259 253.914 30.2589ZM10.3023 55.7035V16.3879C10.3022 15.178 9.92894 14.1894 9.18236 13.4233L9.02769 13.2729C8.2346 12.431 7.1866 12.0101 5.88367 12.0101C4.6374 12.0101 3.58939 12.431 2.73966 13.2729L2.58531 13.4233C1.83863 14.1895 1.46517 15.178 1.46506 16.3879V55.7035C1.46506 60.2496 2.62636 64.2907 4.94896 67.8265C7.32822 71.3624 10.6139 74.1406 14.8059 76.1611C18.9979 78.1255 23.813 79.1077 29.2513 79.1077C34.1903 79.1077 38.6061 78.2437 42.4995 76.5173L43.2719 76.1611C47.3507 74.1406 50.523 71.3624 52.789 67.8265C54.9663 64.5118 56.1226 60.7531 56.2588 56.5505L56.2729 55.7035V16.3879C56.2728 15.2585 55.969 14.322 55.3617 13.5793L55.0832 13.2729C54.3893 12.5364 53.5001 12.122 52.4159 12.03L51.9392 12.0101C50.6929 12.0101 49.6449 12.431 48.7952 13.2729L48.6402 13.4233C47.8937 14.1894 47.5207 15.1781 47.5206 16.3879V55.7035C47.5206 58.7343 46.7275 61.4283 45.1414 63.7855C43.6118 66.0867 41.4592 67.9107 38.6834 69.2577L38.1688 69.4922C35.5697 70.6268 32.5972 71.194 29.2513 71.194L29.2511 69.7431C32.6406 69.7431 35.5616 69.1299 38.05 67.9486C40.6119 66.7033 42.5495 65.0452 43.9174 62.9874L43.9217 62.9803C45.3361 60.8783 46.0549 58.4681 46.0549 55.7029V16.3873C46.055 14.7653 46.6004 13.3373 47.7589 12.2468L47.9749 12.0427C49.0733 11.0534 50.4216 10.5586 51.9394 10.5586C53.594 10.5586 55.0493 11.1093 56.1543 12.2823C57.2424 13.3795 57.738 14.7958 57.7381 16.3873V55.7029C57.7381 60.5016 56.5075 64.8169 54.024 68.6035L54.0254 68.6049C51.6057 72.3806 48.2245 75.3313 43.9274 77.46L43.9131 77.467C39.6049 79.5419 34.7055 80.5586 29.2511 80.5586C23.6335 80.5586 18.5986 79.5433 14.1799 77.4727L14.1656 77.467C9.76042 75.3438 6.26598 72.4008 3.72989 68.6318L3.7213 68.6176C1.232 64.8278 0 60.5072 0 55.7029V16.3873C0.000122818 14.7481 0.555807 13.3062 1.73976 12.2114C2.86937 11.1099 4.28162 10.5587 5.88312 10.5586C7.50343 10.5586 8.93157 11.088 10.0279 12.2114L10.2425 12.4212C11.2789 13.4876 11.7676 14.8507 11.7677 16.3873V55.7029C11.7677 58.4618 12.4829 60.8675 13.8909 62.9661C15.3718 65.0334 17.399 66.6957 20.0172 67.9429C22.684 69.1307 25.7522 69.7431 29.2511 69.7431L29.2513 71.194L28.5658 71.1861C25.3874 71.1156 22.5126 70.551 19.9414 69.4922L19.3944 69.2577C16.562 67.9107 14.3244 66.0867 12.6815 63.7855C11.1946 61.5758 10.4042 59.0701 10.3112 56.2685L10.3023 55.7035ZM304.035 54.0198C304.035 49.5859 303.185 45.6852 301.486 42.3177C299.946 39.1081 297.733 36.5649 294.849 34.6871L294.263 34.3198C291.091 32.3555 287.295 31.3733 282.877 31.3733C278.402 31.3733 274.436 32.3835 270.981 34.404L270.342 34.7821C267.188 36.7158 264.682 39.3395 262.823 42.6544C260.897 46.1342 259.934 50.1752 259.934 54.7774L259.946 55.6235C260.066 59.8265 261.081 63.5855 262.993 66.9005C265.089 70.3802 267.95 73.1304 271.575 75.1509C275.027 76.9924 278.927 77.9713 283.275 78.0865L284.151 78.0974C286.757 78.0974 289.476 77.6204 292.309 76.6662C295.198 75.7121 297.606 74.4774 299.532 72.962C300.435 72.2779 300.89 71.4705 300.896 70.5398L300.891 70.3522C300.835 69.3419 300.325 68.4158 299.362 67.574C298.625 66.9566 297.747 66.676 296.728 66.7321L296.369 66.7466C295.539 66.814 294.752 67.118 294.008 67.6582L293.567 67.9698C292.495 68.6882 291.141 69.3419 289.505 69.9312L288.827 70.1485C287.247 70.6213 285.688 70.8573 284.151 70.8573L284.151 69.4058C285.727 69.4058 287.347 69.1283 289.017 68.5609C290.794 67.9196 292.15 67.2245 293.129 66.4971L293.142 66.4872C294.195 65.7218 295.373 65.3011 296.646 65.2837C297.93 65.213 299.111 65.5476 300.111 66.3085L300.308 66.4659L300.331 66.4857C301.508 67.5147 302.27 68.7797 302.354 70.2719C302.442 71.8477 301.694 73.1405 300.441 74.0977L300.443 74.0991C298.357 75.7401 295.79 77.0446 292.78 78.0397C289.818 79.0375 286.939 79.5493 284.151 79.5493C279.238 79.5493 274.802 78.521 270.881 76.4294L270.868 76.4223L270.857 76.4153C267.013 74.2729 263.964 71.3447 261.735 67.6438L261.727 67.6325L261.722 67.6211C259.542 63.8413 258.47 59.546 258.47 54.7773C258.47 49.9703 259.476 45.6816 261.539 41.956L261.543 41.9489C263.649 38.1936 266.55 35.252 270.236 33.1534C273.942 30.9864 278.17 29.9216 282.876 29.9215C287.519 29.9215 291.596 30.9567 295.04 33.0896C298.453 35.1464 301.043 38.0221 302.802 41.681C304.616 45.2801 305.5 49.4062 305.5 54.0203C305.5 55.4569 304.988 56.7281 303.967 57.7398L303.945 57.7611L303.924 57.7809C302.881 58.7342 301.576 59.1757 300.126 59.1757H269.636C269.955 60.2844 270.401 61.3244 270.973 62.2985C272.256 64.4858 274.022 66.2121 276.294 67.4907C278.538 68.7543 281.144 69.4057 284.151 69.4058L284.151 70.8573C281.124 70.8572 278.42 70.2408 276.04 69.0075L275.569 68.7526C273.233 67.4373 271.369 65.678 269.978 63.475L269.706 63.0278C268.757 61.4112 268.128 59.6431 267.815 57.7242L300.126 57.724L300.541 57.7086C301.354 57.6456 302.055 57.3923 302.645 56.9503L302.931 56.7138C303.575 56.0753 303.938 55.3078 304.018 54.4115L304.035 54.0198ZM325.712 67.8905L325.711 69.3419H323.587L323.587 67.8905H325.712ZM319.338 62.186V16.2195C319.338 15.1393 319.035 14.2308 318.428 13.4942L318.149 13.1887C317.455 12.5013 316.588 12.1145 315.547 12.0285L315.09 12.0101C313.843 12.0101 312.824 12.403 312.031 13.1887C311.238 13.9745 310.841 14.9847 310.841 16.2195V62.186L310.847 62.7506C310.91 65.5522 311.447 68.0583 312.456 70.268C313.532 72.5691 315.033 74.3932 316.959 75.7402C318.765 77.0029 320.819 77.6744 323.122 77.7534L323.587 77.7607H323.757L324.38 77.742C325.697 77.6622 326.809 77.3228 327.715 76.7243L327.921 76.5821C328.93 75.8454 329.466 74.9114 329.529 73.7801L329.535 73.5513C329.535 72.3165 329.167 71.3063 328.431 70.5205C327.836 69.8332 327.067 69.4463 326.126 69.3604L325.711 69.3419L325.712 67.8905C327.231 67.8906 328.56 68.439 329.544 69.5759C330.543 70.664 331 72.03 331 73.5519C331 75.2854 330.209 76.7145 328.79 77.7505C327.401 78.7645 325.684 79.2119 323.758 79.212H323.587C320.811 79.212 318.303 78.4556 316.115 76.9256C313.961 75.4196 312.301 73.3898 311.126 70.8785L311.12 70.8658C309.945 68.2913 309.376 65.3881 309.376 62.1865V16.2201C309.376 14.6472 309.895 13.2512 310.994 12.1618C312.094 11.0724 313.503 10.5586 315.09 10.5586C316.678 10.5587 318.086 11.0726 319.185 12.1618C320.285 13.2512 320.803 14.6472 320.803 16.2201V62.1865C320.803 64.0884 321.167 65.5275 321.793 66.5906C322.404 67.6272 323.004 67.8905 323.587 67.8905L323.587 69.3419L323.356 69.3335C322.29 69.2597 321.397 68.6709 320.679 67.5659L320.528 67.3214C319.834 66.1428 319.444 64.6849 319.357 62.9477L319.338 62.186ZM283.403 38.6207C286.008 38.6963 288.241 39.3395 290.1 40.5497C292.082 41.8406 293.612 43.6085 294.688 45.8535C295.453 47.409 295.959 49.1211 296.209 50.9883H267.912C268.172 49.5666 268.583 48.2316 269.15 46.9839L269.366 46.5271C270.556 44.0575 272.284 42.1212 274.549 40.7181C276.872 39.315 279.648 38.6134 282.877 38.6134L283.403 38.6207ZM282.876 40.0651C279.871 40.0652 277.373 40.7142 275.322 41.9504C273.302 43.2019 271.761 44.9247 270.688 47.1526L270.682 47.1639C270.312 47.9143 270.005 48.7051 269.759 49.5368H294.455C294.197 48.4474 293.834 47.4324 293.371 46.4892L293.365 46.4764C292.397 44.4571 291.04 42.8997 289.295 41.7633C287.594 40.656 285.479 40.0651 282.876 40.0651ZM182.364 33.8154C182.364 31.3271 181.842 29.2195 180.849 27.448L180.84 27.4338C179.828 25.5789 178.451 24.1453 176.701 23.1048C174.974 22.0784 172.948 21.5443 170.573 21.5442H159.461V45.4119H170.573L170.573 46.8638H157.997V20.0921H170.573C173.178 20.0921 175.473 20.6814 177.455 21.8601C179.438 23.0387 180.996 24.6663 182.129 26.7429C183.262 28.7635 183.828 31.1207 183.828 33.8147L183.822 34.2846C183.755 36.6196 183.191 38.708 182.129 40.5497L181.912 40.9128C180.8 42.7052 179.314 44.1276 177.455 45.18C175.473 46.3025 173.178 46.8638 170.573 46.8638L170.573 45.4119C172.96 45.4118 174.997 44.8995 176.728 43.9193C178.484 42.9254 179.854 41.5691 180.857 39.8298C181.85 38.1096 182.364 36.1182 182.364 33.8154ZM136.009 18.6609C136.009 17.1456 135.443 15.8547 134.31 14.7883C133.233 13.6658 131.93 13.1045 130.401 13.1045C128.871 13.1045 127.54 13.6658 126.407 14.7883L126.211 14.9911C125.265 16.017 124.793 17.2404 124.793 18.6609L124.799 18.9431C124.862 20.3404 125.398 21.5656 126.407 22.6178C127.469 23.6176 128.706 24.1481 130.117 24.2105L130.401 24.2173C131.835 24.2173 133.07 23.7488 134.106 22.8114L134.31 22.6178C135.371 21.5656 135.936 20.3403 136.003 18.9431L136.009 18.6609ZM209.494 18.6609C209.494 17.1456 208.928 15.8547 207.795 14.7883C206.786 13.7361 205.578 13.1774 204.171 13.1115L203.886 13.1045C202.357 13.1045 201.025 13.6658 199.892 14.7883L199.697 14.9911C198.751 16.0171 198.278 17.2403 198.278 18.6609L198.284 18.9431C198.347 20.3406 198.883 21.5655 199.892 22.6178C200.954 23.6174 202.191 24.1479 203.602 24.2105L203.886 24.2173C205.32 24.2173 206.555 23.7486 207.59 22.8114L207.795 22.6178C208.857 21.5655 209.421 20.3405 209.488 18.9431L209.494 18.6609ZM170.573 10.5586L170.573 12.0101H153.578L153.578 10.5586H170.573ZM218.311 74.1406C218.311 75.1509 218.623 76.0208 219.246 76.7504C219.926 77.4239 220.832 77.7607 221.965 77.7607C223.006 77.7607 223.917 77.4174 224.697 76.7299L225.024 76.4137L237.884 60.3863L251.366 76.4137C251.819 76.9749 252.3 77.3397 252.81 77.5081C253.193 77.6345 253.591 77.7133 254.006 77.7449L254.425 77.7607C255.558 77.7607 256.464 77.4239 257.144 76.7504C257.88 76.0769 258.249 75.2631 258.249 74.309C258.305 73.2987 257.909 72.2885 257.059 71.2782L243.584 55.3031L256.379 38.6976C257.073 37.8138 257.463 36.9081 257.55 35.9813L257.569 35.5827C257.625 34.5163 257.342 33.6183 256.719 32.8886C256.174 32.2014 255.39 31.8148 254.368 31.7288L253.915 31.71C253.292 31.71 252.725 31.8223 252.215 32.0468C251.706 32.2151 251.224 32.58 250.771 33.1412L238.271 49.6006L224.344 33.1412C223.601 32.247 222.608 31.772 221.367 31.7161L221.115 31.71C219.869 31.71 218.934 32.0748 218.311 32.8045L218.093 33.0854C217.622 33.7606 217.412 34.5654 217.461 35.4985C217.518 36.5087 217.915 37.4628 218.651 38.3608L232.652 54.7829L219.501 71.1099C218.708 72.1201 218.311 73.1304 218.311 74.1406ZM69.8454 73.5513L69.8635 74.0055C69.9503 75.0428 70.3411 75.9297 71.035 76.6662C71.7784 77.3537 72.6737 77.7411 73.7207 77.8271L74.179 77.8449C75.3192 77.8449 76.2645 77.5443 77.0142 76.9426L77.323 76.6662C78.0168 75.9297 78.4068 75.0427 78.4936 74.0055L78.5126 73.5513V49.8104C78.5126 47.8634 79.01 46.138 80.0059 44.6351L80.2121 44.3382C81.3451 42.7105 82.8746 41.4197 84.8007 40.4655C86.7267 39.5114 88.8794 39.0343 91.2586 39.0343L91.7435 39.0403C94.15 39.0994 96.2827 39.6026 98.1415 40.5497C100.181 41.5039 101.795 42.9912 102.985 45.0117C104.175 47.0322 104.769 49.642 104.769 52.8411V73.5513L104.787 74.0055C104.874 75.0428 105.265 75.9297 105.959 76.6662C106.702 77.3537 107.598 77.7411 108.645 77.8271L109.103 77.8449C110.193 77.8449 111.11 77.544 111.854 76.9426L112.162 76.6662C112.905 75.9298 113.323 75.0426 113.416 74.0055L113.437 73.5513V52.8411C113.437 48.1827 112.53 44.254 110.718 41.0549C109.071 38.0557 106.827 35.7466 103.986 34.1286L103.41 33.8147C100.542 32.2363 97.301 31.398 93.6864 31.2993L92.9581 31.2891C89.2193 31.2891 85.8487 32.1029 82.8463 33.7305C81.2184 34.6131 79.7737 35.6694 78.5122 36.8984L78.5126 36.0036C78.5126 34.874 78.2096 33.9373 77.6023 33.1945L77.323 32.8886C76.6289 32.201 75.7396 31.8147 74.655 31.7288L74.179 31.71C72.9327 31.71 71.8847 32.1029 71.035 32.8886C70.2419 33.6744 69.8454 34.7127 69.8454 36.0036V73.5513ZM136.199 73.4669C136.199 75.04 135.682 76.4409 134.616 77.5719L134.599 77.5904L134.581 77.6088C133.468 78.7108 132.024 79.212 130.4 79.212C128.812 79.2118 127.398 78.6984 126.257 77.6428L126.22 77.6088L126.185 77.5719C125.12 76.4409 124.601 75.04 124.601 73.4669V36.004C124.601 34.3954 125.109 32.9642 126.221 31.8621L126.238 31.8451L126.257 31.8281C127.398 30.7724 128.812 30.259 130.4 30.2589C132.024 30.2589 133.468 30.7601 134.581 31.8621C135.693 32.9642 136.199 34.3954 136.199 36.004V73.4669ZM209.685 73.4669C209.685 75.0401 209.167 76.4408 208.101 77.5719L208.067 77.6088C206.954 78.7109 205.51 79.212 203.886 79.212C202.298 79.212 200.885 78.6986 199.743 77.6428L199.706 77.6088L199.671 77.5719C198.606 76.4408 198.088 75.0401 198.088 73.4669V36.004C198.088 34.3955 198.593 32.9642 199.706 31.8621L199.743 31.8281C200.885 30.7723 202.298 30.2589 203.886 30.2589C205.51 30.2589 206.954 30.76 208.067 31.8621C209.179 32.9642 209.685 34.3956 209.685 36.004V73.4669ZM137.474 18.661C137.474 20.5809 136.739 22.2633 135.346 23.6435C133.994 24.9835 132.316 25.6691 130.4 25.6691C128.487 25.6689 126.797 24.9865 125.398 23.6704L125.371 23.6449L125.345 23.6179C124.017 22.2322 123.328 20.5573 123.328 18.661C123.328 16.7628 124.019 15.1022 125.371 13.7621C126.764 12.382 128.462 11.6531 130.4 11.6529C132.316 11.6529 133.981 12.3675 135.319 13.7366L135.576 13.9903C136.825 15.2795 137.474 16.8584 137.474 18.661ZM210.96 18.661C210.96 20.5811 210.224 22.2632 208.831 23.6435C207.478 24.9835 205.802 25.669 203.886 25.6691C201.972 25.6691 200.282 24.9869 198.883 23.6704L198.856 23.6449L198.83 23.6179C197.501 22.2322 196.813 20.5573 196.813 18.661C196.813 16.7629 197.504 15.1021 198.856 13.7621C200.249 12.3818 201.948 11.6529 203.886 11.6529C205.802 11.6529 207.466 12.3677 208.804 13.7366L209.061 13.9903C210.31 15.2796 210.96 16.8582 210.96 18.661Z" fill="white"/>
<path d="M371.452 9.33951C373.086 4.18144 378.593 1.32506 383.751 2.9596L420.838 14.7122C425.996 16.3468 428.853 21.8533 427.218 27.0113L415.465 64.0987C413.831 69.2568 408.324 72.1131 403.166 70.4786L366.079 58.726C360.921 57.0914 358.064 51.5849 359.699 46.4268L371.452 9.33951Z" fill="#ACEBCF"/>
<path d="M331.808 45.6222C329.583 40.6899 331.803 34.8767 336.766 32.6382L376.304 14.8052C381.267 12.5667 387.094 14.7505 389.318 19.6828L407.041 58.9758C409.266 63.9081 407.046 69.7213 402.083 71.9598L362.545 89.7928C357.582 92.0313 351.755 89.8475 349.53 84.9152L331.808 45.6222Z" fill="#FFCCDE"/>
<path d="M342.83 24.5556C342.921 16.8263 349.262 10.6348 356.991 10.7264L398.976 11.224C406.705 11.3156 412.897 17.6556 412.805 25.3849L412.308 67.3701C412.216 75.0993 405.876 81.2909 398.147 81.1993L356.161 80.7017C348.432 80.6101 342.241 74.2701 342.332 66.5408L342.83 24.5556Z" fill="#711FE6"/>
<path d="M384.401 29.4951L375.001 60.9778C374.635 62.1724 373.427 62.8633 372.233 62.4965C371.038 62.1298 370.347 60.9227 370.714 59.7282L380.114 28.2455C380.481 27.0509 381.688 26.36 382.883 26.7268C384.077 27.0935 384.768 28.3006 384.401 29.4951ZM391.667 35.2936L399.471 43.2846C400.377 44.1416 400.36 45.6224 399.433 46.4577L391.442 54.2615C390.585 55.1681 389.104 55.1506 388.269 54.2239C387.362 53.3669 387.38 51.8861 388.307 51.0508L394.657 44.779L388.456 38.429C387.55 37.572 387.567 36.0913 388.494 35.256C389.351 34.3493 390.832 34.3669 391.667 35.2936ZM366.809 38.1725L360.459 44.3737L366.659 50.7943C367.566 51.6513 367.548 53.132 366.622 53.9673C365.765 54.874 364.284 54.8564 363.449 53.9297L355.645 45.9387C354.738 45.0817 354.756 43.6009 355.682 42.7656L363.673 34.9618C364.53 34.0552 366.011 34.0727 366.846 34.9994C367.753 35.8564 367.736 37.3372 366.809 38.1725Z" fill="white"/>
</svg>
