<svg width="360" height="76" viewBox="0 0 360 76" fill="none" xmlns="http://www.w3.org/2000/svg">
<path d="M32.4938 8.58562C33.7234 2.74022 39.4429 -0.998327 45.2688 0.235359L73.5562 6.22546C79.382 7.45915 83.1081 13.1979 81.8785 19.0433L75.9084 47.4254C74.6789 53.2708 68.9593 57.0093 63.1334 55.7756L34.8461 49.7855C29.0202 48.5518 25.2941 42.8131 26.5237 36.9677L32.4938 8.58562Z" fill="#ACEBCF"/>
<path d="M0.956054 39.8713C-1.49203 34.4254 0.923416 28.0195 6.3511 25.5632L36.0081 12.142C41.4358 9.68572 47.8203 12.1093 50.2684 17.5551L63.6448 47.3115C66.0929 52.7573 63.6774 59.1633 58.2498 61.6196L28.5928 75.0407C23.1651 77.497 16.7805 75.0735 14.3324 69.6276L0.956054 39.8713Z" fill="#FFCCDE"/>
<path d="M9.13205 22.8403C9.23285 14.3064 16.2096 7.47027 24.715 7.57141L54.288 7.92306C62.7935 8.0242 69.6068 15.0243 69.506 23.5582L69.1555 53.2303C69.0547 61.7642 62.078 68.6004 53.5725 68.4992L23.9995 68.1476C15.4941 68.0464 8.68077 61.0463 8.78157 52.5124L9.13205 22.8403Z" fill="#4A54F5"/>
<path d="M45.0393 23.7815L36.929 51.0354C36.6126 52.0695 35.5711 52.6676 34.5405 52.3501C33.5099 52.0326 32.9138 50.9877 33.2302 49.9536L41.3404 22.6997C41.6569 21.6656 42.6983 21.0675 43.7289 21.385C44.7596 21.7025 45.3557 22.7474 45.0393 23.7815ZM51.308 28.8011L58.041 35.7187C58.8232 36.4606 58.8081 37.7425 58.0086 38.4656L51.114 45.2212C50.3746 46.0061 49.097 45.9909 48.3763 45.1887C47.5941 44.4468 47.6092 43.1649 48.4088 42.4418L53.8882 37.0125L48.5378 31.5154C47.7556 30.7735 47.7707 29.4916 48.5703 28.7685C49.3097 27.9837 50.5873 27.9989 51.308 28.8011ZM29.8607 31.2933L24.382 36.6616L29.7316 42.2197C30.5139 42.9616 30.4987 44.2435 29.6992 44.9666C28.9598 45.7514 27.6822 45.7362 26.9615 44.934L20.2284 38.0164C19.4462 37.2745 19.4614 35.9926 20.2609 35.2695L27.1554 28.5139C27.8949 27.729 29.1725 27.7442 29.8931 28.5465C30.6754 29.2884 30.6602 30.5702 29.8607 31.2933Z" fill="white"/>
<path d="M110.164 67.5407C105.604 67.5407 101.608 66.6214 98.1748 64.7828C94.7416 62.8902 92.0863 60.2946 90.2088 56.996C88.3313 53.6433 87.3926 49.8039 87.3926 45.4779V9.70686H98.6576V44.2612C98.6576 48.2628 99.5963 51.4262 101.474 53.7514C103.405 56.0226 106.302 57.1582 110.164 57.1582C114.026 57.1582 116.896 56.0226 118.774 53.7514C120.705 51.4262 121.67 48.2628 121.67 44.2612V9.70686H132.935V45.4779C132.935 49.8039 131.997 53.6433 130.119 56.996C128.242 60.2946 125.586 62.8902 122.153 64.7828C118.774 66.6214 114.777 67.5407 110.164 67.5407Z" fill="#4A54F5"/>
<path d="M139.411 66.4862V24.3073H150.113V30.4719C152.313 25.7132 156.577 23.3339 162.907 23.3339C165.911 23.3339 168.62 24.0369 171.034 25.4429C173.448 26.8488 175.352 28.8496 176.747 31.4452C178.142 34.0409 178.839 37.1232 178.839 40.6922V66.4862H167.976V43.3689C167.976 39.6918 167.145 37.0421 165.482 35.4198C163.819 33.7435 161.646 32.9053 158.964 32.9053C156.658 32.9053 154.619 33.7435 152.849 35.4198C151.132 37.0421 150.274 39.6918 150.274 43.3689V66.4862H139.411Z" fill="#4A54F5"/>
<path d="M190.299 20.8194C188.476 20.8194 186.92 20.1975 185.633 18.9538C184.399 17.656 183.782 16.1148 183.782 14.3303C183.782 12.5999 184.399 11.1128 185.633 9.86909C186.92 8.57127 188.476 7.92236 190.299 7.92236C192.177 7.92236 193.733 8.57127 194.966 9.86909C196.2 11.1128 196.817 12.5999 196.817 14.3303C196.817 16.1689 196.2 17.71 194.966 18.9538C193.733 20.1975 192.177 20.8194 190.299 20.8194ZM184.908 66.4862V24.3073H195.771V66.4862H184.908Z" fill="#4A54F5"/>
<path d="M203 66.4862V9.70686H221.99C228.32 9.70686 233.282 11.221 236.876 14.2492C240.523 17.2234 242.347 21.6846 242.347 27.6329C242.347 33.6353 240.523 38.1777 236.876 41.26C233.282 44.3423 228.32 45.8834 221.99 45.8834H214.265V66.4862H203ZM214.265 35.6631H221.346C224.404 35.6631 226.764 35.0142 228.427 33.7164C230.09 32.4186 230.921 30.4178 230.921 27.714C230.921 25.0103 230.09 23.0365 228.427 21.7928C226.764 20.4949 224.404 19.846 221.346 19.846H214.265V35.6631Z" fill="#4A54F5"/>
<path d="M251.748 20.8194C249.924 20.8194 248.368 20.1975 247.081 18.9538C245.847 17.656 245.23 16.1148 245.23 14.3303C245.23 12.5999 245.847 11.1128 247.081 9.86909C248.368 8.57127 249.924 7.92236 251.748 7.92236C253.625 7.92236 255.181 8.57127 256.415 9.86909C257.649 11.1128 258.265 12.5999 258.265 14.3303C258.265 16.1689 257.649 17.71 256.415 18.9538C255.181 20.1975 253.625 20.8194 251.748 20.8194ZM246.357 66.4862V24.3073H257.219V66.4862H246.357Z" fill="#4A54F5"/>
<path d="M259.621 66.4862L275.311 45.3968L260.425 24.3073H273.38L281.909 37.691L290.76 24.3073H303.474L288.588 45.559L304.278 66.4862H291.082L281.99 53.0214L272.576 66.4862H259.621Z" fill="#4A54F5"/>
<path d="M323.126 67.5407C318.835 67.5407 315.053 66.5403 311.78 64.5395C308.508 62.5387 305.96 59.889 304.136 56.5904C302.366 53.2377 301.481 49.5335 301.481 45.4779C301.481 41.4222 302.42 37.718 304.297 34.3653C306.175 30.9586 308.723 28.2548 311.941 26.254C315.214 24.2532 318.942 23.2528 323.126 23.2528C327.31 23.2528 330.985 24.2532 334.15 26.254C337.368 28.2548 339.863 30.9586 341.633 34.3653C343.457 37.718 344.369 41.4222 344.369 45.4779C344.369 46.0727 344.342 46.6946 344.288 47.3435C344.234 47.9924 344.154 48.6683 344.047 49.3713H312.746C313.336 51.8588 314.516 53.8866 316.286 55.4548C318.11 57.023 320.39 57.8071 323.126 57.8071C325.486 57.8071 327.525 57.2663 329.241 56.1848C331.011 55.1033 332.379 53.7514 333.345 52.1292L341.794 58.5371C340.131 61.1868 337.636 63.3499 334.31 65.0262C330.985 66.7025 327.256 67.5407 323.126 67.5407ZM322.965 32.6619C320.39 32.6619 318.191 33.446 316.367 35.0142C314.543 36.5824 313.336 38.6373 312.746 41.1789H333.425C332.835 38.8536 331.602 36.8528 329.724 35.1765C327.9 33.5001 325.647 32.6619 322.965 32.6619Z" fill="#4A54F5"/>
<path d="M349.137 66.4862V7.27346H360V66.4862H349.137Z" fill="#4A54F5"/>
</svg>
