<svg width="249" height="64" viewBox="0 0 249 64" fill="none" xmlns="http://www.w3.org/2000/svg">
<path d="M28.1857 5.84911C28.9841 2.06645 32.6977 -0.352822 36.4804 0.445518L63.6783 6.18571C67.461 6.98405 69.8803 10.6977 69.0819 14.4804L63.3417 41.6783C62.5434 45.461 58.8298 47.8802 55.0471 47.0819L27.8491 41.3417C24.0665 40.5434 21.6472 36.8297 22.4455 33.0471L28.1857 5.84911Z" fill="#ACEBCF"/>
<path d="M0.878076 31.7996C-0.711428 28.2755 0.856885 24.1301 4.381 22.5406L32.4553 9.87805C35.9794 8.28854 40.1248 9.85686 41.7143 13.381L54.3769 41.4553C55.9664 44.9794 54.3981 49.1248 50.8739 50.7143L22.7996 63.3768C19.2755 64.9663 15.1301 63.398 13.5406 59.8739L0.878076 31.7996Z" fill="#FFCCDE"/>
<path d="M8.47405 16.7465C8.5395 11.2241 13.0694 6.80031 18.5919 6.86575L48.5897 7.22126C54.1122 7.28671 58.536 11.8166 58.4705 17.3391L58.115 47.337C58.0496 52.8594 53.5197 57.2832 47.9972 57.2178L17.9993 56.8622C12.4769 56.7968 8.05309 52.2669 8.11854 46.7444L8.47405 16.7465Z" fill="#4A54F5"/>
<path d="M38.1767 20.2774L31.4605 42.7715C31.1984 43.6249 30.336 44.1186 29.4825 43.8565C28.629 43.5945 28.1354 42.732 28.3974 41.8786L35.1136 19.3846C35.3757 18.5311 36.2381 18.0374 37.0916 18.2995C37.9451 18.5615 38.4387 19.424 38.1767 20.2774ZM43.3679 24.4204L48.9436 30.1298C49.5914 30.7422 49.5788 31.8001 48.9167 32.3969L43.2073 37.9727C42.5949 38.6205 41.5369 38.6079 40.9401 37.9458C40.2924 37.3335 40.3049 36.2755 40.967 35.6787L45.5046 31.1976L41.0739 26.6606C40.4261 26.0483 40.4386 24.9903 41.1007 24.3935C41.7131 23.7457 42.7711 23.7582 43.3679 24.4204ZM25.6071 26.4773L21.0701 30.908L25.5002 35.4954C26.148 36.1077 26.1355 37.1657 25.4734 37.7625C24.861 38.4103 23.803 38.3978 23.2062 37.7357L17.6305 32.0262C16.9827 31.4138 16.9953 30.3559 17.6574 29.7591L23.3668 24.1833C23.9792 23.5355 25.0372 23.5481 25.634 24.2102C26.2817 24.8225 26.2692 25.8805 25.6071 26.4773Z" fill="white"/>
<path d="M95.4094 10.1212H103.148V31.0326C103.148 33.4493 102.579 35.5546 101.441 37.3487C100.302 39.1322 98.7147 40.5147 96.6783 41.4962C94.6418 42.4671 92.2763 42.9525 89.5819 42.9525C86.8561 42.9525 84.475 42.4671 82.4385 41.4962C80.402 40.5147 78.8198 39.1322 77.6919 37.3487C76.564 35.5546 76 33.4493 76 31.0326V10.1212H83.7544V30.3519C83.7544 31.4705 83.9946 32.4678 84.475 33.3437C84.9658 34.2197 85.6499 34.9056 86.5271 35.4016C87.4044 35.8976 88.4226 36.1456 89.5819 36.1456C90.7411 36.1456 91.7541 35.8976 92.6209 35.4016C93.4982 34.9056 94.1822 34.2197 94.6731 33.3437C95.1639 32.4678 95.4094 31.4705 95.4094 30.3519V10.1212Z" fill="#4A54F5"/>
<path d="M115.669 28.6739V42.5409H108.008V18.2261H115.293V22.6902H115.559C116.092 21.2022 117 20.036 118.285 19.1918C119.569 18.3369 121.099 17.9095 122.875 17.9095C124.566 17.9095 126.034 18.2947 127.277 19.0651C128.53 19.825 129.501 20.8908 130.19 22.2628C130.89 23.6241 131.235 25.2177 131.224 27.0434V42.5409H123.564V28.5631C123.574 27.2123 123.235 26.1569 122.546 25.3971C121.867 24.6373 120.922 24.2573 119.71 24.2573C118.906 24.2573 118.196 24.4368 117.58 24.7956C116.974 25.1438 116.504 25.6451 116.17 26.2994C115.846 26.9537 115.679 27.7452 115.669 28.6739Z" fill="#4A54F5"/>
<path d="M135.967 42.5409V18.2261H143.627V42.5409H135.967ZM139.805 15.3926C138.729 15.3926 137.805 15.0338 137.032 14.3161C136.259 13.588 135.873 12.712 135.873 11.6884C135.873 10.6753 136.259 9.80989 137.032 9.09226C137.805 8.36409 138.729 8 139.805 8C140.891 8 141.815 8.36409 142.578 9.09226C143.35 9.80989 143.737 10.6753 143.737 11.6884C143.737 12.712 143.35 13.588 142.578 14.3161C141.815 15.0338 140.891 15.3926 139.805 15.3926Z" fill="#4A54F5"/>
<path d="M148.503 42.5409V10.1212H161.756C164.158 10.1212 166.231 10.5961 167.975 11.5459C169.73 12.4851 171.082 13.799 172.032 15.4876C172.983 17.1655 173.458 19.1179 173.458 21.3446C173.458 23.5819 172.972 25.5396 172.001 27.2175C171.04 28.885 169.667 30.1777 167.881 31.0959C166.095 32.014 163.975 32.4731 161.521 32.4731H153.344V26.2994H160.08C161.249 26.2994 162.226 26.0936 163.009 25.682C163.803 25.2705 164.403 24.6953 164.811 23.9566C165.218 23.2073 165.422 22.3366 165.422 21.3446C165.422 20.3421 165.218 19.4767 164.811 18.7485C164.403 18.0098 163.803 17.4399 163.009 17.0389C162.215 16.6379 161.239 16.4374 160.08 16.4374H156.257V42.5409H148.503Z" fill="#4A54F5"/>
<path d="M177.28 42.5409V18.2261H184.941V42.5409H177.28ZM181.118 15.3926C180.043 15.3926 179.118 15.0338 178.346 14.3161C177.573 13.588 177.186 12.712 177.186 11.6884C177.186 10.6753 177.573 9.80989 178.346 9.09226C179.118 8.36409 180.043 8 181.118 8C182.204 8 183.129 8.36409 183.891 9.09226C184.664 9.80989 185.05 10.6753 185.05 11.6884C185.05 12.712 184.664 13.588 183.891 14.3161C183.129 15.0338 182.204 15.3926 181.118 15.3926Z" fill="#4A54F5"/>
<path d="M196.333 18.2261L200.297 26.2361L204.401 18.2261H212.124L205.403 30.3835L212.374 42.5409H204.714L200.297 34.4677L195.989 42.5409H188.219L195.205 30.3835L188.563 18.2261H196.333Z" fill="#4A54F5"/>
<path d="M226.007 43C223.49 43 221.318 42.4987 219.49 41.4962C217.673 40.483 216.274 39.0425 215.292 37.1746C214.321 35.2961 213.835 33.0641 213.835 30.4785C213.835 27.9668 214.326 25.7717 215.308 23.8933C216.29 22.0042 217.673 20.5373 219.459 19.4925C221.245 18.4372 223.349 17.9095 225.772 17.9095C227.485 17.9095 229.052 18.1786 230.472 18.7169C231.892 19.2551 233.119 20.0519 234.153 21.1072C235.187 22.1625 235.991 23.4658 236.566 25.0172C237.14 26.558 237.427 28.3256 237.427 30.3202V32.2515H216.514V27.7558H230.3C230.289 26.9326 230.096 26.1992 229.72 25.5554C229.344 24.9116 228.827 24.4104 228.169 24.0516C227.522 23.6822 226.775 23.4975 225.929 23.4975C225.073 23.4975 224.305 23.6927 223.626 24.0832C222.947 24.4631 222.409 24.9855 222.013 25.6504C221.616 26.3047 221.407 27.0487 221.386 27.8824V32.4573C221.386 33.4493 221.579 34.3199 221.966 35.0692C222.352 35.8079 222.9 36.3831 223.61 36.7947C224.321 37.2062 225.167 37.412 226.148 37.412C226.827 37.412 227.443 37.317 227.997 37.1271C228.55 36.9371 229.025 36.6575 229.422 36.2881C229.819 35.9187 230.117 35.4649 230.315 34.9267L237.349 35.1325C237.057 36.7261 236.414 38.1138 235.422 39.2958C234.44 40.4672 233.151 41.3801 231.553 42.0344C229.955 42.6781 228.106 43 226.007 43Z" fill="#4A54F5"/>
<path d="M249 10.1212V42.5409H241.34V10.1212H249Z" fill="#4A54F5"/>
<path d="M81.3431 47.708V48.5265H79.1923V55.4181H78.1621V48.5265H76V47.708H81.3431Z" fill="#4A54F5"/>
<path d="M83.6412 50.3407C83.8223 49.9941 84.0789 49.7249 84.411 49.5332C84.7506 49.3414 85.1619 49.2456 85.6448 49.2456V50.2854H85.3732C84.2185 50.2854 83.6412 50.8975 83.6412 52.1217V55.4181H82.6111V49.3562H83.6412V50.3407Z" fill="#4A54F5"/>
<path d="M86.4491 52.365C86.4491 51.7456 86.5774 51.2035 86.834 50.7389C87.0906 50.267 87.4415 49.9019 87.8867 49.6438C88.3395 49.3857 88.8414 49.2566 89.3923 49.2566C89.9357 49.2566 90.4073 49.3709 90.8073 49.5996C91.2073 49.8282 91.5054 50.1158 91.7016 50.4624V49.3562H92.743V55.4181H91.7016V54.2898C91.4978 54.6438 91.1922 54.9388 90.7847 55.1748C90.3847 55.4034 89.9168 55.5177 89.381 55.5177C88.8301 55.5177 88.332 55.385 87.8867 55.1195C87.4415 54.854 87.0906 54.4816 86.834 54.0022C86.5774 53.5229 86.4491 52.9771 86.4491 52.365ZM91.7016 52.3761C91.7016 51.9189 91.6072 51.5206 91.4186 51.1814C91.2299 50.8422 90.9733 50.5841 90.6488 50.4071C90.3319 50.2227 89.9809 50.1305 89.5961 50.1305C89.2112 50.1305 88.8603 50.219 88.5433 50.396C88.2263 50.573 87.9735 50.8311 87.7849 51.1703C87.5962 51.5096 87.5019 51.9078 87.5019 52.365C87.5019 52.8296 87.5962 53.2352 87.7849 53.5819C87.9735 53.9211 88.2263 54.1829 88.5433 54.3673C88.8603 54.5442 89.2112 54.6327 89.5961 54.6327C89.9809 54.6327 90.3319 54.5442 90.6488 54.3673C90.9733 54.1829 91.2299 53.9211 91.4186 53.5819C91.6072 53.2352 91.7016 52.8333 91.7016 52.3761Z" fill="#4A54F5"/>
<path d="M94.0989 52.3761C94.0989 51.7493 94.2272 51.2035 94.4838 50.7389C94.7404 50.267 95.0951 49.9019 95.5479 49.6438C96.0083 49.3857 96.5327 49.2566 97.1214 49.2566C97.8836 49.2566 98.51 49.4373 99.0005 49.7987C99.4986 50.16 99.8269 50.6615 99.9853 51.3031H98.876C98.7703 50.9344 98.5628 50.6431 98.2534 50.4292C97.9515 50.2153 97.5742 50.1084 97.1214 50.1084C96.5327 50.1084 96.0573 50.3075 95.6951 50.7057C95.3328 51.0966 95.1517 51.6534 95.1517 52.3761C95.1517 53.1062 95.3328 53.6704 95.6951 54.0686C96.0573 54.4668 96.5327 54.6659 97.1214 54.6659C97.5742 54.6659 97.9515 54.5627 98.2534 54.3562C98.5552 54.1497 98.7628 53.8547 98.876 53.4712H99.9853C99.8193 54.0907 99.4873 54.5885 98.9892 54.9646C98.4911 55.3333 97.8685 55.5177 97.1214 55.5177C96.5327 55.5177 96.0083 55.3886 95.5479 55.1305C95.0951 54.8724 94.7404 54.5074 94.4838 54.0354C94.2272 53.5634 94.0989 53.0103 94.0989 52.3761Z" fill="#4A54F5"/>
<path d="M104.824 55.4181L102.39 52.7411V55.4181H101.36V47.2323H102.39V52.0442L104.778 49.3562H106.216L103.296 52.3761L106.227 55.4181H104.824Z" fill="#4A54F5"/>
<path d="M112.705 55.4956C112.185 55.4956 111.717 55.4071 111.302 55.2301C110.894 55.0457 110.573 54.795 110.339 54.4779C110.105 54.1534 109.985 53.781 109.977 53.3606H111.075C111.113 53.722 111.264 54.028 111.528 54.2788C111.8 54.5221 112.192 54.6438 112.705 54.6438C113.196 54.6438 113.581 54.5258 113.86 54.2898C114.147 54.0465 114.29 53.7367 114.29 53.3606C114.29 53.0656 114.207 52.826 114.041 52.6416C113.875 52.4572 113.668 52.3171 113.418 52.2212C113.169 52.1254 112.834 52.0221 112.411 51.9115C111.89 51.7788 111.471 51.646 111.154 51.5133C110.845 51.3805 110.577 51.174 110.351 50.8938C110.132 50.6062 110.022 50.2227 110.022 49.7434C110.022 49.323 110.132 48.9506 110.351 48.6261C110.57 48.3016 110.875 48.0509 111.268 47.8739C111.668 47.6969 112.124 47.6084 112.637 47.6084C113.377 47.6084 113.981 47.7891 114.449 48.1504C114.924 48.5118 115.192 48.9911 115.252 49.5885H114.12C114.083 49.2935 113.924 49.0354 113.645 48.8142C113.366 48.5855 112.996 48.4712 112.536 48.4712C112.105 48.4712 111.754 48.5819 111.483 48.8031C111.211 49.017 111.075 49.3193 111.075 49.7102C111.075 49.9904 111.154 50.219 111.313 50.396C111.479 50.573 111.679 50.7094 111.913 50.8053C112.154 50.8938 112.49 50.997 112.92 51.115C113.441 51.2552 113.86 51.3953 114.177 51.5354C114.494 51.6681 114.766 51.8783 114.992 52.1659C115.218 52.4462 115.332 52.8296 115.332 53.3164C115.332 53.6925 115.23 54.0465 115.026 54.3783C114.822 54.7102 114.52 54.9793 114.12 55.1858C113.72 55.3923 113.249 55.4956 112.705 55.4956Z" fill="#4A54F5"/>
<path d="M124.307 49.2456C124.79 49.2456 125.22 49.3451 125.598 49.5442C125.975 49.736 126.273 50.0273 126.492 50.4181C126.711 50.809 126.82 51.2847 126.82 51.8451V55.4181H125.802V51.9889C125.802 51.3842 125.647 50.9233 125.337 50.6062C125.036 50.2817 124.624 50.1195 124.104 50.1195C123.568 50.1195 123.141 50.2891 122.824 50.6283C122.507 50.9602 122.349 51.4432 122.349 52.0774V55.4181H121.33V51.9889C121.33 51.3842 121.175 50.9233 120.866 50.6062C120.564 50.2817 120.153 50.1195 119.632 50.1195C119.096 50.1195 118.67 50.2891 118.353 50.6283C118.036 50.9602 117.878 51.4432 117.878 52.0774V55.4181H116.847V49.3562H117.878V50.2301C118.081 49.913 118.353 49.6696 118.693 49.5C119.04 49.3304 119.421 49.2456 119.836 49.2456C120.357 49.2456 120.817 49.3599 121.217 49.5885C121.617 49.8171 121.915 50.1526 122.111 50.5951C122.285 50.1674 122.572 49.8355 122.972 49.5996C123.372 49.3636 123.817 49.2456 124.307 49.2456Z" fill="#4A54F5"/>
<path d="M128.125 52.365C128.125 51.7456 128.254 51.2035 128.51 50.7389C128.767 50.267 129.118 49.9019 129.563 49.6438C130.016 49.3857 130.518 49.2566 131.068 49.2566C131.612 49.2566 132.084 49.3709 132.483 49.5996C132.883 49.8282 133.182 50.1158 133.378 50.4624V49.3562H134.419V55.4181H133.378V54.2898C133.174 54.6438 132.868 54.9388 132.461 55.1748C132.061 55.4034 131.593 55.5177 131.057 55.5177C130.506 55.5177 130.008 55.385 129.563 55.1195C129.118 54.854 128.767 54.4816 128.51 54.0022C128.254 53.5229 128.125 52.9771 128.125 52.365ZM133.378 52.3761C133.378 51.9189 133.283 51.5206 133.095 51.1814C132.906 50.8422 132.65 50.5841 132.325 50.4071C132.008 50.2227 131.657 50.1305 131.272 50.1305C130.887 50.1305 130.536 50.219 130.219 50.396C129.903 50.573 129.65 50.8311 129.461 51.1703C129.272 51.5096 129.178 51.9078 129.178 52.365C129.178 52.8296 129.272 53.2352 129.461 53.5819C129.65 53.9211 129.903 54.1829 130.219 54.3673C130.536 54.5442 130.887 54.6327 131.272 54.6327C131.657 54.6327 132.008 54.5442 132.325 54.3673C132.65 54.1829 132.906 53.9211 133.095 53.5819C133.283 53.2352 133.378 52.8333 133.378 52.3761Z" fill="#4A54F5"/>
<path d="M137.19 50.3407C137.371 49.9941 137.628 49.7249 137.96 49.5332C138.299 49.3414 138.711 49.2456 139.194 49.2456V50.2854H138.922C137.767 50.2854 137.19 50.8975 137.19 52.1217V55.4181H136.16V49.3562H137.19V50.3407Z" fill="#4A54F5"/>
<path d="M141.639 50.1858V53.7588C141.639 54.0538 141.704 54.264 141.832 54.3894C141.96 54.5074 142.183 54.5664 142.5 54.5664H143.258V55.4181H142.33C141.756 55.4181 141.326 55.2891 141.039 55.031C140.753 54.7729 140.609 54.3488 140.609 53.7588V50.1858H139.806V49.3562H140.609V47.8296H141.639V49.3562H143.258V50.1858H141.639Z" fill="#4A54F5"/>
<path d="M150.166 52.1549C150.166 52.3466 150.155 52.5494 150.132 52.7633H145.174C145.212 53.3606 145.419 53.8289 145.797 54.1681C146.182 54.5 146.646 54.6659 147.189 54.6659C147.634 54.6659 148.004 54.5664 148.298 54.3673C148.6 54.1608 148.812 53.8879 148.932 53.5487H150.042C149.876 54.1313 149.544 54.6069 149.046 54.9757C148.548 55.337 147.929 55.5177 147.189 55.5177C146.601 55.5177 146.072 55.3886 145.604 55.1305C145.144 54.8724 144.782 54.5074 144.518 54.0354C144.253 53.556 144.121 53.0029 144.121 52.3761C144.121 51.7493 144.25 51.1998 144.506 50.7279C144.763 50.2559 145.121 49.8945 145.582 49.6438C146.05 49.3857 146.585 49.2566 147.189 49.2566C147.778 49.2566 148.298 49.382 148.751 49.6327C149.204 49.8835 149.551 50.2301 149.793 50.6726C150.042 51.1077 150.166 51.6018 150.166 52.1549ZM149.102 51.9447C149.102 51.5612 149.015 51.233 148.842 50.9602C148.668 50.6799 148.431 50.4698 148.129 50.3296C147.834 50.1822 147.506 50.1084 147.144 50.1084C146.623 50.1084 146.178 50.2706 145.808 50.5951C145.446 50.9196 145.238 51.3695 145.186 51.9447H149.102Z" fill="#4A54F5"/>
<path d="M152.556 50.3407C152.737 49.9941 152.994 49.7249 153.326 49.5332C153.666 49.3414 154.077 49.2456 154.56 49.2456V50.2854H154.288C153.133 50.2854 152.556 50.8975 152.556 52.1217V55.4181H151.526V49.3562H152.556V50.3407Z" fill="#4A54F5"/>
<path d="M156.813 54.0243L155.545 57H154.855L155.681 54.0243H156.813Z" fill="#4A54F5"/>
<path d="M165.675 53.7035H162.234L161.6 55.4181H160.513L163.366 47.7522H164.554L167.395 55.4181H166.309L165.675 53.7035ZM165.38 52.885L163.954 48.9911L162.528 52.885H165.38Z" fill="#4A54F5"/>
<path d="M168.254 52.365C168.254 51.7456 168.382 51.2035 168.639 50.7389C168.895 50.267 169.246 49.9019 169.691 49.6438C170.144 49.3857 170.65 49.2566 171.208 49.2566C171.691 49.2566 172.14 49.3673 172.555 49.5885C172.97 49.8024 173.287 50.0863 173.506 50.4403V47.2323H174.548V55.4181H173.506V54.2788C173.303 54.6401 173.001 54.9388 172.601 55.1748C172.201 55.4034 171.733 55.5177 171.197 55.5177C170.646 55.5177 170.144 55.385 169.691 55.1195C169.246 54.854 168.895 54.4816 168.639 54.0022C168.382 53.5229 168.254 52.9771 168.254 52.365ZM173.506 52.3761C173.506 51.9189 173.412 51.5206 173.223 51.1814C173.035 50.8422 172.778 50.5841 172.454 50.4071C172.137 50.2227 171.786 50.1305 171.401 50.1305C171.016 50.1305 170.665 50.219 170.348 50.396C170.031 50.573 169.778 50.8311 169.59 51.1703C169.401 51.5096 169.307 51.9078 169.307 52.365C169.307 52.8296 169.401 53.2352 169.59 53.5819C169.778 53.9211 170.031 54.1829 170.348 54.3673C170.665 54.5442 171.016 54.6327 171.401 54.6327C171.786 54.6327 172.137 54.5442 172.454 54.3673C172.778 54.1829 173.035 53.9211 173.223 53.5819C173.412 53.2352 173.506 52.8333 173.506 52.3761Z" fill="#4A54F5"/>
<path d="M178.598 54.4889L180.522 49.3562H181.62L179.186 55.4181H177.987L175.553 49.3562H176.662L178.598 54.4889Z" fill="#4A54F5"/>
<path d="M188.294 52.1549C188.294 52.3466 188.283 52.5494 188.26 52.7633H183.302C183.34 53.3606 183.547 53.8289 183.924 54.1681C184.309 54.5 184.773 54.6659 185.317 54.6659C185.762 54.6659 186.132 54.5664 186.426 54.3673C186.728 54.1608 186.939 53.8879 187.06 53.5487H188.169C188.003 54.1313 187.671 54.6069 187.173 54.9757C186.675 55.337 186.056 55.5177 185.317 55.5177C184.728 55.5177 184.2 55.3886 183.732 55.1305C183.272 54.8724 182.909 54.5074 182.645 54.0354C182.381 53.556 182.249 53.0029 182.249 52.3761C182.249 51.7493 182.377 51.1998 182.634 50.7279C182.891 50.2559 183.249 49.8945 183.709 49.6438C184.177 49.3857 184.713 49.2566 185.317 49.2566C185.905 49.2566 186.426 49.382 186.879 49.6327C187.332 49.8835 187.679 50.2301 187.92 50.6726C188.169 51.1077 188.294 51.6018 188.294 52.1549ZM187.23 51.9447C187.23 51.5612 187.143 51.233 186.969 50.9602C186.796 50.6799 186.558 50.4698 186.256 50.3296C185.962 50.1822 185.634 50.1084 185.271 50.1084C184.751 50.1084 184.306 50.2706 183.936 50.5951C183.573 50.9196 183.366 51.3695 183.313 51.9447H187.23Z" fill="#4A54F5"/>
<path d="M190.684 50.3407C190.865 49.9941 191.121 49.7249 191.454 49.5332C191.793 49.3414 192.204 49.2456 192.687 49.2456V50.2854H192.416C191.261 50.2854 190.684 50.8975 190.684 52.1217V55.4181H189.654V49.3562H190.684V50.3407Z" fill="#4A54F5"/>
<path d="M195.133 50.1858V53.7588C195.133 54.0538 195.197 54.264 195.326 54.3894C195.454 54.5074 195.676 54.5664 195.993 54.5664H196.752V55.4181H195.824C195.25 55.4181 194.82 55.2891 194.533 55.031C194.246 54.7729 194.103 54.3488 194.103 53.7588V50.1858H193.299V49.3562H194.103V47.8296H195.133V49.3562H196.752V50.1858H195.133Z" fill="#4A54F5"/>
<path d="M198.532 48.3717C198.336 48.3717 198.17 48.3053 198.034 48.1726C197.898 48.0398 197.83 47.8776 197.83 47.6858C197.83 47.4941 197.898 47.3319 198.034 47.1991C198.17 47.0664 198.336 47 198.532 47C198.721 47 198.879 47.0664 199.007 47.1991C199.143 47.3319 199.211 47.4941 199.211 47.6858C199.211 47.8776 199.143 48.0398 199.007 48.1726C198.879 48.3053 198.721 48.3717 198.532 48.3717ZM199.03 49.3562V55.4181H198V49.3562H199.03Z" fill="#4A54F5"/>
<path d="M202.982 55.5177C202.506 55.5177 202.08 55.4403 201.703 55.2854C201.325 55.1232 201.027 54.9019 200.808 54.6217C200.59 54.3341 200.469 54.0059 200.446 53.6372H201.51C201.54 53.9395 201.684 54.1866 201.94 54.3783C202.205 54.5701 202.548 54.6659 202.97 54.6659C203.363 54.6659 203.672 54.5811 203.899 54.4115C204.125 54.2419 204.238 54.028 204.238 53.7699C204.238 53.5044 204.118 53.309 203.876 53.1836C203.635 53.0509 203.261 52.9218 202.755 52.7965C202.295 52.6785 201.918 52.5605 201.623 52.4425C201.337 52.3171 201.088 52.1364 200.876 51.9004C200.673 51.6571 200.571 51.34 200.571 50.9491C200.571 50.6394 200.665 50.3555 200.854 50.0973C201.042 49.8392 201.31 49.6364 201.657 49.4889C202.005 49.3341 202.401 49.2566 202.846 49.2566C203.533 49.2566 204.087 49.4263 204.51 49.7655C204.933 50.1047 205.159 50.5693 205.189 51.1593H204.159C204.136 50.8422 204.004 50.5878 203.763 50.396C203.529 50.2043 203.212 50.1084 202.812 50.1084C202.442 50.1084 202.148 50.1858 201.929 50.3407C201.71 50.4956 201.601 50.6984 201.601 50.9491C201.601 51.1482 201.665 51.3142 201.793 51.4469C201.929 51.5723 202.095 51.6755 202.291 51.7566C202.495 51.8304 202.774 51.9152 203.129 52.0111C203.574 52.1291 203.936 52.247 204.216 52.365C204.495 52.4757 204.733 52.6453 204.929 52.8739C205.133 53.1025 205.238 53.4012 205.246 53.7699C205.246 54.1018 205.151 54.4004 204.963 54.6659C204.774 54.9314 204.506 55.1416 204.159 55.2965C203.819 55.4439 203.427 55.5177 202.982 55.5177Z" fill="#4A54F5"/>
<path d="M212.36 52.1549C212.36 52.3466 212.349 52.5494 212.326 52.7633H207.368C207.406 53.3606 207.613 53.8289 207.99 54.1681C208.375 54.5 208.839 54.6659 209.383 54.6659C209.828 54.6659 210.198 54.5664 210.492 54.3673C210.794 54.1608 211.005 53.8879 211.126 53.5487H212.235C212.069 54.1313 211.737 54.6069 211.239 54.9757C210.741 55.337 210.122 55.5177 209.383 55.5177C208.794 55.5177 208.266 55.3886 207.798 55.1305C207.338 54.8724 206.975 54.5074 206.711 54.0354C206.447 53.556 206.315 53.0029 206.315 52.3761C206.315 51.7493 206.443 51.1998 206.7 50.7279C206.957 50.2559 207.315 49.8945 207.775 49.6438C208.243 49.3857 208.779 49.2566 209.383 49.2566C209.971 49.2566 210.492 49.382 210.945 49.6327C211.398 49.8835 211.745 50.2301 211.986 50.6726C212.235 51.1077 212.36 51.6018 212.36 52.1549ZM211.296 51.9447C211.296 51.5612 211.209 51.233 211.036 50.9602C210.862 50.6799 210.624 50.4698 210.322 50.3296C210.028 50.1822 209.7 50.1084 209.338 50.1084C208.817 50.1084 208.372 50.2706 208.002 50.5951C207.64 50.9196 207.432 51.3695 207.379 51.9447H211.296Z" fill="#4A54F5"/>
<path d="M220.688 51.4469C220.975 51.4911 221.235 51.6055 221.469 51.7898C221.711 51.9742 221.9 52.2028 222.035 52.4757C222.179 52.7485 222.25 53.0398 222.25 53.3496C222.25 53.7404 222.149 54.0944 221.945 54.4115C221.741 54.7212 221.443 54.9683 221.051 55.1527C220.666 55.3296 220.209 55.4181 219.681 55.4181H216.738V47.708H219.568C220.103 47.708 220.56 47.7965 220.937 47.9734C221.315 48.1431 221.598 48.3754 221.786 48.6703C221.975 48.9653 222.069 49.2972 222.069 49.6659C222.069 50.1232 221.941 50.5029 221.684 50.8053C221.435 51.1003 221.103 51.3142 220.688 51.4469ZM217.768 51.0376H219.5C219.983 51.0376 220.356 50.927 220.62 50.7057C220.885 50.4845 221.017 50.1785 221.017 49.7876C221.017 49.3967 220.885 49.0907 220.62 48.8695C220.356 48.6482 219.975 48.5376 219.477 48.5376H217.768V51.0376ZM219.59 54.5885C220.103 54.5885 220.503 54.4705 220.79 54.2345C221.077 53.9985 221.22 53.6704 221.22 53.25C221.22 52.8223 221.069 52.4867 220.768 52.2434C220.466 51.9926 220.062 51.8673 219.556 51.8673H217.768V54.5885H219.59Z" fill="#4A54F5"/>
<path d="M229.34 52.1549C229.34 52.3466 229.329 52.5494 229.306 52.7633H224.348C224.386 53.3606 224.593 53.8289 224.97 54.1681C225.355 54.5 225.819 54.6659 226.363 54.6659C226.808 54.6659 227.178 54.5664 227.472 54.3673C227.774 54.1608 227.985 53.8879 228.106 53.5487H229.215C229.049 54.1313 228.717 54.6069 228.219 54.9757C227.721 55.337 227.102 55.5177 226.363 55.5177C225.774 55.5177 225.246 55.3886 224.778 55.1305C224.318 54.8724 223.955 54.5074 223.691 54.0354C223.427 53.556 223.295 53.0029 223.295 52.3761C223.295 51.7493 223.423 51.1998 223.68 50.7279C223.937 50.2559 224.295 49.8945 224.755 49.6438C225.223 49.3857 225.759 49.2566 226.363 49.2566C226.951 49.2566 227.472 49.382 227.925 49.6327C228.378 49.8835 228.725 50.2301 228.966 50.6726C229.215 51.1077 229.34 51.6018 229.34 52.1549ZM228.276 51.9447C228.276 51.5612 228.189 51.233 228.016 50.9602C227.842 50.6799 227.604 50.4698 227.302 50.3296C227.008 50.1822 226.68 50.1084 226.318 50.1084C225.797 50.1084 225.352 50.2706 224.982 50.5951C224.62 50.9196 224.412 51.3695 224.359 51.9447H228.276Z" fill="#4A54F5"/>
<path d="M231.956 50.1858V53.7588C231.956 54.0538 232.02 54.264 232.149 54.3894C232.277 54.5074 232.5 54.5664 232.817 54.5664H233.575V55.4181H232.647C232.073 55.4181 231.643 55.2891 231.356 55.031C231.07 54.7729 230.926 54.3488 230.926 53.7588V50.1858H230.122V49.3562H230.926V47.8296H231.956V49.3562H233.575V50.1858H231.956Z" fill="#4A54F5"/>
<path d="M236.08 50.1858V53.7588C236.08 54.0538 236.144 54.264 236.272 54.3894C236.4 54.5074 236.623 54.5664 236.94 54.5664H237.698V55.4181H236.77C236.197 55.4181 235.766 55.2891 235.48 55.031C235.193 54.7729 235.05 54.3488 235.05 53.7588V50.1858H234.246V49.3562H235.05V47.8296H236.08V49.3562H237.698V50.1858H236.08Z" fill="#4A54F5"/>
<path d="M244.607 52.1549C244.607 52.3466 244.595 52.5494 244.573 52.7633H239.614C239.652 53.3606 239.86 53.8289 240.237 54.1681C240.622 54.5 241.086 54.6659 241.629 54.6659C242.075 54.6659 242.444 54.5664 242.739 54.3673C243.041 54.1608 243.252 53.8879 243.373 53.5487H244.482C244.316 54.1313 243.984 54.6069 243.486 54.9757C242.988 55.337 242.369 55.5177 241.629 55.5177C241.041 55.5177 240.512 55.3886 240.045 55.1305C239.584 54.8724 239.222 54.5074 238.958 54.0354C238.694 53.556 238.562 53.0029 238.562 52.3761C238.562 51.7493 238.69 51.1998 238.947 50.7279C239.203 50.2559 239.562 49.8945 240.022 49.6438C240.49 49.3857 241.026 49.2566 241.629 49.2566C242.218 49.2566 242.739 49.382 243.192 49.6327C243.644 49.8835 243.991 50.2301 244.233 50.6726C244.482 51.1077 244.607 51.6018 244.607 52.1549ZM243.542 51.9447C243.542 51.5612 243.456 51.233 243.282 50.9602C243.109 50.6799 242.871 50.4698 242.569 50.3296C242.275 50.1822 241.946 50.1084 241.584 50.1084C241.063 50.1084 240.618 50.2706 240.248 50.5951C239.886 50.9196 239.679 51.3695 239.626 51.9447H243.542Z" fill="#4A54F5"/>
<path d="M246.996 50.3407C247.177 49.9941 247.434 49.7249 247.766 49.5332C248.106 49.3414 248.517 49.2456 249 49.2456V50.2854H248.728C247.574 50.2854 246.996 50.8975 246.996 52.1217V55.4181H245.966V49.3562H246.996V50.3407Z" fill="#4A54F5"/>
</svg>
