<svg width="20" height="20" viewBox="0 0 20 20" fill="none" xmlns="http://www.w3.org/2000/svg">
<path d="M7.67326 3.05045C7.97283 1.65443 9.36638 0.761576 10.7858 1.05621L17.9151 2.53603C19.3346 2.83066 20.2424 4.20121 19.9428 5.59723L18.4382 12.6089C18.1386 14.0049 16.7451 14.8977 15.3256 14.6031L8.19631 13.1233C6.77686 12.8286 5.86902 11.4581 6.1686 10.0621L7.67326 3.05045Z" fill="#DCDCDC"/>
<path d="M0.116966 5.9306C0.138455 4.14726 1.62582 2.71871 3.43909 2.73985L13.2887 2.85465C15.102 2.87579 16.5545 4.3386 16.533 6.12194L16.4163 15.809C16.3948 17.5924 14.9075 19.0209 13.0942 18.9998L3.24454 18.885C1.43127 18.8638 -0.021254 17.401 0.000235402 15.6177L0.116966 5.9306Z" fill="#B6B6B6"/>
<path d="M9.86966 7.07082L7.66444 14.3347C7.5784 14.6103 7.29522 14.7697 7.01498 14.6851C6.73475 14.6005 6.57266 14.322 6.6587 14.0464L8.86392 6.78249C8.94997 6.50688 9.23314 6.34746 9.51338 6.43209C9.79362 6.51671 9.95571 6.79521 9.86966 7.07082ZM11.5742 8.40867L13.4049 10.2524C13.6176 10.4501 13.6135 10.7918 13.3961 10.9845L11.5214 12.7851C11.3204 12.9942 10.973 12.9902 10.777 12.7764C10.5643 12.5786 10.5685 12.237 10.7859 12.0443L12.2757 10.5972L10.8209 9.13211C10.6083 8.93437 10.6124 8.59272 10.8298 8.4C11.0308 8.19081 11.3782 8.19486 11.5742 8.40867ZM5.74251 9.07291L4.25281 10.5037L5.70742 11.9851C5.92011 12.1828 5.916 12.5245 5.6986 12.7172C5.49754 12.9264 5.15016 12.9223 4.9542 12.7085L3.12344 10.8648C2.91074 10.667 2.91486 10.3254 3.13226 10.1327L5.00693 8.33213C5.20799 8.12294 5.55537 8.12699 5.75133 8.3408C5.96403 8.53854 5.95991 8.88019 5.74251 9.07291Z" fill="white"/>
</svg>
