<svg width="320" height="56" viewBox="0 0 320 56" fill="none" xmlns="http://www.w3.org/2000/svg">
<g clip-path="url(#clip0_5_8)">
<path d="M23.3696 6.34961C24.2819 2.02656 28.5261 -0.738326 32.8491 0.174063L54.562 4.75661C58.8851 5.669 61.65 9.91316 60.7376 14.2362L56.155 35.9491C55.2426 40.2721 50.9985 43.037 46.6754 42.1246L24.9625 37.5421C20.6395 36.6297 17.8746 32.3855 18.787 28.0625L23.3696 6.34961Z" fill="#D1D4FC"/>
<path d="M0.356228 15.2686C0.421676 9.74611 4.95157 5.32233 10.474 5.38778L40.4719 5.74329C45.9944 5.80874 50.4182 10.3386 50.3527 15.8611L49.9972 45.859C49.9318 51.3814 45.4019 55.8052 39.8794 55.7398L9.88151 55.3843C4.35905 55.3188 -0.0647309 50.7889 0.000716934 45.2665L0.356228 15.2686Z" fill="#4A54F5"/>
<path d="M30.0589 18.7995L23.3427 41.2935C23.0807 42.147 22.2182 42.6406 21.3647 42.3786C20.5113 42.1165 20.0176 41.2541 20.2797 40.4006L26.9958 17.9066C27.2579 17.0531 28.1203 16.5595 28.9738 16.8215C29.8273 17.0836 30.3209 17.946 30.0589 18.7995ZM35.2501 22.9424L40.8258 28.6519C41.4736 29.2642 41.4611 30.3222 40.799 30.919L35.0895 36.4947C34.4772 37.1425 33.4192 37.13 32.8224 36.4679C32.1746 35.8555 32.1871 34.7975 32.8492 34.2007L37.3868 29.7196L32.9561 25.1826C32.3083 24.5703 32.3209 23.5123 32.983 22.9155C33.5953 22.2677 34.6533 22.2803 35.2501 22.9424ZM17.4893 24.9993L12.9523 29.4301L17.3824 34.0174C18.0302 34.6298 18.0177 35.6878 17.3556 36.2846C16.7432 36.9323 15.6853 36.9198 15.0885 36.2577L9.51272 30.5482C8.86494 29.9359 8.87748 28.8779 9.53959 28.2811L15.2491 22.7054C15.8614 22.0576 16.9194 22.0701 17.5162 22.7322C18.164 23.3446 18.1514 24.4025 17.4893 24.9993Z" fill="white"/>
<path d="M95.267 7.61294H106.584V38.0838C106.584 41.6053 105.752 44.6731 104.087 47.2873C102.422 49.8861 100.101 51.9006 97.1226 53.3307C94.1444 54.7455 90.6851 55.4528 86.7447 55.4528C82.7584 55.4528 79.2762 54.7455 76.298 53.3307C73.3197 51.9006 71.0059 49.8861 69.3564 47.2873C67.7069 44.6731 66.8822 41.6053 66.8822 38.0838V7.61294H78.2224V37.0919C78.2224 38.7219 78.5736 40.1751 79.2762 41.4515C79.994 42.7278 80.9944 43.7274 82.2773 44.4501C83.5602 45.1729 85.0494 45.5342 86.7447 45.5342C88.44 45.5342 89.9214 45.1729 91.1891 44.4501C92.472 43.7274 93.4724 42.7278 94.1902 41.4515C94.908 40.1751 95.267 38.7219 95.267 37.0919V7.61294Z" fill="#4A54F5"/>
<path d="M124.895 34.6469V54.8531H113.692V19.423H124.345V25.9277H124.734C125.513 23.7595 126.842 22.0603 128.72 20.83C130.599 19.5844 132.836 18.9617 135.433 18.9617C137.907 18.9617 140.053 19.5229 141.87 20.6455C143.703 21.7527 145.124 23.3058 146.132 25.3049C147.155 27.2887 147.659 29.6107 147.644 32.271V54.8531H136.441V34.4854C136.456 32.5171 135.96 30.9793 134.952 29.8721C133.959 28.7649 132.577 28.2113 130.805 28.2113C129.629 28.2113 128.591 28.4727 127.689 28.9956C126.804 29.503 126.116 30.2335 125.628 31.1869C125.154 32.1403 124.91 33.2936 124.895 34.6469Z" fill="#4A54F5"/>
<path d="M154.579 54.8531V19.423H165.782V54.8531H154.579ZM160.192 15.2941C158.619 15.2941 157.267 14.7712 156.137 13.7256C155.007 12.6645 154.442 11.3882 154.442 9.89653C154.442 8.42027 155.007 7.1593 156.137 6.11362C157.267 5.05256 158.619 4.52203 160.192 4.52203C161.781 4.52203 163.132 5.05256 164.247 6.11362C165.377 7.1593 165.942 8.42027 165.942 9.89653C165.942 11.3882 165.377 12.6645 164.247 13.7256C163.132 14.7712 161.781 15.2941 160.192 15.2941Z" fill="#4A54F5"/>
<path d="M172.913 54.8531V7.61294H192.294C195.807 7.61294 198.838 8.30494 201.389 9.68893C203.955 11.0575 205.933 12.9721 207.323 15.4325C208.712 17.8775 209.407 20.7224 209.407 23.9671C209.407 27.2271 208.697 30.0797 207.277 32.5247C205.872 34.9544 203.863 36.8382 201.252 38.176C198.64 39.5139 195.54 40.1828 191.95 40.1828H179.992V31.1869H189.843C191.553 31.1869 192.981 30.887 194.127 30.2873C195.288 29.6876 196.166 28.8495 196.761 27.773C197.357 26.6812 197.655 25.4126 197.655 23.9671C197.655 22.5062 197.357 21.2452 196.761 20.1842C196.166 19.1077 195.288 18.2773 194.127 17.693C192.966 17.1086 191.538 16.8165 189.843 16.8165H184.253V54.8531H172.913Z" fill="#4A54F5"/>
<path d="M214.997 54.8531V19.423H226.2V54.8531H214.997ZM220.61 15.2941C219.037 15.2941 217.685 14.7712 216.555 13.7256C215.425 12.6645 214.86 11.3882 214.86 9.89653C214.86 8.42027 215.425 7.1593 216.555 6.11362C217.685 5.05256 219.037 4.52203 220.61 4.52203C222.198 4.52203 223.55 5.05256 224.665 6.11362C225.795 7.1593 226.36 8.42027 226.36 9.89653C226.36 11.3882 225.795 12.6645 224.665 13.7256C223.55 14.7712 222.198 15.2941 220.61 15.2941Z" fill="#4A54F5"/>
<path d="M242.861 19.423L248.657 31.0946L254.659 19.423H265.953L256.125 37.138L266.32 54.8531H255.117L248.657 43.0892L242.357 54.8531H230.994L241.211 37.138L231.498 19.423H242.861Z" fill="#4A54F5"/>
<path d="M286.257 55.522C282.576 55.522 279.399 54.7916 276.727 53.3307C274.069 51.8545 272.023 49.7554 270.587 47.0336C269.167 44.2963 268.456 41.044 268.456 37.2764C268.456 33.6166 269.174 30.418 270.61 27.6808C272.045 24.9282 274.069 22.7907 276.681 21.2683C279.292 19.7305 282.37 18.9617 285.913 18.9617C288.418 18.9617 290.709 19.3538 292.786 20.138C294.863 20.9223 296.658 22.0833 298.17 23.6211C299.682 25.1588 300.858 27.058 301.698 29.3185C302.538 31.5636 302.958 34.1394 302.958 37.0458V39.8599H272.374V33.309H292.534C292.519 32.1095 292.236 31.0408 291.686 30.1028C291.137 29.1647 290.381 28.4343 289.418 27.9114C288.472 27.3732 287.38 27.1041 286.142 27.1041C284.89 27.1041 283.767 27.3886 282.775 27.9576C281.782 28.5112 280.995 29.2724 280.415 30.2412C279.835 31.1946 279.529 32.2787 279.499 33.4935V40.1598C279.499 41.6053 279.781 42.8739 280.346 43.9657C280.911 45.0422 281.713 45.8802 282.752 46.48C283.79 47.0797 285.027 47.3796 286.463 47.3796C287.456 47.3796 288.357 47.2412 289.166 46.9644C289.976 46.6876 290.671 46.2801 291.251 45.7418C291.832 45.2036 292.267 44.5424 292.557 43.7581L302.843 44.058C302.416 46.38 301.476 48.4022 300.025 50.1245C298.59 51.8314 296.704 53.1616 294.367 54.115C292.03 55.053 289.327 55.522 286.257 55.522Z" fill="#4A54F5"/>
<path d="M319.882 7.61294V54.8531H308.68V7.61294H319.882Z" fill="#4A54F5"/>
</g>
<defs>
<clipPath id="clip0_5_8">
<rect width="320" height="56" fill="white"/>
</clipPath>
</defs>
</svg>
